<?xml version="1.0" encoding="UTF-8" standalone="no" ?>
<COLLADA xmlns="http://www.collada.org/2005/11/COLLADASchema" version="1.4.1">
  <asset>
    <contributor>
      <author>Assimp</author>
      <authoring_tool>Assimp Exporter</authoring_tool>
    </contributor>
    <created>2026-09-22T21:57:54</created>
    <modified>2026-09-22T21:57:54</modified>
    <unit name="meter" meter="1" />
    <up_axis>Z_UP</up_axis>
  </asset>
  <library_images>
  </library_images>
  <library_effects>
    <effect id="DefaultMaterial-fx" name="DefaultMaterial">
      <profile_COMMON>
        <technique sid="standard">
          <phong>
            <ambient>
              <color sid="ambient">0.0500000007   0.0500000007   0.0500000007   1</color>
            </ambient>
            <diffuse>
              <color sid="diffuse">1   1   1   1</color>
            </diffuse>
            <specular>
              <color sid="specular">1   1   1   1</color>
            </specular>
          </phong>
        </technique>
      </profile_COMMON>
    </effect>
  </library_effects>
  <library_materials>
    <material id="DefaultMaterial" name="DefaultMaterial">
      <instance_effect url="#DefaultMaterial-fx"/>
    </material>
  </library_materials>
  <library_geometries>
    <geometry id="mesh_0" name="" >
      <mesh>
        <source id="mesh_0-positions" name="mesh_0-positions">
          <float_array id="mesh_0-positions-array" count="1476"> 3.35368426e-08 -0.0879999995 -0.0092000477 -0.00923876837 -0.0879999995 -0.00537315058 -0.00707106665 -0.0879999995 -0.00212894776 -0.00707106665 -0.0879999995 -0.00212894776 -0.00382686779 -0.0879999995 3.87501605e-05 3.35368426e-08 -0.0879999995 -0.0092000477 -0.00382686779 -0.0879999995 3.87501605e-05 3.35368426e-08 -0.0879999995 0.000799949921 3.35368426e-08 -0.0879999995 -0.0092000477 3.35368426e-08 -0.0879999995 0.000799949921 0.00382683426 -0.0879999995 3.87501605e-05 3.35368426e-08 -0.0879999995 -0.0092000477 0.00382683426 -0.0879999995 3.87501605e-05 0.00707103685 -0.0879999995 -0.00212894776 3.35368426e-08 -0.0879999995 -0.0092000477 0.00707103685 -0.0879999995 -0.00212894776 0.00923883542 -0.0879999995 -0.00537315058 3.35368426e-08 -0.0879999995 -0.0092000477 0.00923883542 -0.0879999995 -0.00537315058 0.0100000314 -0.0879999995 -0.0092000477 3.35368426e-08 -0.0879999995 -0.0092000477 0.0100000314 -0.0879999995 -0.0092000477 0.00923883542 -0.0879999995 -0.0130268484 3.35368426e-08 -0.0879999995 -0.0092000477 0.00923883542 -0.0879999995 -0.0130268484 0.00707103685 -0.0879999995 -0.0162710492 3.35368426e-08 -0.0879999995 -0.0092000477 0.00707103685 -0.0879999995 -0.0162710492 0.00382683426 -0.0879999995 -0.018438749 3.35368426e-08 -0.0879999995 -0.0092000477 0.00382683426 -0.0879999995 -0.018438749 3.35368426e-08 -0.0879999995 -0.0192000493 3.35368426e-08 -0.0879999995 -0.0092000477 3.35368426e-08 -0.0879999995 -0.0192000493 -0.00382686779 -0.0879999995 -0.018438749 3.35368426e-08 -0.0879999995 -0.0092000477 -0.00382686779 -0.0879999995 -0.018438749 -0.00707106665 -0.0879999995 -0.0162710492 3.35368426e-08 -0.0879999995 -0.0092000477 -0.00707106665 -0.0879999995 -0.0162710492 -0.00923876837 -0.0879999995 -0.0130268484 3.35368426e-08 -0.0879999995 -0.0092000477 -0.00923876837 -0.0879999995 -0.0130268484 -0.00999996811 -0.0879999995 -0.0092000477 3.35368426e-08 -0.0879999995 -0.0092000477 -0.00999996811 -0.0879999995 -0.0092000477 -0.00923876837 -0.0879999995 -0.00537315058 3.35368426e-08 -0.0879999995 -0.0092000477 -0.00999996811 -0.374199718 -0.0092000477 -0.00999996811 -0.0879999995 -0.0092000477 -0.00923876837 -0.0879999995 -0.0130268484 -0.00923876837 -0.374199718 -0.0130268484 -0.00923876837 -0.0879999995 -0.0130268484 -0.00707106665 -0.0879999995 -0.0162710492 -0.00707106665 -0.374199718 -0.0162710492 -0.00707106665 -0.0879999995 -0.0162710492 -0.00382686779 -0.0879999995 -0.018438749 0.00382683426 -0.374199718 -0.018438749 0.00382683426 -0.0879999995 -0.018438749 0.00707103685 -0.0879999995 -0.0162710492 0.00707103685 -0.374199718 -0.0162710492 0.00707103685 -0.0879999995 -0.0162710492 0.00923883542 -0.0879999995 -0.0130268484 0.00923883542 -0.374199718 -0.0130268484 0.00923883542 -0.0879999995 -0.0130268484 0.0100000314 -0.0879999995 -0.0092000477 0.0100000314 -0.374199718 -0.0092000477 0.0100000314 -0.0879999995 -0.0092000477 0.00923883542 -0.0879999995 -0.00537315058 0.00923883542 -0.374199718 -0.00537315058 0.00923883542 -0.0879999995 -0.00537315058 0.00707103685 -0.0879999995 -0.00212894776 0.00707103685 -0.374199718 -0.00212894776 0.00707103685 -0.0879999995 -0.00212894776 0.00382683426 -0.0879999995 3.87501605e-05 -0.00382686779 -0.374199718 3.87501605e-05 -0.00382686779 -0.0879999995 3.87501605e-05 -0.00707106665 -0.0879999995 -0.00212894776 -0.00707106665 -0.374199718 -0.00212894776 -0.00707106665 -0.0879999995 -0.00212894776 -0.00923876837 -0.0879999995 -0.00537315058 -0.00923876837 -0.374199718 -0.00537315058 -0.00923876837 -0.0879999995 -0.00537315058 -0.00999996811 -0.0879999995 -0.0092000477 0.00382683426 -0.374199718 3.87501605e-05 0.00120543316 -0.367909729 0.000727049715 0.000614032149 -0.368089736 0.000781152106 0.000614032149 -0.368089736 0.000781152106 3.35368426e-08 -0.374199718 0.000799949921 0.00382683426 -0.374199718 3.87501605e-05 0.00382683426 -0.374199718 3.87501605e-05 0.00222743303 -0.367227733 0.000548749871 0.00120543316 -0.367909729 0.000727049715 0.00382683426 -0.374199718 3.87501605e-05 0.0031500347 -0.364999741 0.000290952303 0.00308943167 -0.365614742 0.000310752221 0.00382683426 -0.0879999995 3.87501605e-05 0.00308853388 -0.364380717 0.000311050244 0.0031500347 -0.364999741 0.000290952303 0.00382683426 -0.0879999995 3.87501605e-05 0.00291023403 -0.363794714 0.000367149391 0.00308853388 -0.364380717 0.000311050244 0.00382683426 -0.0879999995 3.87501605e-05 0.00222743303 -0.362772733 0.000548749871 0.00291023403 -0.363794714 0.000367149391 0.0031500347 -0.364999741 0.000290952303 0.00382683426 -0.374199718 3.87501605e-05 0.00382683426 -0.0879999995 3.87501605e-05 0.00308943167 -0.365614742 0.000310752221 0.00291023403 -0.366205722 0.000367149391 0.00382683426 -0.374199718 3.87501605e-05 0.00382683426 -0.0879999995 3.87501605e-05 3.35368426e-08 -0.0879999995 0.000799949921 3.35368426e-08 -0.361849725 0.000799949921 3.35368426e-08 -0.361849725 0.000799949921 0.000616833568 -0.361910731 0.000780950941 0.00382683426 -0.0879999995 3.87501605e-05 0.000616833568 -0.361910731 0.000780950941 0.00120543316 -0.362089723 0.000727049715 0.00382683426 -0.0879999995 3.87501605e-05 0.00120543316 -0.362089723 0.000727049715 0.00222743303 -0.362772733 0.000548749871 0.00382683426 -0.0879999995 3.87501605e-05 0.00291023403 -0.366205722 0.000367149391 0.00222743303 -0.367227733 0.000548749871 0.00382683426 -0.374199718 3.87501605e-05 3.35368426e-08 -0.0879999995 0.000799949921 -0.00120546669 -0.362089723 0.000727049715 -0.000614065677 -0.361910731 0.000781152106 -0.00382686779 -0.0879999995 3.87501605e-05 -0.00222736597 -0.362772733 0.000548749871 -0.00120546669 -0.362089723 0.000727049715 -0.00120546669 -0.362089723 0.000727049715 3.35368426e-08 -0.0879999995 0.000799949921 -0.00382686779 -0.0879999995 3.87501605e-05 -0.00382686779 -0.374199718 3.87501605e-05 -0.00291026756 -0.366205722 0.000367149391 -0.00308856741 -0.365618736 0.000311050244 -0.00382686779 -0.0879999995 3.87501605e-05 -0.00382686779 -0.374199718 3.87501605e-05 -0.00314996764 -0.364999741 0.000290952303 -0.00314996764 -0.364999741 0.000290952303 -0.0030894652 -0.364385724 0.000310752221 -0.00382686779 -0.0879999995 3.87501605e-05 -0.0030894652 -0.364385724 0.000310752221 -0.00291026756 -0.363794714 0.000367149391 -0.00382686779 -0.0879999995 3.87501605e-05 -0.00291026756 -0.363794714 0.000367149391 -0.00222736597 -0.362772733 0.000548749871 -0.00382686779 -0.0879999995 3.87501605e-05 -0.00308856741 -0.365618736 0.000311050244 -0.00314996764 -0.364999741 0.000290952303 -0.00382686779 -0.374199718 3.87501605e-05 -0.00382686779 -0.374199718 3.87501605e-05 -0.00222736597 -0.367227733 0.000548749871 -0.00291026756 -0.366205722 0.000367149391 3.35368426e-08 -0.374199718 0.000799949921 3.35368426e-08 -0.368149728 0.000799949921 -0.000616867095 -0.368088722 0.000780950941 -0.000616867095 -0.368088722 0.000780950941 -0.00382686779 -0.374199718 3.87501605e-05 3.35368426e-08 -0.374199718 0.000799949921 -0.000616867095 -0.368088722 0.000780950941 -0.00120546669 -0.367909729 0.000727049715 -0.00382686779 -0.374199718 3.87501605e-05 -0.00120546669 -0.367909729 0.000727049715 -0.00222736597 -0.367227733 0.000548749871 -0.00382686779 -0.374199718 3.87501605e-05 3.35368426e-08 -0.0879999995 -0.0192000493 0.00120543316 -0.362089723 -0.0191270486 0.000616833568 -0.361910731 -0.0191809498 0.00382683426 -0.0879999995 -0.018438749 0.00222743303 -0.362772733 -0.0189487487 0.00120543316 -0.362089723 -0.0191270486 0.00120543316 -0.362089723 -0.0191270486 3.35368426e-08 -0.0879999995 -0.0192000493 0.00382683426 -0.0879999995 -0.018438749 0.00382683426 -0.374199718 -0.018438749 0.00291023403 -0.366205722 -0.0187671483 0.00308913365 -0.365615726 -0.0187108498 0.00382683426 -0.0879999995 -0.018438749 0.00382683426 -0.374199718 -0.018438749 0.0031500347 -0.364999741 -0.0186909493 0.0031500347 -0.364999741 -0.0186909493 0.00308893248 -0.364382714 -0.0187109485 0.00382683426 -0.0879999995 -0.018438749 0.00308893248 -0.364382714 -0.0187109485 0.00291023403 -0.363794714 -0.0187671483 0.00382683426 -0.0879999995 -0.018438749 0.00291023403 -0.363794714 -0.0187671483 0.00222743303 -0.362772733 -0.0189487487 0.00382683426 -0.0879999995 -0.018438749 0.00382683426 -0.374199718 -0.018438749 0.00222743303 -0.367227733 -0.0189487487 0.00291023403 -0.366205722 -0.0187671483 3.35368426e-08 -0.374199718 -0.0192000493 3.35368426e-08 -0.368149728 -0.0192000493 0.00061693415 -0.368088722 -0.0191809498 0.00061693415 -0.368088722 -0.0191809498 0.00382683426 -0.374199718 -0.018438749 3.35368426e-08 -0.374199718 -0.0192000493 0.00061693415 -0.368088722 -0.0191809498 0.00120543316 -0.367909729 -0.0191270486 0.00382683426 -0.374199718 -0.018438749 0.00120543316 -0.367909729 -0.0191270486 0.00222743303 -0.367227733 -0.0189487487 0.00382683426 -0.374199718 -0.018438749 0.00308913365 -0.365615726 -0.0187108498 0.0031500347 -0.364999741 -0.0186909493 0.00382683426 -0.374199718 -0.018438749 -0.00382686779 -0.374199718 -0.018438749 -0.00120546669 -0.367909729 -0.0191270486 -0.000613767654 -0.368089736 -0.0191811491 -0.000613767654 -0.368089736 -0.0191811491 3.35368426e-08 -0.374199718 -0.0192000493 -0.00382686779 -0.374199718 -0.018438749 -0.00382686779 -0.374199718 -0.018438749 -0.00222736597 -0.367227733 -0.0189487487 -0.00120546669 -0.367909729 -0.0191270486 -0.00382686779 -0.374199718 -0.018438749 -0.00314996764 -0.364999741 -0.0186909493 -0.0030894652 -0.365614742 -0.0187108498 -0.0030894652 -0.365614742 -0.0187108498 -0.00291026756 -0.366205722 -0.0187671483 -0.00382686779 -0.374199718 -0.018438749 -0.00382686779 -0.0879999995 -0.018438749 -0.0030894652 -0.364385724 -0.0187108498 -0.00314996764 -0.364999741 -0.0186909493 -0.00382686779 -0.0879999995 -0.018438749 -0.00291026756 -0.363794714 -0.0187671483 -0.0030894652 -0.364385724 -0.0187108498 -0.00382686779 -0.0879999995 -0.018438749 -0.00222736597 -0.362772733 -0.0189487487 -0.00291026756 -0.363794714 -0.0187671483 -0.00314996764 -0.364999741 -0.0186909493 -0.00382686779 -0.374199718 -0.018438749 -0.00382686779 -0.0879999995 -0.018438749 -0.00291026756 -0.366205722 -0.0187671483 -0.00222736597 -0.367227733 -0.0189487487 -0.00382686779 -0.374199718 -0.018438749 -0.00382686779 -0.0879999995 -0.018438749 3.35368426e-08 -0.0879999995 -0.0192000493 3.35368426e-08 -0.361849725 -0.0192000493 3.35368426e-08 -0.361849725 -0.0192000493 -0.000614065677 -0.361910731 -0.0191811491 -0.00382686779 -0.0879999995 -0.018438749 -0.000614065677 -0.361910731 -0.0191811491 -0.00120546669 -0.362089723 -0.0191270486 -0.00382686779 -0.0879999995 -0.018438749 -0.00120546669 -0.362089723 -0.0191270486 -0.00222736597 -0.362772733 -0.0189487487 -0.00382686779 -0.0879999995 -0.018438749 -0.000613767654 -0.368089736 -0.0191811491 3.35368426e-08 -0.368149728 -0.0192000493 3.35368426e-08 -0.374199718 -0.0192000493 0.000616833568 -0.361910731 -0.0191809498 3.35368426e-08 -0.361849725 -0.0192000493 3.35368426e-08 -0.0879999995 -0.0192000493 -0.000614065677 -0.361910731 0.000781152106 3.35368426e-08 -0.361849725 0.000799949921 3.35368426e-08 -0.0879999995 0.000799949921 0.000614032149 -0.368089736 0.000781152106 3.35368426e-08 -0.368149728 0.000799949921 3.35368426e-08 -0.374199718 0.000799949921 -0.00999996811 -0.0879999995 -0.0092000477 -0.00999996811 -0.374199718 -0.0092000477 -0.00923876837 -0.374199718 -0.00537315058 -0.00923876837 -0.0879999995 -0.00537315058 -0.00923876837 -0.374199718 -0.00537315058 -0.00707106665 -0.374199718 -0.00212894776 -0.00707106665 -0.0879999995 -0.00212894776 -0.00707106665 -0.374199718 -0.00212894776 -0.00382686779 -0.374199718 3.87501605e-05 0.00382683426 -0.0879999995 3.87501605e-05 0.00382683426 -0.374199718 3.87501605e-05 0.00707103685 -0.374199718 -0.00212894776 0.00707103685 -0.0879999995 -0.00212894776 0.00707103685 -0.374199718 -0.00212894776 0.00923883542 -0.374199718 -0.00537315058 0.00923883542 -0.0879999995 -0.00537315058 0.00923883542 -0.374199718 -0.00537315058 0.0100000314 -0.374199718 -0.0092000477 0.0100000314 -0.0879999995 -0.0092000477 0.0100000314 -0.374199718 -0.0092000477 0.00923883542 -0.374199718 -0.0130268484 0.00923883542 -0.0879999995 -0.0130268484 0.00923883542 -0.374199718 -0.0130268484 0.00707103685 -0.374199718 -0.0162710492 0.00707103685 -0.0879999995 -0.0162710492 0.00707103685 -0.374199718 -0.0162710492 0.00382683426 -0.374199718 -0.018438749 -0.00382686779 -0.0879999995 -0.018438749 -0.00382686779 -0.374199718 -0.018438749 -0.00707106665 -0.374199718 -0.0162710492 -0.00707106665 -0.0879999995 -0.0162710492 -0.00707106665 -0.374199718 -0.0162710492 -0.00923876837 -0.374199718 -0.0130268484 -0.00923876837 -0.0879999995 -0.0130268484 -0.00923876837 -0.374199718 -0.0130268484 -0.00999996811 -0.374199718 -0.0092000477 3.35368426e-08 -0.374199718 -0.0092000477 -0.00923876837 -0.374199718 -0.0130268484 -0.00707106665 -0.374199718 -0.0162710492 -0.00707106665 -0.374199718 -0.0162710492 -0.00382686779 -0.374199718 -0.018438749 3.35368426e-08 -0.374199718 -0.0092000477 -0.00382686779 -0.374199718 -0.018438749 3.35368426e-08 -0.374199718 -0.0192000493 3.35368426e-08 -0.374199718 -0.0092000477 3.35368426e-08 -0.374199718 -0.0192000493 0.00382683426 -0.374199718 -0.018438749 3.35368426e-08 -0.374199718 -0.0092000477 0.00382683426 -0.374199718 -0.018438749 0.00707103685 -0.374199718 -0.0162710492 3.35368426e-08 -0.374199718 -0.0092000477 0.00707103685 -0.374199718 -0.0162710492 0.00923883542 -0.374199718 -0.0130268484 3.35368426e-08 -0.374199718 -0.0092000477 0.00923883542 -0.374199718 -0.0130268484 0.0100000314 -0.374199718 -0.0092000477 3.35368426e-08 -0.374199718 -0.0092000477 0.0100000314 -0.374199718 -0.0092000477 0.00923883542 -0.374199718 -0.00537315058 3.35368426e-08 -0.374199718 -0.0092000477 0.00923883542 -0.374199718 -0.00537315058 0.00707103685 -0.374199718 -0.00212894776 3.35368426e-08 -0.374199718 -0.0092000477 0.00707103685 -0.374199718 -0.00212894776 0.00382683426 -0.374199718 3.87501605e-05 3.35368426e-08 -0.374199718 -0.0092000477 0.00382683426 -0.374199718 3.87501605e-05 3.35368426e-08 -0.374199718 0.000799949921 3.35368426e-08 -0.374199718 -0.0092000477 3.35368426e-08 -0.374199718 0.000799949921 -0.00382686779 -0.374199718 3.87501605e-05 3.35368426e-08 -0.374199718 -0.0092000477 -0.00382686779 -0.374199718 3.87501605e-05 -0.00707106665 -0.374199718 -0.00212894776 3.35368426e-08 -0.374199718 -0.0092000477 -0.00707106665 -0.374199718 -0.00212894776 -0.00923876837 -0.374199718 -0.00537315058 3.35368426e-08 -0.374199718 -0.0092000477 -0.00923876837 -0.374199718 -0.00537315058 -0.00999996811 -0.374199718 -0.0092000477 3.35368426e-08 -0.374199718 -0.0092000477 -0.00999996811 -0.374199718 -0.0092000477 -0.00923876837 -0.374199718 -0.0130268484 3.35368426e-08 -0.374199718 -0.0092000477 -0.0030894652 -0.365614742 -0.0187108498 -0.00314996764 -0.364999741 -0.0186909493 -0.00314996764 -0.364999741 0.000290952303 -0.00314996764 -0.364999741 0.000290952303 -0.00308856741 -0.365618736 0.000311050244 -0.0030894652 -0.365614742 -0.0187108498 -0.00291026756 -0.366205722 0.000367149391 -0.00291026756 -0.366205722 -0.0187671483 -0.0030894652 -0.365614742 -0.0187108498 -0.00222736597 -0.367227733 -0.0189487487 -0.00291026756 -0.366205722 -0.0187671483 -0.00291026756 -0.366205722 0.000367149391 -0.00120546669 -0.367909729 -0.0191270486 -0.00222736597 -0.367227733 -0.0189487487 -0.00222736597 -0.367227733 0.000548749871 -0.000613767654 -0.368089736 -0.0191811491 -0.00120546669 -0.367909729 -0.0191270486 -0.00120546669 -0.367909729 0.000727049715 -0.000616867095 -0.368088722 0.000780950941 3.35368426e-08 -0.368149728 -0.0192000493 -0.000613767654 -0.368089736 -0.0191811491 -0.00120546669 -0.367909729 0.000727049715 -0.000616867095 -0.368088722 0.000780950941 -0.000613767654 -0.368089736 -0.0191811491 0.000614032149 -0.368089736 0.000781152106 0.00120543316 -0.367909729 0.000727049715 0.00120543316 -0.367909729 -0.0191270486 0.00061693415 -0.368088722 -0.0191809498 3.35368426e-08 -0.368149728 0.000799949921 0.000614032149 -0.368089736 0.000781152106 0.00120543316 -0.367909729 -0.0191270486 0.00061693415 -0.368088722 -0.0191809498 0.000614032149 -0.368089736 0.000781152106 0.00120543316 -0.367909729 -0.0191270486 0.00120543316 -0.367909729 0.000727049715 0.00222743303 -0.367227733 0.000548749871 0.00222743303 -0.367227733 0.000548749871 0.00291023403 -0.366205722 0.000367149391 0.00291023403 -0.366205722 -0.0187671483 0.00308943167 -0.365614742 0.000310752221 0.0031500347 -0.364999741 0.000290952303 0.0031500347 -0.364999741 -0.0186909493 0.0031500347 -0.364999741 -0.0186909493 0.00308913365 -0.365615726 -0.0187108498 0.00308943167 -0.365614742 0.000310752221 0.00291023403 -0.366205722 -0.0187671483 0.00291023403 -0.366205722 0.000367149391 0.00308943167 -0.365614742 0.000310752221 0.00308893248 -0.364382714 -0.0187109485 0.0031500347 -0.364999741 -0.0186909493 0.0031500347 -0.364999741 0.000290952303 0.0031500347 -0.364999741 0.000290952303 0.00308853388 -0.364380717 0.000311050244 0.00308893248 -0.364382714 -0.0187109485 0.00291023403 -0.363794714 0.000367149391 0.00291023403 -0.363794714 -0.0187671483 0.00308893248 -0.364382714 -0.0187109485 0.00222743303 -0.362772733 0.000548749871 0.00222743303 -0.362772733 -0.0189487487 0.00291023403 -0.363794714 -0.0187671483 0.00120543316 -0.362089723 0.000727049715 0.00120543316 -0.362089723 -0.0191270486 0.00222743303 -0.362772733 -0.0189487487 0.000616833568 -0.361910731 -0.0191809498 0.00120543316 -0.362089723 -0.0191270486 0.00120543316 -0.362089723 0.000727049715 0.00120543316 -0.362089723 0.000727049715 0.000616833568 -0.361910731 0.000780950941 0.000616833568 -0.361910731 -0.0191809498 3.35368426e-08 -0.361849725 0.000799949921 3.35368426e-08 -0.361849725 -0.0192000493 0.000616833568 -0.361910731 -0.0191809498 -0.000614065677 -0.361910731 0.000781152106 -0.00120546669 -0.362089723 0.000727049715 -0.00120546669 -0.362089723 -0.0191270486 -0.00120546669 -0.362089723 -0.0191270486 -0.000614065677 -0.361910731 -0.0191811491 -0.000614065677 -0.361910731 0.000781152106 3.35368426e-08 -0.361849725 -0.0192000493 3.35368426e-08 -0.361849725 0.000799949921 -0.000614065677 -0.361910731 0.000781152106 -0.00120546669 -0.362089723 -0.0191270486 -0.00120546669 -0.362089723 0.000727049715 -0.00222736597 -0.362772733 0.000548749871 -0.00222736597 -0.362772733 0.000548749871 -0.00291026756 -0.363794714 0.000367149391 -0.00291026756 -0.363794714 -0.0187671483 -0.0030894652 -0.364385724 0.000310752221 -0.00314996764 -0.364999741 0.000290952303 -0.00314996764 -0.364999741 -0.0186909493 -0.00314996764 -0.364999741 -0.0186909493 -0.0030894652 -0.364385724 -0.0187108498 -0.0030894652 -0.364385724 0.000310752221 -0.00291026756 -0.363794714 -0.0187671483 -0.00291026756 -0.363794714 0.000367149391 -0.0030894652 -0.364385724 0.000310752221 -0.0030894652 -0.364385724 -0.0187108498 -0.00291026756 -0.363794714 -0.0187671483 -0.0030894652 -0.364385724 0.000310752221 -0.00291026756 -0.363794714 -0.0187671483 -0.00222736597 -0.362772733 -0.0189487487 -0.00222736597 -0.362772733 0.000548749871 -0.00222736597 -0.362772733 0.000548749871 -0.00222736597 -0.362772733 -0.0189487487 -0.00120546669 -0.362089723 -0.0191270486 -0.000614065677 -0.361910731 -0.0191811491 3.35368426e-08 -0.361849725 -0.0192000493 -0.000614065677 -0.361910731 0.000781152106 0.000616833568 -0.361910731 0.000780950941 3.35368426e-08 -0.361849725 0.000799949921 0.000616833568 -0.361910731 -0.0191809498 0.00222743303 -0.362772733 -0.0189487487 0.00222743303 -0.362772733 0.000548749871 0.00120543316 -0.362089723 0.000727049715 0.00291023403 -0.363794714 -0.0187671483 0.00291023403 -0.363794714 0.000367149391 0.00222743303 -0.362772733 0.000548749871 0.00308853388 -0.364380717 0.000311050244 0.00291023403 -0.363794714 0.000367149391 0.00308893248 -0.364382714 -0.0187109485 0.00308913365 -0.365615726 -0.0187108498 0.00291023403 -0.366205722 -0.0187671483 0.00308943167 -0.365614742 0.000310752221 0.00291023403 -0.366205722 -0.0187671483 0.00222743303 -0.367227733 -0.0189487487 0.00222743303 -0.367227733 0.000548749871 0.00222743303 -0.367227733 0.000548749871 0.00222743303 -0.367227733 -0.0189487487 0.00120543316 -0.367909729 -0.0191270486 0.00061693415 -0.368088722 -0.0191809498 3.35368426e-08 -0.368149728 -0.0192000493 3.35368426e-08 -0.368149728 0.000799949921 -0.000616867095 -0.368088722 0.000780950941 3.35368426e-08 -0.368149728 0.000799949921 3.35368426e-08 -0.368149728 -0.0192000493 -0.00222736597 -0.367227733 0.000548749871 -0.00120546669 -0.367909729 0.000727049715 -0.00120546669 -0.367909729 -0.0191270486 -0.00291026756 -0.366205722 0.000367149391 -0.00222736597 -0.367227733 0.000548749871 -0.00222736597 -0.367227733 -0.0189487487 -0.00308856741 -0.365618736 0.000311050244 -0.00291026756 -0.366205722 0.000367149391 -0.0030894652 -0.365614742 -0.0187108498 </float_array>
          <technique_common>
            <accessor count="492" offset="0" source="#mesh_0-positions-array" stride="3">
              <param name="X" type="float" />
              <param name="Y" type="float" />
              <param name="Z" type="float" />
            </accessor>
          </technique_common>
        </source>
        <source id="mesh_0-normals" name="mesh_0-normals">
          <float_array id="mesh_0-normals-array" count="1476"> 0 3.82681246e-05 0 0 3.82681246e-05 0 0 3.82681246e-05 0 -0 3.82680664e-05 0 -0 3.82680664e-05 0 -0 3.82680664e-05 0 -0 3.8269005e-05 0 -0 3.8269005e-05 0 -0 3.8269005e-05 0 0 3.82680009e-05 0 0 3.82680009e-05 0 0 3.82680009e-05 0 0 3.82678809e-05 0 0 3.82678809e-05 0 0 3.82678809e-05 0 0 3.82684884e-05 0 0 3.82684884e-05 0 0 3.82684884e-05 0 0 3.82689614e-05 0 0 3.82689614e-05 0 0 3.82689614e-05 0 0 3.82680009e-05 0 0 3.82680009e-05 0 0 3.82680009e-05 0 0 3.82682592e-05 0 0 3.82682592e-05 0 0 3.82682592e-05 0 0 3.82675717e-05 0 0 3.82675717e-05 0 0 3.82675717e-05 0 0 3.82680118e-05 0 0 3.82680118e-05 0 0 3.82680118e-05 0 0 3.82690196e-05 -0 0 3.82690196e-05 -0 0 3.82690196e-05 -0 0 3.82677572e-05 -0 0 3.82677572e-05 -0 0 3.82677572e-05 -0 0 3.82678918e-05 -0 0 3.82678918e-05 -0 0 3.82678918e-05 -0 0 3.82680118e-05 -0 0 3.82680118e-05 -0 0 3.82680118e-05 -0 0 3.82689759e-05 0 0 3.82689759e-05 0 0 3.82689759e-05 0 -0.00109522929 0 -0.000217855151 -0.00109522929 0 -0.000217855151 -0.00109522929 0 -0.000217855151 -0.000928489317 0 -0.000620395644 -0.000928489317 0 -0.000620395644 -0.000928489317 0 -0.000620395644 -0.000620395062 0 -0.000928488793 -0.000620395062 0 -0.000928488793 -0.000620395062 0 -0.000928488793 0.000620395062 0 -0.000928489841 0.000620395062 0 -0.000928489841 0.000620395062 0 -0.000928489841 0.000928489317 0 -0.00062042335 0.000928489317 0 -0.00062042335 0.000928489317 0 -0.00062042335 0.00109522929 0 -0.000217854089 0.00109522929 0 -0.000217854089 0.00109522929 0 -0.000217854089 0.00109525688 -0 0.000217854089 0.00109525688 -0 0.000217854089 0.00109525688 -0 0.000217854089 0.000928489957 -0 0.00062042335 0.000928489957 -0 0.00062042335 0.000928489957 -0 0.00062042335 0.000620394538 -0 0.000928489841 0.000620394538 -0 0.000928489841 0.000620394538 -0 0.000928489841 -0.000620394538 0 0.000928488793 -0.000620394538 0 0.000928488793 -0.000620394538 0 0.000928488793 -0.000928489957 0 0.000620395644 -0.000928489957 0 0.000620395644 -0.000928489957 0 0.000620395644 -0.00109525688 0 0.000217855151 -0.00109525688 0 0.000217855151 -0.00109525688 0 0.000217855151 4.64201094e-07 -2.65237077e-07 4.19177377e-06 4.64201094e-07 -2.65237077e-07 4.19177377e-06 4.64201094e-07 -2.65237077e-07 4.19177377e-06 4.65091716e-06 -3.95440111e-07 2.33816863e-05 4.65091716e-06 -3.95440111e-07 2.33816863e-05 4.65091716e-06 -3.95440111e-07 2.33816863e-05 1.59092178e-06 -2.36046617e-07 8.21615322e-06 1.59092178e-06 -2.36046617e-07 8.21615322e-06 1.59092178e-06 -2.36046617e-07 8.21615322e-06 3.37263373e-07 -1.88363458e-09 9.73778697e-07 3.37263373e-07 -1.88363458e-09 9.73778697e-07 3.37263373e-07 -1.88363458e-09 9.73778697e-07 5.72324643e-06 1.90836147e-09 1.74546731e-05 5.72324643e-06 1.90836147e-09 1.74546731e-05 5.72324643e-06 1.90836147e-09 1.74546731e-05 1.56642927e-05 7.13305326e-09 4.97112778e-05 1.56642927e-05 7.13305326e-09 4.97112778e-05 1.56642927e-05 7.13305326e-09 4.97112778e-05 5.0420058e-05 5.77763331e-08 0.000189249666 5.0420058e-05 5.77763331e-08 0.000189249666 5.0420058e-05 5.77763331e-08 0.000189249666 7.21801844e-05 0 0.000193699845 7.21801844e-05 0 0.000193699845 7.21801844e-05 0 0.000193699845 6.44916156e-07 -7.1547106e-09 1.97419763e-06 6.44916156e-07 -7.1547106e-09 1.97419763e-06 6.44916156e-07 -7.1547106e-09 1.97419763e-06 0.000208454338 0 0.00104796828 0.000208454338 0 0.00104796828 0.000208454338 0 0.00104796828 5.24930283e-06 3.96802704e-07 0.000169143983 5.24930283e-06 3.96802704e-07 0.000169143983 5.24930283e-06 3.96802704e-07 0.000169143983 1.4896973e-05 2.63836114e-07 0.000161798307 1.4896973e-05 2.63836114e-07 0.000161798307 1.4896973e-05 2.63836114e-07 0.000161798307 4.93402695e-05 2.36046617e-07 0.000281910092 4.93402695e-05 2.36046617e-07 0.000281910092 4.93402695e-05 2.36046617e-07 0.000281910092 1.78734115e-06 -5.77762904e-08 6.39508426e-06 1.78734115e-06 -5.77762904e-08 6.39508426e-06 1.78734115e-06 -5.77762904e-08 6.39508426e-06 -1.48158615e-05 2.2107189e-08 0.00016188118 -1.48158615e-05 2.2107189e-08 0.00016188118 -1.48158615e-05 2.2107189e-08 0.00016188118 -4.93402767e-05 2.35977382e-07 0.000281882531 -4.93402767e-05 2.35977382e-07 0.000281882531 -4.93402767e-05 2.35977382e-07 0.000281882531 -0.000208637022 6.38644565e-07 0.00104891439 -0.000208637022 6.38644565e-07 0.00104891439 -0.000208637022 6.38644565e-07 0.00104891439 -6.41222186e-07 -7.13305326e-09 1.96336077e-06 -6.41222186e-07 -7.13305326e-09 1.96336077e-06 -6.41222186e-07 -7.13305326e-09 1.96336077e-06 -7.21801844e-05 0 0.000193728629 -7.21801844e-05 0 0.000193728629 -7.21801844e-05 0 0.000193728629 -5.63942876e-06 1.8562778e-09 1.71747888e-05 -5.63942876e-06 1.8562778e-09 1.71747888e-05 -5.63942876e-06 1.8562778e-09 1.71747888e-05 -1.57481281e-05 7.1547106e-09 4.99634807e-05 -1.57481281e-05 7.1547106e-09 4.99634807e-05 -1.57481281e-05 7.1547106e-09 4.99634807e-05 -5.04200725e-05 5.78093307e-08 0.000189277402 -5.04200725e-05 5.78093307e-08 0.000189277402 -5.04200725e-05 5.78093307e-08 0.000189277402 -3.41012282e-07 -1.88097182e-09 9.83878067e-07 -3.41012282e-07 -1.88097182e-09 9.83878067e-07 -3.41012282e-07 -1.88097182e-09 9.83878067e-07 -1.78734081e-06 -5.78093591e-08 6.39588825e-06 -1.78734081e-06 -5.78093591e-08 6.39588825e-06 -1.78734081e-06 -5.78093591e-08 6.39588825e-06 -1.14943653e-07 0 3.73224293e-06 -1.14943653e-07 0 3.73224293e-06 -1.14943653e-07 0 3.73224293e-06 -4.65168887e-06 -3.96877368e-07 2.33861792e-05 -4.65168887e-06 -3.96877368e-07 2.33861792e-05 -4.65168887e-06 -3.96877368e-07 2.33861792e-05 -4.62238717e-07 -2.63836114e-07 4.17149658e-06 -4.62238717e-07 -2.63836114e-07 4.17149658e-06 -4.62238717e-07 -2.63836114e-07 4.17149658e-06 -1.59092178e-06 -2.35977382e-07 8.21552112e-06 -1.59092178e-06 -2.35977382e-07 8.21552112e-06 -1.59092178e-06 -2.35977382e-07 8.21552112e-06 1.47607052e-05 2.20042846e-08 -0.000161113348 1.47607052e-05 2.20042846e-08 -0.000161113348 1.47607052e-05 2.20042846e-08 -0.000161113348 4.93402767e-05 2.36046617e-07 -0.000281910092 4.93402767e-05 2.36046617e-07 -0.000281910092 4.93402767e-05 2.36046617e-07 -0.000281910092 0.000208664598 6.3831169e-07 -0.0010488868 0.000208664598 6.3831169e-07 -0.0010488868 0.000208664598 6.3831169e-07 -0.0010488868 6.43804015e-07 -7.14732096e-09 -1.97091367e-06 6.43804015e-07 -7.14732096e-09 -1.97091367e-06 6.43804015e-07 -7.14732096e-09 -1.97091367e-06 7.21796532e-05 0 -0.000193699845 7.21796532e-05 0 -0.000193699845 7.21796532e-05 0 -0.000193699845 5.69539361e-06 1.87453075e-09 -1.73428998e-05 5.69539361e-06 1.87453075e-09 -1.73428998e-05 5.69539361e-06 1.87453075e-09 -1.73428998e-05 1.56926872e-05 7.17174942e-09 -4.98230511e-05 1.56926872e-05 7.17174942e-09 -4.98230511e-05 1.56926872e-05 7.17174942e-09 -4.98230511e-05 5.04200616e-05 5.77763188e-08 -0.000189249666 5.04200616e-05 5.77763188e-08 -0.000189249666 5.04200616e-05 5.77763188e-08 -0.000189249666 1.78734081e-06 -5.77763331e-08 -6.39508426e-06 1.78734081e-06 -5.77763331e-08 -6.39508426e-06 1.78734081e-06 -5.77763331e-08 -6.39508426e-06 1.15552183e-07 0 -3.73224293e-06 1.15552183e-07 0 -3.73224293e-06 1.15552183e-07 0 -3.73224293e-06 4.65230323e-06 -3.96556402e-07 -2.33855644e-05 4.65230323e-06 -3.96556402e-07 -2.33855644e-05 4.65230323e-06 -3.96556402e-07 -2.33855644e-05 4.62238717e-07 -2.6376685e-07 -4.17086403e-06 4.62238717e-07 -2.6376685e-07 -4.17086403e-06 4.62238717e-07 -2.6376685e-07 -4.17086403e-06 1.59092178e-06 -2.36046617e-07 -8.21615322e-06 1.59092178e-06 -2.36046617e-07 -8.21615322e-06 1.59092178e-06 -2.36046617e-07 -8.21615322e-06 3.38435541e-07 -1.89061122e-09 -9.77186119e-07 3.38435541e-07 -1.89061122e-09 -9.77186119e-07 3.38435541e-07 -1.89061122e-09 -9.77186119e-07 -4.64189725e-07 -2.65446943e-07 -4.19364915e-06 -4.64189725e-07 -2.65446943e-07 -4.19364915e-06 -4.64189725e-07 -2.65446943e-07 -4.19364915e-06 -4.65153198e-06 -3.94957596e-07 -2.33823012e-05 -4.65153198e-06 -3.94957596e-07 -2.33823012e-05 -4.65153198e-06 -3.94957596e-07 -2.33823012e-05 -1.59092178e-06 -2.35977382e-07 -8.21552021e-06 -1.59092178e-06 -2.35977382e-07 -8.21552021e-06 -1.59092178e-06 -2.35977382e-07 -8.21552021e-06 -3.38187419e-07 -1.78808079e-09 -9.72915132e-07 -3.38187419e-07 -1.78808079e-09 -9.72915132e-07 -3.38187419e-07 -1.78808079e-09 -9.72915132e-07 -6.44126999e-07 -7.24519822e-09 -1.97419763e-06 -6.44126999e-07 -7.24519822e-09 -1.97419763e-06 -6.44126999e-07 -7.24519822e-09 -1.97419763e-06 -5.66728704e-06 1.78808079e-09 -1.71747961e-05 -5.66728704e-06 1.78808079e-09 -1.71747961e-05 -5.66728704e-06 1.78808079e-09 -1.71747961e-05 -1.5720907e-05 7.2451769e-09 -4.99634916e-05 -1.5720907e-05 7.2451769e-09 -4.99634916e-05 -1.5720907e-05 7.2451769e-09 -4.99634916e-05 -5.0420058e-05 5.78093591e-08 -0.000189277402 -5.0420058e-05 5.78093591e-08 -0.000189277402 -5.0420058e-05 5.78093591e-08 -0.000189277402 -7.21796532e-05 0 -0.000193728629 -7.21796532e-05 0 -0.000193728629 -7.21796532e-05 0 -0.000193728629 -1.78734092e-06 -5.78093591e-08 -6.39588825e-06 -1.78734092e-06 -5.78093591e-08 -6.39588825e-06 -1.78734092e-06 -5.78093591e-08 -6.39588825e-06 -0.000208481884 0 -0.00104799587 -0.000208481884 0 -0.00104799587 -0.000208481884 0 -0.00104799587 -5.22227447e-06 3.95184486e-07 -0.000168404353 -5.22227447e-06 3.95184486e-07 -0.000168404353 -5.22227447e-06 3.95184486e-07 -0.000168404353 -1.49516e-05 2.65241852e-07 -0.000162566139 -1.49516e-05 2.65241852e-07 -0.000162566139 -1.49516e-05 2.65241852e-07 -0.000162566139 -4.93402695e-05 2.35977382e-07 -0.000281882531 -4.93402695e-05 2.35977382e-07 -0.000281882531 -4.93402695e-05 2.35977382e-07 -0.000281882531 -1.14346399e-07 0 -3.71349142e-06 -1.14346399e-07 0 -3.71349142e-06 -1.14346399e-07 0 -3.71349142e-06 5.23041035e-06 0 -0.000168910512 5.23041035e-06 0 -0.000168910512 5.23041035e-06 0 -0.000168910512 -5.14777639e-06 0 0.000168170911 -5.14777639e-06 0 0.000168170911 -5.14777639e-06 0 0.000168170911 1.13726607e-07 0 3.71468604e-06 1.13726607e-07 0 3.71468604e-06 1.13726607e-07 0 3.71468604e-06 -0.00109525688 0 0.000217855151 -0.00109525688 0 0.000217855151 -0.00109525688 0 0.000217855151 -0.000928489957 0 0.000620395644 -0.000928489957 0 0.000620395644 -0.000928489957 0 0.000620395644 -0.000620394538 0 0.000928488793 -0.000620394538 0 0.000928488793 -0.000620394538 0 0.000928488793 0.000620394538 0 0.000928489841 0.000620394538 0 0.000928489841 0.000620394538 0 0.000928489841 0.000928489957 0 0.00062042335 0.000928489957 0 0.00062042335 0.000928489957 0 0.00062042335 0.00109525688 0 0.000217854089 0.00109525688 0 0.000217854089 0.00109525688 0 0.000217854089 0.00109522929 0 -0.000217854089 0.00109522929 0 -0.000217854089 0.00109522929 0 -0.000217854089 0.000928489317 0 -0.00062042335 0.000928489317 0 -0.00062042335 0.000928489317 0 -0.00062042335 0.000620395062 0 -0.000928489841 0.000620395062 0 -0.000928489841 0.000620395062 0 -0.000928489841 -0.000620395062 -0 -0.000928488793 -0.000620395062 -0 -0.000928488793 -0.000620395062 -0 -0.000928488793 -0.000928489317 -0 -0.000620395644 -0.000928489317 -0 -0.000620395644 -0.000928489317 -0 -0.000620395644 -0.00109522929 -0 -0.000217855151 -0.00109522929 -0 -0.000217855151 -0.00109522929 -0 -0.000217855151 0 -3.82678845e-05 0 0 -3.82678845e-05 0 0 -3.82678845e-05 0 0 -3.82677608e-05 0 0 -3.82677608e-05 0 0 -3.82677608e-05 0 0 -3.82690196e-05 0 0 -3.82690196e-05 0 0 -3.82690196e-05 0 0 -3.82680118e-05 0 0 -3.82680118e-05 0 0 -3.82680118e-05 0 0 -3.82675717e-05 0 0 -3.82675717e-05 0 0 -3.82675717e-05 0 0 -3.82682629e-05 0 0 -3.82682629e-05 0 0 -3.82682629e-05 0 0 -3.82679973e-05 0 0 -3.82679973e-05 0 0 -3.82679973e-05 0 0 -3.8268965e-05 0 0 -3.8268965e-05 0 0 -3.8268965e-05 0 -0 -3.82684884e-05 0 -0 -3.82684884e-05 0 -0 -3.82684884e-05 0 -0 -3.82678809e-05 0 -0 -3.82678809e-05 0 -0 -3.82678809e-05 0 -0 -3.82679973e-05 0 -0 -3.82679973e-05 0 -0 -3.82679973e-05 0 0 -3.8269005e-05 -0 0 -3.8269005e-05 -0 0 -3.8269005e-05 -0 0 -3.82680664e-05 -0 0 -3.82680664e-05 -0 0 -3.82680664e-05 -0 0 -3.82681174e-05 -0 0 -3.82681174e-05 -0 0 -3.82681174e-05 -0 0 -3.82689759e-05 -0 0 -3.82689759e-05 -0 0 -3.82689759e-05 -0 0 -3.82680118e-05 0 0 -3.82680118e-05 0 0 -3.82680118e-05 0 1.16738829e-05 1.14845136e-06 0 1.16738829e-05 1.14845136e-06 0 1.16738829e-05 1.14845136e-06 0 1.17743666e-05 1.16793115e-06 -3.10528492e-10 1.17743666e-05 1.16793115e-06 -3.10528492e-10 1.17743666e-05 1.16793115e-06 -3.10528492e-10 1.13079886e-05 3.42882095e-06 0 1.13079886e-05 3.42882095e-06 0 1.13079886e-05 3.42882095e-06 0 1.9555464e-05 1.30668423e-05 0 1.9555464e-05 1.30668423e-05 0 1.9555464e-05 1.30668423e-05 0 1.32972236e-05 1.99244805e-05 0 1.32972236e-05 1.99244805e-05 0 1.32972236e-05 1.99244805e-05 0 3.57385738e-06 1.17476511e-05 0 3.57385738e-06 1.17476511e-05 0 3.57385738e-06 1.17476511e-05 0 1.19754861e-06 1.22527017e-05 -4.36009895e-10 1.19754861e-06 1.22527017e-05 -4.36009895e-10 1.19754861e-06 1.22527017e-05 -4.36009895e-10 3.5731257e-06 1.17498512e-05 -4.16378043e-11 3.5731257e-06 1.17498512e-05 -4.16378043e-11 3.5731257e-06 1.17498512e-05 -4.16378043e-11 -3.57385738e-06 1.17417339e-05 0 -3.57385738e-06 1.17417339e-05 0 -3.57385738e-06 1.17417339e-05 0 -1.19754884e-06 1.2256648e-05 4.48054815e-10 -1.19754884e-06 1.2256648e-05 4.48054815e-10 -1.19754884e-06 1.2256648e-05 4.48054815e-10 -3.57312615e-06 1.1747833e-05 7.68736186e-11 -3.57312615e-06 1.1747833e-05 7.68736186e-11 -3.57312615e-06 1.1747833e-05 7.68736186e-11 -1.35404225e-05 2.02908868e-05 0 -1.35404225e-05 2.02908868e-05 0 -1.35404225e-05 2.02908868e-05 0 -1.9555464e-05 1.30649178e-05 0 -1.9555464e-05 1.30649178e-05 0 -1.9555464e-05 1.30649178e-05 0 -1.16738829e-05 1.15036062e-06 0 -1.16738829e-05 1.15036062e-06 0 -1.16738829e-05 1.15036062e-06 0 -1.17169875e-05 1.15842954e-06 1.23680621e-10 -1.17169875e-05 1.15842954e-06 1.23680621e-10 -1.17169875e-05 1.15842954e-06 1.23680621e-10 -1.13079886e-05 3.42882095e-06 0 -1.13079886e-05 3.42882095e-06 0 -1.13079886e-05 3.42882095e-06 0 -1.17123518e-05 -1.15983619e-06 0 -1.17123518e-05 -1.15983619e-06 0 -1.17123518e-05 -1.15983619e-06 0 -1.17750342e-05 -1.16986052e-06 -1.23943522e-10 -1.17750342e-05 -1.16986052e-06 -1.23943522e-10 -1.17750342e-05 -1.16986052e-06 -1.23943522e-10 -1.12509633e-05 -3.41926943e-06 -0 -1.12509633e-05 -3.41926943e-06 -0 -1.12509633e-05 -3.41926943e-06 -0 -1.99260776e-05 -1.33129115e-05 -0 -1.99260776e-05 -1.33129115e-05 -0 -1.99260776e-05 -1.33129115e-05 -0 -1.35605405e-05 -2.02908868e-05 -0 -1.35605405e-05 -2.02908868e-05 -0 -1.35605405e-05 -2.02908868e-05 -0 -3.55373959e-06 -1.16861147e-05 0 -3.55373959e-06 -1.16861147e-05 0 -3.55373959e-06 -1.16861147e-05 0 -3.57303543e-06 -1.17495665e-05 0 -3.57303543e-06 -1.17495665e-05 0 -3.57303543e-06 -1.17495665e-05 0 -1.22010704e-06 -1.23360005e-05 -0 -1.22010704e-06 -1.23360005e-05 -0 -1.22010704e-06 -1.23360005e-05 -0 3.55373982e-06 -1.17417339e-05 0 3.55373982e-06 -1.17417339e-05 0 3.55373982e-06 -1.17417339e-05 0 3.57310728e-06 -1.18057251e-05 0 3.57310728e-06 -1.18057251e-05 0 3.57310728e-06 -1.18057251e-05 0 1.22010704e-06 -1.22819838e-05 0 1.22010704e-06 -1.22819838e-05 0 1.22010704e-06 -1.22819838e-05 0 1.35605405e-05 -2.02888896e-05 0 1.35605405e-05 -2.02888896e-05 0 1.35605405e-05 -2.02888896e-05 0 1.95548946e-05 -1.30668423e-05 0 1.95548946e-05 -1.30668423e-05 0 1.95548946e-05 -1.30668423e-05 0 1.16552155e-05 -1.14845136e-06 0 1.16552155e-05 -1.14845136e-06 0 1.16552155e-05 -1.14845136e-06 0 1.16795918e-05 -1.15085334e-06 0 1.16795918e-05 -1.15085334e-06 0 1.16795918e-05 -1.15085334e-06 0 1.13085589e-05 -3.42882095e-06 0 1.13085589e-05 -3.42882095e-06 0 1.13085589e-05 -3.42882095e-06 0 1.12419548e-05 -3.4086263e-06 0 1.12419548e-05 -3.4086263e-06 0 1.12419548e-05 -3.4086263e-06 0 1.99260776e-05 -1.33148724e-05 0 1.99260776e-05 -1.33148724e-05 0 1.99260776e-05 -1.33148724e-05 0 1.33169797e-05 -1.99244805e-05 0 1.33169797e-05 -1.99244805e-05 0 1.33169797e-05 -1.99244805e-05 0 1.21780727e-06 -1.22588335e-05 0 1.21780727e-06 -1.22588335e-05 0 1.21780727e-06 -1.22588335e-05 0 -1.21778282e-06 -1.2312501e-05 -0 -1.21778282e-06 -1.2312501e-05 -0 -1.21778282e-06 -1.2312501e-05 -0 -1.33169797e-05 -1.99264414e-05 0 -1.33169797e-05 -1.99264414e-05 0 -1.33169797e-05 -1.99264414e-05 0 -1.95548928e-05 -1.30649178e-05 0 -1.95548928e-05 -1.30649178e-05 0 -1.95548928e-05 -1.30649178e-05 0 -1.1146838e-05 -3.39159715e-06 1.22436838e-10 -1.1146838e-05 -3.39159715e-06 1.22436838e-10 -1.1146838e-05 -3.39159715e-06 1.22436838e-10 -1.12226244e-05 3.40294059e-06 -1.1091128e-13 -1.12226244e-05 3.40294059e-06 -1.1091128e-13 -1.12226244e-05 3.40294059e-06 -1.1091128e-13 -1.99266578e-05 1.33129115e-05 0 -1.99266578e-05 1.33129115e-05 0 -1.99266578e-05 1.33129115e-05 0 -1.32972227e-05 1.99264414e-05 0 -1.32972227e-05 1.99264414e-05 0 -1.32972227e-05 1.99264414e-05 0 -1.22010704e-06 1.23380123e-05 0 -1.22010704e-06 1.23380123e-05 0 -1.22010704e-06 1.23380123e-05 0 1.22010704e-06 1.23380123e-05 0 1.22010704e-06 1.23380123e-05 0 1.22010704e-06 1.23380123e-05 0 1.35404225e-05 2.02888896e-05 0 1.35404225e-05 2.02888896e-05 0 1.35404225e-05 2.02888896e-05 0 1.99266578e-05 1.33148724e-05 0 1.99266578e-05 1.33148724e-05 0 1.99266578e-05 1.33148724e-05 0 1.11653753e-05 3.39155145e-06 1.85048865e-10 1.11653753e-05 3.39155145e-06 1.85048865e-10 1.11653753e-05 3.39155145e-06 1.85048865e-10 </float_array>
          <technique_common>
            <accessor count="492" offset="0" source="#mesh_0-normals-array" stride="3">
              <param name="X" type="float" />
              <param name="Y" type="float" />
              <param name="Z" type="float" />
            </accessor>
          </technique_common>
        </source>
        <vertices id="mesh_0-vertices">
          <input semantic="POSITION" source="#mesh_0-positions" />
        </vertices>
        <polylist count="164" material="defaultMaterial">
          <input offset="0" semantic="VERTEX" source="#mesh_0-vertices" />
          <input offset="0" semantic="NORMAL" source="#mesh_0-normals" />
          <vcount>3 3 3 3 3 3 3 3 3 3 3 3 3 3 3 3 3 3 3 3 3 3 3 3 3 3 3 3 3 3 3 3 3 3 3 3 3 3 3 3 3 3 3 3 3 3 3 3 3 3 3 3 3 3 3 3 3 3 3 3 3 3 3 3 3 3 3 3 3 3 3 3 3 3 3 3 3 3 3 3 3 3 3 3 3 3 3 3 3 3 3 3 3 3 3 3 3 3 3 3 3 3 3 3 3 3 3 3 3 3 3 3 3 3 3 3 3 3 3 3 3 3 3 3 3 3 3 3 3 3 3 3 3 3 3 3 3 3 3 3 3 3 3 3 3 3 3 3 3 3 3 3 3 3 3 3 3 3 3 3 3 3 3 3 </vcount>
          <p>0 1 2 3 4 5 6 7 8 9 10 11 12 13 14 15 16 17 18 19 20 21 22 23 24 25 26 27 28 29 30 31 32 33 34 35 36 37 38 39 40 41 42 43 44 45 46 47 48 49 50 51 52 53 54 55 56 57 58 59 60 61 62 63 64 65 66 67 68 69 70 71 72 73 74 75 76 77 78 79 80 81 82 83 84 85 86 87 88 89 90 91 92 93 94 95 96 97 98 99 100 101 102 103 104 105 106 107 108 109 110 111 112 113 114 115 116 117 118 119 120 121 122 123 124 125 126 127 128 129 130 131 132 133 134 135 136 137 138 139 140 141 142 143 144 145 146 147 148 149 150 151 152 153 154 155 156 157 158 159 160 161 162 163 164 165 166 167 168 169 170 171 172 173 174 175 176 177 178 179 180 181 182 183 184 185 186 187 188 189 190 191 192 193 194 195 196 197 198 199 200 201 202 203 204 205 206 207 208 209 210 211 212 213 214 215 216 217 218 219 220 221 222 223 224 225 226 227 228 229 230 231 232 233 234 235 236 237 238 239 240 241 242 243 244 245 246 247 248 249 250 251 252 253 254 255 256 257 258 259 260 261 262 263 264 265 266 267 268 269 270 271 272 273 274 275 276 277 278 279 280 281 282 283 284 285 286 287 288 289 290 291 292 293 294 295 296 297 298 299 300 301 302 303 304 305 306 307 308 309 310 311 312 313 314 315 316 317 318 319 320 321 322 323 324 325 326 327 328 329 330 331 332 333 334 335 336 337 338 339 340 341 342 343 344 345 346 347 348 349 350 351 352 353 354 355 356 357 358 359 360 361 362 363 364 365 366 367 368 369 370 371 372 373 374 375 376 377 378 379 380 381 382 383 384 385 386 387 388 389 390 391 392 393 394 395 396 397 398 399 400 401 402 403 404 405 406 407 408 409 410 411 412 413 414 415 416 417 418 419 420 421 422 423 424 425 426 427 428 429 430 431 432 433 434 435 436 437 438 439 440 441 442 443 444 445 446 447 448 449 450 451 452 453 454 455 456 457 458 459 460 461 462 463 464 465 466 467 468 469 470 471 472 473 474 475 476 477 478 479 480 481 482 483 484 485 486 487 488 489 490 491 </p>
        </polylist>
      </mesh>
    </geometry>
  </library_geometries>
  <library_controllers>
  </library_controllers>
  <library_visual_scenes>
    <visual_scene id="_ySTL_BINARY_" name="&lt;STL_BINARY&gt;">
      <node id="node" name="" type="NODE">
        <matrix sid="matrix">1 0 0 0 0 1 0 0 0 0 1 0 0 0 0 1</matrix>
        <instance_geometry url="#mesh_0">
          <bind_material>
            <technique_common>
              <instance_material symbol="defaultMaterial" target="#DefaultMaterial">
              </instance_material>
            </technique_common>
          </bind_material>
        </instance_geometry>
      </node>
    </visual_scene>
  </library_visual_scenes>
  <scene>
    <instance_visual_scene url="#_ySTL_BINARY_" />
  </scene>
</COLLADA>
