<?xml version="1.0" encoding="UTF-8" standalone="no" ?>
<COLLADA xmlns="http://www.collada.org/2005/11/COLLADASchema" version="1.4.1">
  <asset>
    <contributor>
      <author>Assimp</author>
      <authoring_tool>Assimp Exporter</authoring_tool>
    </contributor>
    <created>2026-09-22T21:57:54</created>
    <modified>2026-09-22T21:57:54</modified>
    <unit name="meter" meter="1" />
    <up_axis>Z_UP</up_axis>
  </asset>
  <library_images>
  </library_images>
  <library_effects>
    <effect id="DefaultMaterial-fx" name="DefaultMaterial">
      <profile_COMMON>
        <technique sid="standard">
          <phong>
            <ambient>
              <color sid="ambient">0.0500000007   0.0500000007   0.0500000007   1</color>
            </ambient>
            <diffuse>
              <color sid="diffuse">1   1   1   1</color>
            </diffuse>
            <specular>
              <color sid="specular">1   1   1   1</color>
            </specular>
          </phong>
        </technique>
      </profile_COMMON>
    </effect>
  </library_effects>
  <library_materials>
    <material id="DefaultMaterial" name="DefaultMaterial">
      <instance_effect url="#DefaultMaterial-fx"/>
    </material>
  </library_materials>
  <library_geometries>
    <geometry id="mesh_0" name="" >
      <mesh>
        <source id="mesh_0-positions" name="mesh_0-positions">
          <float_array id="mesh_0-positions-array" count="2952"> -0.0359999649 -0.251999974 -0.010125922 -0.0432709679 -0.251999974 -0.0276797209 -0.0494350269 -0.251999974 -0.0235610213 -0.0494350269 -0.251999974 -0.0235610213 -0.0535537079 -0.251999974 -0.0173969213 -0.0359999649 -0.251999974 -0.010125922 -0.0535537079 -0.251999974 -0.0173969213 -0.0549999997 -0.251999974 -0.010125922 -0.0359999649 -0.251999974 -0.010125922 -0.0549999997 -0.251999974 -0.010125922 -0.0535537079 -0.251999974 -0.00285502151 -0.0359999649 -0.251999974 -0.010125922 -0.0535537079 -0.251999974 -0.00285502151 -0.0494350269 -0.251999974 0.00330907851 -0.0359999649 -0.251999974 -0.010125922 -0.0494350269 -0.251999974 0.00330907851 -0.0432709679 -0.251999974 0.00742777996 -0.0359999649 -0.251999974 -0.010125922 -0.0432709679 -0.251999974 0.00742777996 -0.0359999649 -0.251999974 0.00887407921 -0.0359999649 -0.251999974 -0.010125922 -0.0359999649 -0.251999974 0.00887407921 -0.0287289675 -0.251999974 0.00742777996 -0.0359999649 -0.251999974 -0.010125922 -0.0287289675 -0.251999974 0.00742777996 -0.0225649662 -0.251999974 0.00330907851 -0.0359999649 -0.251999974 -0.010125922 -0.0225649662 -0.251999974 0.00330907851 -0.0184462667 -0.251999974 -0.00285502151 -0.0359999649 -0.251999974 -0.010125922 -0.0184462667 -0.251999974 -0.00285502151 -0.0169999674 -0.251999974 -0.010125922 -0.0359999649 -0.251999974 -0.010125922 -0.0169999674 -0.251999974 -0.010125922 -0.0184462667 -0.251999974 -0.0173969213 -0.0359999649 -0.251999974 -0.010125922 -0.0184462667 -0.251999974 -0.0173969213 -0.0225649662 -0.251999974 -0.0235610213 -0.0359999649 -0.251999974 -0.010125922 -0.0225649662 -0.251999974 -0.0235610213 -0.0287289675 -0.251999974 -0.0276797209 -0.0359999649 -0.251999974 -0.010125922 -0.0287289675 -0.251999974 -0.0276797209 -0.0359999649 -0.251999974 -0.0291259196 -0.0359999649 -0.251999974 -0.010125922 -0.0359999649 -0.251999974 -0.0291259196 -0.0432709679 -0.251999974 -0.0276797209 -0.0359999649 -0.251999974 -0.010125922 -0.0359999649 -0.251999974 -0.0291259196 -0.0359999649 -0.331999987 -0.0291259196 -0.0432709679 -0.331999987 -0.0276797209 -0.0432709679 -0.251999974 -0.0276797209 -0.0432709679 -0.331999987 -0.0276797209 -0.0494350269 -0.331999987 -0.0235610213 -0.0494350269 -0.251999974 -0.0235610213 -0.0494350269 -0.331999987 -0.0235610213 -0.0535537079 -0.331999987 -0.0173969213 -0.0535537079 -0.251999974 -0.0173969213 -0.0535537079 -0.331999987 -0.0173969213 -0.0549999997 -0.331999987 -0.010125922 -0.0549999997 -0.251999974 -0.010125922 -0.0549999997 -0.331999987 -0.010125922 -0.0535537079 -0.331999987 -0.00285502151 -0.0535537079 -0.251999974 -0.00285502151 -0.0535537079 -0.331999987 -0.00285502151 -0.0494350269 -0.331999987 0.00330907851 -0.0494350269 -0.251999974 0.00330907851 -0.0494350269 -0.331999987 0.00330907851 -0.0432709679 -0.331999987 0.00742777996 -0.0432709679 -0.251999974 0.00742777996 -0.0432709679 -0.331999987 0.00742777996 -0.0359999649 -0.331999987 0.00887407921 -0.0359999649 -0.251999974 0.00887407921 -0.0359999649 -0.331999987 0.00887407921 -0.0287289675 -0.331999987 0.00742777996 -0.0287289675 -0.251999974 0.00742777996 -0.0287289675 -0.331999987 0.00742777996 -0.0225649662 -0.331999987 0.00330907851 -0.0225649662 -0.251999974 0.00330907851 -0.0225649662 -0.331999987 0.00330907851 -0.0184462667 -0.331999987 -0.00285502151 -0.0184462667 -0.251999974 -0.00285502151 -0.0184462667 -0.331999987 -0.00285502151 -0.0169999674 -0.331999987 -0.010125922 -0.0169999674 -0.251999974 -0.010125922 -0.0169999674 -0.331999987 -0.010125922 -0.0184462667 -0.331999987 -0.0173969213 -0.0184462667 -0.251999974 -0.0173969213 -0.0184462667 -0.331999987 -0.0173969213 -0.0225649662 -0.331999987 -0.0235610213 -0.0225649662 -0.251999974 -0.0235610213 -0.0225649662 -0.331999987 -0.0235610213 -0.0287289675 -0.331999987 -0.0276797209 -0.0287289675 -0.251999974 -0.0276797209 -0.0287289675 -0.331999987 -0.0276797209 -0.0359999649 -0.331999987 -0.0291259196 -0.0359999649 -0.331999987 -0.0291259196 -0.0359999649 -0.251999974 -0.0291259196 -0.0287289675 -0.251999974 -0.0276797209 -0.0287289675 -0.331999987 -0.0276797209 -0.0287289675 -0.251999974 -0.0276797209 -0.0225649662 -0.251999974 -0.0235610213 -0.0225649662 -0.331999987 -0.0235610213 -0.0225649662 -0.251999974 -0.0235610213 -0.0184462667 -0.251999974 -0.0173969213 -0.0184462667 -0.331999987 -0.0173969213 -0.0184462667 -0.251999974 -0.0173969213 -0.0169999674 -0.251999974 -0.010125922 -0.0169999674 -0.331999987 -0.010125922 -0.0169999674 -0.251999974 -0.010125922 -0.0184462667 -0.251999974 -0.00285502151 -0.0184462667 -0.331999987 -0.00285502151 -0.0184462667 -0.251999974 -0.00285502151 -0.0225649662 -0.251999974 0.00330907851 -0.0225649662 -0.331999987 0.00330907851 -0.0225649662 -0.251999974 0.00330907851 -0.0287289675 -0.251999974 0.00742777996 -0.0287289675 -0.331999987 0.00742777996 -0.0287289675 -0.251999974 0.00742777996 -0.0359999649 -0.251999974 0.00887407921 -0.0359999649 -0.331999987 0.00887407921 -0.0359999649 -0.251999974 0.00887407921 -0.0432709679 -0.251999974 0.00742777996 -0.0432709679 -0.331999987 0.00742777996 -0.0432709679 -0.251999974 0.00742777996 -0.0494350269 -0.251999974 0.00330907851 -0.0494350269 -0.331999987 0.00330907851 -0.0494350269 -0.251999974 0.00330907851 -0.0535537079 -0.251999974 -0.00285502151 -0.0535537079 -0.331999987 -0.00285502151 -0.0535537079 -0.251999974 -0.00285502151 -0.0549999997 -0.251999974 -0.010125922 -0.0549999997 -0.331999987 -0.010125922 -0.0549999997 -0.251999974 -0.010125922 -0.0535537079 -0.251999974 -0.0173969213 -0.0535537079 -0.331999987 -0.0173969213 -0.0535537079 -0.251999974 -0.0173969213 -0.0494350269 -0.251999974 -0.0235610213 -0.0494350269 -0.331999987 -0.0235610213 -0.0494350269 -0.251999974 -0.0235610213 -0.0432709679 -0.251999974 -0.0276797209 -0.0432709679 -0.331999987 -0.0276797209 -0.0432709679 -0.251999974 -0.0276797209 -0.0359999649 -0.251999974 -0.0291259196 -0.0225649662 -0.331999987 0.00330907851 0.0100000314 -0.331999987 0.00987407938 -0.00145016611 -0.331999987 0.0048037786 0.0100000314 -0.331999987 0.00987407938 0.0200000368 -0.331999987 -0.000125920356 0.00402503461 -0.331999987 0.00432387926 -0.0225649662 -0.331999987 0.00330907851 -0.00673056766 -0.331999987 0.00327917933 -0.0111074671 -0.331999987 -4.51206652e-05 0.00402503461 -0.331999987 0.00432387926 -0.00145016611 -0.331999987 0.0048037786 0.0100000314 -0.331999987 0.00987407938 -0.0169999674 -0.331999987 -0.010125922 -0.0184462667 -0.331999987 -0.00285502151 -0.0139930658 -0.331999987 -0.00472282059 -0.0169999674 -0.331999987 -0.010125922 -0.0149999671 -0.331999987 -0.010125922 -0.0139930658 -0.331999987 -0.0155291203 0.0100000314 -0.331999987 -0.0301259216 -0.00145016611 -0.331999987 -0.0250557195 0.00402503461 -0.331999987 -0.0245758202 -0.0225649662 -0.331999987 -0.0235610213 -0.00673056766 -0.331999987 -0.0235311221 -0.00145016611 -0.331999987 -0.0250557195 -0.00145016611 -0.331999987 0.0048037786 -0.00673056766 -0.331999987 0.00327917933 -0.0225649662 -0.331999987 0.00330907851 -0.0184462667 -0.331999987 -0.00285502151 -0.0111074671 -0.331999987 -4.51206652e-05 -0.0139930658 -0.331999987 -0.00472282059 -0.0139930658 -0.331999987 -0.0155291203 -0.0184462667 -0.331999987 -0.0173969213 -0.0169999674 -0.331999987 -0.010125922 -0.00145016611 -0.331999987 -0.0250557195 0.0100000314 -0.331999987 -0.0301259216 -0.0225649662 -0.331999987 -0.0235610213 -0.0225649662 -0.331999987 -0.0235610213 -0.0184462667 -0.331999987 -0.0173969213 -0.0111074671 -0.331999987 -0.0202068221 -0.0359999649 -0.331999987 -0.0301259216 -0.0359999649 -0.331999987 -0.0291259196 -0.0287289675 -0.331999987 -0.0276797209 -0.0359999649 -0.331999987 0.00987407938 0.0100000314 -0.331999987 0.00987407938 -0.0287289675 -0.331999987 0.00742777996 -0.0111074671 -0.331999987 -4.51206652e-05 -0.0184462667 -0.331999987 -0.00285502151 -0.0225649662 -0.331999987 0.00330907851 -0.0139930658 -0.331999987 -0.0155291203 -0.0111074671 -0.331999987 -0.0202068221 -0.0184462667 -0.331999987 -0.0173969213 -0.0111074671 -0.331999987 -0.0202068221 -0.00673056766 -0.331999987 -0.0235311221 -0.0225649662 -0.331999987 -0.0235610213 -0.0287289675 -0.331999987 -0.0276797209 0.0100000314 -0.331999987 -0.0301259216 -0.0359999649 -0.331999987 -0.0301259216 -0.0359999649 -0.331999987 -0.0301259216 -0.043653667 -0.331999987 -0.0286035221 -0.0432709679 -0.331999987 -0.0276797209 -0.043653667 -0.331999987 -0.0286035221 -0.0501421355 -0.331999987 -0.0242681224 -0.0494350269 -0.331999987 -0.0235610213 -0.0501421355 -0.331999987 -0.0242681224 -0.0544775873 -0.331999987 -0.0177796204 -0.0535537079 -0.331999987 -0.0173969213 -0.0225649662 -0.331999987 0.00330907851 -0.0287289675 -0.331999987 0.00742777996 0.0100000314 -0.331999987 0.00987407938 0.00402503461 -0.331999987 -0.0245758202 0.0200000368 -0.331999987 -0.02012592 0.0100000314 -0.331999987 -0.0301259216 -0.0432709679 -0.331999987 -0.0276797209 -0.0359999649 -0.331999987 -0.0291259196 -0.0359999649 -0.331999987 -0.0301259216 -0.0535537079 -0.331999987 -0.0173969213 -0.0494350269 -0.331999987 -0.0235610213 -0.0501421355 -0.331999987 -0.0242681224 -0.0139930658 -0.331999987 -0.00472282059 -0.0149999671 -0.331999987 -0.010125922 -0.0169999674 -0.331999987 -0.010125922 -0.0494350269 -0.331999987 -0.0235610213 -0.0432709679 -0.331999987 -0.0276797209 -0.043653667 -0.331999987 -0.0286035221 -0.0544775873 -0.331999987 -0.0177796204 -0.0560000017 -0.331999987 -0.010125922 -0.0549999997 -0.331999987 -0.010125922 -0.0560000017 -0.331999987 -0.010125922 -0.0544775873 -0.331999987 -0.00247232057 -0.0535537079 -0.331999987 -0.00285502151 -0.0544775873 -0.331999987 -0.00247232057 -0.0501421355 -0.331999987 0.00401617959 -0.0494350269 -0.331999987 0.00330907851 -0.0501421355 -0.331999987 0.00401617959 -0.043653667 -0.331999987 0.00835157931 -0.0432709679 -0.331999987 0.00742777996 -0.0287289675 -0.331999987 -0.0276797209 -0.0225649662 -0.331999987 -0.0235610213 0.0100000314 -0.331999987 -0.0301259216 -0.0535537079 -0.331999987 -0.00285502151 -0.0549999997 -0.331999987 -0.010125922 -0.0560000017 -0.331999987 -0.010125922 -0.0432709679 -0.331999987 0.00742777996 -0.0494350269 -0.331999987 0.00330907851 -0.0501421355 -0.331999987 0.00401617959 -0.043653667 -0.331999987 0.00835157931 -0.0359999649 -0.331999987 0.00987407938 -0.0359999649 -0.331999987 0.00887407921 -0.0549999997 -0.331999987 -0.010125922 -0.0535537079 -0.331999987 -0.0173969213 -0.0544775873 -0.331999987 -0.0177796204 -0.0359999649 -0.331999987 0.00887407921 -0.0432709679 -0.331999987 0.00742777996 -0.043653667 -0.331999987 0.00835157931 -0.0494350269 -0.331999987 0.00330907851 -0.0535537079 -0.331999987 -0.00285502151 -0.0544775873 -0.331999987 -0.00247232057 -0.0287289675 -0.331999987 0.00742777996 -0.0359999649 -0.331999987 0.00887407921 -0.0359999649 -0.331999987 0.00987407938 0.0100000314 -0.331999987 -0.0301259216 0.0100000314 -0.353999972 -0.0301259216 -0.0359999649 -0.353999972 -0.0301259216 -0.0359999649 -0.353999972 -0.0301259216 -0.0359999649 -0.331999987 -0.0301259216 0.0100000314 -0.331999987 -0.0301259216 -0.0359999649 -0.331999987 -0.0301259216 -0.0359999649 -0.353999972 -0.0301259216 -0.043653667 -0.353999972 -0.0286035221 -0.043653667 -0.331999987 -0.0286035221 -0.043653667 -0.353999972 -0.0286035221 -0.0501421355 -0.353999972 -0.0242681224 -0.0501421355 -0.331999987 -0.0242681224 -0.0501421355 -0.353999972 -0.0242681224 -0.0544775873 -0.353999972 -0.0177796204 -0.0544775873 -0.331999987 -0.0177796204 -0.0544775873 -0.353999972 -0.0177796204 -0.0560000017 -0.353999972 -0.010125922 -0.0560000017 -0.331999987 -0.010125922 -0.0560000017 -0.353999972 -0.010125922 -0.0544775873 -0.353999972 -0.00247232057 -0.0544775873 -0.331999987 -0.00247232057 -0.0544775873 -0.353999972 -0.00247232057 -0.0501421355 -0.353999972 0.00401617959 -0.0501421355 -0.331999987 0.00401617959 -0.0501421355 -0.353999972 0.00401617959 -0.043653667 -0.353999972 0.00835157931 -0.043653667 -0.331999987 0.00835157931 -0.043653667 -0.353999972 0.00835157931 -0.0359999649 -0.353999972 0.00987407938 -0.0359999649 -0.353999972 0.00987407938 -0.0359999649 -0.331999987 0.00987407938 -0.043653667 -0.331999987 0.00835157931 -0.043653667 -0.353999972 0.00835157931 -0.043653667 -0.331999987 0.00835157931 -0.0501421355 -0.331999987 0.00401617959 -0.0501421355 -0.353999972 0.00401617959 -0.0501421355 -0.331999987 0.00401617959 -0.0544775873 -0.331999987 -0.00247232057 -0.0544775873 -0.353999972 -0.00247232057 -0.0544775873 -0.331999987 -0.00247232057 -0.0560000017 -0.331999987 -0.010125922 -0.0560000017 -0.353999972 -0.010125922 -0.0560000017 -0.331999987 -0.010125922 -0.0544775873 -0.331999987 -0.0177796204 -0.0544775873 -0.353999972 -0.0177796204 -0.0544775873 -0.331999987 -0.0177796204 -0.0501421355 -0.331999987 -0.0242681224 -0.0501421355 -0.353999972 -0.0242681224 -0.0501421355 -0.331999987 -0.0242681224 -0.043653667 -0.331999987 -0.0286035221 -0.043653667 -0.353999972 -0.0286035221 -0.043653667 -0.331999987 -0.0286035221 -0.0359999649 -0.331999987 -0.0301259216 -0.0359999649 -0.331999987 0.00987407938 -0.0359999649 -0.353999972 0.00987407938 0.0100000314 -0.353999972 0.00987407938 0.0100000314 -0.353999972 0.00987407938 0.0100000314 -0.331999987 0.00987407938 -0.0359999649 -0.331999987 0.00987407938 0.0100000314 -0.331999987 0.00987407938 0.0100000314 -0.353999972 0.00987407938 0.0200000368 -0.353999972 -0.000125920356 0.0200000368 -0.353999972 -0.000125920356 0.0200000368 -0.331999987 -0.000125920356 0.0100000314 -0.331999987 0.00987407938 0.0200000368 -0.331999987 -0.02012592 0.0200000368 -0.353999972 -0.02012592 0.0100000314 -0.353999972 -0.0301259216 0.0100000314 -0.353999972 -0.0301259216 0.0100000314 -0.331999987 -0.0301259216 0.0200000368 -0.331999987 -0.02012592 0.0200000368 -0.0270002726 -0.000125920356 0.0200000368 -0.331999987 -0.000125920356 0.0200000368 -0.331999987 -0.02012592 0.0200000368 -0.353999972 -0.02012592 0.0200000368 -0.331999987 -0.02012592 0.0200000368 -0.331999987 -0.000125920356 0.0200000368 -0.331999987 -0.000125920356 0.0200000368 -0.353999972 -0.000125920356 0.0200000368 -0.353999972 -0.02012592 0.0200000368 -0.331999987 -0.02012592 0.0200000368 -0.0270002726 -0.02012592 0.0200000368 -0.0270002726 -0.000125920356 0.0200000368 -0.0270002726 -0.02012592 0.0200000368 -0.331999987 -0.02012592 0.00402503461 -0.331999987 -0.0245758202 0.00402503461 -0.331999987 -0.0245758202 0.00402503461 -0.0270002726 -0.0245758202 0.0200000368 -0.0270002726 -0.02012592 0.00402503461 -0.0270002726 -0.0245758202 0.00402503461 -0.331999987 -0.0245758202 -0.00145016611 -0.331999987 -0.0250557195 -0.00145016611 -0.0270002726 -0.0250557195 -0.00145016611 -0.331999987 -0.0250557195 -0.00673056766 -0.331999987 -0.0235311221 -0.00673056766 -0.0270002726 -0.0235311221 -0.00673056766 -0.331999987 -0.0235311221 -0.0111074671 -0.331999987 -0.0202068221 -0.0111074671 -0.0270002726 -0.0202068221 -0.0111074671 -0.331999987 -0.0202068221 -0.0139930658 -0.331999987 -0.0155291203 -0.0139930658 -0.0270002726 -0.0155291203 -0.0139930658 -0.331999987 -0.0155291203 -0.0149999671 -0.331999987 -0.010125922 -0.0149999671 -0.0270002726 -0.010125922 -0.0149999671 -0.331999987 -0.010125922 -0.0139930658 -0.331999987 -0.00472282059 -0.0139930658 -0.0270002726 -0.00472282059 -0.0139930658 -0.331999987 -0.00472282059 -0.0111074671 -0.331999987 -4.51206652e-05 -0.0111074671 -0.0270002726 -4.51206652e-05 -0.0111074671 -0.331999987 -4.51206652e-05 -0.00673056766 -0.331999987 0.00327917933 -0.00673056766 -0.0270002726 0.00327917933 -0.00673056766 -0.331999987 0.00327917933 -0.00145016611 -0.331999987 0.0048037786 -0.00145016611 -0.0270002726 0.0048037786 -0.00145016611 -0.331999987 0.0048037786 0.00402503461 -0.331999987 0.00432387926 0.00402503461 -0.331999987 0.00432387926 0.00402503461 -0.0270002726 0.00432387926 -0.00145016611 -0.0270002726 0.0048037786 -0.00145016611 -0.331999987 0.0048037786 -0.00145016611 -0.0270002726 0.0048037786 -0.00673056766 -0.0270002726 0.00327917933 -0.00673056766 -0.331999987 0.00327917933 -0.00673056766 -0.0270002726 0.00327917933 -0.0111074671 -0.0270002726 -4.51206652e-05 -0.0111074671 -0.331999987 -4.51206652e-05 -0.0111074671 -0.0270002726 -4.51206652e-05 -0.0139930658 -0.0270002726 -0.00472282059 -0.0139930658 -0.331999987 -0.00472282059 -0.0139930658 -0.0270002726 -0.00472282059 -0.0149999671 -0.0270002726 -0.010125922 -0.0149999671 -0.331999987 -0.010125922 -0.0149999671 -0.0270002726 -0.010125922 -0.0139930658 -0.0270002726 -0.0155291203 -0.0139930658 -0.331999987 -0.0155291203 -0.0139930658 -0.0270002726 -0.0155291203 -0.0111074671 -0.0270002726 -0.0202068221 -0.0111074671 -0.331999987 -0.0202068221 -0.0111074671 -0.0270002726 -0.0202068221 -0.00673056766 -0.0270002726 -0.0235311221 -0.00673056766 -0.331999987 -0.0235311221 -0.00673056766 -0.0270002726 -0.0235311221 -0.00145016611 -0.0270002726 -0.0250557195 -0.00145016611 -0.331999987 -0.0250557195 -0.00145016611 -0.0270002726 -0.0250557195 0.00402503461 -0.0270002726 -0.0245758202 0.00402503461 -0.0270002726 0.00432387926 0.00402503461 -0.331999987 0.00432387926 0.0200000368 -0.331999987 -0.000125920356 0.0200000368 -0.331999987 -0.000125920356 0.0200000368 -0.0270002726 -0.000125920356 0.00402503461 -0.0270002726 0.00432387926 0.00402503461 -0.0270002726 -0.0245758202 -0.00145016611 -0.0270002726 -0.0250557195 3.35368426e-08 -0.0270002726 -0.02012592 -0.00145016611 -0.0270002726 -0.0250557195 -0.00673056766 -0.0270002726 -0.0235311221 -0.00382686779 -0.0270002726 -0.0193647202 0.00402503461 -0.0270002726 0.00432387926 0.0200000368 -0.0270002726 -0.000125920356 0.00707103685 -0.0270002726 -0.00305492058 0.00402503461 -0.0270002726 -0.0245758202 0.00382683426 -0.0270002726 -0.0193647202 0.00707103685 -0.0270002726 -0.0171970222 -0.00382686779 -0.0270002726 -0.0193647202 3.35368426e-08 -0.0270002726 -0.02012592 -0.00145016611 -0.0270002726 -0.0250557195 -0.00673056766 -0.0270002726 -0.0235311221 -0.0111074671 -0.0270002726 -0.0202068221 -0.00707106665 -0.0270002726 -0.0171970222 0.0200000368 -0.0270002726 -0.000125920356 0.00923883542 -0.0270002726 -0.00629912131 0.00707103685 -0.0270002726 -0.00305492058 0.0200000368 -0.0270002726 -0.000125920356 0.0200000368 -0.0270002726 -0.02012592 0.0100000314 -0.0270002726 -0.010125922 0.00707103685 -0.0270002726 -0.0171970222 0.0200000368 -0.0270002726 -0.02012592 0.00402503461 -0.0270002726 -0.0245758202 -0.00707106665 -0.0270002726 -0.0171970222 -0.00382686779 -0.0270002726 -0.0193647202 -0.00673056766 -0.0270002726 -0.0235311221 -0.0111074671 -0.0270002726 -0.0202068221 -0.0139930658 -0.0270002726 -0.0155291203 -0.00923876837 -0.0270002726 -0.0139528196 0.0100000314 -0.0270002726 -0.010125922 0.00923883542 -0.0270002726 -0.00629912131 0.0200000368 -0.0270002726 -0.000125920356 0.00707103685 -0.0270002726 -0.0171970222 0.00923883542 -0.0270002726 -0.0139528196 0.0200000368 -0.0270002726 -0.02012592 -0.00923876837 -0.0270002726 -0.0139528196 -0.00707106665 -0.0270002726 -0.0171970222 -0.0111074671 -0.0270002726 -0.0202068221 -0.0139930658 -0.0270002726 -0.0155291203 -0.0149999671 -0.0270002726 -0.010125922 -0.00999996811 -0.0270002726 -0.010125922 -0.0111074671 -0.0270002726 -4.51206652e-05 -0.00707106665 -0.0270002726 -0.00305492058 -0.00923876837 -0.0270002726 -0.00629912131 -0.00673056766 -0.0270002726 0.00327917933 -0.00382686779 -0.0270002726 -0.000887220667 -0.00707106665 -0.0270002726 -0.00305492058 0.00923883542 -0.0270002726 -0.0139528196 0.0100000314 -0.0270002726 -0.010125922 0.0200000368 -0.0270002726 -0.02012592 -0.00999996811 -0.0270002726 -0.010125922 -0.00923876837 -0.0270002726 -0.0139528196 -0.0139930658 -0.0270002726 -0.0155291203 -0.0139930658 -0.0270002726 -0.00472282059 -0.00923876837 -0.0270002726 -0.00629912131 -0.00999996811 -0.0270002726 -0.010125922 -0.00707106665 -0.0270002726 -0.00305492058 -0.0111074671 -0.0270002726 -4.51206652e-05 -0.00673056766 -0.0270002726 0.00327917933 3.35368426e-08 -0.0270002726 -0.02012592 0.00382683426 -0.0270002726 -0.0193647202 0.00402503461 -0.0270002726 -0.0245758202 -0.00923876837 -0.0270002726 -0.00629912131 -0.0139930658 -0.0270002726 -0.00472282059 -0.0111074671 -0.0270002726 -4.51206652e-05 -0.00999996811 -0.0270002726 -0.010125922 -0.0149999671 -0.0270002726 -0.010125922 -0.0139930658 -0.0270002726 -0.00472282059 -0.00145016611 -0.0270002726 0.0048037786 3.35368426e-08 -0.0270002726 -0.000125920356 -0.00382686779 -0.0270002726 -0.000887220667 0.00402503461 -0.0270002726 0.00432387926 0.00382683426 -0.0270002726 -0.000887220667 3.35368426e-08 -0.0270002726 -0.000125920356 -0.00382686779 -0.0270002726 -0.000887220667 -0.00673056766 -0.0270002726 0.00327917933 -0.00145016611 -0.0270002726 0.0048037786 0.00707103685 -0.0270002726 -0.00305492058 0.00382683426 -0.0270002726 -0.000887220667 0.00402503461 -0.0270002726 0.00432387926 3.35368426e-08 -0.0270002726 -0.000125920356 -0.00145016611 -0.0270002726 0.0048037786 0.00402503461 -0.0270002726 0.00432387926 -0.00382686779 -0.343999982 -0.0193647202 3.35368426e-08 -0.343999982 -0.02012592 3.35368426e-08 -0.0270002726 -0.02012592 -0.00707106665 -0.343999982 -0.0171970222 -0.00382686779 -0.343999982 -0.0193647202 -0.00382686779 -0.0270002726 -0.0193647202 -0.00923876837 -0.343999982 -0.0139528196 -0.00707106665 -0.343999982 -0.0171970222 -0.00707106665 -0.0270002726 -0.0171970222 -0.00999996811 -0.343999982 -0.010125922 -0.00923876837 -0.343999982 -0.0139528196 -0.00923876837 -0.0270002726 -0.0139528196 -0.00923876837 -0.343999982 -0.00629912131 -0.00999996811 -0.343999982 -0.010125922 -0.00999996811 -0.0270002726 -0.010125922 -0.00707106665 -0.343999982 -0.00305492058 -0.00923876837 -0.343999982 -0.00629912131 -0.00923876837 -0.0270002726 -0.00629912131 -0.00382686779 -0.343999982 -0.000887220667 -0.00707106665 -0.343999982 -0.00305492058 -0.00707106665 -0.0270002726 -0.00305492058 3.35368426e-08 -0.343999982 -0.000125920356 -0.00382686779 -0.343999982 -0.000887220667 -0.00382686779 -0.0270002726 -0.000887220667 0.00382683426 -0.343999982 -0.000887220667 3.35368426e-08 -0.343999982 -0.000125920356 3.35368426e-08 -0.0270002726 -0.000125920356 0.00707103685 -0.343999982 -0.00305492058 0.00382683426 -0.343999982 -0.000887220667 0.00382683426 -0.0270002726 -0.000887220667 0.00923883542 -0.343999982 -0.00629912131 0.00707103685 -0.343999982 -0.00305492058 0.00707103685 -0.0270002726 -0.00305492058 0.0100000314 -0.343999982 -0.010125922 0.00923883542 -0.343999982 -0.00629912131 0.00923883542 -0.0270002726 -0.00629912131 0.00923883542 -0.343999982 -0.0139528196 0.0100000314 -0.343999982 -0.010125922 0.0100000314 -0.0270002726 -0.010125922 0.00707103685 -0.343999982 -0.0171970222 0.00923883542 -0.343999982 -0.0139528196 0.00923883542 -0.0270002726 -0.0139528196 0.00382683426 -0.343999982 -0.0193647202 0.00707103685 -0.343999982 -0.0171970222 0.00707103685 -0.0270002726 -0.0171970222 3.35368426e-08 -0.343999982 -0.02012592 0.00382683426 -0.343999982 -0.0193647202 0.00382683426 -0.0270002726 -0.0193647202 0.00382683426 -0.0270002726 -0.0193647202 3.35368426e-08 -0.0270002726 -0.02012592 3.35368426e-08 -0.343999982 -0.02012592 0.00707103685 -0.0270002726 -0.0171970222 0.00382683426 -0.0270002726 -0.0193647202 0.00382683426 -0.343999982 -0.0193647202 0.00923883542 -0.0270002726 -0.0139528196 0.00707103685 -0.0270002726 -0.0171970222 0.00707103685 -0.343999982 -0.0171970222 0.0100000314 -0.0270002726 -0.010125922 0.00923883542 -0.0270002726 -0.0139528196 0.00923883542 -0.343999982 -0.0139528196 0.00923883542 -0.0270002726 -0.00629912131 0.0100000314 -0.0270002726 -0.010125922 0.0100000314 -0.343999982 -0.010125922 0.00707103685 -0.0270002726 -0.00305492058 0.00923883542 -0.0270002726 -0.00629912131 0.00923883542 -0.343999982 -0.00629912131 0.00382683426 -0.0270002726 -0.000887220667 0.00707103685 -0.0270002726 -0.00305492058 0.00707103685 -0.343999982 -0.00305492058 3.35368426e-08 -0.0270002726 -0.000125920356 0.00382683426 -0.0270002726 -0.000887220667 0.00382683426 -0.343999982 -0.000887220667 -0.00382686779 -0.0270002726 -0.000887220667 3.35368426e-08 -0.0270002726 -0.000125920356 3.35368426e-08 -0.343999982 -0.000125920356 -0.00707106665 -0.0270002726 -0.00305492058 -0.00382686779 -0.0270002726 -0.000887220667 -0.00382686779 -0.343999982 -0.000887220667 -0.00923876837 -0.0270002726 -0.00629912131 -0.00707106665 -0.0270002726 -0.00305492058 -0.00707106665 -0.343999982 -0.00305492058 -0.00999996811 -0.0270002726 -0.010125922 -0.00923876837 -0.0270002726 -0.00629912131 -0.00923876837 -0.343999982 -0.00629912131 -0.00923876837 -0.0270002726 -0.0139528196 -0.00999996811 -0.0270002726 -0.010125922 -0.00999996811 -0.343999982 -0.010125922 -0.00707106665 -0.0270002726 -0.0171970222 -0.00923876837 -0.0270002726 -0.0139528196 -0.00923876837 -0.343999982 -0.0139528196 -0.00382686779 -0.0270002726 -0.0193647202 -0.00707106665 -0.0270002726 -0.0171970222 -0.00707106665 -0.343999982 -0.0171970222 3.35368426e-08 -0.0270002726 -0.02012592 -0.00382686779 -0.0270002726 -0.0193647202 -0.00382686779 -0.343999982 -0.0193647202 3.35368426e-08 -0.343999982 -0.010125922 -0.00382686779 -0.343999982 -0.0193647202 -0.00707106665 -0.343999982 -0.0171970222 -0.00707106665 -0.343999982 -0.0171970222 -0.00923876837 -0.343999982 -0.0139528196 3.35368426e-08 -0.343999982 -0.010125922 -0.00923876837 -0.343999982 -0.0139528196 -0.00999996811 -0.343999982 -0.010125922 3.35368426e-08 -0.343999982 -0.010125922 -0.00999996811 -0.343999982 -0.010125922 -0.00923876837 -0.343999982 -0.00629912131 3.35368426e-08 -0.343999982 -0.010125922 -0.00923876837 -0.343999982 -0.00629912131 -0.00707106665 -0.343999982 -0.00305492058 3.35368426e-08 -0.343999982 -0.010125922 -0.00707106665 -0.343999982 -0.00305492058 -0.00382686779 -0.343999982 -0.000887220667 3.35368426e-08 -0.343999982 -0.010125922 -0.00382686779 -0.343999982 -0.000887220667 3.35368426e-08 -0.343999982 -0.000125920356 3.35368426e-08 -0.343999982 -0.010125922 3.35368426e-08 -0.343999982 -0.000125920356 0.00382683426 -0.343999982 -0.000887220667 3.35368426e-08 -0.343999982 -0.010125922 0.00382683426 -0.343999982 -0.000887220667 0.00707103685 -0.343999982 -0.00305492058 3.35368426e-08 -0.343999982 -0.010125922 0.00707103685 -0.343999982 -0.00305492058 0.00923883542 -0.343999982 -0.00629912131 3.35368426e-08 -0.343999982 -0.010125922 0.00923883542 -0.343999982 -0.00629912131 0.0100000314 -0.343999982 -0.010125922 3.35368426e-08 -0.343999982 -0.010125922 0.0100000314 -0.343999982 -0.010125922 0.00923883542 -0.343999982 -0.0139528196 3.35368426e-08 -0.343999982 -0.010125922 0.00923883542 -0.343999982 -0.0139528196 0.00707103685 -0.343999982 -0.0171970222 3.35368426e-08 -0.343999982 -0.010125922 0.00707103685 -0.343999982 -0.0171970222 0.00382683426 -0.343999982 -0.0193647202 3.35368426e-08 -0.343999982 -0.010125922 0.00382683426 -0.343999982 -0.0193647202 3.35368426e-08 -0.343999982 -0.02012592 3.35368426e-08 -0.343999982 -0.010125922 3.35368426e-08 -0.343999982 -0.02012592 -0.00382686779 -0.343999982 -0.0193647202 3.35368426e-08 -0.343999982 -0.010125922 -0.00919996575 -0.353999972 -0.0153259207 -0.0560000017 -0.353999972 -0.010125922 -0.0544775873 -0.353999972 -0.0177796204 -0.0544775873 -0.353999972 -0.0177796204 -0.0501421355 -0.353999972 -0.0242681224 -0.00919996575 -0.353999972 -0.0153259207 -0.00919996575 -0.353999972 -0.0153259207 -0.0501421355 -0.353999972 0.00401617959 -0.0544775873 -0.353999972 -0.00247232057 -0.0544775873 -0.353999972 -0.00247232057 -0.0560000017 -0.353999972 -0.010125922 -0.00919996575 -0.353999972 -0.0153259207 -0.00919996575 -0.353999972 -0.0153259207 -0.00919996575 -0.353999972 -0.0049259197 -0.043653667 -0.353999972 0.00835157931 -0.00919996575 -0.353999972 -0.0049259197 -0.00519996509 -0.353999972 -0.000925920845 -0.0359999649 -0.353999972 0.00987407938 -0.043653667 -0.353999972 0.00835157931 -0.0501421355 -0.353999972 0.00401617959 -0.00919996575 -0.353999972 -0.0153259207 -0.0501421355 -0.353999972 -0.0242681224 -0.043653667 -0.353999972 -0.0286035221 -0.00919996575 -0.353999972 -0.0153259207 -0.00919996575 -0.353999972 -0.0153259207 -0.043653667 -0.353999972 -0.0286035221 -0.0359999649 -0.353999972 -0.0301259216 0.0200000368 -0.353999972 -0.02012592 0.0092000328 -0.353999972 -0.0153259207 0.00520003214 -0.353999972 -0.0193259213 0.0200000368 -0.353999972 -0.000125920356 0.0092000328 -0.353999972 -0.0049259197 0.0092000328 -0.353999972 -0.0153259207 0.0100000314 -0.353999972 0.00987407938 -0.0359999649 -0.353999972 0.00987407938 -0.00519996509 -0.353999972 -0.000925920845 -0.0359999649 -0.353999972 -0.0301259216 -0.00519996509 -0.353999972 -0.0193259213 -0.00919996575 -0.353999972 -0.0153259207 0.0092000328 -0.353999972 -0.0153259207 0.0200000368 -0.353999972 -0.02012592 0.0200000368 -0.353999972 -0.000125920356 0.0200000368 -0.353999972 -0.000125920356 0.0100000314 -0.353999972 0.00987407938 0.00520003214 -0.353999972 -0.000925920845 -0.0359999649 -0.353999972 0.00987407938 -0.043653667 -0.353999972 0.00835157931 -0.00919996575 -0.353999972 -0.0049259197 0.0100000314 -0.353999972 -0.0301259216 0.00520003214 -0.353999972 -0.0193259213 -0.00519996509 -0.353999972 -0.0193259213 0.00520003214 -0.353999972 -0.000925920845 0.0092000328 -0.353999972 -0.0049259197 0.0200000368 -0.353999972 -0.000125920356 -0.00519996509 -0.353999972 -0.0193259213 -0.0359999649 -0.353999972 -0.0301259216 0.0100000314 -0.353999972 -0.0301259216 -0.00519996509 -0.353999972 -0.000925920845 0.00520003214 -0.353999972 -0.000925920845 0.0100000314 -0.353999972 0.00987407938 0.00520003214 -0.353999972 -0.0193259213 0.0100000314 -0.353999972 -0.0301259216 0.0200000368 -0.353999972 -0.02012592 0.0092000328 -0.373000264 -0.0049259197 0.0092000328 -0.373000264 -0.0153259207 0.0092000328 -0.353999972 -0.0153259207 0.0092000328 -0.353999972 -0.0153259207 0.0092000328 -0.353999972 -0.0049259197 0.0092000328 -0.373000264 -0.0049259197 -0.00919996575 -0.373000264 -0.0049259197 0.0092000328 -0.373000264 -0.0049259197 0.00520003214 -0.373000264 -0.000925920845 0.0092000328 -0.373000264 -0.0153259207 -0.00919996575 -0.373000264 -0.0153259207 -0.00519996509 -0.373000264 -0.0193259213 -0.00919996575 -0.373000264 -0.0049259197 0.0092000328 -0.373000264 -0.0153259207 0.0092000328 -0.373000264 -0.0049259197 0.0092000328 -0.373000264 -0.0153259207 -0.00919996575 -0.373000264 -0.0049259197 -0.00919996575 -0.373000264 -0.0153259207 -0.00519996509 -0.373000264 -0.0193259213 0.00520003214 -0.373000264 -0.0193259213 0.0092000328 -0.373000264 -0.0153259207 0.00520003214 -0.373000264 -0.000925920845 -0.00519996509 -0.373000264 -0.000925920845 -0.00919996575 -0.373000264 -0.0049259197 -0.00919996575 -0.353999972 -0.0049259197 -0.00919996575 -0.353999972 -0.0153259207 -0.00919996575 -0.373000264 -0.0153259207 -0.00919996575 -0.373000264 -0.0153259207 -0.00919996575 -0.373000264 -0.0049259197 -0.00919996575 -0.353999972 -0.0049259197 -0.00919996575 -0.353999972 -0.0049259197 -0.00919996575 -0.373000264 -0.0049259197 -0.00519996509 -0.373000264 -0.000925920845 -0.00519996509 -0.373000264 -0.000925920845 -0.00519996509 -0.353999972 -0.000925920845 -0.00919996575 -0.353999972 -0.0049259197 -0.00519996509 -0.353999972 -0.0193259213 -0.00519996509 -0.373000264 -0.0193259213 -0.00919996575 -0.373000264 -0.0153259207 -0.00919996575 -0.373000264 -0.0153259207 -0.00919996575 -0.353999972 -0.0153259207 -0.00519996509 -0.353999972 -0.0193259213 0.00520003214 -0.353999972 -0.000925920845 0.00520003214 -0.373000264 -0.000925920845 0.0092000328 -0.373000264 -0.0049259197 0.0092000328 -0.373000264 -0.0049259197 0.0092000328 -0.353999972 -0.0049259197 0.00520003214 -0.353999972 -0.000925920845 0.0092000328 -0.353999972 -0.0153259207 0.0092000328 -0.373000264 -0.0153259207 0.00520003214 -0.373000264 -0.0193259213 0.00520003214 -0.373000264 -0.0193259213 0.00520003214 -0.353999972 -0.0193259213 0.0092000328 -0.353999972 -0.0153259207 0.00520003214 -0.353999972 -0.000925920845 0.00286403298 -0.363813668 -0.000925920845 0.00310003385 -0.36499998 -0.000925920845 0.00520003214 -0.353999972 -0.000925920845 0.00219203159 -0.362807989 -0.000925920845 0.00286403298 -0.363813668 -0.000925920845 0.00520003214 -0.353999972 -0.000925920845 0.0011863336 -0.362135977 -0.000925920845 0.00219203159 -0.362807989 -0.000925920845 0.00520003214 -0.353999972 -0.000925920845 -0.00519996509 -0.353999972 -0.000925920845 3.35368426e-08 -0.361899972 -0.000925920845 0.00520003214 -0.373000264 -0.000925920845 0.00310003385 -0.36499998 -0.000925920845 0.00286403298 -0.366186291 -0.000925920845 3.35368426e-08 -0.361899972 -0.000925920845 0.0011863336 -0.362135977 -0.000925920845 0.00520003214 -0.353999972 -0.000925920845 -0.00519996509 -0.353999972 -0.000925920845 -0.00219206512 -0.362807989 -0.000925920845 -0.00118636712 -0.362135977 -0.000925920845 -0.00519996509 -0.353999972 -0.000925920845 -0.00519996509 -0.373000264 -0.000925920845 -0.00309996679 -0.36499998 -0.000925920845 0.00520003214 -0.373000264 -0.000925920845 0.0011863336 -0.367863983 -0.000925920845 3.35368426e-08 -0.368099988 -0.000925920845 0.00286403298 -0.366186291 -0.000925920845 0.00219203159 -0.36719209 -0.000925920845 0.00520003214 -0.373000264 -0.000925920845 -0.00118636712 -0.362135977 -0.000925920845 3.35368426e-08 -0.361899972 -0.000925920845 -0.00519996509 -0.353999972 -0.000925920845 -0.00309996679 -0.36499998 -0.000925920845 -0.00286406651 -0.363813668 -0.000925920845 -0.00519996509 -0.353999972 -0.000925920845 0.00219203159 -0.36719209 -0.000925920845 0.0011863336 -0.367863983 -0.000925920845 0.00520003214 -0.373000264 -0.000925920845 -0.00286406651 -0.363813668 -0.000925920845 -0.00219206512 -0.362807989 -0.000925920845 -0.00519996509 -0.353999972 -0.000925920845 -0.00519996509 -0.373000264 -0.000925920845 -0.00219206512 -0.36719209 -0.000925920845 -0.00286406651 -0.366186291 -0.000925920845 -0.00519996509 -0.373000264 -0.000925920845 3.35368426e-08 -0.368099988 -0.000925920845 -0.00118636712 -0.367863983 -0.000925920845 0.00310003385 -0.36499998 -0.000925920845 0.00520003214 -0.373000264 -0.000925920845 0.00520003214 -0.353999972 -0.000925920845 -0.00118636712 -0.367863983 -0.000925920845 -0.00219206512 -0.36719209 -0.000925920845 -0.00519996509 -0.373000264 -0.000925920845 -0.00286406651 -0.366186291 -0.000925920845 -0.00309996679 -0.36499998 -0.000925920845 -0.00519996509 -0.373000264 -0.000925920845 3.35368426e-08 -0.368099988 -0.000925920845 -0.00519996509 -0.373000264 -0.000925920845 0.00520003214 -0.373000264 -0.000925920845 0.00520003214 -0.373000264 -0.0193259213 0.00219203159 -0.36719209 -0.0193259213 0.00286403298 -0.366186291 -0.0193259213 0.00520003214 -0.353999972 -0.0193259213 0.00520003214 -0.373000264 -0.0193259213 0.00310003385 -0.36499998 -0.0193259213 0.00520003214 -0.373000264 -0.0193259213 0.0011863336 -0.367863983 -0.0193259213 0.00219203159 -0.36719209 -0.0193259213 0.00520003214 -0.373000264 -0.0193259213 -0.00519996509 -0.373000264 -0.0193259213 3.35368426e-08 -0.368099988 -0.0193259213 0.00310003385 -0.36499998 -0.0193259213 0.00286403298 -0.363813668 -0.0193259213 0.00520003214 -0.353999972 -0.0193259213 3.35368426e-08 -0.368099988 -0.0193259213 0.0011863336 -0.367863983 -0.0193259213 0.00520003214 -0.373000264 -0.0193259213 -0.00519996509 -0.373000264 -0.0193259213 -0.00219206512 -0.36719209 -0.0193259213 -0.00118636712 -0.367863983 -0.0193259213 0.00520003214 -0.353999972 -0.0193259213 0.0011863336 -0.362135977 -0.0193259213 3.35368426e-08 -0.361899972 -0.0193259213 0.00286403298 -0.363813668 -0.0193259213 0.00219203159 -0.362807989 -0.0193259213 0.00520003214 -0.353999972 -0.0193259213 -0.00118636712 -0.367863983 -0.0193259213 3.35368426e-08 -0.368099988 -0.0193259213 -0.00519996509 -0.373000264 -0.0193259213 -0.00519996509 -0.373000264 -0.0193259213 -0.00309996679 -0.36499998 -0.0193259213 -0.00286406651 -0.366186291 -0.0193259213 -0.00519996509 -0.353999972 -0.0193259213 -0.00286406651 -0.363813668 -0.0193259213 -0.00309996679 -0.36499998 -0.0193259213 0.00219203159 -0.362807989 -0.0193259213 0.0011863336 -0.362135977 -0.0193259213 0.00520003214 -0.353999972 -0.0193259213 -0.00286406651 -0.366186291 -0.0193259213 -0.00219206512 -0.36719209 -0.0193259213 -0.00519996509 -0.373000264 -0.0193259213 -0.00519996509 -0.353999972 -0.0193259213 -0.00219206512 -0.362807989 -0.0193259213 -0.00286406651 -0.363813668 -0.0193259213 -0.00519996509 -0.353999972 -0.0193259213 3.35368426e-08 -0.361899972 -0.0193259213 -0.00118636712 -0.362135977 -0.0193259213 0.00286403298 -0.366186291 -0.0193259213 0.00310003385 -0.36499998 -0.0193259213 0.00520003214 -0.373000264 -0.0193259213 -0.00118636712 -0.362135977 -0.0193259213 -0.00219206512 -0.362807989 -0.0193259213 -0.00519996509 -0.353999972 -0.0193259213 -0.00309996679 -0.36499998 -0.0193259213 -0.00519996509 -0.373000264 -0.0193259213 -0.00519996509 -0.353999972 -0.0193259213 3.35368426e-08 -0.361899972 -0.0193259213 -0.00519996509 -0.353999972 -0.0193259213 0.00520003214 -0.353999972 -0.0193259213 0.00286403298 -0.363813668 -0.0193259213 0.00310003385 -0.36499998 -0.0193259213 0.00310003385 -0.36499998 -0.000925920845 0.00219203159 -0.362807989 -0.0193259213 0.00286403298 -0.363813668 -0.0193259213 0.00286403298 -0.363813668 -0.000925920845 0.0011863336 -0.362135977 -0.0193259213 0.00219203159 -0.362807989 -0.0193259213 0.00219203159 -0.362807989 -0.000925920845 3.35368426e-08 -0.361899972 -0.0193259213 0.0011863336 -0.362135977 -0.0193259213 0.0011863336 -0.362135977 -0.000925920845 -0.00118636712 -0.362135977 -0.0193259213 3.35368426e-08 -0.361899972 -0.0193259213 3.35368426e-08 -0.361899972 -0.000925920845 -0.00219206512 -0.362807989 -0.0193259213 -0.00118636712 -0.362135977 -0.0193259213 -0.00118636712 -0.362135977 -0.000925920845 -0.00286406651 -0.363813668 -0.0193259213 -0.00219206512 -0.362807989 -0.0193259213 -0.00219206512 -0.362807989 -0.000925920845 -0.00309996679 -0.36499998 -0.0193259213 -0.00286406651 -0.363813668 -0.0193259213 -0.00286406651 -0.363813668 -0.000925920845 -0.00286406651 -0.366186291 -0.0193259213 -0.00309996679 -0.36499998 -0.0193259213 -0.00309996679 -0.36499998 -0.000925920845 -0.00219206512 -0.36719209 -0.0193259213 -0.00286406651 -0.366186291 -0.0193259213 -0.00286406651 -0.366186291 -0.000925920845 -0.00118636712 -0.367863983 -0.0193259213 -0.00219206512 -0.36719209 -0.0193259213 -0.00219206512 -0.36719209 -0.000925920845 3.35368426e-08 -0.368099988 -0.0193259213 -0.00118636712 -0.367863983 -0.0193259213 -0.00118636712 -0.367863983 -0.000925920845 0.0011863336 -0.367863983 -0.0193259213 3.35368426e-08 -0.368099988 -0.0193259213 3.35368426e-08 -0.368099988 -0.000925920845 0.00219203159 -0.36719209 -0.0193259213 0.0011863336 -0.367863983 -0.0193259213 0.0011863336 -0.367863983 -0.000925920845 0.00286403298 -0.366186291 -0.0193259213 0.00219203159 -0.36719209 -0.0193259213 0.00219203159 -0.36719209 -0.000925920845 0.00310003385 -0.36499998 -0.0193259213 0.00286403298 -0.366186291 -0.0193259213 0.00286403298 -0.366186291 -0.000925920845 0.00286403298 -0.366186291 -0.000925920845 0.00310003385 -0.36499998 -0.000925920845 0.00310003385 -0.36499998 -0.0193259213 0.00219203159 -0.36719209 -0.000925920845 0.00286403298 -0.366186291 -0.000925920845 0.00286403298 -0.366186291 -0.0193259213 0.0011863336 -0.367863983 -0.000925920845 0.00219203159 -0.36719209 -0.000925920845 0.00219203159 -0.36719209 -0.0193259213 3.35368426e-08 -0.368099988 -0.000925920845 0.0011863336 -0.367863983 -0.000925920845 0.0011863336 -0.367863983 -0.0193259213 -0.00118636712 -0.367863983 -0.000925920845 3.35368426e-08 -0.368099988 -0.000925920845 3.35368426e-08 -0.368099988 -0.0193259213 -0.00219206512 -0.36719209 -0.000925920845 -0.00118636712 -0.367863983 -0.000925920845 -0.00118636712 -0.367863983 -0.0193259213 -0.00286406651 -0.366186291 -0.000925920845 -0.00219206512 -0.36719209 -0.000925920845 -0.00219206512 -0.36719209 -0.0193259213 -0.00309996679 -0.36499998 -0.000925920845 -0.00286406651 -0.366186291 -0.000925920845 -0.00286406651 -0.366186291 -0.0193259213 -0.00286406651 -0.363813668 -0.000925920845 -0.00309996679 -0.36499998 -0.000925920845 -0.00309996679 -0.36499998 -0.0193259213 -0.00219206512 -0.362807989 -0.000925920845 -0.00286406651 -0.363813668 -0.000925920845 -0.00286406651 -0.363813668 -0.0193259213 -0.00118636712 -0.362135977 -0.000925920845 -0.00219206512 -0.362807989 -0.000925920845 -0.00219206512 -0.362807989 -0.0193259213 3.35368426e-08 -0.361899972 -0.000925920845 -0.00118636712 -0.362135977 -0.000925920845 -0.00118636712 -0.362135977 -0.0193259213 0.0011863336 -0.362135977 -0.000925920845 3.35368426e-08 -0.361899972 -0.000925920845 3.35368426e-08 -0.361899972 -0.0193259213 0.00219203159 -0.362807989 -0.000925920845 0.0011863336 -0.362135977 -0.000925920845 0.0011863336 -0.362135977 -0.0193259213 0.00286403298 -0.363813668 -0.000925920845 0.00219203159 -0.362807989 -0.000925920845 0.00219203159 -0.362807989 -0.0193259213 0.00310003385 -0.36499998 -0.000925920845 0.00286403298 -0.363813668 -0.000925920845 0.00286403298 -0.363813668 -0.0193259213 </float_array>
          <technique_common>
            <accessor count="984" offset="0" source="#mesh_0-positions-array" stride="3">
              <param name="X" type="float" />
              <param name="Y" type="float" />
              <param name="Z" type="float" />
            </accessor>
          </technique_common>
        </source>
        <source id="mesh_0-normals" name="mesh_0-normals">
          <float_array id="mesh_0-normals-array" count="2952"> 0 0.000138149713 0 0 0.000138149713 0 0 0.000138149713 0 0 0.000138149946 -0 0 0.000138149946 -0 0 0.000138149946 -0 0 0.000138149233 -0 0 0.000138149233 -0 0 0.000138149233 -0 0 0.000138147356 0 0 0.000138147356 0 0 0.000138147356 0 -0 0.000138149553 0 -0 0.000138149553 0 -0 0.000138149553 0 -0 0.000138149146 0 -0 0.000138149146 0 -0 0.000138149146 0 -0 0.000138149058 0 -0 0.000138149058 0 -0 0.000138149058 0 0 0.000138148956 0 0 0.000138148956 0 0 0.000138148956 0 0 0.000138148112 0 0 0.000138148112 0 0 0.000138148112 0 0 0.000138149408 0 0 0.000138149408 0 0 0.000138149408 0 0 0.000138147094 0 0 0.000138147094 0 0 0.000138147094 0 0 0.000138148971 0 0 0.000138148971 0 0 0.000138148971 0 0 0.000138149815 0 0 0.000138149815 0 0 0.000138149815 0 0 0.000138148695 0 0 0.000138148695 0 0 0.000138148695 0 0 0.000138148927 0 0 0.000138148927 0 0 0.000138148927 0 0 0.000138149044 -0 0 0.000138149044 -0 0 0.000138149044 -0 -0.000115695912 -0 -0.000581680331 -0.000115695912 -0 -0.000581680331 -0.000115695912 -0 -0.000581680331 -0.000329496019 -0 -0.000493124826 -0.000329496019 -0 -0.000493124826 -0.000329496019 -0 -0.000493124826 -0.000493128086 -0 -0.000329494535 -0.000493128086 -0 -0.000329494535 -0.000493128086 -0 -0.000329494535 -0.00058168004 -0 -0.000115703362 -0.00058168004 -0 -0.000115703362 -0.00058168004 -0 -0.000115703362 -0.000581672124 0 0.000115703362 -0.000581672124 0 0.000115703362 -0.000581672124 0 0.000115703362 -0.000493128086 0 0.000329494535 -0.000493128086 0 0.000329494535 -0.000493128086 0 0.000329494535 -0.000329496164 0 0.000493124826 -0.000329496164 0 0.000493124826 -0.000329496164 0 0.000493124826 -0.000115703959 0 0.000581680331 -0.000115703959 0 0.000581680331 -0.000115703959 0 0.000581680331 0.000115703959 0 0.000581679866 0.000115703959 0 0.000581679866 0.000115703959 0 0.000581679866 0.000329496164 0 0.000493120169 0.000329496164 0 0.000493120169 0.000329496164 0 0.000493120169 0.000493128086 0 0.000329496019 0.000493128086 0 0.000329496019 0.000493128086 0 0.000329496019 0.000581672124 0 0.000115703959 0.000581672124 0 0.000115703959 0.000581672124 0 0.000115703959 0.00058168004 0 -0.000115703959 0.00058168004 0 -0.000115703959 0.00058168004 0 -0.000115703959 0.000493128086 0 -0.000329496019 0.000493128086 0 -0.000329496019 0.000493128086 0 -0.000329496019 0.000329496019 0 -0.000493120169 0.000329496019 0 -0.000493120169 0.000329496019 0 -0.000493120169 0.000115695912 0 -0.000581679866 0.000115695912 0 -0.000581679866 0.000115695912 0 -0.000581679866 0.000115695912 0 -0.000581679866 0.000115695912 0 -0.000581679866 0.000115695912 0 -0.000581679866 0.000329496019 0 -0.000493120169 0.000329496019 0 -0.000493120169 0.000329496019 0 -0.000493120169 0.000493128086 0 -0.000329496019 0.000493128086 0 -0.000329496019 0.000493128086 0 -0.000329496019 0.00058168004 0 -0.000115703959 0.00058168004 0 -0.000115703959 0.00058168004 0 -0.000115703959 0.000581672124 -0 0.000115703959 0.000581672124 -0 0.000115703959 0.000581672124 -0 0.000115703959 0.000493128086 -0 0.000329496019 0.000493128086 -0 0.000329496019 0.000493128086 -0 0.000329496019 0.000329496164 -0 0.000493120169 0.000329496164 -0 0.000493120169 0.000329496164 -0 0.000493120169 0.000115703959 -0 0.000581679866 0.000115703959 -0 0.000581679866 0.000115703959 -0 0.000581679866 -0.000115703959 0 0.000581680331 -0.000115703959 0 0.000581680331 -0.000115703959 0 0.000581680331 -0.000329496164 0 0.000493124826 -0.000329496164 0 0.000493124826 -0.000329496164 0 0.000493124826 -0.000493128086 0 0.000329494535 -0.000493128086 0 0.000329494535 -0.000493128086 0 0.000329494535 -0.000581672124 0 0.000115703362 -0.000581672124 0 0.000115703362 -0.000581672124 0 0.000115703362 -0.00058168004 0 -0.000115703362 -0.00058168004 0 -0.000115703362 -0.00058168004 0 -0.000115703362 -0.000493128086 0 -0.000329494535 -0.000493128086 0 -0.000329494535 -0.000493128086 0 -0.000329494535 -0.000329496019 0 -0.000493124826 -0.000329496019 0 -0.000493124826 -0.000329496019 0 -0.000493124826 -0.000115695912 0 -0.000581680331 -0.000115695912 0 -0.000581680331 -0.000115695912 0 -0.000581680331 0 8.99437728e-05 0 0 8.99437728e-05 0 0 8.99437728e-05 0 0 0.000115251998 0 0 0.000115251998 0 0 0.000115251998 0 0 5.27691554e-05 0 0 5.27691554e-05 0 0 5.27691554e-05 0 0 3.32558557e-05 -0 0 3.32558557e-05 -0 0 3.32558557e-05 -0 0 2.96773833e-05 -0 0 2.96773833e-05 -0 0 2.96773833e-05 -0 -0 1.08063987e-05 0 -0 1.08063987e-05 0 -0 1.08063987e-05 0 0 3.32553172e-05 0 0 3.32553172e-05 0 0 3.32553172e-05 0 -0 2.42989627e-05 0 -0 2.42989627e-05 0 -0 2.42989627e-05 0 0 2.42989918e-05 0 0 2.42989918e-05 0 0 2.42989918e-05 0 -0 2.62204558e-05 0 -0 2.62204558e-05 0 -0 2.62204558e-05 0 0 2.96778198e-05 0 0 2.96778198e-05 0 0 2.96778198e-05 0 0 8.99417137e-05 0 0 8.99417137e-05 0 0 8.99417137e-05 0 0 5.68102332e-05 0 0 5.68102332e-05 0 0 5.68102332e-05 0 0 7.27101224e-06 0 0 7.27101224e-06 0 0 7.27101224e-06 0 -0 0.000112529764 0 -0 0.000112529764 0 -0 0.000112529764 0 0 5.68102332e-05 0 0 5.68102332e-05 0 0 5.68102332e-05 0 0 2.62204685e-05 0 0 2.62204685e-05 0 0 2.62204685e-05 0 0 5.27691591e-05 0 0 5.27691591e-05 0 0 5.27691591e-05 0 0 0.000112525217 0 0 0.000112525217 0 0 0.000112525217 0 0 7.65311961e-06 0 0 7.65311961e-06 0 0 7.65311961e-06 0 0 7.65360164e-06 0 0 7.65360164e-06 0 0 7.65360164e-06 0 0 7.65376717e-06 0 0 7.65376717e-06 0 0 7.65376717e-06 0 0 0.000174592176 -0 0 0.000174592176 -0 0 0.000174592176 -0 -0 0.000115251023 0 -0 0.000115251023 0 -0 0.000115251023 0 0 7.27101815e-06 0 0 7.27101815e-06 0 0 7.27101815e-06 0 0 7.27101178e-06 0 0 7.27101178e-06 0 0 7.27101178e-06 0 0 1.0806205e-05 0 0 1.0806205e-05 0 0 1.0806205e-05 0 0 7.27058796e-06 0 0 7.27058796e-06 0 0 7.27058796e-06 0 0 7.65371442e-06 0 0 7.65371442e-06 0 0 7.65371442e-06 0 0 7.65363438e-06 0 0 7.65363438e-06 0 0 7.65363438e-06 0 0 7.65367622e-06 0 0 7.65367622e-06 0 0 7.65367622e-06 0 0 7.65319601e-06 0 0 7.65319601e-06 0 0 7.65319601e-06 0 -0 0.000174591492 0 -0 0.000174591492 0 -0 0.000174591492 0 0 7.27091447e-06 0 0 7.27091447e-06 0 0 7.27091447e-06 0 0 7.27098268e-06 0 0 7.27098268e-06 0 0 7.27098268e-06 0 0 7.65370351e-06 0 0 7.65370351e-06 0 0 7.65370351e-06 0 0 7.27102088e-06 0 0 7.27102088e-06 0 0 7.27102088e-06 0 0 7.27044517e-06 0 0 7.27044517e-06 0 0 7.27044517e-06 0 0 7.27110819e-06 0 0 7.27110819e-06 0 0 7.27110819e-06 0 0 7.27099905e-06 0 0 7.27099905e-06 0 0 7.27099905e-06 0 0 -0 -0.00101199921 0 -0 -0.00101199921 0 -0 -0.00101199921 0 0 -0.00101199921 0 0 -0.00101199921 0 0 -0.00101199921 -3.34927645e-05 -0 -0.000168381332 -3.34927645e-05 -0 -0.000168381332 -3.34927645e-05 -0 -0.000168381332 -9.53787312e-05 -0 -0.000142746212 -9.53787312e-05 -0 -0.000142746212 -9.53787312e-05 -0 -0.000142746212 -0.000142746954 -0 -9.53798735e-05 -0.000142746954 -0 -9.53798735e-05 -0.000142746954 -0 -9.53798735e-05 -0.000168381244 -0 -3.34930919e-05 -0.000168381244 -0 -3.34930919e-05 -0.000168381244 -0 -3.34930919e-05 -0.00016837912 0 3.34930919e-05 -0.00016837912 0 3.34930919e-05 -0.00016837912 0 3.34930919e-05 -0.000142746911 0 9.53798735e-05 -0.000142746911 0 9.53798735e-05 -0.000142746911 0 9.53798735e-05 -9.53787312e-05 0 0.000142746212 -9.53787312e-05 0 0.000142746212 -9.53787312e-05 0 0.000142746212 -3.349498e-05 0 0.000168381332 -3.349498e-05 0 0.000168381332 -3.349498e-05 0 0.000168381332 -3.349498e-05 0 0.000168381332 -3.349498e-05 0 0.000168381332 -3.349498e-05 0 0.000168381332 -9.53787312e-05 0 0.000142746212 -9.53787312e-05 0 0.000142746212 -9.53787312e-05 0 0.000142746212 -0.000142746911 0 9.53798735e-05 -0.000142746911 0 9.53798735e-05 -0.000142746911 0 9.53798735e-05 -0.00016837912 0 3.34930919e-05 -0.00016837912 0 3.34930919e-05 -0.00016837912 0 3.34930919e-05 -0.000168381244 0 -3.34930919e-05 -0.000168381244 0 -3.34930919e-05 -0.000168381244 0 -3.34930919e-05 -0.000142746954 0 -9.53798735e-05 -0.000142746954 0 -9.53798735e-05 -0.000142746954 0 -9.53798735e-05 -9.53787312e-05 0 -0.000142746212 -9.53787312e-05 0 -0.000142746212 -9.53787312e-05 0 -0.000142746212 -3.34927645e-05 0 -0.000168381332 -3.34927645e-05 0 -0.000168381332 -3.34927645e-05 0 -0.000168381332 0 0 0.00101199921 0 0 0.00101199921 0 0 0.00101199921 0 -0 0.00101199921 0 -0 0.00101199921 0 -0 0.00101199921 0.000219999842 0 0.000219999973 0.000219999842 0 0.000219999973 0.000219999842 0 0.000219999973 0.000219999842 -0 0.000219999973 0.000219999842 -0 0.000219999973 0.000219999842 -0 0.000219999973 0.000219999885 0 -0.000219999973 0.000219999885 0 -0.000219999973 0.000219999885 0 -0.000219999973 0.000219999885 0 -0.000219999973 0.000219999885 0 -0.000219999973 0.000219999885 0 -0.000219999973 0.00609999383 0 0 0.00609999383 0 0 0.00609999383 0 0 0.000439999683 0 0 0.000439999683 0 0 0.000439999683 0 0 0.000439999683 0 0 0.000439999683 0 0 0.000439999683 0 0 0.00609999383 0 0 0.00609999383 0 0 0.00609999383 0 0 0.00135721825 0 -0.00487237098 0.00135721825 0 -0.00487237098 0.00135721825 0 -0.00487237098 0.00135721825 0 -0.00487237098 0.00135721825 0 -0.00487237098 0.00135721825 0 -0.00487237098 0.000146369159 0 -0.0016699346 0.000146369159 0 -0.0016699346 0.000146369159 0 -0.0016699346 -0.000465001765 -0 -0.00161052099 -0.000465001765 -0 -0.00161052099 -0.000465001765 -0 -0.00161052099 -0.00101391051 -0 -0.00133495301 -0.00101391051 -0 -0.00133495301 -0.00101391051 -0 -0.00133495301 -0.00142669771 -0 -0.00088010676 -0.00142669771 -0 -0.00088010676 -0.00142669771 -0 -0.00088010676 -0.0016479739 -0 -0.000307104579 -0.0016479739 -0 -0.000307104579 -0.0016479739 -0 -0.000307104579 -0.00164794433 0 0.000307104579 -0.00164794433 0 0.000307104579 -0.00164794433 0 0.000307104579 -0.00142669713 0 0.00088010676 -0.00142669713 0 0.00088010676 -0.00142669713 0 0.00088010676 -0.00101391051 0 0.00133495301 -0.00101391051 0 0.00133495301 -0.00101391051 0 0.00133495301 -0.000465002347 0 0.00161052099 -0.000465002347 0 0.00161052099 -0.000465002347 0 0.00161052099 0.000146369159 0 0.0016699346 0.000146369159 0 0.0016699346 0.000146369159 0 0.0016699346 0.000146369159 -0 0.0016699346 0.000146369159 -0 0.0016699346 0.000146369159 -0 0.0016699346 -0.000465002347 0 0.00161052099 -0.000465002347 0 0.00161052099 -0.000465002347 0 0.00161052099 -0.00101391051 0 0.00133495301 -0.00101391051 0 0.00133495301 -0.00101391051 0 0.00133495301 -0.00142669713 0 0.00088010676 -0.00142669713 0 0.00088010676 -0.00142669713 0 0.00088010676 -0.00164794433 0 0.000307104579 -0.00164794433 0 0.000307104579 -0.00164794433 0 0.000307104579 -0.0016479739 0 -0.000307104579 -0.0016479739 0 -0.000307104579 -0.0016479739 0 -0.000307104579 -0.00142669771 0 -0.00088010676 -0.00142669771 0 -0.00088010676 -0.00142669771 0 -0.00088010676 -0.00101391051 0 -0.00133495301 -0.00101391051 0 -0.00133495301 -0.00101391051 0 -0.00133495301 -0.000465001765 0 -0.00161052099 -0.000465001765 0 -0.00161052099 -0.000465001765 0 -0.00161052099 0.000146369159 0 -0.0016699346 0.000146369159 0 -0.0016699346 0.000146369159 0 -0.0016699346 0.00135718763 0 0.00487237098 0.00135718763 0 0.00487237098 0.00135718763 0 0.00487237098 0.00135718763 -0 0.00487237098 0.00135718763 -0 0.00487237098 0.00135718763 -0 0.00487237098 0 2.62956928e-05 0 0 2.62956928e-05 0 0 2.62956928e-05 0 0 2.64272494e-05 0 0 2.64272494e-05 0 0 2.64272494e-05 0 0 0.000104322244 0 0 0.000104322244 0 0 0.000104322244 0 0 1.7335502e-05 -0 0 1.7335502e-05 -0 0 1.7335502e-05 -0 0 1.99697479e-05 0 0 1.99697479e-05 0 0 1.99697479e-05 0 0 2.6591797e-05 0 0 2.6591797e-05 0 0 2.6591797e-05 0 0 4.82937503e-05 0 0 4.82937503e-05 0 0 4.82937503e-05 0 0 0.000200000097 0 0 0.000200000097 0 0 0.000200000097 0 0 0.000104321909 0 0 0.000104321909 0 0 0.000104321909 0 0 1.9810981e-05 0 0 1.9810981e-05 0 0 1.9810981e-05 0 0 2.67877567e-05 -0 0 2.67877567e-05 -0 0 2.67877567e-05 -0 0 4.58799877e-05 -0 0 4.58799877e-05 -0 0 4.58799877e-05 -0 -0 4.82935538e-05 0 -0 4.82935538e-05 0 -0 4.82935538e-05 0 0 1.96192486e-05 0 0 1.96192486e-05 0 0 1.96192486e-05 0 0 2.70159871e-05 -0 0 2.70159871e-05 -0 0 2.70159871e-05 -0 0 1.96192414e-05 0 0 1.96192414e-05 0 0 1.96192414e-05 0 0 1.9810981e-05 0 0 1.9810981e-05 0 0 1.9810981e-05 0 -0 4.58809554e-05 0 -0 4.58809554e-05 0 -0 4.58809554e-05 0 0 1.93940887e-05 0 0 1.93940887e-05 0 0 1.93940887e-05 0 0 1.93936285e-05 0 0 1.93936285e-05 0 0 1.93936285e-05 0 0 2.6591797e-05 -0 0 2.6591797e-05 -0 0 2.6591797e-05 -0 -0 2.00927116e-05 0 -0 2.00927116e-05 0 -0 2.00927116e-05 0 0 2.67877476e-05 0 0 2.67877476e-05 0 0 2.67877476e-05 0 0 2.70155015e-05 0 0 2.70155015e-05 0 0 2.70155015e-05 0 0 1.99695096e-05 0 0 1.99695096e-05 0 0 1.99695096e-05 0 0 2.00927316e-05 0 0 2.00927316e-05 0 0 2.00927316e-05 0 0 2.64272458e-05 -0 0 2.64272458e-05 -0 0 2.64272458e-05 -0 0 1.7335502e-05 0 0 1.7335502e-05 0 0 1.7335502e-05 0 0 2.62951417e-05 -0 0 2.62951417e-05 -0 0 2.62951417e-05 -0 0.000241300091 0 0.00121312658 0.000241300091 0 0.00121312658 0.000241300091 0 0.00121312658 0.000687159598 0 0.00102841004 0.000687159598 0 0.00102841004 0.000687159598 0 0.00102841004 0.00102841121 0 0.00068716082 0.00102841121 0 0.00068716082 0.00102841121 0 0.00068716082 0.00121312542 0 0.000241300091 0.00121312542 0 0.000241300091 0.00121312542 0 0.000241300091 0.00121309469 0 -0.000241300091 0.00121309469 0 -0.000241300091 0.00121309469 0 -0.000241300091 0.00102841062 0 -0.00068716082 0.00102841062 0 -0.00068716082 0.00102841062 0 -0.00068716082 0.000687160238 0 -0.00102841004 0.000687160238 0 -0.00102841004 0.000687160238 0 -0.00102841004 0.000241331974 0 -0.00121312658 0.000241331974 0 -0.00121312658 0.000241331974 0 -0.00121312658 -0.000241331974 0 -0.00121309469 -0.000241331974 0 -0.00121309469 -0.000241331974 0 -0.00121309469 -0.000687160238 0 -0.00102841121 -0.000687160238 0 -0.00102841121 -0.000687160238 0 -0.00102841121 -0.00102841062 0 -0.000687191496 -0.00102841062 0 -0.000687191496 -0.00102841062 0 -0.000687191496 -0.00121309469 0 -0.000241298912 -0.00121309469 0 -0.000241298912 -0.00121309469 0 -0.000241298912 -0.00121312542 0 0.000241298912 -0.00121312542 0 0.000241298912 -0.00121312542 0 0.000241298912 -0.00102841121 0 0.000687191496 -0.00102841121 0 0.000687191496 -0.00102841121 0 0.000687191496 -0.000687159598 0 0.00102841121 -0.000687159598 0 0.00102841121 -0.000687159598 0 0.00102841121 -0.000241300091 0 0.00121309469 -0.000241300091 0 0.00121309469 -0.000241300091 0 0.00121309469 -0.000241300091 0 0.00121309469 -0.000241300091 0 0.00121309469 -0.000241300091 0 0.00121309469 -0.000687159598 0 0.00102841121 -0.000687159598 0 0.00102841121 -0.000687159598 0 0.00102841121 -0.00102841121 0 0.000687191496 -0.00102841121 0 0.000687191496 -0.00102841121 0 0.000687191496 -0.00121312542 0 0.000241298912 -0.00121312542 0 0.000241298912 -0.00121312542 0 0.000241298912 -0.00121309469 0 -0.000241298912 -0.00121309469 0 -0.000241298912 -0.00121309469 0 -0.000241298912 -0.00102841062 0 -0.000687191496 -0.00102841062 0 -0.000687191496 -0.00102841062 0 -0.000687191496 -0.000687160238 0 -0.00102841121 -0.000687160238 0 -0.00102841121 -0.000687160238 0 -0.00102841121 -0.000241331974 0 -0.00121309469 -0.000241331974 0 -0.00121309469 -0.000241331974 0 -0.00121309469 0.000241331974 0 -0.00121312658 0.000241331974 0 -0.00121312658 0.000241331974 0 -0.00121312658 0.000687160238 0 -0.00102841004 0.000687160238 0 -0.00102841004 0.000687160238 0 -0.00102841004 0.00102841062 0 -0.00068716082 0.00102841062 0 -0.00068716082 0.00102841062 0 -0.00068716082 0.00121309469 0 -0.000241300091 0.00121309469 0 -0.000241300091 0.00121309469 0 -0.000241300091 0.00121312542 0 0.000241300091 0.00121312542 0 0.000241300091 0.00121312542 0 0.000241300091 0.00102841121 0 0.00068716082 0.00102841121 0 0.00068716082 0.00102841121 0 0.00068716082 0.000687159598 0 0.00102841004 0.000687159598 0 0.00102841004 0.000687159598 0 0.00102841004 0.000241300091 0 0.00121312658 0.000241300091 0 0.00121312658 0.000241300091 0 0.00121312658 0 3.82680628e-05 0 0 3.82680628e-05 0 0 3.82680628e-05 0 0 3.82681174e-05 -0 0 3.82681174e-05 -0 0 3.82681174e-05 -0 0 3.82689832e-05 -0 0 3.82689832e-05 -0 0 3.82689832e-05 -0 0 3.82680118e-05 0 0 3.82680118e-05 0 0 3.82680118e-05 0 -0 3.82678918e-05 0 -0 3.82678918e-05 0 -0 3.82678918e-05 0 -0 3.82677608e-05 0 -0 3.82677608e-05 0 -0 3.82677608e-05 0 -0 3.82690196e-05 0 -0 3.82690196e-05 0 -0 3.82690196e-05 0 0 3.82680118e-05 0 0 3.82680118e-05 0 0 3.82680118e-05 0 0 3.82675717e-05 0 0 3.82675717e-05 0 0 3.82675717e-05 0 0 3.82682629e-05 0 0 3.82682629e-05 0 0 3.82682629e-05 0 0 3.82679973e-05 0 0 3.82679973e-05 0 0 3.82679973e-05 0 0 3.82689686e-05 0 0 3.82689686e-05 0 0 3.82689686e-05 0 0 3.82684884e-05 0 0 3.82684884e-05 0 0 3.82684884e-05 0 0 3.82678809e-05 0 0 3.82678809e-05 0 0 3.82678809e-05 0 0 3.82679973e-05 0 0 3.82679973e-05 0 0 3.82679973e-05 0 0 3.8269005e-05 -0 0 3.8269005e-05 -0 0 3.8269005e-05 -0 -0 -0.000350276823 0 -0 -0.000350276823 0 -0 -0.000350276823 0 0 -0.000304421817 0 0 -0.000304421817 0 0 -0.000304421817 0 0 -0.000349509995 0 0 -0.000349509995 0 0 -0.000349509995 0 0 -0.000366105378 -0 0 -0.000366105378 -0 0 -0.000366105378 -0 0 -0.000358318532 0 0 -0.000358318532 0 0 -0.000358318532 0 0 -0.000166399972 0 0 -0.000166399972 0 0 -0.000166399972 0 0 -0.000303001259 -0 0 -0.000303001259 -0 0 -0.000303001259 -0 0 -0.00023552186 0 0 -0.00023552186 0 0 -0.00023552186 0 0 -0.000154075125 0 0 -0.000154075125 0 0 -0.000154075125 0 0 -6.2400024e-05 0 0 -6.2400024e-05 0 0 -6.2400024e-05 0 0 -0.000112320056 0 0 -0.000112320056 0 0 -0.000112320056 0 -0 -0.000496799999 0 -0 -0.000496799999 0 -0 -0.000496799999 0 0 -0.000166400016 0 0 -0.000166400016 0 0 -0.000166400016 0 0 -0.000216000073 0 0 -0.000216000073 0 0 -0.000216000073 0 -0 -0.000156000053 0 -0 -0.000156000053 0 -0 -0.000156000053 0 0 -0.000154077788 -0 0 -0.000154077788 -0 0 -0.000154077788 -0 0 -0.000112319976 0 0 -0.000112319976 0 0 -0.000112319976 0 0 -6.24000022e-05 0 0 -6.24000022e-05 0 0 -6.24000022e-05 0 0 -0.000496799999 -0 0 -0.000496799999 -0 0 -0.000496799999 -0 0 -0.000112319976 0 0 -0.000112319976 0 0 -0.000112319976 0 0 -0.000156000067 0 0 -0.000156000067 0 0 -0.000156000067 0 0.000197603047 0 0 0.000197603047 0 0 0.000197603047 0 0 0.000197603047 0 -0 0.000197603047 0 -0 0.000197603047 0 -0 0 -7.35999711e-05 0 0 -7.35999711e-05 0 0 -7.35999711e-05 0 -0 -7.36000075e-05 0 -0 -7.36000075e-05 0 -0 -7.36000075e-05 0 0 -0.000191359999 0 0 -0.000191359999 0 0 -0.000191359999 0 0 -0.000191359999 0 0 -0.000191359999 0 0 -0.000191359999 0 0 -4.15999966e-05 0 0 -4.15999966e-05 0 0 -4.15999966e-05 0 -0 -4.15999748e-05 0 -0 -4.15999748e-05 0 -0 -4.15999748e-05 0 -0.000197603047 0 -0 -0.000197603047 0 -0 -0.000197603047 0 -0 -0.000197603047 0 0 -0.000197603047 0 0 -0.000197603047 0 0 -7.60011462e-05 0 7.60011826e-05 -7.60011462e-05 0 7.60011826e-05 -7.60011462e-05 0 7.60011826e-05 -7.60011462e-05 0 7.60011826e-05 -7.60011462e-05 0 7.60011826e-05 -7.60011462e-05 0 7.60011826e-05 -7.60011826e-05 -0 -7.60011826e-05 -7.60011826e-05 -0 -7.60011826e-05 -7.60011826e-05 -0 -7.60011826e-05 -7.60011826e-05 0 -7.60011826e-05 -7.60011826e-05 0 -7.60011826e-05 -7.60011826e-05 0 -7.60011826e-05 7.60011462e-05 0 7.60011826e-05 7.60011462e-05 0 7.60011826e-05 7.60011462e-05 0 7.60011826e-05 7.60011462e-05 -0 7.60011826e-05 7.60011462e-05 -0 7.60011826e-05 7.60011462e-05 -0 7.60011826e-05 7.60011826e-05 0 -7.60011826e-05 7.60011826e-05 0 -7.60011826e-05 7.60011826e-05 0 -7.60011826e-05 7.60011826e-05 0 -7.60011826e-05 7.60011826e-05 0 -7.60011826e-05 7.60011826e-05 0 -7.60011826e-05 0 0 5.08726407e-06 0 0 5.08726407e-06 0 0 5.08726407e-06 0 0 8.94408367e-06 0 0 8.94408367e-06 0 0 8.94408367e-06 0 0 1.08796194e-05 0 0 1.08796194e-05 0 0 1.08796194e-05 0 0 8.21599751e-05 0 0 8.21599751e-05 0 0 8.21599751e-05 0 0 4.37932522e-06 0 0 4.37932522e-06 0 0 4.37932522e-06 -0 0 1.0598993e-05 -0 0 1.0598993e-05 -0 0 1.0598993e-05 0 0 1.08795502e-05 0 0 1.08795502e-05 0 0 1.08795502e-05 0 0 3.99005803e-05 0 0 3.99005803e-05 0 0 3.99005803e-05 0 0 7.04042213e-06 0 0 7.04042213e-06 0 0 7.04042213e-06 0 0 6.92854428e-06 0 0 6.92854428e-06 0 0 6.92854428e-06 0 -0 1.05997888e-05 0 -0 1.05997888e-05 0 -0 1.05997888e-05 0 -0 5.08615631e-06 0 -0 5.08615631e-06 0 -0 5.08615631e-06 0 0 7.86232522e-06 0 0 7.86232522e-06 0 0 7.86232522e-06 0 -0 8.94398272e-06 0 -0 8.94398272e-06 0 -0 8.94398272e-06 0 0 6.92844333e-06 0 0 6.92844333e-06 0 0 6.92844333e-06 0 0 7.04091508e-06 0 0 7.04091508e-06 0 0 7.04091508e-06 -0 0 3.99005803e-05 -0 0 3.99005803e-05 -0 0 3.99005803e-05 0 0 7.86225792e-06 0 0 7.86225792e-06 0 0 7.86225792e-06 0 0 4.37852123e-06 0 0 4.37852123e-06 0 0 4.37852123e-06 0 0 5.09628626e-05 0 0 5.09628626e-05 0 0 5.09628626e-05 0 0 -6.92854337e-06 0 0 -6.92854337e-06 0 0 -6.92854337e-06 0 -0 -3.99005803e-05 0 -0 -3.99005803e-05 0 -0 -3.99005803e-05 0 0 -7.86232522e-06 0 0 -7.86232522e-06 0 0 -7.86232522e-06 0 0 -5.09628626e-05 0 0 -5.09628626e-05 0 0 -5.09628626e-05 0 0 -5.08726271e-06 0 0 -5.08726271e-06 0 0 -5.08726271e-06 0 0 -7.04042213e-06 0 0 -7.04042213e-06 0 0 -7.04042213e-06 0 0 -7.8622561e-06 0 0 -7.8622561e-06 0 0 -7.8622561e-06 0 0 -1.05989966e-05 0 0 -1.05989966e-05 0 0 -1.05989966e-05 0 0 -8.94408367e-06 0 0 -8.94408367e-06 0 0 -8.94408367e-06 0 -0 -7.04091462e-06 0 -0 -7.04091462e-06 0 -0 -7.04091462e-06 0 0 -4.37852123e-06 0 0 -4.37852123e-06 0 0 -4.37852123e-06 0 0 -5.08615813e-06 0 0 -5.08615813e-06 0 0 -5.08615813e-06 0 0 -1.08796194e-05 0 0 -1.08796194e-05 0 0 -1.08796194e-05 0 -0 -6.92844287e-06 0 -0 -6.92844287e-06 0 -0 -6.92844287e-06 0 0 -8.94398181e-06 0 0 -8.94398181e-06 0 0 -8.94398181e-06 0 0 -1.05997897e-05 0 0 -1.05997897e-05 0 0 -1.05997897e-05 0 0 -4.37932567e-06 0 0 -4.37932567e-06 0 0 -4.37932567e-06 -0 0 -1.08795512e-05 -0 0 -1.08795512e-05 -0 0 -1.08795512e-05 -0 0 -3.99005803e-05 -0 0 -3.99005803e-05 -0 0 -3.99005803e-05 0 0 -8.21599751e-05 0 0 -8.21599751e-05 0 0 -8.21599751e-05 -2.18281275e-05 -4.3424161e-06 0 -2.18281275e-05 -4.3424161e-06 0 -2.18281275e-05 -4.3424161e-06 0 -1.8504501e-05 -1.2364826e-05 0 -1.8504501e-05 -1.2364826e-05 0 -1.8504501e-05 -1.2364826e-05 0 -1.23650316e-05 -1.8504843e-05 0 -1.23650316e-05 -1.8504843e-05 0 -1.23650316e-05 -1.8504843e-05 0 -4.34248477e-06 -2.1827922e-05 0 -4.34248477e-06 -2.1827922e-05 0 -4.34248477e-06 -2.1827922e-05 0 4.34248477e-06 -2.18297719e-05 0 4.34248477e-06 -2.18297719e-05 0 4.34248477e-06 -2.18297719e-05 0 1.23650316e-05 -1.8504843e-05 0 1.23650316e-05 -1.8504843e-05 0 1.23650316e-05 -1.8504843e-05 0 1.8504501e-05 -1.2364826e-05 0 1.8504501e-05 -1.2364826e-05 0 1.8504501e-05 -1.2364826e-05 0 2.18281275e-05 -4.34056528e-06 0 2.18281275e-05 -4.34056528e-06 0 2.18281275e-05 -4.34056528e-06 0 2.18281275e-05 4.34056528e-06 0 2.18281275e-05 4.34056528e-06 0 2.18281275e-05 4.34056528e-06 0 1.85066947e-05 1.2364826e-05 0 1.85066947e-05 1.2364826e-05 0 1.85066947e-05 1.2364826e-05 0 1.23628379e-05 1.8504843e-05 0 1.23628379e-05 1.8504843e-05 0 1.23628379e-05 1.8504843e-05 0 4.34248477e-06 2.18297719e-05 0 4.34248477e-06 2.18297719e-05 0 4.34248477e-06 2.18297719e-05 0 -4.34248477e-06 2.1827922e-05 0 -4.34248477e-06 2.1827922e-05 0 -4.34248477e-06 2.1827922e-05 0 -1.23628379e-05 1.8504843e-05 0 -1.23628379e-05 1.8504843e-05 0 -1.23628379e-05 1.8504843e-05 0 -1.85066947e-05 1.2364826e-05 0 -1.85066947e-05 1.2364826e-05 0 -1.85066947e-05 1.2364826e-05 0 -2.18281275e-05 4.3424161e-06 0 -2.18281275e-05 4.3424161e-06 0 -2.18281275e-05 4.3424161e-06 0 -2.18281275e-05 4.3424161e-06 0 -2.18281275e-05 4.3424161e-06 0 -2.18281275e-05 4.3424161e-06 0 -1.85066947e-05 1.2364826e-05 0 -1.85066947e-05 1.2364826e-05 0 -1.85066947e-05 1.2364826e-05 0 -1.23628379e-05 1.8504843e-05 0 -1.23628379e-05 1.8504843e-05 0 -1.23628379e-05 1.8504843e-05 0 -4.34248477e-06 2.1827922e-05 0 -4.34248477e-06 2.1827922e-05 0 -4.34248477e-06 2.1827922e-05 0 4.34248477e-06 2.18297719e-05 0 4.34248477e-06 2.18297719e-05 0 4.34248477e-06 2.18297719e-05 0 1.23628379e-05 1.8504843e-05 0 1.23628379e-05 1.8504843e-05 0 1.23628379e-05 1.8504843e-05 0 1.85066947e-05 1.2364826e-05 0 1.85066947e-05 1.2364826e-05 0 1.85066947e-05 1.2364826e-05 0 2.18281275e-05 4.34056528e-06 0 2.18281275e-05 4.34056528e-06 0 2.18281275e-05 4.34056528e-06 0 2.18281275e-05 -4.34056528e-06 0 2.18281275e-05 -4.34056528e-06 0 2.18281275e-05 -4.34056528e-06 0 1.8504501e-05 -1.2364826e-05 0 1.8504501e-05 -1.2364826e-05 0 1.8504501e-05 -1.2364826e-05 0 1.23650316e-05 -1.8504843e-05 0 1.23650316e-05 -1.8504843e-05 0 1.23650316e-05 -1.8504843e-05 0 4.34248477e-06 -2.18297719e-05 0 4.34248477e-06 -2.18297719e-05 0 4.34248477e-06 -2.18297719e-05 0 -4.34248477e-06 -2.1827922e-05 0 -4.34248477e-06 -2.1827922e-05 0 -4.34248477e-06 -2.1827922e-05 0 -1.23650316e-05 -1.8504843e-05 0 -1.23650316e-05 -1.8504843e-05 0 -1.23650316e-05 -1.8504843e-05 0 -1.8504501e-05 -1.2364826e-05 0 -1.8504501e-05 -1.2364826e-05 0 -1.8504501e-05 -1.2364826e-05 0 -2.18281275e-05 -4.3424161e-06 0 -2.18281275e-05 -4.3424161e-06 0 -2.18281275e-05 -4.3424161e-06 0 </float_array>
          <technique_common>
            <accessor count="984" offset="0" source="#mesh_0-normals-array" stride="3">
              <param name="X" type="float" />
              <param name="Y" type="float" />
              <param name="Z" type="float" />
            </accessor>
          </technique_common>
        </source>
        <vertices id="mesh_0-vertices">
          <input semantic="POSITION" source="#mesh_0-positions" />
        </vertices>
        <polylist count="328" material="defaultMaterial">
          <input offset="0" semantic="VERTEX" source="#mesh_0-vertices" />
          <input offset="0" semantic="NORMAL" source="#mesh_0-normals" />
          <vcount>3 3 3 3 3 3 3 3 3 3 3 3 3 3 3 3 3 3 3 3 3 3 3 3 3 3 3 3 3 3 3 3 3 3 3 3 3 3 3 3 3 3 3 3 3 3 3 3 3 3 3 3 3 3 3 3 3 3 3 3 3 3 3 3 3 3 3 3 3 3 3 3 3 3 3 3 3 3 3 3 3 3 3 3 3 3 3 3 3 3 3 3 3 3 3 3 3 3 3 3 3 3 3 3 3 3 3 3 3 3 3 3 3 3 3 3 3 3 3 3 3 3 3 3 3 3 3 3 3 3 3 3 3 3 3 3 3 3 3 3 3 3 3 3 3 3 3 3 3 3 3 3 3 3 3 3 3 3 3 3 3 3 3 3 3 3 3 3 3 3 3 3 3 3 3 3 3 3 3 3 3 3 3 3 3 3 3 3 3 3 3 3 3 3 3 3 3 3 3 3 3 3 3 3 3 3 3 3 3 3 3 3 3 3 3 3 3 3 3 3 3 3 3 3 3 3 3 3 3 3 3 3 3 3 3 3 3 3 3 3 3 3 3 3 3 3 3 3 3 3 3 3 3 3 3 3 3 3 3 3 3 3 3 3 3 3 3 3 3 3 3 3 3 3 3 3 3 3 3 3 3 3 3 3 3 3 3 3 3 3 3 3 3 3 3 3 3 3 3 3 3 3 3 3 3 3 3 3 3 3 3 3 3 3 3 3 3 3 3 3 3 3 3 3 3 3 3 3 </vcount>
          <p>0 1 2 3 4 5 6 7 8 9 10 11 12 13 14 15 16 17 18 19 20 21 22 23 24 25 26 27 28 29 30 31 32 33 34 35 36 37 38 39 40 41 42 43 44 45 46 47 48 49 50 51 52 53 54 55 56 57 58 59 60 61 62 63 64 65 66 67 68 69 70 71 72 73 74 75 76 77 78 79 80 81 82 83 84 85 86 87 88 89 90 91 92 93 94 95 96 97 98 99 100 101 102 103 104 105 106 107 108 109 110 111 112 113 114 115 116 117 118 119 120 121 122 123 124 125 126 127 128 129 130 131 132 133 134 135 136 137 138 139 140 141 142 143 144 145 146 147 148 149 150 151 152 153 154 155 156 157 158 159 160 161 162 163 164 165 166 167 168 169 170 171 172 173 174 175 176 177 178 179 180 181 182 183 184 185 186 187 188 189 190 191 192 193 194 195 196 197 198 199 200 201 202 203 204 205 206 207 208 209 210 211 212 213 214 215 216 217 218 219 220 221 222 223 224 225 226 227 228 229 230 231 232 233 234 235 236 237 238 239 240 241 242 243 244 245 246 247 248 249 250 251 252 253 254 255 256 257 258 259 260 261 262 263 264 265 266 267 268 269 270 271 272 273 274 275 276 277 278 279 280 281 282 283 284 285 286 287 288 289 290 291 292 293 294 295 296 297 298 299 300 301 302 303 304 305 306 307 308 309 310 311 312 313 314 315 316 317 318 319 320 321 322 323 324 325 326 327 328 329 330 331 332 333 334 335 336 337 338 339 340 341 342 343 344 345 346 347 348 349 350 351 352 353 354 355 356 357 358 359 360 361 362 363 364 365 366 367 368 369 370 371 372 373 374 375 376 377 378 379 380 381 382 383 384 385 386 387 388 389 390 391 392 393 394 395 396 397 398 399 400 401 402 403 404 405 406 407 408 409 410 411 412 413 414 415 416 417 418 419 420 421 422 423 424 425 426 427 428 429 430 431 432 433 434 435 436 437 438 439 440 441 442 443 444 445 446 447 448 449 450 451 452 453 454 455 456 457 458 459 460 461 462 463 464 465 466 467 468 469 470 471 472 473 474 475 476 477 478 479 480 481 482 483 484 485 486 487 488 489 490 491 492 493 494 495 496 497 498 499 500 501 502 503 504 505 506 507 508 509 510 511 512 513 514 515 516 517 518 519 520 521 522 523 524 525 526 527 528 529 530 531 532 533 534 535 536 537 538 539 540 541 542 543 544 545 546 547 548 549 550 551 552 553 554 555 556 557 558 559 560 561 562 563 564 565 566 567 568 569 570 571 572 573 574 575 576 577 578 579 580 581 582 583 584 585 586 587 588 589 590 591 592 593 594 595 596 597 598 599 600 601 602 603 604 605 606 607 608 609 610 611 612 613 614 615 616 617 618 619 620 621 622 623 624 625 626 627 628 629 630 631 632 633 634 635 636 637 638 639 640 641 642 643 644 645 646 647 648 649 650 651 652 653 654 655 656 657 658 659 660 661 662 663 664 665 666 667 668 669 670 671 672 673 674 675 676 677 678 679 680 681 682 683 684 685 686 687 688 689 690 691 692 693 694 695 696 697 698 699 700 701 702 703 704 705 706 707 708 709 710 711 712 713 714 715 716 717 718 719 720 721 722 723 724 725 726 727 728 729 730 731 732 733 734 735 736 737 738 739 740 741 742 743 744 745 746 747 748 749 750 751 752 753 754 755 756 757 758 759 760 761 762 763 764 765 766 767 768 769 770 771 772 773 774 775 776 777 778 779 780 781 782 783 784 785 786 787 788 789 790 791 792 793 794 795 796 797 798 799 800 801 802 803 804 805 806 807 808 809 810 811 812 813 814 815 816 817 818 819 820 821 822 823 824 825 826 827 828 829 830 831 832 833 834 835 836 837 838 839 840 841 842 843 844 845 846 847 848 849 850 851 852 853 854 855 856 857 858 859 860 861 862 863 864 865 866 867 868 869 870 871 872 873 874 875 876 877 878 879 880 881 882 883 884 885 886 887 888 889 890 891 892 893 894 895 896 897 898 899 900 901 902 903 904 905 906 907 908 909 910 911 912 913 914 915 916 917 918 919 920 921 922 923 924 925 926 927 928 929 930 931 932 933 934 935 936 937 938 939 940 941 942 943 944 945 946 947 948 949 950 951 952 953 954 955 956 957 958 959 960 961 962 963 964 965 966 967 968 969 970 971 972 973 974 975 976 977 978 979 980 981 982 983 </p>
        </polylist>
      </mesh>
    </geometry>
  </library_geometries>
  <library_controllers>
  </library_controllers>
  <library_visual_scenes>
    <visual_scene id="_ySTL_BINARY_" name="&lt;STL_BINARY&gt;">
      <node id="node" name="" type="NODE">
        <matrix sid="matrix">1 0 0 0 0 1 0 0 0 0 1 0 0 0 0 1</matrix>
        <instance_geometry url="#mesh_0">
          <bind_material>
            <technique_common>
              <instance_material symbol="defaultMaterial" target="#DefaultMaterial">
              </instance_material>
            </technique_common>
          </bind_material>
        </instance_geometry>
      </node>
    </visual_scene>
  </library_visual_scenes>
  <scene>
    <instance_visual_scene url="#_ySTL_BINARY_" />
  </scene>
</COLLADA>
