M48
; DRILL file KiCad 10.0.6 date 2026-10-04T10:25:55
; FORMAT={-:-/ absolute / metric / decimal}
; #@! TF.CreationDate,2026-10-04T10:25:55+10:00
; #@! TF.GenerationSoftware,Kicad,Pcbnew,10.0.6
; #@! TF.FileFunction,Plated,1,4,PTH
FMAT,2
METRIC
; #@! TA.AperFunction,Plated,PTH,ViaDrill
T1C0.300
; #@! TA.AperFunction,Plated,PTH,ComponentDrill
T2C0.300
; #@! TA.AperFunction,Plated,PTH,ComponentDrill
T3C0.500
; #@! TA.AperFunction,Plated,PTH,ComponentDrill
T4C0.600
; #@! TA.AperFunction,Plated,PTH,ComponentDrill
T5C0.800
; #@! TA.AperFunction,Plated,PTH,ComponentDrill
T6C0.900
; #@! TA.AperFunction,Plated,PTH,ComponentDrill
T7C1.000
; #@! TA.AperFunction,Plated,PTH,ComponentDrill
T8C1.300
; #@! TA.AperFunction,Plated,PTH,ComponentDrill
T9C1.400
; #@! TA.AperFunction,Plated,PTH,ComponentDrill
T10C1.900
; #@! TA.AperFunction,Plated,PTH,ComponentDrill
T11C3.000
; #@! TA.AperFunction,Plated,PTH,ComponentDrill
T12C3.200
; #@! TA.AperFunction,Plated,PTH,ComponentDrill
T13C3.800
%
G90
G05
T1
X130.5Y-72.375
X130.5Y-74.583
X130.5Y-76.792
X130.5Y-79.0
X130.5Y-81.375
X130.5Y-83.583
X130.5Y-85.792
X130.5Y-88.0
X130.5Y-90.875
X130.5Y-93.083
X130.5Y-95.292
X130.5Y-97.5
X136.0Y-58.5
X137.792Y-49.0
X137.792Y-51.0
X137.95Y-43.5
X138.0Y-63.0
X138.0Y-65.208
X138.0Y-67.417
X138.0Y-69.625
X138.0Y-71.833
X138.0Y-74.042
X138.0Y-76.25
X138.0Y-78.458
X138.0Y-80.667
X138.0Y-82.875
X138.0Y-85.083
X138.0Y-87.292
X139.692Y-43.5
X140.0Y-49.0
X140.0Y-51.0
X140.0Y-54.5
X140.0Y-63.0
X140.55Y-107.6
X140.55Y-108.35
X141.433Y-43.5
X142.208Y-63.0
X143.175Y-43.5
X143.825Y-82.0
X144.917Y-43.5
X145.45Y-72.556
X145.567Y-82.0
X146.0Y-109.5
X146.658Y-43.5
X146.8Y-95.4
X146.8Y-96.35
X146.9Y-72.556
X147.125Y-109.5
X147.308Y-82.0
X148.25Y-109.5
X148.35Y-72.556
X148.5Y-43.5
X149.05Y-82.0
X149.375Y-109.5
X149.8Y-72.556
X150.05Y-99.35
X150.5Y-109.5
X150.792Y-82.0
X151.05Y-72.556
X151.9Y-99.4
X152.5Y-72.556
X152.533Y-82.0
X152.9Y-96.3
X152.95Y-43.5
X153.95Y-72.556
X154.275Y-82.0
X154.692Y-43.5
X155.4Y-72.556
X156.017Y-82.0
X156.433Y-43.5
X156.875Y-97.0
X156.95Y-104.5
X157.25Y-72.556
X157.7Y-104.5
X157.758Y-82.0
X158.175Y-43.5
X158.4Y-104.5
X158.7Y-72.556
X159.05Y-104.5
X159.083Y-97.0
X159.5Y-82.0
X159.7Y-104.5
X159.917Y-43.5
X160.15Y-72.556
X161.292Y-97.0
X161.6Y-72.556
X161.658Y-43.5
X163.0Y-72.556
X163.417Y-82.0
X163.5Y-43.5
X163.5Y-97.0
X165.158Y-82.0
X166.1Y-108.5
X166.9Y-82.0
X167.85Y-94.487
X167.856Y-108.5
X168.24Y-52.662
X168.24Y-54.87
X168.24Y-57.078
X168.24Y-59.287
X168.24Y-61.495
X168.24Y-63.703
X168.24Y-65.912
X168.24Y-68.12
X168.24Y-70.328
X168.24Y-72.537
X169.612Y-108.5
X170.45Y-99.237
X171.35Y-99.2
X171.368Y-108.5
X171.5Y-50.792
X171.5Y-53.0
X171.5Y-55.5
X171.5Y-57.708
X171.5Y-59.917
X171.5Y-62.125
X171.5Y-64.333
X171.5Y-66.542
X171.5Y-68.75
X171.5Y-70.958
X171.5Y-75.375
X171.5Y-77.583
X171.5Y-79.792
X173.124Y-108.5
X174.88Y-108.5
X176.0Y-80.5
X176.22Y-50.35
X176.636Y-108.5
X177.0Y-92.23
X177.0Y-93.4
X177.17Y-96.92
X177.355Y-84.721
X177.355Y-86.171
X177.355Y-87.621
X177.355Y-89.071
X177.5Y-78.5
X178.38Y-96.92
X178.392Y-108.5
X178.45Y-93.4
X180.148Y-108.5
X181.667Y-41.0
X181.904Y-108.5
X182.805Y-76.421
X183.66Y-108.5
X183.68Y-106.5
X183.875Y-41.0
X184.014Y-67.899
X184.375Y-85.5
X184.375Y-87.5
X185.416Y-108.5
X185.436Y-106.5
X186.024Y-69.15
X186.037Y-78.071
X186.375Y-41.0
X186.583Y-85.5
X186.583Y-87.5
X186.98Y-71.533
X187.172Y-108.5
X187.192Y-106.5
X187.674Y-70.549
X187.674Y-71.249
X187.724Y-72.033
X188.124Y-66.549
X188.474Y-62.599
X188.583Y-41.0
X188.792Y-85.5
X188.792Y-87.5
X188.928Y-108.5
X188.948Y-106.5
X188.955Y-77.971
X190.684Y-108.5
X190.704Y-106.5
X190.792Y-41.0
X191.0Y-85.5
X191.0Y-87.5
X191.702Y-77.968
X192.124Y-72.299
X192.44Y-108.5
X192.46Y-106.5
X193.0Y-41.0
X193.0Y-85.5
X193.0Y-87.708
X193.0Y-89.917
X193.0Y-92.125
X193.374Y-66.7
X193.376Y-64.116
X193.474Y-65.65
X193.524Y-73.65
X193.897Y-64.584
X194.196Y-108.5
X195.0Y-85.5
X195.0Y-87.708
X195.0Y-89.917
X195.0Y-92.125
X195.952Y-108.5
X196.534Y-100.582
X196.558Y-98.553
X196.63Y-74.81
X196.924Y-69.45
X196.974Y-73.7
X197.708Y-108.5
X197.84Y-100.55
X197.85Y-98.54
X198.124Y-63.399
X198.67Y-57.86
X199.464Y-108.5
X199.62Y-57.86
X200.57Y-57.86
X200.667Y-41.0
X200.89Y-87.84
X201.22Y-108.5
X201.25Y-92.37
X201.9Y-92.37
X202.337Y-93.9
X202.387Y-95.6
X202.55Y-92.37
X202.875Y-41.0
X202.976Y-108.5
X204.732Y-108.5
X205.024Y-65.749
X205.375Y-41.0
X206.488Y-108.5
X207.47Y-95.85
X207.575Y-97.6
X207.575Y-99.5
X207.583Y-41.0
X208.244Y-108.5
X208.46Y-87.7
X209.11Y-87.7
X209.76Y-87.7
X209.792Y-41.0
X210.0Y-108.5
X210.46Y-87.7
X210.46Y-88.45
X210.46Y-89.15
X210.46Y-89.8
X210.46Y-90.45
X211.474Y-64.099
X211.988Y-108.5
X212.0Y-41.0
X212.0Y-97.475
X212.045Y-95.477
X212.05Y-96.35
X212.054Y-94.677
X212.108Y-93.879
X213.744Y-108.5
X214.8Y-88.2
X214.8Y-88.89
X214.8Y-89.58
X214.8Y-90.27
X214.8Y-90.96
X214.85Y-91.65
X215.5Y-108.5
X215.63Y-87.76
X216.32Y-87.76
X217.01Y-87.76
X217.244Y-108.5
X219.0Y-108.5
X219.36Y-93.34
X220.86Y-88.01
X221.55Y-100.6
X223.15Y-100.55
X224.278Y-99.408
X224.37Y-89.3
X225.5Y-54.792
X225.5Y-56.533
X225.5Y-58.275
X225.5Y-60.017
X225.5Y-61.758
X225.5Y-63.5
X225.5Y-65.342
X225.5Y-67.083
X225.5Y-68.825
X225.5Y-70.567
X225.5Y-72.308
X225.5Y-74.05
X225.5Y-75.792
X225.5Y-77.533
X225.5Y-79.275
X225.5Y-81.017
X225.5Y-82.758
X225.5Y-84.5
X225.5Y-86.242
X225.5Y-88.45
X225.5Y-90.192
X225.5Y-91.933
X225.5Y-93.675
X225.5Y-95.417
X225.5Y-97.158
X225.5Y-99.0
T2
X215.075Y-94.6
X215.075Y-95.55
X215.075Y-96.5
X215.075Y-97.45
X215.075Y-98.4
X216.425Y-94.6
X216.425Y-95.55
X216.425Y-96.5
X216.425Y-97.45
X216.425Y-98.4
X217.775Y-94.6
X217.775Y-95.55
X217.775Y-96.5
X217.775Y-97.45
X217.775Y-98.4
T3
X129.6Y-42.35
X129.6Y-107.35
X130.303Y-40.653
X130.303Y-44.047
X130.303Y-105.653
X130.303Y-109.047
X132.0Y-39.95
X132.0Y-44.75
X132.0Y-104.95
X132.0Y-109.75
X133.697Y-40.653
X133.697Y-44.047
X133.697Y-105.653
X133.697Y-109.047
X134.4Y-42.35
X134.4Y-107.35
X221.5Y-42.4
X221.6Y-107.4
X222.203Y-40.703
X222.203Y-44.097
X222.303Y-105.703
X222.303Y-109.097
X223.9Y-40.0
X223.9Y-44.8
X224.0Y-105.0
X224.0Y-109.8
X225.597Y-40.703
X225.597Y-44.097
X225.697Y-105.703
X225.697Y-109.097
X226.3Y-42.4
X226.4Y-107.4
T5
X177.765Y-82.511
X177.765Y-95.211
X180.305Y-82.511
X180.305Y-95.211
X182.845Y-82.511
X182.845Y-95.211
X185.385Y-82.511
X185.385Y-95.211
X187.925Y-82.511
X187.925Y-95.211
X190.465Y-82.511
X190.465Y-95.211
X193.005Y-82.511
X193.005Y-95.211
X195.545Y-82.511
X195.545Y-95.211
T6
X166.65Y-42.91
X170.65Y-42.91
X174.65Y-42.91
T7
X133.46Y-49.35
X133.46Y-51.89
X133.46Y-54.43
X133.46Y-56.97
X133.46Y-59.51
X133.46Y-62.05
X133.46Y-64.59
X133.46Y-67.13
X133.46Y-69.67
X133.46Y-72.21
X133.46Y-74.75
X133.46Y-77.29
X133.46Y-79.83
X133.46Y-82.37
X133.46Y-84.91
X133.46Y-87.45
X133.46Y-89.99
X133.46Y-92.53
X133.46Y-95.07
X133.46Y-97.61
X174.1Y-49.35
X174.1Y-51.89
X174.1Y-54.43
X174.1Y-56.97
X174.1Y-59.51
X174.1Y-62.05
X174.1Y-64.59
X174.1Y-67.13
X174.1Y-69.67
X174.1Y-72.21
X174.1Y-74.75
X174.1Y-77.29
X174.1Y-79.83
X174.1Y-82.37
X174.1Y-84.91
X174.1Y-87.45
X174.1Y-89.99
X174.1Y-92.53
X174.1Y-95.07
X174.1Y-97.61
X219.26Y-69.82
X219.26Y-80.82
T8
X185.104Y-47.127
X185.754Y-49.078
X187.754Y-49.078
X188.404Y-47.127
T9
X147.945Y-103.6
X151.755Y-103.6
X168.495Y-103.6
X172.305Y-103.6
X178.745Y-103.571
X182.555Y-103.571
X188.745Y-103.521
X192.555Y-103.521
X199.324Y-103.662
X203.135Y-103.661
X206.945Y-103.661
X213.945Y-103.6
X217.755Y-103.6
X220.199Y-57.548
X220.199Y-61.358
X220.2Y-65.17
T10
X214.26Y-72.82
X214.26Y-77.82
T11
X180.504Y-47.627
X193.004Y-47.627
T12
X132.0Y-42.35
X132.0Y-107.35
X223.9Y-42.4
X224.0Y-107.4
T13
X201.13Y-53.09
X212.03Y-53.09
T4
G00X197.13Y-43.29
M15
G01X197.13Y-44.09
M16
G05
G00X216.03Y-43.29
M15
G01X216.03Y-44.09
M16
G05
M30
