%TF.GenerationSoftware,KiCad,Pcbnew,10.0.6*%
%TF.CreationDate,2026-10-04T10:26:00+10:00*%
%TF.ProjectId,space-resources,73706163-652d-4726-9573-6f7572636573,rev?*%
%TF.SameCoordinates,Original*%
%TF.FileFunction,Legend,Bot*%
%TF.FilePolarity,Positive*%
%FSLAX46Y46*%
G04 Gerber Fmt 4.6, Leading zero omitted, Abs format (unit mm)*
G04 Created by KiCad (PCBNEW 10.0.6) date 2026-10-04 10:26:00*
%MOMM*%
%LPD*%
G01*
G04 APERTURE LIST*
%ADD10C,0.000000*%
%ADD11C,0.250000*%
G04 APERTURE END LIST*
D10*
G36*
X198766600Y-59182128D02*
G01*
X198766600Y-59832241D01*
X198116487Y-59832241D01*
X197466376Y-59832241D01*
X197466376Y-59182128D01*
X197466376Y-58532017D01*
X198116487Y-58532017D01*
X198766600Y-58532017D01*
X198766600Y-59182128D01*
G37*
G36*
X198766600Y-70450724D02*
G01*
X198766600Y-71100835D01*
X198116487Y-71100835D01*
X197466376Y-71100835D01*
X197466376Y-70450724D01*
X197466376Y-69800612D01*
X198116487Y-69800612D01*
X198766600Y-69800612D01*
X198766600Y-70450724D01*
G37*
G36*
X199633414Y-63082798D02*
G01*
X199633414Y-63299500D01*
X199416712Y-63299500D01*
X199200008Y-63299500D01*
X199200008Y-63082798D01*
X199200008Y-62866093D01*
X199416712Y-62866093D01*
X199633414Y-62866093D01*
X199633414Y-63082798D01*
G37*
G36*
X199633414Y-66550055D02*
G01*
X199633414Y-66766759D01*
X199416712Y-66766759D01*
X199200008Y-66766759D01*
X199200008Y-66550055D01*
X199200008Y-66333352D01*
X199416712Y-66333352D01*
X199633414Y-66333352D01*
X199633414Y-66550055D01*
G37*
G36*
X200500230Y-60265649D02*
G01*
X200500230Y-60699055D01*
X200283527Y-60699055D01*
X200066822Y-60699055D01*
X200066822Y-60265649D01*
X200066822Y-59832241D01*
X200283527Y-59832241D01*
X200500230Y-59832241D01*
X200500230Y-60265649D01*
G37*
G36*
X200500230Y-66983463D02*
G01*
X200500230Y-67200167D01*
X200283527Y-67200167D01*
X200066822Y-67200167D01*
X200066822Y-66983463D01*
X200066822Y-66766759D01*
X200283527Y-66766759D01*
X200500230Y-66766759D01*
X200500230Y-66983463D01*
G37*
G36*
X202667265Y-62215980D02*
G01*
X202667265Y-62432685D01*
X202450563Y-62432685D01*
X202233859Y-62432685D01*
X202233859Y-62215980D01*
X202233859Y-61999277D01*
X202450563Y-61999277D01*
X202667265Y-61999277D01*
X202667265Y-62215980D01*
G37*
G36*
X203967490Y-58532017D02*
G01*
X203967490Y-58965427D01*
X203750785Y-58965427D01*
X203534081Y-58965427D01*
X203534081Y-58532017D01*
X203534081Y-58098612D01*
X203750785Y-58098612D01*
X203967490Y-58098612D01*
X203967490Y-58532017D01*
G37*
G36*
X203967490Y-61782573D02*
G01*
X203967490Y-61999277D01*
X203750785Y-61999277D01*
X203534081Y-61999277D01*
X203534081Y-61782573D01*
X203534081Y-61565871D01*
X203750785Y-61565871D01*
X203967490Y-61565871D01*
X203967490Y-61782573D01*
G37*
G36*
X204400897Y-67850280D02*
G01*
X204400897Y-68066982D01*
X204184192Y-68066982D01*
X203967490Y-68066982D01*
X203967490Y-67850280D01*
X203967490Y-67633577D01*
X204184192Y-67633577D01*
X204400897Y-67633577D01*
X204400897Y-67850280D01*
G37*
G36*
X204834305Y-66766759D02*
G01*
X204834305Y-67200167D01*
X204617601Y-67200167D01*
X204400897Y-67200167D01*
X204400897Y-66766759D01*
X204400897Y-66333352D01*
X204617601Y-66333352D01*
X204834305Y-66333352D01*
X204834305Y-66766759D01*
G37*
G36*
X205267711Y-65683242D02*
G01*
X205267711Y-65899946D01*
X205051008Y-65899946D01*
X204834305Y-65899946D01*
X204834305Y-65683242D01*
X204834305Y-65466538D01*
X205051008Y-65466538D01*
X205267711Y-65466538D01*
X205267711Y-65683242D01*
G37*
G36*
X206134526Y-57881907D02*
G01*
X206134526Y-58098612D01*
X205484414Y-58098612D01*
X204834305Y-58098612D01*
X204834305Y-57881907D01*
X204834305Y-57665202D01*
X205484414Y-57665202D01*
X206134526Y-57665202D01*
X206134526Y-57881907D01*
G37*
G36*
X206134526Y-69583909D02*
G01*
X206134526Y-69800612D01*
X205701118Y-69800612D01*
X205267711Y-69800612D01*
X205267711Y-69583909D01*
X205267711Y-69367204D01*
X205701118Y-69367204D01*
X206134526Y-69367204D01*
X206134526Y-69583909D01*
G37*
G36*
X207434749Y-60265649D02*
G01*
X207434749Y-60699055D01*
X207218044Y-60699055D01*
X207001341Y-60699055D01*
X207001341Y-60265649D01*
X207001341Y-59832241D01*
X207218044Y-59832241D01*
X207434749Y-59832241D01*
X207434749Y-60265649D01*
G37*
G36*
X208301563Y-69150500D02*
G01*
X208301563Y-69367204D01*
X208084859Y-69367204D01*
X207868157Y-69367204D01*
X207868157Y-69150500D01*
X207868157Y-68933798D01*
X208084859Y-68933798D01*
X208301563Y-68933798D01*
X208301563Y-69150500D01*
G37*
G36*
X210035194Y-59182128D02*
G01*
X210035194Y-59832241D01*
X209385083Y-59832241D01*
X208734971Y-59832241D01*
X208734971Y-59182128D01*
X208734971Y-58532017D01*
X209385083Y-58532017D01*
X210035194Y-58532017D01*
X210035194Y-59182128D01*
G37*
G36*
X210468599Y-71750945D02*
G01*
X210468599Y-71967650D01*
X210251894Y-71967650D01*
X210035194Y-71967650D01*
X210035194Y-71750945D01*
X210035194Y-71534240D01*
X210251894Y-71534240D01*
X210468599Y-71534240D01*
X210468599Y-71750945D01*
G37*
G36*
X210902009Y-70884129D02*
G01*
X210902009Y-71100835D01*
X210685304Y-71100835D01*
X210468599Y-71100835D01*
X210468599Y-70884129D01*
X210468599Y-70667427D01*
X210685304Y-70667427D01*
X210902009Y-70667427D01*
X210902009Y-70884129D01*
G37*
G36*
X207868157Y-64383019D02*
G01*
X207868157Y-64599722D01*
X207651451Y-64599722D01*
X207434749Y-64599722D01*
X207434749Y-64816426D01*
X207434749Y-65033131D01*
X207218044Y-65033131D01*
X207001341Y-65033131D01*
X207001341Y-64816426D01*
X207001341Y-64599722D01*
X207218044Y-64599722D01*
X207434749Y-64599722D01*
X207434749Y-64383019D01*
X207434749Y-64166315D01*
X207651451Y-64166315D01*
X207868157Y-64166315D01*
X207868157Y-64383019D01*
G37*
G36*
X199633414Y-59182128D02*
G01*
X199633414Y-60699055D01*
X198116487Y-60699055D01*
X196599561Y-60699055D01*
X196599561Y-60265649D01*
X197032971Y-60265649D01*
X198116487Y-60265649D01*
X199200008Y-60265649D01*
X199200008Y-59182128D01*
X199200008Y-58098612D01*
X198116487Y-58098612D01*
X197032971Y-58098612D01*
X197032971Y-59182128D01*
X197032971Y-60265649D01*
X196599561Y-60265649D01*
X196599561Y-59182128D01*
X196599561Y-57665202D01*
X198116487Y-57665202D01*
X199633414Y-57665202D01*
X199633414Y-59182128D01*
G37*
G36*
X199633414Y-70450724D02*
G01*
X199633414Y-71967650D01*
X198116487Y-71967650D01*
X196599561Y-71967650D01*
X196599561Y-71534240D01*
X197032971Y-71534240D01*
X198116487Y-71534240D01*
X199200008Y-71534240D01*
X199200008Y-70450724D01*
X199200008Y-69367204D01*
X198116487Y-69367204D01*
X197032971Y-69367204D01*
X197032971Y-70450724D01*
X197032971Y-71534240D01*
X196599561Y-71534240D01*
X196599561Y-70450724D01*
X196599561Y-68933798D01*
X198116487Y-68933798D01*
X199633414Y-68933798D01*
X199633414Y-70450724D01*
G37*
G36*
X210902009Y-59182128D02*
G01*
X210902009Y-60699055D01*
X209385083Y-60699055D01*
X207868157Y-60699055D01*
X207868157Y-60265649D01*
X208301563Y-60265649D01*
X209385083Y-60265649D01*
X210468599Y-60265649D01*
X210468599Y-59182128D01*
X210468599Y-58098612D01*
X209385083Y-58098612D01*
X208301563Y-58098612D01*
X208301563Y-59182128D01*
X208301563Y-60265649D01*
X207868157Y-60265649D01*
X207868157Y-59182128D01*
X207868157Y-57665202D01*
X209385083Y-57665202D01*
X210902009Y-57665202D01*
X210902009Y-59182128D01*
G37*
G36*
X201367044Y-57881907D02*
G01*
X201367044Y-58098612D01*
X201583749Y-58098612D01*
X201800452Y-58098612D01*
X201800452Y-57881907D01*
X201800452Y-57665202D01*
X202017157Y-57665202D01*
X202233859Y-57665202D01*
X202233859Y-57881907D01*
X202233859Y-58098612D01*
X202017157Y-58098612D01*
X201800452Y-58098612D01*
X201800452Y-58315317D01*
X201800452Y-58532017D01*
X201583749Y-58532017D01*
X201367044Y-58532017D01*
X201367044Y-58315317D01*
X201367044Y-58098612D01*
X201150339Y-58098612D01*
X200933636Y-58098612D01*
X200933636Y-58315317D01*
X200933636Y-58532017D01*
X200716932Y-58532017D01*
X200500230Y-58532017D01*
X200500230Y-58965427D01*
X200500230Y-59398833D01*
X200283527Y-59398833D01*
X200066822Y-59398833D01*
X200066822Y-58748723D01*
X200066822Y-58098612D01*
X200283527Y-58098612D01*
X200500230Y-58098612D01*
X200500230Y-57881907D01*
X200500230Y-57665202D01*
X200933636Y-57665202D01*
X201367044Y-57665202D01*
X201367044Y-57881907D01*
G37*
G36*
X207434749Y-57881907D02*
G01*
X207434749Y-58098612D01*
X207218044Y-58098612D01*
X207001341Y-58098612D01*
X207001341Y-58315317D01*
X207001341Y-58532017D01*
X206784639Y-58532017D01*
X206567936Y-58532017D01*
X206567936Y-58748723D01*
X206567936Y-58965427D01*
X206784639Y-58965427D01*
X207001341Y-58965427D01*
X207001341Y-58748723D01*
X207001341Y-58532017D01*
X207218044Y-58532017D01*
X207434749Y-58532017D01*
X207434749Y-58965427D01*
X207434749Y-59398833D01*
X207218044Y-59398833D01*
X207001341Y-59398833D01*
X207001341Y-59615539D01*
X207001341Y-59832241D01*
X206784639Y-59832241D01*
X206567936Y-59832241D01*
X206567936Y-59615539D01*
X206567936Y-59398833D01*
X206351232Y-59398833D01*
X206134526Y-59398833D01*
X206134526Y-58965427D01*
X206134526Y-58532017D01*
X206351232Y-58532017D01*
X206567936Y-58532017D01*
X206567936Y-58315317D01*
X206567936Y-58098612D01*
X206784639Y-58098612D01*
X207001341Y-58098612D01*
X207001341Y-57881907D01*
X207001341Y-57665202D01*
X207218044Y-57665202D01*
X207434749Y-57665202D01*
X207434749Y-57881907D01*
G37*
G36*
X203100674Y-58748723D02*
G01*
X203100674Y-59398833D01*
X202883970Y-59398833D01*
X202667265Y-59398833D01*
X202667265Y-59615539D01*
X202667265Y-59832241D01*
X202450563Y-59832241D01*
X202233859Y-59832241D01*
X202233859Y-60265649D01*
X202233859Y-60699055D01*
X202017157Y-60699055D01*
X201800452Y-60699055D01*
X201800452Y-60482353D01*
X201800452Y-60265649D01*
X201583749Y-60265649D01*
X201367044Y-60265649D01*
X201367044Y-60699055D01*
X201367044Y-61132463D01*
X201800452Y-61132463D01*
X202233859Y-61132463D01*
X202233859Y-60915761D01*
X202233859Y-60699055D01*
X202450563Y-60699055D01*
X202667265Y-60699055D01*
X202667265Y-60265649D01*
X202667265Y-59832241D01*
X202883970Y-59832241D01*
X203100674Y-59832241D01*
X203100674Y-59615539D01*
X203100674Y-59398833D01*
X203317378Y-59398833D01*
X203534081Y-59398833D01*
X203534081Y-59615539D01*
X203534081Y-59832241D01*
X203317378Y-59832241D01*
X203100674Y-59832241D01*
X203100674Y-60265649D01*
X203100674Y-60699055D01*
X203317378Y-60699055D01*
X203534081Y-60699055D01*
X203534081Y-60482353D01*
X203534081Y-60265649D01*
X203750785Y-60265649D01*
X203967490Y-60265649D01*
X203967490Y-59832241D01*
X203967490Y-59398833D01*
X204184192Y-59398833D01*
X204400897Y-59398833D01*
X204400897Y-58965427D01*
X204400897Y-58532017D01*
X204617601Y-58532017D01*
X204834305Y-58532017D01*
X204834305Y-58748723D01*
X204834305Y-58965427D01*
X205051008Y-58965427D01*
X205267711Y-58965427D01*
X205267711Y-58748723D01*
X205267711Y-58532017D01*
X205484414Y-58532017D01*
X205701118Y-58532017D01*
X205701118Y-58965427D01*
X205701118Y-59398833D01*
X205484414Y-59398833D01*
X205267711Y-59398833D01*
X205267711Y-59615539D01*
X205267711Y-59832241D01*
X205051008Y-59832241D01*
X204834305Y-59832241D01*
X204834305Y-60482353D01*
X204834305Y-61132463D01*
X204617601Y-61132463D01*
X204400897Y-61132463D01*
X204400897Y-60699055D01*
X204400897Y-60265649D01*
X204184192Y-60265649D01*
X203967490Y-60265649D01*
X203967490Y-60482353D01*
X203967490Y-60699055D01*
X203750785Y-60699055D01*
X203534081Y-60699055D01*
X203534081Y-60915761D01*
X203534081Y-61132463D01*
X203317378Y-61132463D01*
X203100674Y-61132463D01*
X203100674Y-60915761D01*
X203100674Y-60699055D01*
X202883970Y-60699055D01*
X202667265Y-60699055D01*
X202667265Y-61132463D01*
X202667265Y-61565871D01*
X202450563Y-61565871D01*
X202233859Y-61565871D01*
X202233859Y-61782573D01*
X202233859Y-61999277D01*
X201800452Y-61999277D01*
X201367044Y-61999277D01*
X201367044Y-61782573D01*
X201367044Y-61565871D01*
X201150339Y-61565871D01*
X200933636Y-61565871D01*
X200933636Y-61782573D01*
X200933636Y-61999277D01*
X200716932Y-61999277D01*
X200500230Y-61999277D01*
X200500230Y-61565871D01*
X200500230Y-61132463D01*
X200716932Y-61132463D01*
X200933636Y-61132463D01*
X200933636Y-60699055D01*
X200933636Y-60265649D01*
X201150339Y-60265649D01*
X201367044Y-60265649D01*
X201367044Y-60048944D01*
X201367044Y-59832241D01*
X201583749Y-59832241D01*
X201800452Y-59832241D01*
X201800452Y-59615539D01*
X201800452Y-59398833D01*
X202017157Y-59398833D01*
X202233859Y-59398833D01*
X202233859Y-59182128D01*
X202233859Y-58965427D01*
X202017157Y-58965427D01*
X201800452Y-58965427D01*
X201800452Y-59182128D01*
X201800452Y-59398833D01*
X201583749Y-59398833D01*
X201367044Y-59398833D01*
X201367044Y-59182128D01*
X201367044Y-58965427D01*
X201583749Y-58965427D01*
X201800452Y-58965427D01*
X201800452Y-58748723D01*
X201800452Y-58532017D01*
X202017157Y-58532017D01*
X202233859Y-58532017D01*
X202233859Y-58748723D01*
X202233859Y-58965427D01*
X202450563Y-58965427D01*
X202667265Y-58965427D01*
X202667265Y-58532017D01*
X202667265Y-58098612D01*
X202883970Y-58098612D01*
X203100674Y-58098612D01*
X203100674Y-58748723D01*
G37*
G36*
X205267711Y-61999277D02*
G01*
X205267711Y-62432685D01*
X205484414Y-62432685D01*
X205701118Y-62432685D01*
X205701118Y-62866093D01*
X205701118Y-63299500D01*
X205917822Y-63299500D01*
X206134526Y-63299500D01*
X206134526Y-63082798D01*
X206134526Y-62866093D01*
X206351232Y-62866093D01*
X206567936Y-62866093D01*
X206567936Y-63082798D01*
X206567936Y-63299500D01*
X206784639Y-63299500D01*
X207001341Y-63299500D01*
X207001341Y-63516204D01*
X207001341Y-63732906D01*
X206784639Y-63732906D01*
X206567936Y-63732906D01*
X206567936Y-64166315D01*
X206567936Y-64599722D01*
X206134526Y-64599722D01*
X205701118Y-64599722D01*
X205701118Y-64816426D01*
X205701118Y-65033131D01*
X205484414Y-65033131D01*
X205267711Y-65033131D01*
X205267711Y-64816426D01*
X205267711Y-64599722D01*
X205051008Y-64599722D01*
X204834305Y-64599722D01*
X204834305Y-64816426D01*
X204834305Y-65033131D01*
X204617601Y-65033131D01*
X204400897Y-65033131D01*
X204400897Y-65249833D01*
X204400897Y-65466538D01*
X204184192Y-65466538D01*
X203967490Y-65466538D01*
X203967490Y-66550055D01*
X203967490Y-67633577D01*
X203534081Y-67633577D01*
X203100674Y-67633577D01*
X203100674Y-67200167D01*
X203100674Y-66766759D01*
X203317378Y-66766759D01*
X203534081Y-66766759D01*
X203534081Y-66550055D01*
X203534081Y-66333352D01*
X203317378Y-66333352D01*
X203100674Y-66333352D01*
X203100674Y-66550055D01*
X203100674Y-66766759D01*
X202667265Y-66766759D01*
X202233859Y-66766759D01*
X202233859Y-66550055D01*
X202233859Y-66333352D01*
X202017157Y-66333352D01*
X201800452Y-66333352D01*
X201800452Y-66116649D01*
X201800452Y-65899946D01*
X202017157Y-65899946D01*
X202233859Y-65899946D01*
X202233859Y-66116649D01*
X202233859Y-66333352D01*
X202450563Y-66333352D01*
X202667265Y-66333352D01*
X202667265Y-65899946D01*
X202667265Y-65466538D01*
X203317378Y-65466538D01*
X203967490Y-65466538D01*
X203967490Y-65249833D01*
X203967490Y-65033131D01*
X204184192Y-65033131D01*
X204400897Y-65033131D01*
X204400897Y-64816426D01*
X204400897Y-64599722D01*
X204184192Y-64599722D01*
X203967490Y-64599722D01*
X203967490Y-64383019D01*
X203967490Y-64166315D01*
X203750785Y-64166315D01*
X203534081Y-64166315D01*
X203534081Y-63949611D01*
X203967490Y-63949611D01*
X203967490Y-64166315D01*
X205051008Y-64166315D01*
X206134526Y-64166315D01*
X206134526Y-63949611D01*
X206134526Y-63732906D01*
X205917822Y-63732906D01*
X205701118Y-63732906D01*
X205701118Y-63516204D01*
X205701118Y-63299500D01*
X205484414Y-63299500D01*
X205267711Y-63299500D01*
X205267711Y-63516204D01*
X205267711Y-63732906D01*
X205051008Y-63732906D01*
X204834305Y-63732906D01*
X204834305Y-63516204D01*
X204834305Y-63299500D01*
X204617601Y-63299500D01*
X204400897Y-63299500D01*
X204400897Y-63516204D01*
X204400897Y-63732906D01*
X204184192Y-63732906D01*
X203967490Y-63732906D01*
X203967490Y-63949611D01*
X203534081Y-63949611D01*
X203534081Y-63732906D01*
X203534081Y-63299500D01*
X203317378Y-63299500D01*
X203100674Y-63299500D01*
X203100674Y-63082798D01*
X203100674Y-62866093D01*
X203317378Y-62866093D01*
X203534081Y-62866093D01*
X203534081Y-62649390D01*
X203534081Y-62432685D01*
X203750785Y-62432685D01*
X203967490Y-62432685D01*
X203967490Y-62215980D01*
X203967490Y-61999277D01*
X204184192Y-61999277D01*
X204400897Y-61999277D01*
X204400897Y-62215980D01*
X204400897Y-62432685D01*
X204184192Y-62432685D01*
X203967490Y-62432685D01*
X203967490Y-62649390D01*
X203967490Y-62866093D01*
X203750785Y-62866093D01*
X203534081Y-62866093D01*
X203534081Y-63082798D01*
X203534081Y-63299500D01*
X203967490Y-63299500D01*
X204400897Y-63299500D01*
X204400897Y-63082798D01*
X204400897Y-62866093D01*
X204617601Y-62866093D01*
X204834305Y-62866093D01*
X204834305Y-62215980D01*
X204834305Y-61565871D01*
X205051008Y-61565871D01*
X205267711Y-61565871D01*
X205267711Y-61999277D01*
G37*
G36*
X206134526Y-60048944D02*
G01*
X206134526Y-60265649D01*
X205917822Y-60265649D01*
X205701118Y-60265649D01*
X205701118Y-60699055D01*
X205701118Y-61132463D01*
X205917822Y-61132463D01*
X206134526Y-61132463D01*
X206134526Y-60699055D01*
X206134526Y-60265649D01*
X206351232Y-60265649D01*
X206567936Y-60265649D01*
X206567936Y-60699055D01*
X206567936Y-61132463D01*
X206784639Y-61132463D01*
X207001341Y-61132463D01*
X207001341Y-61782573D01*
X207001341Y-62432685D01*
X207434749Y-62432685D01*
X207868157Y-62432685D01*
X207868157Y-61999277D01*
X207868157Y-61565871D01*
X207651451Y-61565871D01*
X207434749Y-61565871D01*
X207434749Y-61349168D01*
X207434749Y-61132463D01*
X207651451Y-61132463D01*
X207868157Y-61132463D01*
X207868157Y-61349168D01*
X207868157Y-61565871D01*
X208084859Y-61565871D01*
X208301563Y-61565871D01*
X208301563Y-61349168D01*
X208301563Y-61132463D01*
X208518268Y-61132463D01*
X208734971Y-61132463D01*
X208734971Y-61349168D01*
X208734971Y-61565871D01*
X208951673Y-61565871D01*
X209168379Y-61565871D01*
X209168379Y-61349168D01*
X209168379Y-61132463D01*
X209818488Y-61132463D01*
X210468599Y-61132463D01*
X210468599Y-61565871D01*
X210468599Y-61999277D01*
X210685304Y-61999277D01*
X210902009Y-61999277D01*
X210902009Y-62649390D01*
X210902009Y-63299500D01*
X210685304Y-63299500D01*
X210468599Y-63299500D01*
X210468599Y-63516204D01*
X210468599Y-63732906D01*
X210251894Y-63732906D01*
X210035194Y-63732906D01*
X210035194Y-63949611D01*
X210035194Y-64166315D01*
X210251894Y-64166315D01*
X210468599Y-64166315D01*
X210468599Y-63949611D01*
X210468599Y-63732906D01*
X210685304Y-63732906D01*
X210902009Y-63732906D01*
X210902009Y-64383019D01*
X210902009Y-65033131D01*
X210685304Y-65033131D01*
X210468599Y-65033131D01*
X210468599Y-65249833D01*
X210468599Y-65466538D01*
X210251894Y-65466538D01*
X210035194Y-65466538D01*
X210035194Y-65249833D01*
X210035194Y-65033131D01*
X209601786Y-65033131D01*
X209168379Y-65033131D01*
X209168379Y-64816426D01*
X209168379Y-64599722D01*
X209601786Y-64599722D01*
X210035194Y-64599722D01*
X210035194Y-64383019D01*
X210035194Y-64166315D01*
X209818488Y-64166315D01*
X209601786Y-64166315D01*
X209601786Y-63949611D01*
X209601786Y-63732906D01*
X209385083Y-63732906D01*
X209168379Y-63732906D01*
X209168379Y-63516204D01*
X209168379Y-63299500D01*
X208951673Y-63299500D01*
X208734971Y-63299500D01*
X208734971Y-64166315D01*
X208734971Y-65033131D01*
X208518268Y-65033131D01*
X208301563Y-65033131D01*
X208301563Y-65249833D01*
X208301563Y-65466538D01*
X208518268Y-65466538D01*
X208734971Y-65466538D01*
X208734971Y-65899946D01*
X208734971Y-66333352D01*
X207651451Y-66333352D01*
X206567936Y-66333352D01*
X206567936Y-65683242D01*
X206567936Y-65033131D01*
X206784639Y-65033131D01*
X207001341Y-65033131D01*
X207001341Y-65249833D01*
X207001341Y-65466538D01*
X207218044Y-65466538D01*
X207434749Y-65466538D01*
X207434749Y-65249833D01*
X207434749Y-65033131D01*
X207868157Y-65033131D01*
X208301563Y-65033131D01*
X208301563Y-64383019D01*
X208301563Y-63732906D01*
X208084859Y-63732906D01*
X207868157Y-63732906D01*
X207868157Y-63299500D01*
X207868157Y-62866093D01*
X208301563Y-62866093D01*
X208734971Y-62866093D01*
X208734971Y-62432685D01*
X209168379Y-62432685D01*
X209385083Y-62432685D01*
X209601786Y-62432685D01*
X209601786Y-62649390D01*
X209601786Y-62866093D01*
X209385083Y-62866093D01*
X209168379Y-62866093D01*
X209168379Y-63082798D01*
X209168379Y-63299500D01*
X209385083Y-63299500D01*
X209601786Y-63299500D01*
X209601786Y-63082798D01*
X209601786Y-62866093D01*
X210035194Y-62866093D01*
X210468599Y-62866093D01*
X210468599Y-62649390D01*
X210468599Y-62432685D01*
X210251894Y-62432685D01*
X210035194Y-62432685D01*
X210035194Y-62215980D01*
X210035194Y-61999277D01*
X209601786Y-61999277D01*
X209168379Y-61999277D01*
X209168379Y-62215980D01*
X209168379Y-62432685D01*
X208734971Y-62432685D01*
X208734971Y-62215980D01*
X208734971Y-61565871D01*
X208518268Y-61565871D01*
X208301563Y-61565871D01*
X208301563Y-61999277D01*
X208301563Y-62432685D01*
X208084859Y-62432685D01*
X207868157Y-62432685D01*
X207868157Y-62649390D01*
X207868157Y-62866093D01*
X207651451Y-62866093D01*
X207434749Y-62866093D01*
X207434749Y-63082798D01*
X207434749Y-63299500D01*
X207218044Y-63299500D01*
X207001341Y-63299500D01*
X207001341Y-62866093D01*
X207001341Y-62432685D01*
X206567936Y-62432685D01*
X206134526Y-62432685D01*
X206134526Y-61999277D01*
X206134526Y-61565871D01*
X205701118Y-61565871D01*
X205267711Y-61565871D01*
X205267711Y-60699055D01*
X205267711Y-59832241D01*
X205701118Y-59832241D01*
X206134526Y-59832241D01*
X206134526Y-60048944D01*
G37*
G36*
X200066822Y-67416873D02*
G01*
X200066822Y-67633577D01*
X200283527Y-67633577D01*
X200500230Y-67633577D01*
X200500230Y-67416873D01*
X200500230Y-67200167D01*
X200716932Y-67200167D01*
X200933636Y-67200167D01*
X200933636Y-67416873D01*
X200933636Y-67633577D01*
X201583749Y-67633577D01*
X202233859Y-67633577D01*
X202233859Y-67416873D01*
X202233859Y-67200167D01*
X202450563Y-67200167D01*
X202667265Y-67200167D01*
X202667265Y-67633577D01*
X202667265Y-68066982D01*
X202883970Y-68066982D01*
X203100674Y-68066982D01*
X203100674Y-68283685D01*
X203100674Y-68500390D01*
X202883970Y-68500390D01*
X202667265Y-68500390D01*
X202667265Y-68717092D01*
X202667265Y-68933798D01*
X202450563Y-68933798D01*
X202233859Y-68933798D01*
X202233859Y-68717092D01*
X202233859Y-68500390D01*
X202017157Y-68500390D01*
X201800452Y-68500390D01*
X201800452Y-69150500D01*
X201800452Y-69800612D01*
X201583749Y-69800612D01*
X201367044Y-69800612D01*
X201367044Y-70017314D01*
X201367044Y-70234020D01*
X201583749Y-70234020D01*
X201800452Y-70234020D01*
X201800452Y-70017314D01*
X201800452Y-69800612D01*
X202017157Y-69800612D01*
X202233859Y-69800612D01*
X202233859Y-70017314D01*
X202233859Y-70234020D01*
X202667265Y-70234020D01*
X203100674Y-70234020D01*
X203100674Y-70017314D01*
X203100674Y-69800612D01*
X203750785Y-69800612D01*
X204400897Y-69800612D01*
X204400897Y-69583909D01*
X204400897Y-69367204D01*
X203750785Y-69367204D01*
X203100674Y-69367204D01*
X203100674Y-69583909D01*
X203100674Y-69800612D01*
X202667265Y-69800612D01*
X202233859Y-69800612D01*
X202233859Y-69583909D01*
X202233859Y-69367204D01*
X202450563Y-69367204D01*
X202667265Y-69367204D01*
X202667265Y-69150500D01*
X202667265Y-68933798D01*
X202883970Y-68933798D01*
X203100674Y-68933798D01*
X203100674Y-68717092D01*
X203100674Y-68500390D01*
X203534081Y-68500390D01*
X203967490Y-68500390D01*
X203967490Y-68717092D01*
X203967490Y-68933798D01*
X204184192Y-68933798D01*
X204400897Y-68933798D01*
X204400897Y-68717092D01*
X204400897Y-68500390D01*
X204617601Y-68500390D01*
X204834305Y-68500390D01*
X204834305Y-68283685D01*
X204834305Y-68066982D01*
X205051008Y-68066982D01*
X205267711Y-68066982D01*
X205267711Y-68717092D01*
X205267711Y-69367204D01*
X205051008Y-69367204D01*
X204834305Y-69367204D01*
X204834305Y-69583909D01*
X204834305Y-69800612D01*
X205051008Y-69800612D01*
X205267711Y-69800612D01*
X205267711Y-70017314D01*
X205267711Y-70234020D01*
X204834305Y-70234020D01*
X204400897Y-70234020D01*
X204400897Y-70450724D01*
X204400897Y-70667427D01*
X204184192Y-70667427D01*
X203967490Y-70667427D01*
X203967490Y-70884129D01*
X203967490Y-71100835D01*
X203534081Y-71100835D01*
X203100674Y-71100835D01*
X203100674Y-70884129D01*
X203100674Y-70667427D01*
X203534081Y-70667427D01*
X203750785Y-70667427D01*
X203967490Y-70667427D01*
X203967490Y-70450724D01*
X203967490Y-70234020D01*
X203750785Y-70234020D01*
X203534081Y-70234020D01*
X203534081Y-70450724D01*
X203534081Y-70667427D01*
X203100674Y-70667427D01*
X202017157Y-70667427D01*
X200933636Y-70667427D01*
X200933636Y-70884129D01*
X200933636Y-71100835D01*
X200716932Y-71100835D01*
X200500230Y-71100835D01*
X200500230Y-71317535D01*
X200500230Y-71534240D01*
X200716932Y-71534240D01*
X200933636Y-71534240D01*
X200933636Y-71317535D01*
X200933636Y-71100835D01*
X201150339Y-71100835D01*
X201367044Y-71100835D01*
X201367044Y-71317535D01*
X201367044Y-71534240D01*
X201583749Y-71534240D01*
X201800452Y-71534240D01*
X201800452Y-71317535D01*
X201800452Y-71100835D01*
X202233859Y-71100835D01*
X202667265Y-71100835D01*
X202667265Y-71317535D01*
X202667265Y-71534240D01*
X202233859Y-71534240D01*
X201800452Y-71534240D01*
X201800452Y-71750945D01*
X201800452Y-71967650D01*
X201150339Y-71967650D01*
X200500230Y-71967650D01*
X200500230Y-71750945D01*
X200500230Y-71534240D01*
X200283527Y-71534240D01*
X200066822Y-71534240D01*
X200066822Y-71100835D01*
X200066822Y-70667427D01*
X200283527Y-70667427D01*
X200500230Y-70667427D01*
X200500230Y-70450724D01*
X200500230Y-70234020D01*
X200716932Y-70234020D01*
X200933636Y-70234020D01*
X200933636Y-70017314D01*
X200933636Y-69800612D01*
X200716932Y-69800612D01*
X200500230Y-69800612D01*
X200500230Y-69367204D01*
X200500230Y-68933798D01*
X200716932Y-68933798D01*
X200933636Y-68933798D01*
X200933636Y-68717092D01*
X200933636Y-68500390D01*
X201150339Y-68500390D01*
X201367044Y-68500390D01*
X201367044Y-68283685D01*
X201367044Y-68066982D01*
X200933636Y-68066982D01*
X200500230Y-68066982D01*
X200500230Y-68283685D01*
X200500230Y-68500390D01*
X200283527Y-68500390D01*
X200066822Y-68500390D01*
X200066822Y-68283685D01*
X200066822Y-68066982D01*
X199850120Y-68066982D01*
X199633414Y-68066982D01*
X199633414Y-68283685D01*
X199633414Y-68500390D01*
X199416712Y-68500390D01*
X199200008Y-68500390D01*
X199200008Y-68283685D01*
X199200008Y-68066982D01*
X199416712Y-68066982D01*
X199633414Y-68066982D01*
X199633414Y-67850280D01*
X199633414Y-67633577D01*
X199416712Y-67633577D01*
X199200008Y-67633577D01*
X199200008Y-67416873D01*
X199200008Y-67200167D01*
X199633414Y-67200167D01*
X200066822Y-67200167D01*
X200066822Y-67416873D01*
G37*
G36*
X206134526Y-66333352D02*
G01*
X206134526Y-67200167D01*
X207001341Y-67200167D01*
X207868157Y-67200167D01*
X207868157Y-67416873D01*
X207868157Y-67633577D01*
X207651451Y-67633577D01*
X207434749Y-67633577D01*
X207434749Y-67850280D01*
X207434749Y-68066982D01*
X207651451Y-68066982D01*
X207868157Y-68066982D01*
X207868157Y-67850280D01*
X207868157Y-67633577D01*
X208084859Y-67633577D01*
X208301563Y-67633577D01*
X208301563Y-67200167D01*
X208734971Y-67200167D01*
X208951673Y-67200167D01*
X209168379Y-67200167D01*
X209168379Y-67416873D01*
X209168379Y-67633577D01*
X209385083Y-67633577D01*
X209601786Y-67633577D01*
X209601786Y-67200167D01*
X209601786Y-66766759D01*
X209168379Y-66766759D01*
X208734971Y-66766759D01*
X208734971Y-66983463D01*
X208734971Y-67200167D01*
X208301563Y-67200167D01*
X208301563Y-66983463D01*
X208301563Y-66766759D01*
X208518268Y-66766759D01*
X208734971Y-66766759D01*
X208734971Y-66550055D01*
X208734971Y-66333352D01*
X209168379Y-66333352D01*
X209601786Y-66333352D01*
X209601786Y-66550055D01*
X209601786Y-66766759D01*
X209818488Y-66766759D01*
X210035194Y-66766759D01*
X210035194Y-66550055D01*
X210035194Y-66333352D01*
X210251894Y-66333352D01*
X210468599Y-66333352D01*
X210468599Y-66116649D01*
X210468599Y-65899946D01*
X210685304Y-65899946D01*
X210902009Y-65899946D01*
X210902009Y-66116649D01*
X210902009Y-66333352D01*
X210685304Y-66333352D01*
X210468599Y-66333352D01*
X210468599Y-66550055D01*
X210468599Y-66766759D01*
X210251894Y-66766759D01*
X210035194Y-66766759D01*
X210035194Y-66983463D01*
X210035194Y-67200167D01*
X210251894Y-67200167D01*
X210468599Y-67200167D01*
X210468599Y-66983463D01*
X210468599Y-66766759D01*
X210685304Y-66766759D01*
X210902009Y-66766759D01*
X210902009Y-66983463D01*
X210902009Y-67200167D01*
X210685304Y-67200167D01*
X210468599Y-67200167D01*
X210468599Y-67416873D01*
X210468599Y-67633577D01*
X210685304Y-67633577D01*
X210902009Y-67633577D01*
X210902009Y-67850280D01*
X210902009Y-68066982D01*
X210685304Y-68066982D01*
X210468599Y-68066982D01*
X210468599Y-68283685D01*
X210468599Y-68500390D01*
X210251894Y-68500390D01*
X210035194Y-68500390D01*
X210035194Y-68717092D01*
X210035194Y-68933798D01*
X210468599Y-68933798D01*
X210902009Y-68933798D01*
X210902009Y-69150500D01*
X210902009Y-69367204D01*
X210685304Y-69367204D01*
X210468599Y-69367204D01*
X210468599Y-69583909D01*
X210468599Y-69800612D01*
X210685304Y-69800612D01*
X210902009Y-69800612D01*
X210902009Y-70017314D01*
X210902009Y-70234020D01*
X210468599Y-70234020D01*
X210035194Y-70234020D01*
X210035194Y-70450724D01*
X210035194Y-70667427D01*
X209818488Y-70667427D01*
X209601786Y-70667427D01*
X209601786Y-70450724D01*
X209601786Y-70234020D01*
X209818488Y-70234020D01*
X210035194Y-70234020D01*
X210035194Y-70017314D01*
X210035194Y-69800612D01*
X209601786Y-69800612D01*
X209168379Y-69800612D01*
X209168379Y-70017314D01*
X209168379Y-70234020D01*
X208951673Y-70234020D01*
X208734971Y-70234020D01*
X208734971Y-70450724D01*
X208734971Y-70667427D01*
X208951673Y-70667427D01*
X209168379Y-70667427D01*
X209168379Y-70884129D01*
X209168379Y-71100835D01*
X209385083Y-71100835D01*
X209601786Y-71100835D01*
X209601786Y-71534240D01*
X209601786Y-71967650D01*
X209385083Y-71967650D01*
X209168379Y-71967650D01*
X209168379Y-71750945D01*
X209168379Y-71534240D01*
X208518268Y-71534240D01*
X207868157Y-71534240D01*
X207868157Y-71317535D01*
X207868157Y-71100835D01*
X208084859Y-71100835D01*
X208301563Y-71100835D01*
X208301563Y-70667427D01*
X208301563Y-70234020D01*
X208084859Y-70234020D01*
X207868157Y-70234020D01*
X207868157Y-70450724D01*
X207868157Y-70667427D01*
X207651451Y-70667427D01*
X207434749Y-70667427D01*
X207434749Y-70450724D01*
X207434749Y-70234020D01*
X207218044Y-70234020D01*
X207001341Y-70234020D01*
X207001341Y-70450724D01*
X207001341Y-70667427D01*
X206567936Y-70667427D01*
X206134526Y-70667427D01*
X206134526Y-70884129D01*
X206134526Y-71100835D01*
X205701118Y-71100835D01*
X205267711Y-71100835D01*
X205267711Y-71317535D01*
X205267711Y-71534240D01*
X205701118Y-71534240D01*
X206134526Y-71534240D01*
X206134526Y-71317535D01*
X206134526Y-71100835D01*
X206351232Y-71100835D01*
X206567936Y-71100835D01*
X206567936Y-71317535D01*
X206567936Y-71534240D01*
X207001341Y-71534240D01*
X207434749Y-71534240D01*
X207434749Y-71750945D01*
X207434749Y-71967650D01*
X206351232Y-71967650D01*
X205267711Y-71967650D01*
X205267711Y-71750945D01*
X205267711Y-71534240D01*
X204834305Y-71534240D01*
X204400897Y-71534240D01*
X204400897Y-71750945D01*
X204400897Y-71967650D01*
X204184192Y-71967650D01*
X203967490Y-71967650D01*
X203967490Y-71750945D01*
X203967490Y-71534240D01*
X204184192Y-71534240D01*
X204400897Y-71534240D01*
X204400897Y-71100835D01*
X204400897Y-70667427D01*
X204617601Y-70667427D01*
X204834305Y-70667427D01*
X204834305Y-70884129D01*
X204834305Y-71100835D01*
X205051008Y-71100835D01*
X205267711Y-71100835D01*
X205267711Y-70667427D01*
X205267711Y-70234020D01*
X206134526Y-70234020D01*
X207001341Y-70234020D01*
X207001341Y-69800612D01*
X207434749Y-69800612D01*
X208084859Y-69800612D01*
X208734971Y-69800612D01*
X208734971Y-69367204D01*
X209168379Y-69367204D01*
X209385083Y-69367204D01*
X209601786Y-69367204D01*
X209601786Y-68933798D01*
X209601786Y-68500390D01*
X209385083Y-68500390D01*
X209168379Y-68500390D01*
X209168379Y-68933798D01*
X209168379Y-69367204D01*
X208734971Y-69367204D01*
X208734971Y-69150500D01*
X208734971Y-68933798D01*
X208734971Y-68500390D01*
X208084859Y-68500390D01*
X207434749Y-68500390D01*
X207434749Y-69150500D01*
X207434749Y-69800612D01*
X207001341Y-69800612D01*
X207001341Y-69367204D01*
X206567936Y-69367204D01*
X206134526Y-69367204D01*
X206134526Y-69150500D01*
X206134526Y-68933798D01*
X206567936Y-68933798D01*
X206784639Y-68933798D01*
X207001341Y-68933798D01*
X207001341Y-68283685D01*
X207001341Y-67633577D01*
X206784639Y-67633577D01*
X206567936Y-67633577D01*
X206567936Y-68283685D01*
X206567936Y-68933798D01*
X206134526Y-68933798D01*
X205917822Y-68933798D01*
X205701118Y-68933798D01*
X205701118Y-68717092D01*
X205701118Y-68500390D01*
X205917822Y-68500390D01*
X206134526Y-68500390D01*
X206134526Y-68283685D01*
X206134526Y-68066982D01*
X206134526Y-67633577D01*
X205484414Y-67633577D01*
X204834305Y-67633577D01*
X204834305Y-67416873D01*
X204834305Y-67200167D01*
X205051008Y-67200167D01*
X205267711Y-67200167D01*
X205267711Y-66983463D01*
X205267711Y-66766759D01*
X205484414Y-66766759D01*
X205701118Y-66766759D01*
X205701118Y-66550055D01*
X205701118Y-66333352D01*
X205484414Y-66333352D01*
X205267711Y-66333352D01*
X205267711Y-66116649D01*
X205267711Y-65899946D01*
X205484414Y-65899946D01*
X205701118Y-65899946D01*
X205701118Y-65683242D01*
X205701118Y-65466538D01*
X205917822Y-65466538D01*
X206134526Y-65466538D01*
X206134526Y-66333352D01*
G37*
G36*
X197899786Y-61565871D02*
G01*
X197899786Y-61999277D01*
X198116487Y-61999277D01*
X198333192Y-61999277D01*
X198333192Y-61782573D01*
X198333192Y-61565871D01*
X198766600Y-61565871D01*
X199200008Y-61565871D01*
X199200008Y-61349168D01*
X199200008Y-61132463D01*
X199416712Y-61132463D01*
X199633414Y-61132463D01*
X199633414Y-61349168D01*
X199633414Y-61565871D01*
X199416712Y-61565871D01*
X199200008Y-61565871D01*
X199200008Y-61782573D01*
X199200008Y-61999277D01*
X199416712Y-61999277D01*
X199633414Y-61999277D01*
X199633414Y-61782573D01*
X199633414Y-61565871D01*
X199850120Y-61565871D01*
X200066822Y-61565871D01*
X200066822Y-61999277D01*
X200066822Y-62432685D01*
X200283527Y-62432685D01*
X200500230Y-62432685D01*
X200500230Y-62866093D01*
X200500230Y-63299500D01*
X200283527Y-63299500D01*
X200066822Y-63299500D01*
X200066822Y-63516204D01*
X200066822Y-63732906D01*
X200283527Y-63732906D01*
X200500230Y-63732906D01*
X200500230Y-63516204D01*
X200500230Y-63299500D01*
X200933636Y-63299500D01*
X201367044Y-63299500D01*
X201367044Y-63732906D01*
X201367044Y-64166315D01*
X201583749Y-64166315D01*
X201800452Y-64166315D01*
X201800452Y-63516204D01*
X201800452Y-62866093D01*
X201367044Y-62866093D01*
X200933636Y-62866093D01*
X200933636Y-62432685D01*
X200933636Y-61999277D01*
X201150339Y-61999277D01*
X201367044Y-61999277D01*
X201367044Y-62215980D01*
X201367044Y-62432685D01*
X201800452Y-62432685D01*
X202233859Y-62432685D01*
X202233859Y-63299500D01*
X202233859Y-64166315D01*
X202017157Y-64166315D01*
X201800452Y-64166315D01*
X201800452Y-64383019D01*
X201800452Y-64599722D01*
X202017157Y-64599722D01*
X202233859Y-64599722D01*
X202233859Y-64383019D01*
X202233859Y-64166315D01*
X202450563Y-64166315D01*
X202667265Y-64166315D01*
X202667265Y-64383019D01*
X202667265Y-64599722D01*
X202883970Y-64599722D01*
X203100674Y-64599722D01*
X203100674Y-64383019D01*
X203100674Y-64166315D01*
X203317378Y-64166315D01*
X203534081Y-64166315D01*
X203534081Y-64599722D01*
X203534081Y-65033131D01*
X203100674Y-65033131D01*
X202667265Y-65033131D01*
X202667265Y-65249833D01*
X202667265Y-65466538D01*
X202450563Y-65466538D01*
X202233859Y-65466538D01*
X202233859Y-65249833D01*
X202233859Y-65033131D01*
X202017157Y-65033131D01*
X201800452Y-65033131D01*
X201800452Y-65249833D01*
X201800452Y-65466538D01*
X201583749Y-65466538D01*
X201367044Y-65466538D01*
X201367044Y-65033131D01*
X201367044Y-64599722D01*
X201150339Y-64599722D01*
X200933636Y-64599722D01*
X200933636Y-64383019D01*
X200933636Y-64166315D01*
X200716932Y-64166315D01*
X200500230Y-64166315D01*
X200500230Y-64599722D01*
X200500230Y-65033131D01*
X200716932Y-65033131D01*
X200933636Y-65033131D01*
X200933636Y-65249833D01*
X200933636Y-65466538D01*
X201150339Y-65466538D01*
X201367044Y-65466538D01*
X201367044Y-65683242D01*
X201367044Y-65899946D01*
X201150339Y-65899946D01*
X200933636Y-65899946D01*
X200933636Y-66116649D01*
X200933636Y-66333352D01*
X201367044Y-66333352D01*
X201800452Y-66333352D01*
X201800452Y-66550055D01*
X201800452Y-66766759D01*
X201583749Y-66766759D01*
X201367044Y-66766759D01*
X201367044Y-66983463D01*
X201367044Y-67200167D01*
X201150339Y-67200167D01*
X200933636Y-67200167D01*
X200933636Y-66983463D01*
X200933636Y-66766759D01*
X200716932Y-66766759D01*
X200500230Y-66766759D01*
X200500230Y-66333352D01*
X200500230Y-65899946D01*
X200283527Y-65899946D01*
X200066822Y-65899946D01*
X200066822Y-66116649D01*
X200066822Y-66333352D01*
X199850120Y-66333352D01*
X199633414Y-66333352D01*
X199633414Y-66116649D01*
X199633414Y-65899946D01*
X198549898Y-65899946D01*
X197466376Y-65899946D01*
X197466376Y-65683242D01*
X197466376Y-65466538D01*
X197249676Y-65466538D01*
X197032971Y-65466538D01*
X197032971Y-66333352D01*
X197032971Y-67200167D01*
X197466376Y-67200167D01*
X197899786Y-67200167D01*
X197899786Y-66983463D01*
X197899786Y-66766759D01*
X198549898Y-66766759D01*
X199200008Y-66766759D01*
X199200008Y-66983463D01*
X199200008Y-67200167D01*
X198766600Y-67200167D01*
X198333192Y-67200167D01*
X198333192Y-67416873D01*
X198333192Y-67633577D01*
X198549898Y-67633577D01*
X198766600Y-67633577D01*
X198766600Y-68066982D01*
X198766600Y-68500390D01*
X198549898Y-68500390D01*
X198333192Y-68500390D01*
X198333192Y-68283685D01*
X198333192Y-68066982D01*
X198116487Y-68066982D01*
X197899786Y-68066982D01*
X197899786Y-67850280D01*
X197899786Y-67633577D01*
X197683082Y-67633577D01*
X197466376Y-67633577D01*
X197466376Y-68066982D01*
X197466376Y-68500390D01*
X197249676Y-68500390D01*
X197032971Y-68500390D01*
X197032971Y-68283685D01*
X197032971Y-68066982D01*
X196816266Y-68066982D01*
X196599561Y-68066982D01*
X196599561Y-67850280D01*
X196599561Y-67633577D01*
X196816266Y-67633577D01*
X197032971Y-67633577D01*
X197032971Y-67416873D01*
X197032971Y-67200167D01*
X196816266Y-67200167D01*
X196599561Y-67200167D01*
X196599561Y-66333352D01*
X196599561Y-65466538D01*
X196816266Y-65466538D01*
X197032971Y-65466538D01*
X197032971Y-65033131D01*
X197032971Y-64599722D01*
X197249676Y-64599722D01*
X197466376Y-64599722D01*
X197466376Y-65033131D01*
X197466376Y-65466538D01*
X198116487Y-65466538D01*
X198766600Y-65466538D01*
X199200008Y-65466538D01*
X199416712Y-65466538D01*
X199633414Y-65466538D01*
X199633414Y-65249833D01*
X199633414Y-65033131D01*
X199416712Y-65033131D01*
X199200008Y-65033131D01*
X199200008Y-65249833D01*
X199200008Y-65466538D01*
X198766600Y-65466538D01*
X198766600Y-65249833D01*
X198766600Y-65033131D01*
X198766600Y-64599722D01*
X199416712Y-64599722D01*
X200066822Y-64599722D01*
X200066822Y-64383019D01*
X200066822Y-64166315D01*
X199633414Y-64166315D01*
X199200008Y-64166315D01*
X199200008Y-63949611D01*
X199200008Y-63732906D01*
X198983303Y-63732906D01*
X198766600Y-63732906D01*
X198766600Y-63949611D01*
X198766600Y-64166315D01*
X198549898Y-64166315D01*
X198333192Y-64166315D01*
X198333192Y-64599722D01*
X198333192Y-65033131D01*
X198116487Y-65033131D01*
X197899786Y-65033131D01*
X197899786Y-64599722D01*
X197899786Y-64166315D01*
X198116487Y-64166315D01*
X198333192Y-64166315D01*
X198333192Y-63949611D01*
X198333192Y-63732906D01*
X198116487Y-63732906D01*
X197899786Y-63732906D01*
X197899786Y-63949611D01*
X197899786Y-64166315D01*
X197683082Y-64166315D01*
X197466376Y-64166315D01*
X197466376Y-63949611D01*
X197466376Y-63732906D01*
X197249676Y-63732906D01*
X197032971Y-63732906D01*
X197032971Y-63516204D01*
X197032971Y-63299500D01*
X197249676Y-63299500D01*
X197466376Y-63299500D01*
X197466376Y-63516204D01*
X197466376Y-63732906D01*
X197683082Y-63732906D01*
X197899786Y-63732906D01*
X197899786Y-63299500D01*
X197899786Y-62866093D01*
X198116487Y-62866093D01*
X198333192Y-62866093D01*
X198333192Y-63082798D01*
X198333192Y-63299500D01*
X198766600Y-63299500D01*
X199200008Y-63299500D01*
X199200008Y-63516204D01*
X199200008Y-63732906D01*
X199416712Y-63732906D01*
X199633414Y-63732906D01*
X199633414Y-63516204D01*
X199633414Y-63299500D01*
X199850120Y-63299500D01*
X200066822Y-63299500D01*
X200066822Y-63082798D01*
X200066822Y-62866093D01*
X199850120Y-62866093D01*
X199633414Y-62866093D01*
X199633414Y-62649390D01*
X199633414Y-62432685D01*
X199200008Y-62432685D01*
X198766600Y-62432685D01*
X198766600Y-62649390D01*
X198766600Y-62866093D01*
X198549898Y-62866093D01*
X198333192Y-62866093D01*
X198333192Y-62649390D01*
X198333192Y-62432685D01*
X198549898Y-62432685D01*
X198766600Y-62432685D01*
X198766600Y-62215980D01*
X198766600Y-61999277D01*
X198549898Y-61999277D01*
X198333192Y-61999277D01*
X198333192Y-62215980D01*
X198333192Y-62432685D01*
X197899786Y-62432685D01*
X197466376Y-62432685D01*
X197466376Y-62649390D01*
X197466376Y-62866093D01*
X197032971Y-62866093D01*
X196599561Y-62866093D01*
X196599561Y-62649390D01*
X196599561Y-62432685D01*
X197032971Y-62432685D01*
X197466376Y-62432685D01*
X197466376Y-62215980D01*
X197466376Y-61999277D01*
X197466376Y-61565871D01*
X197249676Y-61565871D01*
X197032971Y-61565871D01*
X197032971Y-61782573D01*
X197032971Y-61999277D01*
X196816266Y-61999277D01*
X196599561Y-61999277D01*
X196599561Y-61782573D01*
X196599561Y-61565871D01*
X196816266Y-61565871D01*
X197032971Y-61565871D01*
X197032971Y-61349168D01*
X197032971Y-61132463D01*
X197466376Y-61132463D01*
X197899786Y-61132463D01*
X197899786Y-61565871D01*
G37*
D11*
X211005050Y-72492350D02*
X211005050Y-72873302D01*
X210624098Y-72492350D02*
X210624098Y-72873302D01*
X210005050Y-73539969D02*
X210005050Y-74492350D01*
X210338383Y-72492350D02*
X210005050Y-73539969D01*
X210005050Y-73539969D02*
X209671717Y-72492350D01*
X208957431Y-74397112D02*
X209052669Y-74492350D01*
X209052669Y-74492350D02*
X209243145Y-74492350D01*
X209243145Y-74492350D02*
X209338383Y-74397112D01*
X209338383Y-74397112D02*
X209386002Y-74206635D01*
X209386002Y-74206635D02*
X209386002Y-73444731D01*
X209386002Y-73444731D02*
X209338383Y-73254254D01*
X209338383Y-73254254D02*
X209243145Y-73159016D01*
X209243145Y-73159016D02*
X209052669Y-73159016D01*
X209052669Y-73159016D02*
X208957431Y-73254254D01*
X208957431Y-73254254D02*
X208909812Y-73444731D01*
X208909812Y-73444731D02*
X208909812Y-73635207D01*
X208909812Y-73635207D02*
X209386002Y-73825683D01*
X208052669Y-74492350D02*
X208052669Y-73444731D01*
X208052669Y-73444731D02*
X208100288Y-73254254D01*
X208100288Y-73254254D02*
X208195526Y-73159016D01*
X208195526Y-73159016D02*
X208386002Y-73159016D01*
X208386002Y-73159016D02*
X208481240Y-73254254D01*
X208052669Y-74397112D02*
X208147907Y-74492350D01*
X208147907Y-74492350D02*
X208386002Y-74492350D01*
X208386002Y-74492350D02*
X208481240Y-74397112D01*
X208481240Y-74397112D02*
X208528859Y-74206635D01*
X208528859Y-74206635D02*
X208528859Y-74016159D01*
X208528859Y-74016159D02*
X208481240Y-73825683D01*
X208481240Y-73825683D02*
X208386002Y-73730445D01*
X208386002Y-73730445D02*
X208147907Y-73730445D01*
X208147907Y-73730445D02*
X208052669Y-73635207D01*
X207576478Y-74492350D02*
X207576478Y-72492350D01*
X207147907Y-74492350D02*
X207147907Y-73444731D01*
X207147907Y-73444731D02*
X207195526Y-73254254D01*
X207195526Y-73254254D02*
X207290764Y-73159016D01*
X207290764Y-73159016D02*
X207433621Y-73159016D01*
X207433621Y-73159016D02*
X207528859Y-73254254D01*
X207528859Y-73254254D02*
X207576478Y-73349492D01*
X206624097Y-74397112D02*
X206624097Y-74492350D01*
X206624097Y-74492350D02*
X206671716Y-74682826D01*
X206671716Y-74682826D02*
X206719335Y-74778064D01*
X205433621Y-74492350D02*
X205433621Y-73159016D01*
X205433621Y-72492350D02*
X205481240Y-72587588D01*
X205481240Y-72587588D02*
X205433621Y-72682826D01*
X205433621Y-72682826D02*
X205386002Y-72587588D01*
X205386002Y-72587588D02*
X205433621Y-72492350D01*
X205433621Y-72492350D02*
X205433621Y-72682826D01*
X205100288Y-73159016D02*
X204719336Y-73159016D01*
X204957431Y-72492350D02*
X204957431Y-74206635D01*
X204957431Y-74206635D02*
X204909812Y-74397112D01*
X204909812Y-74397112D02*
X204814574Y-74492350D01*
X204814574Y-74492350D02*
X204719336Y-74492350D01*
X204338383Y-72492350D02*
X204433621Y-72873302D01*
X203957431Y-74397112D02*
X203862193Y-74492350D01*
X203862193Y-74492350D02*
X203671717Y-74492350D01*
X203671717Y-74492350D02*
X203576479Y-74397112D01*
X203576479Y-74397112D02*
X203528860Y-74206635D01*
X203528860Y-74206635D02*
X203528860Y-74111397D01*
X203528860Y-74111397D02*
X203576479Y-73920921D01*
X203576479Y-73920921D02*
X203671717Y-73825683D01*
X203671717Y-73825683D02*
X203814574Y-73825683D01*
X203814574Y-73825683D02*
X203909812Y-73730445D01*
X203909812Y-73730445D02*
X203957431Y-73539969D01*
X203957431Y-73539969D02*
X203957431Y-73444731D01*
X203957431Y-73444731D02*
X203909812Y-73254254D01*
X203909812Y-73254254D02*
X203814574Y-73159016D01*
X203814574Y-73159016D02*
X203671717Y-73159016D01*
X203671717Y-73159016D02*
X203576479Y-73254254D01*
X202386002Y-74397112D02*
X202290764Y-74492350D01*
X202290764Y-74492350D02*
X202100288Y-74492350D01*
X202100288Y-74492350D02*
X202005050Y-74397112D01*
X202005050Y-74397112D02*
X201957431Y-74206635D01*
X201957431Y-74206635D02*
X201957431Y-74111397D01*
X201957431Y-74111397D02*
X202005050Y-73920921D01*
X202005050Y-73920921D02*
X202100288Y-73825683D01*
X202100288Y-73825683D02*
X202243145Y-73825683D01*
X202243145Y-73825683D02*
X202338383Y-73730445D01*
X202338383Y-73730445D02*
X202386002Y-73539969D01*
X202386002Y-73539969D02*
X202386002Y-73444731D01*
X202386002Y-73444731D02*
X202338383Y-73254254D01*
X202338383Y-73254254D02*
X202243145Y-73159016D01*
X202243145Y-73159016D02*
X202100288Y-73159016D01*
X202100288Y-73159016D02*
X202005050Y-73254254D01*
X201100288Y-73159016D02*
X201100288Y-74492350D01*
X201528859Y-73159016D02*
X201528859Y-74206635D01*
X201528859Y-74206635D02*
X201481240Y-74397112D01*
X201481240Y-74397112D02*
X201386002Y-74492350D01*
X201386002Y-74492350D02*
X201243145Y-74492350D01*
X201243145Y-74492350D02*
X201147907Y-74397112D01*
X201147907Y-74397112D02*
X201100288Y-74301873D01*
X200624097Y-73159016D02*
X200624097Y-75159016D01*
X200624097Y-73254254D02*
X200528859Y-73159016D01*
X200528859Y-73159016D02*
X200338383Y-73159016D01*
X200338383Y-73159016D02*
X200243145Y-73254254D01*
X200243145Y-73254254D02*
X200195526Y-73349492D01*
X200195526Y-73349492D02*
X200147907Y-73539969D01*
X200147907Y-73539969D02*
X200147907Y-74111397D01*
X200147907Y-74111397D02*
X200195526Y-74301873D01*
X200195526Y-74301873D02*
X200243145Y-74397112D01*
X200243145Y-74397112D02*
X200338383Y-74492350D01*
X200338383Y-74492350D02*
X200528859Y-74492350D01*
X200528859Y-74492350D02*
X200624097Y-74397112D01*
X199719335Y-73159016D02*
X199719335Y-75159016D01*
X199719335Y-73254254D02*
X199624097Y-73159016D01*
X199624097Y-73159016D02*
X199433621Y-73159016D01*
X199433621Y-73159016D02*
X199338383Y-73254254D01*
X199338383Y-73254254D02*
X199290764Y-73349492D01*
X199290764Y-73349492D02*
X199243145Y-73539969D01*
X199243145Y-73539969D02*
X199243145Y-74111397D01*
X199243145Y-74111397D02*
X199290764Y-74301873D01*
X199290764Y-74301873D02*
X199338383Y-74397112D01*
X199338383Y-74397112D02*
X199433621Y-74492350D01*
X199433621Y-74492350D02*
X199624097Y-74492350D01*
X199624097Y-74492350D02*
X199719335Y-74397112D01*
X198671716Y-74492350D02*
X198766954Y-74397112D01*
X198766954Y-74397112D02*
X198814573Y-74301873D01*
X198814573Y-74301873D02*
X198862192Y-74111397D01*
X198862192Y-74111397D02*
X198862192Y-73539969D01*
X198862192Y-73539969D02*
X198814573Y-73349492D01*
X198814573Y-73349492D02*
X198766954Y-73254254D01*
X198766954Y-73254254D02*
X198671716Y-73159016D01*
X198671716Y-73159016D02*
X198528859Y-73159016D01*
X198528859Y-73159016D02*
X198433621Y-73254254D01*
X198433621Y-73254254D02*
X198386002Y-73349492D01*
X198386002Y-73349492D02*
X198338383Y-73539969D01*
X198338383Y-73539969D02*
X198338383Y-74111397D01*
X198338383Y-74111397D02*
X198386002Y-74301873D01*
X198386002Y-74301873D02*
X198433621Y-74397112D01*
X198433621Y-74397112D02*
X198528859Y-74492350D01*
X198528859Y-74492350D02*
X198671716Y-74492350D01*
X197957430Y-74397112D02*
X197862192Y-74492350D01*
X197862192Y-74492350D02*
X197671716Y-74492350D01*
X197671716Y-74492350D02*
X197576478Y-74397112D01*
X197576478Y-74397112D02*
X197528859Y-74206635D01*
X197528859Y-74206635D02*
X197528859Y-74111397D01*
X197528859Y-74111397D02*
X197576478Y-73920921D01*
X197576478Y-73920921D02*
X197671716Y-73825683D01*
X197671716Y-73825683D02*
X197814573Y-73825683D01*
X197814573Y-73825683D02*
X197909811Y-73730445D01*
X197909811Y-73730445D02*
X197957430Y-73539969D01*
X197957430Y-73539969D02*
X197957430Y-73444731D01*
X197957430Y-73444731D02*
X197909811Y-73254254D01*
X197909811Y-73254254D02*
X197814573Y-73159016D01*
X197814573Y-73159016D02*
X197671716Y-73159016D01*
X197671716Y-73159016D02*
X197576478Y-73254254D01*
X196719335Y-74397112D02*
X196814573Y-74492350D01*
X196814573Y-74492350D02*
X197005049Y-74492350D01*
X197005049Y-74492350D02*
X197100287Y-74397112D01*
X197100287Y-74397112D02*
X197147906Y-74206635D01*
X197147906Y-74206635D02*
X197147906Y-73444731D01*
X197147906Y-73444731D02*
X197100287Y-73254254D01*
X197100287Y-73254254D02*
X197005049Y-73159016D01*
X197005049Y-73159016D02*
X196814573Y-73159016D01*
X196814573Y-73159016D02*
X196719335Y-73254254D01*
X196719335Y-73254254D02*
X196671716Y-73444731D01*
X196671716Y-73444731D02*
X196671716Y-73635207D01*
X196671716Y-73635207D02*
X197147906Y-73825683D01*
X195814573Y-74492350D02*
X195814573Y-72492350D01*
X195814573Y-74397112D02*
X195909811Y-74492350D01*
X195909811Y-74492350D02*
X196100287Y-74492350D01*
X196100287Y-74492350D02*
X196195525Y-74397112D01*
X196195525Y-74397112D02*
X196243144Y-74301873D01*
X196243144Y-74301873D02*
X196290763Y-74111397D01*
X196290763Y-74111397D02*
X196290763Y-73539969D01*
X196290763Y-73539969D02*
X196243144Y-73349492D01*
X196243144Y-73349492D02*
X196195525Y-73254254D01*
X196195525Y-73254254D02*
X196100287Y-73159016D01*
X196100287Y-73159016D02*
X195909811Y-73159016D01*
X195909811Y-73159016D02*
X195814573Y-73254254D01*
X194719334Y-73159016D02*
X194338382Y-73159016D01*
X194576477Y-72492350D02*
X194576477Y-74206635D01*
X194576477Y-74206635D02*
X194528858Y-74397112D01*
X194528858Y-74397112D02*
X194433620Y-74492350D01*
X194433620Y-74492350D02*
X194338382Y-74492350D01*
X193862191Y-74492350D02*
X193957429Y-74397112D01*
X193957429Y-74397112D02*
X194005048Y-74301873D01*
X194005048Y-74301873D02*
X194052667Y-74111397D01*
X194052667Y-74111397D02*
X194052667Y-73539969D01*
X194052667Y-73539969D02*
X194005048Y-73349492D01*
X194005048Y-73349492D02*
X193957429Y-73254254D01*
X193957429Y-73254254D02*
X193862191Y-73159016D01*
X193862191Y-73159016D02*
X193719334Y-73159016D01*
X193719334Y-73159016D02*
X193624096Y-73254254D01*
X193624096Y-73254254D02*
X193576477Y-73349492D01*
X193576477Y-73349492D02*
X193528858Y-73539969D01*
X193528858Y-73539969D02*
X193528858Y-74111397D01*
X193528858Y-74111397D02*
X193576477Y-74301873D01*
X193576477Y-74301873D02*
X193624096Y-74397112D01*
X193624096Y-74397112D02*
X193719334Y-74492350D01*
X193719334Y-74492350D02*
X193862191Y-74492350D01*
X192386000Y-74397112D02*
X192290762Y-74492350D01*
X192290762Y-74492350D02*
X192100286Y-74492350D01*
X192100286Y-74492350D02*
X192005048Y-74397112D01*
X192005048Y-74397112D02*
X191957429Y-74206635D01*
X191957429Y-74206635D02*
X191957429Y-74111397D01*
X191957429Y-74111397D02*
X192005048Y-73920921D01*
X192005048Y-73920921D02*
X192100286Y-73825683D01*
X192100286Y-73825683D02*
X192243143Y-73825683D01*
X192243143Y-73825683D02*
X192338381Y-73730445D01*
X192338381Y-73730445D02*
X192386000Y-73539969D01*
X192386000Y-73539969D02*
X192386000Y-73444731D01*
X192386000Y-73444731D02*
X192338381Y-73254254D01*
X192338381Y-73254254D02*
X192243143Y-73159016D01*
X192243143Y-73159016D02*
X192100286Y-73159016D01*
X192100286Y-73159016D02*
X192005048Y-73254254D01*
X191386000Y-74492350D02*
X191481238Y-74397112D01*
X191481238Y-74397112D02*
X191528857Y-74301873D01*
X191528857Y-74301873D02*
X191576476Y-74111397D01*
X191576476Y-74111397D02*
X191576476Y-73539969D01*
X191576476Y-73539969D02*
X191528857Y-73349492D01*
X191528857Y-73349492D02*
X191481238Y-73254254D01*
X191481238Y-73254254D02*
X191386000Y-73159016D01*
X191386000Y-73159016D02*
X191243143Y-73159016D01*
X191243143Y-73159016D02*
X191147905Y-73254254D01*
X191147905Y-73254254D02*
X191100286Y-73349492D01*
X191100286Y-73349492D02*
X191052667Y-73539969D01*
X191052667Y-73539969D02*
X191052667Y-74111397D01*
X191052667Y-74111397D02*
X191100286Y-74301873D01*
X191100286Y-74301873D02*
X191147905Y-74397112D01*
X191147905Y-74397112D02*
X191243143Y-74492350D01*
X191243143Y-74492350D02*
X191386000Y-74492350D01*
X190195524Y-73159016D02*
X190195524Y-74492350D01*
X190624095Y-73159016D02*
X190624095Y-74206635D01*
X190624095Y-74206635D02*
X190576476Y-74397112D01*
X190576476Y-74397112D02*
X190481238Y-74492350D01*
X190481238Y-74492350D02*
X190338381Y-74492350D01*
X190338381Y-74492350D02*
X190243143Y-74397112D01*
X190243143Y-74397112D02*
X190195524Y-74301873D01*
X189719333Y-73159016D02*
X189719333Y-74492350D01*
X189719333Y-73349492D02*
X189671714Y-73254254D01*
X189671714Y-73254254D02*
X189576476Y-73159016D01*
X189576476Y-73159016D02*
X189433619Y-73159016D01*
X189433619Y-73159016D02*
X189338381Y-73254254D01*
X189338381Y-73254254D02*
X189290762Y-73444731D01*
X189290762Y-73444731D02*
X189290762Y-74492350D01*
X188386000Y-74492350D02*
X188386000Y-72492350D01*
X188386000Y-74397112D02*
X188481238Y-74492350D01*
X188481238Y-74492350D02*
X188671714Y-74492350D01*
X188671714Y-74492350D02*
X188766952Y-74397112D01*
X188766952Y-74397112D02*
X188814571Y-74301873D01*
X188814571Y-74301873D02*
X188862190Y-74111397D01*
X188862190Y-74111397D02*
X188862190Y-73539969D01*
X188862190Y-73539969D02*
X188814571Y-73349492D01*
X188814571Y-73349492D02*
X188766952Y-73254254D01*
X188766952Y-73254254D02*
X188671714Y-73159016D01*
X188671714Y-73159016D02*
X188481238Y-73159016D01*
X188481238Y-73159016D02*
X188386000Y-73254254D01*
X187005047Y-74492350D02*
X187100285Y-74397112D01*
X187100285Y-74397112D02*
X187147904Y-74206635D01*
X187147904Y-74206635D02*
X187147904Y-72492350D01*
X186624094Y-74492350D02*
X186624094Y-73159016D01*
X186624094Y-72492350D02*
X186671713Y-72587588D01*
X186671713Y-72587588D02*
X186624094Y-72682826D01*
X186624094Y-72682826D02*
X186576475Y-72587588D01*
X186576475Y-72587588D02*
X186624094Y-72492350D01*
X186624094Y-72492350D02*
X186624094Y-72682826D01*
X186147904Y-74492350D02*
X186147904Y-72492350D01*
X186052666Y-73730445D02*
X185766952Y-74492350D01*
X185766952Y-73159016D02*
X186147904Y-73920921D01*
X184957428Y-74397112D02*
X185052666Y-74492350D01*
X185052666Y-74492350D02*
X185243142Y-74492350D01*
X185243142Y-74492350D02*
X185338380Y-74397112D01*
X185338380Y-74397112D02*
X185385999Y-74206635D01*
X185385999Y-74206635D02*
X185385999Y-73444731D01*
X185385999Y-73444731D02*
X185338380Y-73254254D01*
X185338380Y-73254254D02*
X185243142Y-73159016D01*
X185243142Y-73159016D02*
X185052666Y-73159016D01*
X185052666Y-73159016D02*
X184957428Y-73254254D01*
X184957428Y-73254254D02*
X184909809Y-73444731D01*
X184909809Y-73444731D02*
X184909809Y-73635207D01*
X184909809Y-73635207D02*
X185385999Y-73825683D01*
X183862189Y-73159016D02*
X183481237Y-73159016D01*
X183719332Y-72492350D02*
X183719332Y-74206635D01*
X183719332Y-74206635D02*
X183671713Y-74397112D01*
X183671713Y-74397112D02*
X183576475Y-74492350D01*
X183576475Y-74492350D02*
X183481237Y-74492350D01*
X183147903Y-74492350D02*
X183147903Y-72492350D01*
X182719332Y-74492350D02*
X182719332Y-73444731D01*
X182719332Y-73444731D02*
X182766951Y-73254254D01*
X182766951Y-73254254D02*
X182862189Y-73159016D01*
X182862189Y-73159016D02*
X183005046Y-73159016D01*
X183005046Y-73159016D02*
X183100284Y-73254254D01*
X183100284Y-73254254D02*
X183147903Y-73349492D01*
X181814570Y-74492350D02*
X181814570Y-73444731D01*
X181814570Y-73444731D02*
X181862189Y-73254254D01*
X181862189Y-73254254D02*
X181957427Y-73159016D01*
X181957427Y-73159016D02*
X182147903Y-73159016D01*
X182147903Y-73159016D02*
X182243141Y-73254254D01*
X181814570Y-74397112D02*
X181909808Y-74492350D01*
X181909808Y-74492350D02*
X182147903Y-74492350D01*
X182147903Y-74492350D02*
X182243141Y-74397112D01*
X182243141Y-74397112D02*
X182290760Y-74206635D01*
X182290760Y-74206635D02*
X182290760Y-74016159D01*
X182290760Y-74016159D02*
X182243141Y-73825683D01*
X182243141Y-73825683D02*
X182147903Y-73730445D01*
X182147903Y-73730445D02*
X181909808Y-73730445D01*
X181909808Y-73730445D02*
X181814570Y-73635207D01*
X181481236Y-73159016D02*
X181100284Y-73159016D01*
X181338379Y-72492350D02*
X181338379Y-74206635D01*
X181338379Y-74206635D02*
X181290760Y-74397112D01*
X181290760Y-74397112D02*
X181195522Y-74492350D01*
X181195522Y-74492350D02*
X181100284Y-74492350D01*
X180766950Y-74301873D02*
X180719331Y-74397112D01*
X180719331Y-74397112D02*
X180766950Y-74492350D01*
X180766950Y-74492350D02*
X180814569Y-74397112D01*
X180814569Y-74397112D02*
X180766950Y-74301873D01*
X180766950Y-74301873D02*
X180766950Y-74492350D01*
X180290760Y-74301873D02*
X180243141Y-74397112D01*
X180243141Y-74397112D02*
X180290760Y-74492350D01*
X180290760Y-74492350D02*
X180338379Y-74397112D01*
X180338379Y-74397112D02*
X180290760Y-74301873D01*
X180290760Y-74301873D02*
X180290760Y-74492350D01*
X179814570Y-74301873D02*
X179766951Y-74397112D01*
X179766951Y-74397112D02*
X179814570Y-74492350D01*
X179814570Y-74492350D02*
X179862189Y-74397112D01*
X179862189Y-74397112D02*
X179814570Y-74301873D01*
X179814570Y-74301873D02*
X179814570Y-74492350D01*
X211100288Y-75712238D02*
X210528860Y-75712238D01*
X210814574Y-77712238D02*
X210814574Y-75712238D01*
X210195526Y-77712238D02*
X210195526Y-75712238D01*
X209766955Y-77712238D02*
X209766955Y-76664619D01*
X209766955Y-76664619D02*
X209814574Y-76474142D01*
X209814574Y-76474142D02*
X209909812Y-76378904D01*
X209909812Y-76378904D02*
X210052669Y-76378904D01*
X210052669Y-76378904D02*
X210147907Y-76474142D01*
X210147907Y-76474142D02*
X210195526Y-76569380D01*
X208909812Y-77617000D02*
X209005050Y-77712238D01*
X209005050Y-77712238D02*
X209195526Y-77712238D01*
X209195526Y-77712238D02*
X209290764Y-77617000D01*
X209290764Y-77617000D02*
X209338383Y-77426523D01*
X209338383Y-77426523D02*
X209338383Y-76664619D01*
X209338383Y-76664619D02*
X209290764Y-76474142D01*
X209290764Y-76474142D02*
X209195526Y-76378904D01*
X209195526Y-76378904D02*
X209005050Y-76378904D01*
X209005050Y-76378904D02*
X208909812Y-76474142D01*
X208909812Y-76474142D02*
X208862193Y-76664619D01*
X208862193Y-76664619D02*
X208862193Y-76855095D01*
X208862193Y-76855095D02*
X209338383Y-77045571D01*
X207766954Y-76378904D02*
X207528859Y-77712238D01*
X207528859Y-77712238D02*
X207290764Y-76378904D01*
X206909811Y-77712238D02*
X206909811Y-76378904D01*
X206909811Y-75712238D02*
X206957430Y-75807476D01*
X206957430Y-75807476D02*
X206909811Y-75902714D01*
X206909811Y-75902714D02*
X206862192Y-75807476D01*
X206862192Y-75807476D02*
X206909811Y-75712238D01*
X206909811Y-75712238D02*
X206909811Y-75902714D01*
X206433621Y-77712238D02*
X206433621Y-75712238D01*
X206433621Y-76474142D02*
X206338383Y-76378904D01*
X206338383Y-76378904D02*
X206147907Y-76378904D01*
X206147907Y-76378904D02*
X206052669Y-76474142D01*
X206052669Y-76474142D02*
X206005050Y-76569380D01*
X206005050Y-76569380D02*
X205957431Y-76759857D01*
X205957431Y-76759857D02*
X205957431Y-77331285D01*
X205957431Y-77331285D02*
X206005050Y-77521761D01*
X206005050Y-77521761D02*
X206052669Y-77617000D01*
X206052669Y-77617000D02*
X206147907Y-77712238D01*
X206147907Y-77712238D02*
X206338383Y-77712238D01*
X206338383Y-77712238D02*
X206433621Y-77617000D01*
X205528859Y-77712238D02*
X205528859Y-76378904D01*
X205528859Y-76759857D02*
X205481240Y-76569380D01*
X205481240Y-76569380D02*
X205433621Y-76474142D01*
X205433621Y-76474142D02*
X205338383Y-76378904D01*
X205338383Y-76378904D02*
X205243145Y-76378904D01*
X204481240Y-77712238D02*
X204481240Y-76664619D01*
X204481240Y-76664619D02*
X204528859Y-76474142D01*
X204528859Y-76474142D02*
X204624097Y-76378904D01*
X204624097Y-76378904D02*
X204814573Y-76378904D01*
X204814573Y-76378904D02*
X204909811Y-76474142D01*
X204481240Y-77617000D02*
X204576478Y-77712238D01*
X204576478Y-77712238D02*
X204814573Y-77712238D01*
X204814573Y-77712238D02*
X204909811Y-77617000D01*
X204909811Y-77617000D02*
X204957430Y-77426523D01*
X204957430Y-77426523D02*
X204957430Y-77236047D01*
X204957430Y-77236047D02*
X204909811Y-77045571D01*
X204909811Y-77045571D02*
X204814573Y-76950333D01*
X204814573Y-76950333D02*
X204576478Y-76950333D01*
X204576478Y-76950333D02*
X204481240Y-76855095D01*
X204147906Y-76378904D02*
X203766954Y-76378904D01*
X204005049Y-75712238D02*
X204005049Y-77426523D01*
X204005049Y-77426523D02*
X203957430Y-77617000D01*
X203957430Y-77617000D02*
X203862192Y-77712238D01*
X203862192Y-77712238D02*
X203766954Y-77712238D01*
X203433620Y-77712238D02*
X203433620Y-76378904D01*
X203433620Y-75712238D02*
X203481239Y-75807476D01*
X203481239Y-75807476D02*
X203433620Y-75902714D01*
X203433620Y-75902714D02*
X203386001Y-75807476D01*
X203386001Y-75807476D02*
X203433620Y-75712238D01*
X203433620Y-75712238D02*
X203433620Y-75902714D01*
X202814573Y-77712238D02*
X202909811Y-77617000D01*
X202909811Y-77617000D02*
X202957430Y-77521761D01*
X202957430Y-77521761D02*
X203005049Y-77331285D01*
X203005049Y-77331285D02*
X203005049Y-76759857D01*
X203005049Y-76759857D02*
X202957430Y-76569380D01*
X202957430Y-76569380D02*
X202909811Y-76474142D01*
X202909811Y-76474142D02*
X202814573Y-76378904D01*
X202814573Y-76378904D02*
X202671716Y-76378904D01*
X202671716Y-76378904D02*
X202576478Y-76474142D01*
X202576478Y-76474142D02*
X202528859Y-76569380D01*
X202528859Y-76569380D02*
X202481240Y-76759857D01*
X202481240Y-76759857D02*
X202481240Y-77331285D01*
X202481240Y-77331285D02*
X202528859Y-77521761D01*
X202528859Y-77521761D02*
X202576478Y-77617000D01*
X202576478Y-77617000D02*
X202671716Y-77712238D01*
X202671716Y-77712238D02*
X202814573Y-77712238D01*
X202052668Y-76378904D02*
X202052668Y-77712238D01*
X202052668Y-76569380D02*
X202005049Y-76474142D01*
X202005049Y-76474142D02*
X201909811Y-76378904D01*
X201909811Y-76378904D02*
X201766954Y-76378904D01*
X201766954Y-76378904D02*
X201671716Y-76474142D01*
X201671716Y-76474142D02*
X201624097Y-76664619D01*
X201624097Y-76664619D02*
X201624097Y-77712238D01*
X201195525Y-77617000D02*
X201100287Y-77712238D01*
X201100287Y-77712238D02*
X200909811Y-77712238D01*
X200909811Y-77712238D02*
X200814573Y-77617000D01*
X200814573Y-77617000D02*
X200766954Y-77426523D01*
X200766954Y-77426523D02*
X200766954Y-77331285D01*
X200766954Y-77331285D02*
X200814573Y-77140809D01*
X200814573Y-77140809D02*
X200909811Y-77045571D01*
X200909811Y-77045571D02*
X201052668Y-77045571D01*
X201052668Y-77045571D02*
X201147906Y-76950333D01*
X201147906Y-76950333D02*
X201195525Y-76759857D01*
X201195525Y-76759857D02*
X201195525Y-76664619D01*
X201195525Y-76664619D02*
X201147906Y-76474142D01*
X201147906Y-76474142D02*
X201052668Y-76378904D01*
X201052668Y-76378904D02*
X200909811Y-76378904D01*
X200909811Y-76378904D02*
X200814573Y-76474142D01*
X199671715Y-76378904D02*
X199481239Y-77712238D01*
X199481239Y-77712238D02*
X199290763Y-76759857D01*
X199290763Y-76759857D02*
X199100287Y-77712238D01*
X199100287Y-77712238D02*
X198909811Y-76378904D01*
X198147906Y-77617000D02*
X198243144Y-77712238D01*
X198243144Y-77712238D02*
X198433620Y-77712238D01*
X198433620Y-77712238D02*
X198528858Y-77617000D01*
X198528858Y-77617000D02*
X198576477Y-77426523D01*
X198576477Y-77426523D02*
X198576477Y-76664619D01*
X198576477Y-76664619D02*
X198528858Y-76474142D01*
X198528858Y-76474142D02*
X198433620Y-76378904D01*
X198433620Y-76378904D02*
X198243144Y-76378904D01*
X198243144Y-76378904D02*
X198147906Y-76474142D01*
X198147906Y-76474142D02*
X198100287Y-76664619D01*
X198100287Y-76664619D02*
X198100287Y-76855095D01*
X198100287Y-76855095D02*
X198576477Y-77045571D01*
X197671715Y-77712238D02*
X197671715Y-76378904D01*
X197671715Y-76759857D02*
X197624096Y-76569380D01*
X197624096Y-76569380D02*
X197576477Y-76474142D01*
X197576477Y-76474142D02*
X197481239Y-76378904D01*
X197481239Y-76378904D02*
X197386001Y-76378904D01*
X196671715Y-77617000D02*
X196766953Y-77712238D01*
X196766953Y-77712238D02*
X196957429Y-77712238D01*
X196957429Y-77712238D02*
X197052667Y-77617000D01*
X197052667Y-77617000D02*
X197100286Y-77426523D01*
X197100286Y-77426523D02*
X197100286Y-76664619D01*
X197100286Y-76664619D02*
X197052667Y-76474142D01*
X197052667Y-76474142D02*
X196957429Y-76378904D01*
X196957429Y-76378904D02*
X196766953Y-76378904D01*
X196766953Y-76378904D02*
X196671715Y-76474142D01*
X196671715Y-76474142D02*
X196624096Y-76664619D01*
X196624096Y-76664619D02*
X196624096Y-76855095D01*
X196624096Y-76855095D02*
X197100286Y-77045571D01*
X195576476Y-76378904D02*
X195195524Y-76378904D01*
X195433619Y-77712238D02*
X195433619Y-75997952D01*
X195433619Y-75997952D02*
X195386000Y-75807476D01*
X195386000Y-75807476D02*
X195290762Y-75712238D01*
X195290762Y-75712238D02*
X195195524Y-75712238D01*
X194719333Y-77712238D02*
X194814571Y-77617000D01*
X194814571Y-77617000D02*
X194862190Y-77521761D01*
X194862190Y-77521761D02*
X194909809Y-77331285D01*
X194909809Y-77331285D02*
X194909809Y-76759857D01*
X194909809Y-76759857D02*
X194862190Y-76569380D01*
X194862190Y-76569380D02*
X194814571Y-76474142D01*
X194814571Y-76474142D02*
X194719333Y-76378904D01*
X194719333Y-76378904D02*
X194576476Y-76378904D01*
X194576476Y-76378904D02*
X194481238Y-76474142D01*
X194481238Y-76474142D02*
X194433619Y-76569380D01*
X194433619Y-76569380D02*
X194386000Y-76759857D01*
X194386000Y-76759857D02*
X194386000Y-77331285D01*
X194386000Y-77331285D02*
X194433619Y-77521761D01*
X194433619Y-77521761D02*
X194481238Y-77617000D01*
X194481238Y-77617000D02*
X194576476Y-77712238D01*
X194576476Y-77712238D02*
X194719333Y-77712238D01*
X193957428Y-77712238D02*
X193957428Y-76378904D01*
X193957428Y-76759857D02*
X193909809Y-76569380D01*
X193909809Y-76569380D02*
X193862190Y-76474142D01*
X193862190Y-76474142D02*
X193766952Y-76378904D01*
X193766952Y-76378904D02*
X193671714Y-76378904D01*
X192147904Y-77712238D02*
X192147904Y-76664619D01*
X192147904Y-76664619D02*
X192195523Y-76474142D01*
X192195523Y-76474142D02*
X192290761Y-76378904D01*
X192290761Y-76378904D02*
X192481237Y-76378904D01*
X192481237Y-76378904D02*
X192576475Y-76474142D01*
X192147904Y-77617000D02*
X192243142Y-77712238D01*
X192243142Y-77712238D02*
X192481237Y-77712238D01*
X192481237Y-77712238D02*
X192576475Y-77617000D01*
X192576475Y-77617000D02*
X192624094Y-77426523D01*
X192624094Y-77426523D02*
X192624094Y-77236047D01*
X192624094Y-77236047D02*
X192576475Y-77045571D01*
X192576475Y-77045571D02*
X192481237Y-76950333D01*
X192481237Y-76950333D02*
X192243142Y-76950333D01*
X192243142Y-76950333D02*
X192147904Y-76855095D01*
X190481237Y-77712238D02*
X190481237Y-75712238D01*
X190481237Y-77617000D02*
X190576475Y-77712238D01*
X190576475Y-77712238D02*
X190766951Y-77712238D01*
X190766951Y-77712238D02*
X190862189Y-77617000D01*
X190862189Y-77617000D02*
X190909808Y-77521761D01*
X190909808Y-77521761D02*
X190957427Y-77331285D01*
X190957427Y-77331285D02*
X190957427Y-76759857D01*
X190957427Y-76759857D02*
X190909808Y-76569380D01*
X190909808Y-76569380D02*
X190862189Y-76474142D01*
X190862189Y-76474142D02*
X190766951Y-76378904D01*
X190766951Y-76378904D02*
X190576475Y-76378904D01*
X190576475Y-76378904D02*
X190481237Y-76474142D01*
X189624094Y-77617000D02*
X189719332Y-77712238D01*
X189719332Y-77712238D02*
X189909808Y-77712238D01*
X189909808Y-77712238D02*
X190005046Y-77617000D01*
X190005046Y-77617000D02*
X190052665Y-77426523D01*
X190052665Y-77426523D02*
X190052665Y-76664619D01*
X190052665Y-76664619D02*
X190005046Y-76474142D01*
X190005046Y-76474142D02*
X189909808Y-76378904D01*
X189909808Y-76378904D02*
X189719332Y-76378904D01*
X189719332Y-76378904D02*
X189624094Y-76474142D01*
X189624094Y-76474142D02*
X189576475Y-76664619D01*
X189576475Y-76664619D02*
X189576475Y-76855095D01*
X189576475Y-76855095D02*
X190052665Y-77045571D01*
X189195522Y-77617000D02*
X189100284Y-77712238D01*
X189100284Y-77712238D02*
X188909808Y-77712238D01*
X188909808Y-77712238D02*
X188814570Y-77617000D01*
X188814570Y-77617000D02*
X188766951Y-77426523D01*
X188766951Y-77426523D02*
X188766951Y-77331285D01*
X188766951Y-77331285D02*
X188814570Y-77140809D01*
X188814570Y-77140809D02*
X188909808Y-77045571D01*
X188909808Y-77045571D02*
X189052665Y-77045571D01*
X189052665Y-77045571D02*
X189147903Y-76950333D01*
X189147903Y-76950333D02*
X189195522Y-76759857D01*
X189195522Y-76759857D02*
X189195522Y-76664619D01*
X189195522Y-76664619D02*
X189147903Y-76474142D01*
X189147903Y-76474142D02*
X189052665Y-76378904D01*
X189052665Y-76378904D02*
X188909808Y-76378904D01*
X188909808Y-76378904D02*
X188814570Y-76474142D01*
X188338379Y-77712238D02*
X188338379Y-76378904D01*
X188338379Y-75712238D02*
X188385998Y-75807476D01*
X188385998Y-75807476D02*
X188338379Y-75902714D01*
X188338379Y-75902714D02*
X188290760Y-75807476D01*
X188290760Y-75807476D02*
X188338379Y-75712238D01*
X188338379Y-75712238D02*
X188338379Y-75902714D01*
X187433618Y-76378904D02*
X187433618Y-77997952D01*
X187433618Y-77997952D02*
X187481237Y-78188428D01*
X187481237Y-78188428D02*
X187528856Y-78283666D01*
X187528856Y-78283666D02*
X187624094Y-78378904D01*
X187624094Y-78378904D02*
X187766951Y-78378904D01*
X187766951Y-78378904D02*
X187862189Y-78283666D01*
X187433618Y-77617000D02*
X187528856Y-77712238D01*
X187528856Y-77712238D02*
X187719332Y-77712238D01*
X187719332Y-77712238D02*
X187814570Y-77617000D01*
X187814570Y-77617000D02*
X187862189Y-77521761D01*
X187862189Y-77521761D02*
X187909808Y-77331285D01*
X187909808Y-77331285D02*
X187909808Y-76759857D01*
X187909808Y-76759857D02*
X187862189Y-76569380D01*
X187862189Y-76569380D02*
X187814570Y-76474142D01*
X187814570Y-76474142D02*
X187719332Y-76378904D01*
X187719332Y-76378904D02*
X187528856Y-76378904D01*
X187528856Y-76378904D02*
X187433618Y-76474142D01*
X186957427Y-76378904D02*
X186957427Y-77712238D01*
X186957427Y-76569380D02*
X186909808Y-76474142D01*
X186909808Y-76474142D02*
X186814570Y-76378904D01*
X186814570Y-76378904D02*
X186671713Y-76378904D01*
X186671713Y-76378904D02*
X186576475Y-76474142D01*
X186576475Y-76474142D02*
X186528856Y-76664619D01*
X186528856Y-76664619D02*
X186528856Y-77712238D01*
X184862189Y-77617000D02*
X184957427Y-77712238D01*
X184957427Y-77712238D02*
X185147903Y-77712238D01*
X185147903Y-77712238D02*
X185243141Y-77617000D01*
X185243141Y-77617000D02*
X185290760Y-77521761D01*
X185290760Y-77521761D02*
X185338379Y-77331285D01*
X185338379Y-77331285D02*
X185338379Y-76759857D01*
X185338379Y-76759857D02*
X185290760Y-76569380D01*
X185290760Y-76569380D02*
X185243141Y-76474142D01*
X185243141Y-76474142D02*
X185147903Y-76378904D01*
X185147903Y-76378904D02*
X184957427Y-76378904D01*
X184957427Y-76378904D02*
X184862189Y-76474142D01*
X184433617Y-77712238D02*
X184433617Y-75712238D01*
X184005046Y-77712238D02*
X184005046Y-76664619D01*
X184005046Y-76664619D02*
X184052665Y-76474142D01*
X184052665Y-76474142D02*
X184147903Y-76378904D01*
X184147903Y-76378904D02*
X184290760Y-76378904D01*
X184290760Y-76378904D02*
X184385998Y-76474142D01*
X184385998Y-76474142D02*
X184433617Y-76569380D01*
X183385998Y-77712238D02*
X183481236Y-77617000D01*
X183481236Y-77617000D02*
X183528855Y-77521761D01*
X183528855Y-77521761D02*
X183576474Y-77331285D01*
X183576474Y-77331285D02*
X183576474Y-76759857D01*
X183576474Y-76759857D02*
X183528855Y-76569380D01*
X183528855Y-76569380D02*
X183481236Y-76474142D01*
X183481236Y-76474142D02*
X183385998Y-76378904D01*
X183385998Y-76378904D02*
X183243141Y-76378904D01*
X183243141Y-76378904D02*
X183147903Y-76474142D01*
X183147903Y-76474142D02*
X183100284Y-76569380D01*
X183100284Y-76569380D02*
X183052665Y-76759857D01*
X183052665Y-76759857D02*
X183052665Y-77331285D01*
X183052665Y-77331285D02*
X183100284Y-77521761D01*
X183100284Y-77521761D02*
X183147903Y-77617000D01*
X183147903Y-77617000D02*
X183243141Y-77712238D01*
X183243141Y-77712238D02*
X183385998Y-77712238D01*
X182624093Y-77712238D02*
X182624093Y-76378904D01*
X182624093Y-75712238D02*
X182671712Y-75807476D01*
X182671712Y-75807476D02*
X182624093Y-75902714D01*
X182624093Y-75902714D02*
X182576474Y-75807476D01*
X182576474Y-75807476D02*
X182624093Y-75712238D01*
X182624093Y-75712238D02*
X182624093Y-75902714D01*
X181719332Y-77617000D02*
X181814570Y-77712238D01*
X181814570Y-77712238D02*
X182005046Y-77712238D01*
X182005046Y-77712238D02*
X182100284Y-77617000D01*
X182100284Y-77617000D02*
X182147903Y-77521761D01*
X182147903Y-77521761D02*
X182195522Y-77331285D01*
X182195522Y-77331285D02*
X182195522Y-76759857D01*
X182195522Y-76759857D02*
X182147903Y-76569380D01*
X182147903Y-76569380D02*
X182100284Y-76474142D01*
X182100284Y-76474142D02*
X182005046Y-76378904D01*
X182005046Y-76378904D02*
X181814570Y-76378904D01*
X181814570Y-76378904D02*
X181719332Y-76474142D01*
X180909808Y-77617000D02*
X181005046Y-77712238D01*
X181005046Y-77712238D02*
X181195522Y-77712238D01*
X181195522Y-77712238D02*
X181290760Y-77617000D01*
X181290760Y-77617000D02*
X181338379Y-77426523D01*
X181338379Y-77426523D02*
X181338379Y-76664619D01*
X181338379Y-76664619D02*
X181290760Y-76474142D01*
X181290760Y-76474142D02*
X181195522Y-76378904D01*
X181195522Y-76378904D02*
X181005046Y-76378904D01*
X181005046Y-76378904D02*
X180909808Y-76474142D01*
X180909808Y-76474142D02*
X180862189Y-76664619D01*
X180862189Y-76664619D02*
X180862189Y-76855095D01*
X180862189Y-76855095D02*
X181338379Y-77045571D01*
X211100288Y-79598792D02*
X210719336Y-79598792D01*
X210957431Y-80932126D02*
X210957431Y-79217840D01*
X210957431Y-79217840D02*
X210909812Y-79027364D01*
X210909812Y-79027364D02*
X210814574Y-78932126D01*
X210814574Y-78932126D02*
X210719336Y-78932126D01*
X210243145Y-80932126D02*
X210338383Y-80836888D01*
X210338383Y-80836888D02*
X210386002Y-80741649D01*
X210386002Y-80741649D02*
X210433621Y-80551173D01*
X210433621Y-80551173D02*
X210433621Y-79979745D01*
X210433621Y-79979745D02*
X210386002Y-79789268D01*
X210386002Y-79789268D02*
X210338383Y-79694030D01*
X210338383Y-79694030D02*
X210243145Y-79598792D01*
X210243145Y-79598792D02*
X210100288Y-79598792D01*
X210100288Y-79598792D02*
X210005050Y-79694030D01*
X210005050Y-79694030D02*
X209957431Y-79789268D01*
X209957431Y-79789268D02*
X209909812Y-79979745D01*
X209909812Y-79979745D02*
X209909812Y-80551173D01*
X209909812Y-80551173D02*
X209957431Y-80741649D01*
X209957431Y-80741649D02*
X210005050Y-80836888D01*
X210005050Y-80836888D02*
X210100288Y-80932126D01*
X210100288Y-80932126D02*
X210243145Y-80932126D01*
X209481240Y-80932126D02*
X209481240Y-79598792D01*
X209481240Y-79979745D02*
X209433621Y-79789268D01*
X209433621Y-79789268D02*
X209386002Y-79694030D01*
X209386002Y-79694030D02*
X209290764Y-79598792D01*
X209290764Y-79598792D02*
X209195526Y-79598792D01*
X207957430Y-80932126D02*
X208052668Y-80836888D01*
X208052668Y-80836888D02*
X208100287Y-80741649D01*
X208100287Y-80741649D02*
X208147906Y-80551173D01*
X208147906Y-80551173D02*
X208147906Y-79979745D01*
X208147906Y-79979745D02*
X208100287Y-79789268D01*
X208100287Y-79789268D02*
X208052668Y-79694030D01*
X208052668Y-79694030D02*
X207957430Y-79598792D01*
X207957430Y-79598792D02*
X207814573Y-79598792D01*
X207814573Y-79598792D02*
X207719335Y-79694030D01*
X207719335Y-79694030D02*
X207671716Y-79789268D01*
X207671716Y-79789268D02*
X207624097Y-79979745D01*
X207624097Y-79979745D02*
X207624097Y-80551173D01*
X207624097Y-80551173D02*
X207671716Y-80741649D01*
X207671716Y-80741649D02*
X207719335Y-80836888D01*
X207719335Y-80836888D02*
X207814573Y-80932126D01*
X207814573Y-80932126D02*
X207957430Y-80932126D01*
X207195525Y-79598792D02*
X207195525Y-81598792D01*
X207195525Y-79694030D02*
X207100287Y-79598792D01*
X207100287Y-79598792D02*
X206909811Y-79598792D01*
X206909811Y-79598792D02*
X206814573Y-79694030D01*
X206814573Y-79694030D02*
X206766954Y-79789268D01*
X206766954Y-79789268D02*
X206719335Y-79979745D01*
X206719335Y-79979745D02*
X206719335Y-80551173D01*
X206719335Y-80551173D02*
X206766954Y-80741649D01*
X206766954Y-80741649D02*
X206814573Y-80836888D01*
X206814573Y-80836888D02*
X206909811Y-80932126D01*
X206909811Y-80932126D02*
X207100287Y-80932126D01*
X207100287Y-80932126D02*
X207195525Y-80836888D01*
X206433620Y-79598792D02*
X206052668Y-79598792D01*
X206290763Y-78932126D02*
X206290763Y-80646411D01*
X206290763Y-80646411D02*
X206243144Y-80836888D01*
X206243144Y-80836888D02*
X206147906Y-80932126D01*
X206147906Y-80932126D02*
X206052668Y-80932126D01*
X205719334Y-80932126D02*
X205719334Y-79598792D01*
X205719334Y-78932126D02*
X205766953Y-79027364D01*
X205766953Y-79027364D02*
X205719334Y-79122602D01*
X205719334Y-79122602D02*
X205671715Y-79027364D01*
X205671715Y-79027364D02*
X205719334Y-78932126D01*
X205719334Y-78932126D02*
X205719334Y-79122602D01*
X205243144Y-80932126D02*
X205243144Y-79598792D01*
X205243144Y-79789268D02*
X205195525Y-79694030D01*
X205195525Y-79694030D02*
X205100287Y-79598792D01*
X205100287Y-79598792D02*
X204957430Y-79598792D01*
X204957430Y-79598792D02*
X204862192Y-79694030D01*
X204862192Y-79694030D02*
X204814573Y-79884507D01*
X204814573Y-79884507D02*
X204814573Y-80932126D01*
X204814573Y-79884507D02*
X204766954Y-79694030D01*
X204766954Y-79694030D02*
X204671716Y-79598792D01*
X204671716Y-79598792D02*
X204528859Y-79598792D01*
X204528859Y-79598792D02*
X204433620Y-79694030D01*
X204433620Y-79694030D02*
X204386001Y-79884507D01*
X204386001Y-79884507D02*
X204386001Y-80932126D01*
X203481240Y-80932126D02*
X203481240Y-79884507D01*
X203481240Y-79884507D02*
X203528859Y-79694030D01*
X203528859Y-79694030D02*
X203624097Y-79598792D01*
X203624097Y-79598792D02*
X203814573Y-79598792D01*
X203814573Y-79598792D02*
X203909811Y-79694030D01*
X203481240Y-80836888D02*
X203576478Y-80932126D01*
X203576478Y-80932126D02*
X203814573Y-80932126D01*
X203814573Y-80932126D02*
X203909811Y-80836888D01*
X203909811Y-80836888D02*
X203957430Y-80646411D01*
X203957430Y-80646411D02*
X203957430Y-80455935D01*
X203957430Y-80455935D02*
X203909811Y-80265459D01*
X203909811Y-80265459D02*
X203814573Y-80170221D01*
X203814573Y-80170221D02*
X203576478Y-80170221D01*
X203576478Y-80170221D02*
X203481240Y-80074983D01*
X202862192Y-80932126D02*
X202957430Y-80836888D01*
X202957430Y-80836888D02*
X203005049Y-80646411D01*
X203005049Y-80646411D02*
X203005049Y-78932126D01*
X201814572Y-79598792D02*
X201624096Y-80932126D01*
X201624096Y-80932126D02*
X201433620Y-79979745D01*
X201433620Y-79979745D02*
X201243144Y-80932126D01*
X201243144Y-80932126D02*
X201052668Y-79598792D01*
X200243144Y-80932126D02*
X200243144Y-79884507D01*
X200243144Y-79884507D02*
X200290763Y-79694030D01*
X200290763Y-79694030D02*
X200386001Y-79598792D01*
X200386001Y-79598792D02*
X200576477Y-79598792D01*
X200576477Y-79598792D02*
X200671715Y-79694030D01*
X200243144Y-80836888D02*
X200338382Y-80932126D01*
X200338382Y-80932126D02*
X200576477Y-80932126D01*
X200576477Y-80932126D02*
X200671715Y-80836888D01*
X200671715Y-80836888D02*
X200719334Y-80646411D01*
X200719334Y-80646411D02*
X200719334Y-80455935D01*
X200719334Y-80455935D02*
X200671715Y-80265459D01*
X200671715Y-80265459D02*
X200576477Y-80170221D01*
X200576477Y-80170221D02*
X200338382Y-80170221D01*
X200338382Y-80170221D02*
X200243144Y-80074983D01*
X199909810Y-79598792D02*
X199528858Y-79598792D01*
X199766953Y-78932126D02*
X199766953Y-80646411D01*
X199766953Y-80646411D02*
X199719334Y-80836888D01*
X199719334Y-80836888D02*
X199624096Y-80932126D01*
X199624096Y-80932126D02*
X199528858Y-80932126D01*
X198814572Y-80836888D02*
X198909810Y-80932126D01*
X198909810Y-80932126D02*
X199100286Y-80932126D01*
X199100286Y-80932126D02*
X199195524Y-80836888D01*
X199195524Y-80836888D02*
X199243143Y-80646411D01*
X199243143Y-80646411D02*
X199243143Y-79884507D01*
X199243143Y-79884507D02*
X199195524Y-79694030D01*
X199195524Y-79694030D02*
X199100286Y-79598792D01*
X199100286Y-79598792D02*
X198909810Y-79598792D01*
X198909810Y-79598792D02*
X198814572Y-79694030D01*
X198814572Y-79694030D02*
X198766953Y-79884507D01*
X198766953Y-79884507D02*
X198766953Y-80074983D01*
X198766953Y-80074983D02*
X199243143Y-80265459D01*
X198338381Y-80932126D02*
X198338381Y-79598792D01*
X198338381Y-79979745D02*
X198290762Y-79789268D01*
X198290762Y-79789268D02*
X198243143Y-79694030D01*
X198243143Y-79694030D02*
X198147905Y-79598792D01*
X198147905Y-79598792D02*
X198052667Y-79598792D01*
X196576476Y-80836888D02*
X196671714Y-80932126D01*
X196671714Y-80932126D02*
X196862190Y-80932126D01*
X196862190Y-80932126D02*
X196957428Y-80836888D01*
X196957428Y-80836888D02*
X197005047Y-80646411D01*
X197005047Y-80646411D02*
X197005047Y-79884507D01*
X197005047Y-79884507D02*
X196957428Y-79694030D01*
X196957428Y-79694030D02*
X196862190Y-79598792D01*
X196862190Y-79598792D02*
X196671714Y-79598792D01*
X196671714Y-79598792D02*
X196576476Y-79694030D01*
X196576476Y-79694030D02*
X196528857Y-79884507D01*
X196528857Y-79884507D02*
X196528857Y-80074983D01*
X196528857Y-80074983D02*
X197005047Y-80265459D01*
X196195523Y-80932126D02*
X195671714Y-79598792D01*
X196195523Y-79598792D02*
X195671714Y-80932126D01*
X195433618Y-79598792D02*
X195052666Y-79598792D01*
X195290761Y-78932126D02*
X195290761Y-80646411D01*
X195290761Y-80646411D02*
X195243142Y-80836888D01*
X195243142Y-80836888D02*
X195147904Y-80932126D01*
X195147904Y-80932126D02*
X195052666Y-80932126D01*
X194719332Y-80932126D02*
X194719332Y-79598792D01*
X194719332Y-79979745D02*
X194671713Y-79789268D01*
X194671713Y-79789268D02*
X194624094Y-79694030D01*
X194624094Y-79694030D02*
X194528856Y-79598792D01*
X194528856Y-79598792D02*
X194433618Y-79598792D01*
X193671713Y-80932126D02*
X193671713Y-79884507D01*
X193671713Y-79884507D02*
X193719332Y-79694030D01*
X193719332Y-79694030D02*
X193814570Y-79598792D01*
X193814570Y-79598792D02*
X194005046Y-79598792D01*
X194005046Y-79598792D02*
X194100284Y-79694030D01*
X193671713Y-80836888D02*
X193766951Y-80932126D01*
X193766951Y-80932126D02*
X194005046Y-80932126D01*
X194005046Y-80932126D02*
X194100284Y-80836888D01*
X194100284Y-80836888D02*
X194147903Y-80646411D01*
X194147903Y-80646411D02*
X194147903Y-80455935D01*
X194147903Y-80455935D02*
X194100284Y-80265459D01*
X194100284Y-80265459D02*
X194005046Y-80170221D01*
X194005046Y-80170221D02*
X193766951Y-80170221D01*
X193766951Y-80170221D02*
X193671713Y-80074983D01*
X192766951Y-80836888D02*
X192862189Y-80932126D01*
X192862189Y-80932126D02*
X193052665Y-80932126D01*
X193052665Y-80932126D02*
X193147903Y-80836888D01*
X193147903Y-80836888D02*
X193195522Y-80741649D01*
X193195522Y-80741649D02*
X193243141Y-80551173D01*
X193243141Y-80551173D02*
X193243141Y-79979745D01*
X193243141Y-79979745D02*
X193195522Y-79789268D01*
X193195522Y-79789268D02*
X193147903Y-79694030D01*
X193147903Y-79694030D02*
X193052665Y-79598792D01*
X193052665Y-79598792D02*
X192862189Y-79598792D01*
X192862189Y-79598792D02*
X192766951Y-79694030D01*
X192481236Y-79598792D02*
X192100284Y-79598792D01*
X192338379Y-78932126D02*
X192338379Y-80646411D01*
X192338379Y-80646411D02*
X192290760Y-80836888D01*
X192290760Y-80836888D02*
X192195522Y-80932126D01*
X192195522Y-80932126D02*
X192100284Y-80932126D01*
X191766950Y-80932126D02*
X191766950Y-79598792D01*
X191766950Y-78932126D02*
X191814569Y-79027364D01*
X191814569Y-79027364D02*
X191766950Y-79122602D01*
X191766950Y-79122602D02*
X191719331Y-79027364D01*
X191719331Y-79027364D02*
X191766950Y-78932126D01*
X191766950Y-78932126D02*
X191766950Y-79122602D01*
X191147903Y-80932126D02*
X191243141Y-80836888D01*
X191243141Y-80836888D02*
X191290760Y-80741649D01*
X191290760Y-80741649D02*
X191338379Y-80551173D01*
X191338379Y-80551173D02*
X191338379Y-79979745D01*
X191338379Y-79979745D02*
X191290760Y-79789268D01*
X191290760Y-79789268D02*
X191243141Y-79694030D01*
X191243141Y-79694030D02*
X191147903Y-79598792D01*
X191147903Y-79598792D02*
X191005046Y-79598792D01*
X191005046Y-79598792D02*
X190909808Y-79694030D01*
X190909808Y-79694030D02*
X190862189Y-79789268D01*
X190862189Y-79789268D02*
X190814570Y-79979745D01*
X190814570Y-79979745D02*
X190814570Y-80551173D01*
X190814570Y-80551173D02*
X190862189Y-80741649D01*
X190862189Y-80741649D02*
X190909808Y-80836888D01*
X190909808Y-80836888D02*
X191005046Y-80932126D01*
X191005046Y-80932126D02*
X191147903Y-80932126D01*
X190385998Y-79598792D02*
X190385998Y-80932126D01*
X190385998Y-79789268D02*
X190338379Y-79694030D01*
X190338379Y-79694030D02*
X190243141Y-79598792D01*
X190243141Y-79598792D02*
X190100284Y-79598792D01*
X190100284Y-79598792D02*
X190005046Y-79694030D01*
X190005046Y-79694030D02*
X189957427Y-79884507D01*
X189957427Y-79884507D02*
X189957427Y-80932126D01*
X189481236Y-80741649D02*
X189433617Y-80836888D01*
X189433617Y-80836888D02*
X189481236Y-80932126D01*
X189481236Y-80932126D02*
X189528855Y-80836888D01*
X189528855Y-80836888D02*
X189481236Y-80741649D01*
X189481236Y-80741649D02*
X189481236Y-80932126D01*
X189052665Y-78932126D02*
X189052665Y-79313078D01*
X188671713Y-78932126D02*
X188671713Y-79313078D01*
X162595238Y-68761817D02*
X162642857Y-68857056D01*
X162642857Y-68857056D02*
X162785714Y-68952294D01*
X162785714Y-68952294D02*
X162880952Y-68952294D01*
X162880952Y-68952294D02*
X163023809Y-68857056D01*
X163023809Y-68857056D02*
X163119047Y-68666579D01*
X163119047Y-68666579D02*
X163166666Y-68476103D01*
X163166666Y-68476103D02*
X163214285Y-68095151D01*
X163214285Y-68095151D02*
X163214285Y-67809436D01*
X163214285Y-67809436D02*
X163166666Y-67428484D01*
X163166666Y-67428484D02*
X163119047Y-67238008D01*
X163119047Y-67238008D02*
X163023809Y-67047532D01*
X163023809Y-67047532D02*
X162880952Y-66952294D01*
X162880952Y-66952294D02*
X162785714Y-66952294D01*
X162785714Y-66952294D02*
X162642857Y-67047532D01*
X162642857Y-67047532D02*
X162595238Y-67142770D01*
X161976190Y-66952294D02*
X161785714Y-66952294D01*
X161785714Y-66952294D02*
X161690476Y-67047532D01*
X161690476Y-67047532D02*
X161595238Y-67238008D01*
X161595238Y-67238008D02*
X161547619Y-67618960D01*
X161547619Y-67618960D02*
X161547619Y-68285627D01*
X161547619Y-68285627D02*
X161595238Y-68666579D01*
X161595238Y-68666579D02*
X161690476Y-68857056D01*
X161690476Y-68857056D02*
X161785714Y-68952294D01*
X161785714Y-68952294D02*
X161976190Y-68952294D01*
X161976190Y-68952294D02*
X162071428Y-68857056D01*
X162071428Y-68857056D02*
X162166666Y-68666579D01*
X162166666Y-68666579D02*
X162214285Y-68285627D01*
X162214285Y-68285627D02*
X162214285Y-67618960D01*
X162214285Y-67618960D02*
X162166666Y-67238008D01*
X162166666Y-67238008D02*
X162071428Y-67047532D01*
X162071428Y-67047532D02*
X161976190Y-66952294D01*
X161119047Y-68952294D02*
X161119047Y-66952294D01*
X161119047Y-66952294D02*
X160547619Y-68952294D01*
X160547619Y-68952294D02*
X160547619Y-66952294D01*
X160119047Y-68857056D02*
X159976190Y-68952294D01*
X159976190Y-68952294D02*
X159738095Y-68952294D01*
X159738095Y-68952294D02*
X159642857Y-68857056D01*
X159642857Y-68857056D02*
X159595238Y-68761817D01*
X159595238Y-68761817D02*
X159547619Y-68571341D01*
X159547619Y-68571341D02*
X159547619Y-68380865D01*
X159547619Y-68380865D02*
X159595238Y-68190389D01*
X159595238Y-68190389D02*
X159642857Y-68095151D01*
X159642857Y-68095151D02*
X159738095Y-67999913D01*
X159738095Y-67999913D02*
X159928571Y-67904675D01*
X159928571Y-67904675D02*
X160023809Y-67809436D01*
X160023809Y-67809436D02*
X160071428Y-67714198D01*
X160071428Y-67714198D02*
X160119047Y-67523722D01*
X160119047Y-67523722D02*
X160119047Y-67333246D01*
X160119047Y-67333246D02*
X160071428Y-67142770D01*
X160071428Y-67142770D02*
X160023809Y-67047532D01*
X160023809Y-67047532D02*
X159928571Y-66952294D01*
X159928571Y-66952294D02*
X159690476Y-66952294D01*
X159690476Y-66952294D02*
X159547619Y-67047532D01*
X159119047Y-68952294D02*
X159119047Y-66952294D01*
X158642857Y-68952294D02*
X158642857Y-66952294D01*
X158642857Y-66952294D02*
X158404762Y-66952294D01*
X158404762Y-66952294D02*
X158261905Y-67047532D01*
X158261905Y-67047532D02*
X158166667Y-67238008D01*
X158166667Y-67238008D02*
X158119048Y-67428484D01*
X158119048Y-67428484D02*
X158071429Y-67809436D01*
X158071429Y-67809436D02*
X158071429Y-68095151D01*
X158071429Y-68095151D02*
X158119048Y-68476103D01*
X158119048Y-68476103D02*
X158166667Y-68666579D01*
X158166667Y-68666579D02*
X158261905Y-68857056D01*
X158261905Y-68857056D02*
X158404762Y-68952294D01*
X158404762Y-68952294D02*
X158642857Y-68952294D01*
X157642857Y-67904675D02*
X157309524Y-67904675D01*
X157166667Y-68952294D02*
X157642857Y-68952294D01*
X157642857Y-68952294D02*
X157642857Y-66952294D01*
X157642857Y-66952294D02*
X157166667Y-66952294D01*
X156166667Y-68952294D02*
X156500000Y-67999913D01*
X156738095Y-68952294D02*
X156738095Y-66952294D01*
X156738095Y-66952294D02*
X156357143Y-66952294D01*
X156357143Y-66952294D02*
X156261905Y-67047532D01*
X156261905Y-67047532D02*
X156214286Y-67142770D01*
X156214286Y-67142770D02*
X156166667Y-67333246D01*
X156166667Y-67333246D02*
X156166667Y-67618960D01*
X156166667Y-67618960D02*
X156214286Y-67809436D01*
X156214286Y-67809436D02*
X156261905Y-67904675D01*
X156261905Y-67904675D02*
X156357143Y-67999913D01*
X156357143Y-67999913D02*
X156738095Y-67999913D01*
X154642857Y-67904675D02*
X154500000Y-67999913D01*
X154500000Y-67999913D02*
X154452381Y-68095151D01*
X154452381Y-68095151D02*
X154404762Y-68285627D01*
X154404762Y-68285627D02*
X154404762Y-68571341D01*
X154404762Y-68571341D02*
X154452381Y-68761817D01*
X154452381Y-68761817D02*
X154500000Y-68857056D01*
X154500000Y-68857056D02*
X154595238Y-68952294D01*
X154595238Y-68952294D02*
X154976190Y-68952294D01*
X154976190Y-68952294D02*
X154976190Y-66952294D01*
X154976190Y-66952294D02*
X154642857Y-66952294D01*
X154642857Y-66952294D02*
X154547619Y-67047532D01*
X154547619Y-67047532D02*
X154500000Y-67142770D01*
X154500000Y-67142770D02*
X154452381Y-67333246D01*
X154452381Y-67333246D02*
X154452381Y-67523722D01*
X154452381Y-67523722D02*
X154500000Y-67714198D01*
X154500000Y-67714198D02*
X154547619Y-67809436D01*
X154547619Y-67809436D02*
X154642857Y-67904675D01*
X154642857Y-67904675D02*
X154976190Y-67904675D01*
X153976190Y-66952294D02*
X153976190Y-68571341D01*
X153976190Y-68571341D02*
X153928571Y-68761817D01*
X153928571Y-68761817D02*
X153880952Y-68857056D01*
X153880952Y-68857056D02*
X153785714Y-68952294D01*
X153785714Y-68952294D02*
X153595238Y-68952294D01*
X153595238Y-68952294D02*
X153500000Y-68857056D01*
X153500000Y-68857056D02*
X153452381Y-68761817D01*
X153452381Y-68761817D02*
X153404762Y-68571341D01*
X153404762Y-68571341D02*
X153404762Y-66952294D01*
X152357143Y-68952294D02*
X152690476Y-67999913D01*
X152928571Y-68952294D02*
X152928571Y-66952294D01*
X152928571Y-66952294D02*
X152547619Y-66952294D01*
X152547619Y-66952294D02*
X152452381Y-67047532D01*
X152452381Y-67047532D02*
X152404762Y-67142770D01*
X152404762Y-67142770D02*
X152357143Y-67333246D01*
X152357143Y-67333246D02*
X152357143Y-67618960D01*
X152357143Y-67618960D02*
X152404762Y-67809436D01*
X152404762Y-67809436D02*
X152452381Y-67904675D01*
X152452381Y-67904675D02*
X152547619Y-67999913D01*
X152547619Y-67999913D02*
X152928571Y-67999913D01*
X151976190Y-68857056D02*
X151833333Y-68952294D01*
X151833333Y-68952294D02*
X151595238Y-68952294D01*
X151595238Y-68952294D02*
X151500000Y-68857056D01*
X151500000Y-68857056D02*
X151452381Y-68761817D01*
X151452381Y-68761817D02*
X151404762Y-68571341D01*
X151404762Y-68571341D02*
X151404762Y-68380865D01*
X151404762Y-68380865D02*
X151452381Y-68190389D01*
X151452381Y-68190389D02*
X151500000Y-68095151D01*
X151500000Y-68095151D02*
X151595238Y-67999913D01*
X151595238Y-67999913D02*
X151785714Y-67904675D01*
X151785714Y-67904675D02*
X151880952Y-67809436D01*
X151880952Y-67809436D02*
X151928571Y-67714198D01*
X151928571Y-67714198D02*
X151976190Y-67523722D01*
X151976190Y-67523722D02*
X151976190Y-67333246D01*
X151976190Y-67333246D02*
X151928571Y-67142770D01*
X151928571Y-67142770D02*
X151880952Y-67047532D01*
X151880952Y-67047532D02*
X151785714Y-66952294D01*
X151785714Y-66952294D02*
X151547619Y-66952294D01*
X151547619Y-66952294D02*
X151404762Y-67047532D01*
X151119047Y-66952294D02*
X150547619Y-66952294D01*
X150833333Y-68952294D02*
X150833333Y-66952294D01*
X149452380Y-68952294D02*
X149452380Y-66952294D01*
X149452380Y-66952294D02*
X149071428Y-66952294D01*
X149071428Y-66952294D02*
X148976190Y-67047532D01*
X148976190Y-67047532D02*
X148928571Y-67142770D01*
X148928571Y-67142770D02*
X148880952Y-67333246D01*
X148880952Y-67333246D02*
X148880952Y-67618960D01*
X148880952Y-67618960D02*
X148928571Y-67809436D01*
X148928571Y-67809436D02*
X148976190Y-67904675D01*
X148976190Y-67904675D02*
X149071428Y-67999913D01*
X149071428Y-67999913D02*
X149452380Y-67999913D01*
X148452380Y-68952294D02*
X148452380Y-66952294D01*
X147976190Y-68952294D02*
X147976190Y-66952294D01*
X147976190Y-66952294D02*
X147595238Y-66952294D01*
X147595238Y-66952294D02*
X147500000Y-67047532D01*
X147500000Y-67047532D02*
X147452381Y-67142770D01*
X147452381Y-67142770D02*
X147404762Y-67333246D01*
X147404762Y-67333246D02*
X147404762Y-67618960D01*
X147404762Y-67618960D02*
X147452381Y-67809436D01*
X147452381Y-67809436D02*
X147500000Y-67904675D01*
X147500000Y-67904675D02*
X147595238Y-67999913D01*
X147595238Y-67999913D02*
X147976190Y-67999913D01*
X146976190Y-67904675D02*
X146642857Y-67904675D01*
X146500000Y-68952294D02*
X146976190Y-68952294D01*
X146976190Y-68952294D02*
X146976190Y-66952294D01*
X146976190Y-66952294D02*
X146500000Y-66952294D01*
X146119047Y-68857056D02*
X145976190Y-68952294D01*
X145976190Y-68952294D02*
X145738095Y-68952294D01*
X145738095Y-68952294D02*
X145642857Y-68857056D01*
X145642857Y-68857056D02*
X145595238Y-68761817D01*
X145595238Y-68761817D02*
X145547619Y-68571341D01*
X145547619Y-68571341D02*
X145547619Y-68380865D01*
X145547619Y-68380865D02*
X145595238Y-68190389D01*
X145595238Y-68190389D02*
X145642857Y-68095151D01*
X145642857Y-68095151D02*
X145738095Y-67999913D01*
X145738095Y-67999913D02*
X145928571Y-67904675D01*
X145928571Y-67904675D02*
X146023809Y-67809436D01*
X146023809Y-67809436D02*
X146071428Y-67714198D01*
X146071428Y-67714198D02*
X146119047Y-67523722D01*
X146119047Y-67523722D02*
X146119047Y-67333246D01*
X146119047Y-67333246D02*
X146071428Y-67142770D01*
X146071428Y-67142770D02*
X146023809Y-67047532D01*
X146023809Y-67047532D02*
X145928571Y-66952294D01*
X145928571Y-66952294D02*
X145690476Y-66952294D01*
X145690476Y-66952294D02*
X145547619Y-67047532D01*
X167309523Y-70172182D02*
X167071428Y-72172182D01*
X167071428Y-72172182D02*
X166880952Y-70743610D01*
X166880952Y-70743610D02*
X166690476Y-72172182D01*
X166690476Y-72172182D02*
X166452381Y-70172182D01*
X166071428Y-72172182D02*
X166071428Y-70172182D01*
X166071428Y-71124563D02*
X165500000Y-71124563D01*
X165500000Y-72172182D02*
X165500000Y-70172182D01*
X165023809Y-71124563D02*
X164690476Y-71124563D01*
X164547619Y-72172182D02*
X165023809Y-72172182D01*
X165023809Y-72172182D02*
X165023809Y-70172182D01*
X165023809Y-70172182D02*
X164547619Y-70172182D01*
X164119047Y-72172182D02*
X164119047Y-70172182D01*
X164119047Y-70172182D02*
X163547619Y-72172182D01*
X163547619Y-72172182D02*
X163547619Y-70172182D01*
X162357142Y-72076944D02*
X162214285Y-72172182D01*
X162214285Y-72172182D02*
X161976190Y-72172182D01*
X161976190Y-72172182D02*
X161880952Y-72076944D01*
X161880952Y-72076944D02*
X161833333Y-71981705D01*
X161833333Y-71981705D02*
X161785714Y-71791229D01*
X161785714Y-71791229D02*
X161785714Y-71600753D01*
X161785714Y-71600753D02*
X161833333Y-71410277D01*
X161833333Y-71410277D02*
X161880952Y-71315039D01*
X161880952Y-71315039D02*
X161976190Y-71219801D01*
X161976190Y-71219801D02*
X162166666Y-71124563D01*
X162166666Y-71124563D02*
X162261904Y-71029324D01*
X162261904Y-71029324D02*
X162309523Y-70934086D01*
X162309523Y-70934086D02*
X162357142Y-70743610D01*
X162357142Y-70743610D02*
X162357142Y-70553134D01*
X162357142Y-70553134D02*
X162309523Y-70362658D01*
X162309523Y-70362658D02*
X162261904Y-70267420D01*
X162261904Y-70267420D02*
X162166666Y-70172182D01*
X162166666Y-70172182D02*
X161928571Y-70172182D01*
X161928571Y-70172182D02*
X161785714Y-70267420D01*
X161499999Y-70172182D02*
X160928571Y-70172182D01*
X161214285Y-72172182D02*
X161214285Y-70172182D01*
X160404761Y-70172182D02*
X160214285Y-70172182D01*
X160214285Y-70172182D02*
X160119047Y-70267420D01*
X160119047Y-70267420D02*
X160023809Y-70457896D01*
X160023809Y-70457896D02*
X159976190Y-70838848D01*
X159976190Y-70838848D02*
X159976190Y-71505515D01*
X159976190Y-71505515D02*
X160023809Y-71886467D01*
X160023809Y-71886467D02*
X160119047Y-72076944D01*
X160119047Y-72076944D02*
X160214285Y-72172182D01*
X160214285Y-72172182D02*
X160404761Y-72172182D01*
X160404761Y-72172182D02*
X160499999Y-72076944D01*
X160499999Y-72076944D02*
X160595237Y-71886467D01*
X160595237Y-71886467D02*
X160642856Y-71505515D01*
X160642856Y-71505515D02*
X160642856Y-70838848D01*
X160642856Y-70838848D02*
X160595237Y-70457896D01*
X160595237Y-70457896D02*
X160499999Y-70267420D01*
X160499999Y-70267420D02*
X160404761Y-70172182D01*
X158976190Y-72172182D02*
X159309523Y-71219801D01*
X159547618Y-72172182D02*
X159547618Y-70172182D01*
X159547618Y-70172182D02*
X159166666Y-70172182D01*
X159166666Y-70172182D02*
X159071428Y-70267420D01*
X159071428Y-70267420D02*
X159023809Y-70362658D01*
X159023809Y-70362658D02*
X158976190Y-70553134D01*
X158976190Y-70553134D02*
X158976190Y-70838848D01*
X158976190Y-70838848D02*
X159023809Y-71029324D01*
X159023809Y-71029324D02*
X159071428Y-71124563D01*
X159071428Y-71124563D02*
X159166666Y-71219801D01*
X159166666Y-71219801D02*
X159547618Y-71219801D01*
X158547618Y-72172182D02*
X158547618Y-70172182D01*
X158071428Y-72172182D02*
X158071428Y-70172182D01*
X158071428Y-70172182D02*
X157500000Y-72172182D01*
X157500000Y-72172182D02*
X157500000Y-70172182D01*
X156500000Y-70267420D02*
X156595238Y-70172182D01*
X156595238Y-70172182D02*
X156738095Y-70172182D01*
X156738095Y-70172182D02*
X156880952Y-70267420D01*
X156880952Y-70267420D02*
X156976190Y-70457896D01*
X156976190Y-70457896D02*
X157023809Y-70648372D01*
X157023809Y-70648372D02*
X157071428Y-71029324D01*
X157071428Y-71029324D02*
X157071428Y-71315039D01*
X157071428Y-71315039D02*
X157023809Y-71695991D01*
X157023809Y-71695991D02*
X156976190Y-71886467D01*
X156976190Y-71886467D02*
X156880952Y-72076944D01*
X156880952Y-72076944D02*
X156738095Y-72172182D01*
X156738095Y-72172182D02*
X156642857Y-72172182D01*
X156642857Y-72172182D02*
X156500000Y-72076944D01*
X156500000Y-72076944D02*
X156452381Y-71981705D01*
X156452381Y-71981705D02*
X156452381Y-71315039D01*
X156452381Y-71315039D02*
X156642857Y-71315039D01*
X155309523Y-71600753D02*
X154833333Y-71600753D01*
X155404761Y-72172182D02*
X155071428Y-70172182D01*
X155071428Y-70172182D02*
X154738095Y-72172182D01*
X153833333Y-72172182D02*
X154166666Y-71219801D01*
X154404761Y-72172182D02*
X154404761Y-70172182D01*
X154404761Y-70172182D02*
X154023809Y-70172182D01*
X154023809Y-70172182D02*
X153928571Y-70267420D01*
X153928571Y-70267420D02*
X153880952Y-70362658D01*
X153880952Y-70362658D02*
X153833333Y-70553134D01*
X153833333Y-70553134D02*
X153833333Y-70838848D01*
X153833333Y-70838848D02*
X153880952Y-71029324D01*
X153880952Y-71029324D02*
X153928571Y-71124563D01*
X153928571Y-71124563D02*
X154023809Y-71219801D01*
X154023809Y-71219801D02*
X154404761Y-71219801D01*
X152833333Y-71981705D02*
X152880952Y-72076944D01*
X152880952Y-72076944D02*
X153023809Y-72172182D01*
X153023809Y-72172182D02*
X153119047Y-72172182D01*
X153119047Y-72172182D02*
X153261904Y-72076944D01*
X153261904Y-72076944D02*
X153357142Y-71886467D01*
X153357142Y-71886467D02*
X153404761Y-71695991D01*
X153404761Y-71695991D02*
X153452380Y-71315039D01*
X153452380Y-71315039D02*
X153452380Y-71029324D01*
X153452380Y-71029324D02*
X153404761Y-70648372D01*
X153404761Y-70648372D02*
X153357142Y-70457896D01*
X153357142Y-70457896D02*
X153261904Y-70267420D01*
X153261904Y-70267420D02*
X153119047Y-70172182D01*
X153119047Y-70172182D02*
X153023809Y-70172182D01*
X153023809Y-70172182D02*
X152880952Y-70267420D01*
X152880952Y-70267420D02*
X152833333Y-70362658D01*
X152404761Y-72172182D02*
X152404761Y-70172182D01*
X151976190Y-72172182D02*
X151976190Y-71124563D01*
X151976190Y-71124563D02*
X152023809Y-70934086D01*
X152023809Y-70934086D02*
X152119047Y-70838848D01*
X152119047Y-70838848D02*
X152261904Y-70838848D01*
X152261904Y-70838848D02*
X152357142Y-70934086D01*
X152357142Y-70934086D02*
X152404761Y-71029324D01*
X150166666Y-71981705D02*
X150214285Y-72076944D01*
X150214285Y-72076944D02*
X150357142Y-72172182D01*
X150357142Y-72172182D02*
X150452380Y-72172182D01*
X150452380Y-72172182D02*
X150595237Y-72076944D01*
X150595237Y-72076944D02*
X150690475Y-71886467D01*
X150690475Y-71886467D02*
X150738094Y-71695991D01*
X150738094Y-71695991D02*
X150785713Y-71315039D01*
X150785713Y-71315039D02*
X150785713Y-71029324D01*
X150785713Y-71029324D02*
X150738094Y-70648372D01*
X150738094Y-70648372D02*
X150690475Y-70457896D01*
X150690475Y-70457896D02*
X150595237Y-70267420D01*
X150595237Y-70267420D02*
X150452380Y-70172182D01*
X150452380Y-70172182D02*
X150357142Y-70172182D01*
X150357142Y-70172182D02*
X150214285Y-70267420D01*
X150214285Y-70267420D02*
X150166666Y-70362658D01*
X149547618Y-70172182D02*
X149357142Y-70172182D01*
X149357142Y-70172182D02*
X149261904Y-70267420D01*
X149261904Y-70267420D02*
X149166666Y-70457896D01*
X149166666Y-70457896D02*
X149119047Y-70838848D01*
X149119047Y-70838848D02*
X149119047Y-71505515D01*
X149119047Y-71505515D02*
X149166666Y-71886467D01*
X149166666Y-71886467D02*
X149261904Y-72076944D01*
X149261904Y-72076944D02*
X149357142Y-72172182D01*
X149357142Y-72172182D02*
X149547618Y-72172182D01*
X149547618Y-72172182D02*
X149642856Y-72076944D01*
X149642856Y-72076944D02*
X149738094Y-71886467D01*
X149738094Y-71886467D02*
X149785713Y-71505515D01*
X149785713Y-71505515D02*
X149785713Y-70838848D01*
X149785713Y-70838848D02*
X149738094Y-70457896D01*
X149738094Y-70457896D02*
X149642856Y-70267420D01*
X149642856Y-70267420D02*
X149547618Y-70172182D01*
X148690475Y-72172182D02*
X148690475Y-70172182D01*
X148690475Y-70172182D02*
X148357142Y-71600753D01*
X148357142Y-71600753D02*
X148023809Y-70172182D01*
X148023809Y-70172182D02*
X148023809Y-72172182D01*
X147547618Y-72172182D02*
X147547618Y-70172182D01*
X147547618Y-70172182D02*
X147166666Y-70172182D01*
X147166666Y-70172182D02*
X147071428Y-70267420D01*
X147071428Y-70267420D02*
X147023809Y-70362658D01*
X147023809Y-70362658D02*
X146976190Y-70553134D01*
X146976190Y-70553134D02*
X146976190Y-70838848D01*
X146976190Y-70838848D02*
X147023809Y-71029324D01*
X147023809Y-71029324D02*
X147071428Y-71124563D01*
X147071428Y-71124563D02*
X147166666Y-71219801D01*
X147166666Y-71219801D02*
X147547618Y-71219801D01*
X146357142Y-70172182D02*
X146166666Y-70172182D01*
X146166666Y-70172182D02*
X146071428Y-70267420D01*
X146071428Y-70267420D02*
X145976190Y-70457896D01*
X145976190Y-70457896D02*
X145928571Y-70838848D01*
X145928571Y-70838848D02*
X145928571Y-71505515D01*
X145928571Y-71505515D02*
X145976190Y-71886467D01*
X145976190Y-71886467D02*
X146071428Y-72076944D01*
X146071428Y-72076944D02*
X146166666Y-72172182D01*
X146166666Y-72172182D02*
X146357142Y-72172182D01*
X146357142Y-72172182D02*
X146452380Y-72076944D01*
X146452380Y-72076944D02*
X146547618Y-71886467D01*
X146547618Y-71886467D02*
X146595237Y-71505515D01*
X146595237Y-71505515D02*
X146595237Y-70838848D01*
X146595237Y-70838848D02*
X146547618Y-70457896D01*
X146547618Y-70457896D02*
X146452380Y-70267420D01*
X146452380Y-70267420D02*
X146357142Y-70172182D01*
X145499999Y-72172182D02*
X145499999Y-70172182D01*
X145499999Y-70172182D02*
X144928571Y-72172182D01*
X144928571Y-72172182D02*
X144928571Y-70172182D01*
X144452380Y-71124563D02*
X144119047Y-71124563D01*
X143976190Y-72172182D02*
X144452380Y-72172182D01*
X144452380Y-72172182D02*
X144452380Y-70172182D01*
X144452380Y-70172182D02*
X143976190Y-70172182D01*
X143547618Y-72172182D02*
X143547618Y-70172182D01*
X143547618Y-70172182D02*
X142976190Y-72172182D01*
X142976190Y-72172182D02*
X142976190Y-70172182D01*
X142642856Y-70172182D02*
X142071428Y-70172182D01*
X142357142Y-72172182D02*
X142357142Y-70172182D01*
X141785713Y-72076944D02*
X141642856Y-72172182D01*
X141642856Y-72172182D02*
X141404761Y-72172182D01*
X141404761Y-72172182D02*
X141309523Y-72076944D01*
X141309523Y-72076944D02*
X141261904Y-71981705D01*
X141261904Y-71981705D02*
X141214285Y-71791229D01*
X141214285Y-71791229D02*
X141214285Y-71600753D01*
X141214285Y-71600753D02*
X141261904Y-71410277D01*
X141261904Y-71410277D02*
X141309523Y-71315039D01*
X141309523Y-71315039D02*
X141404761Y-71219801D01*
X141404761Y-71219801D02*
X141595237Y-71124563D01*
X141595237Y-71124563D02*
X141690475Y-71029324D01*
X141690475Y-71029324D02*
X141738094Y-70934086D01*
X141738094Y-70934086D02*
X141785713Y-70743610D01*
X141785713Y-70743610D02*
X141785713Y-70553134D01*
X141785713Y-70553134D02*
X141738094Y-70362658D01*
X141738094Y-70362658D02*
X141690475Y-70267420D01*
X141690475Y-70267420D02*
X141595237Y-70172182D01*
X141595237Y-70172182D02*
X141357142Y-70172182D01*
X141357142Y-70172182D02*
X141214285Y-70267420D01*
X140785713Y-71981705D02*
X140738094Y-72076944D01*
X140738094Y-72076944D02*
X140785713Y-72172182D01*
X140785713Y-72172182D02*
X140833332Y-72076944D01*
X140833332Y-72076944D02*
X140785713Y-71981705D01*
X140785713Y-71981705D02*
X140785713Y-72172182D01*
X140785713Y-71410277D02*
X140833332Y-70267420D01*
X140833332Y-70267420D02*
X140785713Y-70172182D01*
X140785713Y-70172182D02*
X140738094Y-70267420D01*
X140738094Y-70267420D02*
X140785713Y-71410277D01*
X140785713Y-71410277D02*
X140785713Y-70172182D01*
M02*
