%TF.GenerationSoftware,KiCad,Pcbnew,10.0.6*%
%TF.CreationDate,2026-10-04T10:26:00+10:00*%
%TF.ProjectId,space-resources,73706163-652d-4726-9573-6f7572636573,rev?*%
%TF.SameCoordinates,Original*%
%TF.FileFunction,Copper,L4,Bot*%
%TF.FilePolarity,Positive*%
%FSLAX46Y46*%
G04 Gerber Fmt 4.6, Leading zero omitted, Abs format (unit mm)*
G04 Created by KiCad (PCBNEW 10.0.6) date 2026-10-04 10:26:00*
%MOMM*%
%LPD*%
G01*
G04 APERTURE LIST*
G04 Aperture macros list*
%AMRoundRect*
0 Rectangle with rounded corners*
0 $1 Rounding radius*
0 $2 $3 $4 $5 $6 $7 $8 $9 X,Y pos of 4 corners*
0 Add a 4 corners polygon primitive as box body*
4,1,4,$2,$3,$4,$5,$6,$7,$8,$9,$2,$3,0*
0 Add four circle primitives for the rounded corners*
1,1,$1+$1,$2,$3*
1,1,$1+$1,$4,$5*
1,1,$1+$1,$6,$7*
1,1,$1+$1,$8,$9*
0 Add four rect primitives between the rounded corners*
20,1,$1+$1,$2,$3,$4,$5,0*
20,1,$1+$1,$4,$5,$6,$7,0*
20,1,$1+$1,$6,$7,$8,$9,0*
20,1,$1+$1,$8,$9,$2,$3,0*%
G04 Aperture macros list end*
%TA.AperFunction,ComponentPad*%
%ADD10C,2.200000*%
%TD*%
%TA.AperFunction,ComponentPad*%
%ADD11C,0.800000*%
%TD*%
%TA.AperFunction,ComponentPad*%
%ADD12C,6.400000*%
%TD*%
%TA.AperFunction,ComponentPad*%
%ADD13C,1.800000*%
%TD*%
%TA.AperFunction,ComponentPad*%
%ADD14C,0.600000*%
%TD*%
%TA.AperFunction,ComponentPad*%
%ADD15R,1.600000X1.600000*%
%TD*%
%TA.AperFunction,ComponentPad*%
%ADD16O,1.600000X1.600000*%
%TD*%
%TA.AperFunction,ComponentPad*%
%ADD17R,1.700000X1.700000*%
%TD*%
%TA.AperFunction,ComponentPad*%
%ADD18O,1.700000X1.700000*%
%TD*%
%TA.AperFunction,ComponentPad*%
%ADD19C,1.700000*%
%TD*%
%TA.AperFunction,ComponentPad*%
%ADD20C,4.016000*%
%TD*%
%TA.AperFunction,ComponentPad*%
%ADD21RoundRect,1.800000X-1.800000X-1.800000X1.800000X-1.800000X1.800000X1.800000X-1.800000X1.800000X0*%
%TD*%
%TA.AperFunction,ComponentPad*%
%ADD22C,7.200000*%
%TD*%
%TA.AperFunction,ComponentPad*%
%ADD23R,1.600000X2.400000*%
%TD*%
%TA.AperFunction,ComponentPad*%
%ADD24C,1.400000*%
%TD*%
%TA.AperFunction,ComponentPad*%
%ADD25RoundRect,0.770000X-0.980000X0.980000X-0.980000X-0.980000X0.980000X-0.980000X0.980000X0.980000X0*%
%TD*%
%TA.AperFunction,ComponentPad*%
%ADD26C,3.500000*%
%TD*%
%TA.AperFunction,ViaPad*%
%ADD27C,0.600000*%
%TD*%
%TA.AperFunction,ViaPad*%
%ADD28C,0.500000*%
%TD*%
%TA.AperFunction,Conductor*%
%ADD29C,0.200000*%
%TD*%
G04 APERTURE END LIST*
D10*
%TO.P,J11,2,Pin_2_2*%
%TO.N,/DRV8825/MOTOR_B+*%
X188745000Y-103521000D03*
%TO.P,J11,1,Pin_1_1*%
%TO.N,/DRV8825/MOTOR_B-*%
X192555000Y-103521000D03*
%TD*%
D11*
%TO.P,H3,1,1_1*%
%TO.N,GND*%
X226300000Y-42400000D03*
X225597056Y-44097056D03*
X225597056Y-40702944D03*
X223900000Y-44800000D03*
D12*
X223900000Y-42400000D03*
D11*
X223900000Y-40000000D03*
X222202944Y-44097056D03*
X222202944Y-40702944D03*
X221500000Y-42400000D03*
%TD*%
%TO.P,H4,1,1_1*%
%TO.N,GND*%
X221600000Y-107400000D03*
X222302944Y-105702944D03*
X222302944Y-109097056D03*
X224000000Y-105000000D03*
D12*
X224000000Y-107400000D03*
D11*
X224000000Y-109800000D03*
X225697056Y-105702944D03*
X225697056Y-109097056D03*
X226400000Y-107400000D03*
%TD*%
D13*
%TO.P,GND_TP1,1,1_1*%
%TO.N,GND*%
X166650000Y-42910000D03*
%TD*%
D10*
%TO.P,J4,1*%
%TO.N,/UART1_TX*%
X220198825Y-57548196D03*
%TO.P,J4,2*%
%TO.N,/UART1_RX*%
X220198825Y-61358196D03*
%TO.P,J4,3*%
%TO.N,GND*%
X220200000Y-65170000D03*
%TD*%
%TO.P,J15,1,Pin_1_1*%
%TO.N,GND*%
X151755000Y-103600000D03*
%TO.P,J15,2,Pin_2_2*%
%TO.N,Net-(J15-Pin_2)*%
X147945000Y-103600000D03*
%TD*%
D13*
%TO.P,3V3_TP1,1,1_1*%
%TO.N,+3V3*%
X174650000Y-42910000D03*
%TD*%
D10*
%TO.P,J13,1,Pin_1_1*%
%TO.N,/DRV8825/MOTOR_A+*%
X182555000Y-103571000D03*
%TO.P,J13,2,Pin_2_2*%
%TO.N,/DRV8825/MOTOR_A-*%
X178745000Y-103571000D03*
%TD*%
D14*
%TO.P,U4,17,GND(PAD)_17*%
%TO.N,GND*%
X215075002Y-94599999D03*
X215075002Y-95549999D03*
X215075002Y-96500000D03*
X215075002Y-97450001D03*
X215075002Y-98400001D03*
X216425002Y-94599999D03*
X216425002Y-95549999D03*
X216425002Y-96500000D03*
X216425002Y-97450001D03*
X216425002Y-98400001D03*
X217775002Y-94599999D03*
X217775002Y-95549999D03*
X217775002Y-96500000D03*
X217775002Y-97450001D03*
X217775002Y-98400001D03*
%TD*%
D15*
%TO.P,A1,1,GND_1*%
%TO.N,GND*%
X177765000Y-95211000D03*
D16*
%TO.P,A1,2,~{FLT}_2*%
%TO.N,/~{SHAFT_FAULT}*%
X180305000Y-95211000D03*
%TO.P,A1,3,A2_3*%
%TO.N,/DRV8825/MOTOR_A-*%
X182845000Y-95211000D03*
%TO.P,A1,4,A1_4*%
%TO.N,/DRV8825/MOTOR_A+*%
X185385000Y-95211000D03*
%TO.P,A1,5,B1_5*%
%TO.N,/DRV8825/MOTOR_B+*%
X187925000Y-95211000D03*
%TO.P,A1,6,B2_6*%
%TO.N,/DRV8825/MOTOR_B-*%
X190465000Y-95211000D03*
%TO.P,A1,7,GND_7*%
%TO.N,GND*%
X193005000Y-95211000D03*
%TO.P,A1,8,VMOT_8*%
%TO.N,+24V_prot*%
X195545000Y-95211000D03*
%TO.P,A1,9,~{EN}_9*%
%TO.N,/~{SHAFT_EN}*%
X195545000Y-82511000D03*
%TO.P,A1,10,M0_10*%
%TO.N,Net-(A1-M0)*%
X193005000Y-82511000D03*
%TO.P,A1,11,M1_11*%
%TO.N,Net-(A1-M1)*%
X190465000Y-82511000D03*
%TO.P,A1,12,M2_12*%
%TO.N,Net-(A1-M2)*%
X187925000Y-82511000D03*
%TO.P,A1,13,~{RST}_13*%
%TO.N,/~{SHAFT_RST}*%
X185385000Y-82511000D03*
%TO.P,A1,14,~{SLP}_14*%
%TO.N,/~{SHAFT_SLP}*%
X182845000Y-82511000D03*
%TO.P,A1,15,STEP_15*%
%TO.N,/SHAFT_STEP*%
X180305000Y-82511000D03*
%TO.P,A1,16,DIR_16*%
%TO.N,/SHAFT_DIR*%
X177765000Y-82511000D03*
%TD*%
D17*
%TO.P,J9,1,VCC_1*%
%TO.N,+24V_prot*%
X133460000Y-49350000D03*
D18*
%TO.P,J9,2,LED_DOUT_2*%
%TO.N,unconnected-(J9-LED_DOUT-Pad2)*%
X133460000Y-51890000D03*
%TO.P,J9,3,UART0_TX_3*%
%TO.N,unconnected-(J9-UART0_TX-Pad3)*%
X133460000Y-54430000D03*
%TO.P,J9,4,UART0_RX_4*%
%TO.N,unconnected-(J9-UART0_RX-Pad4)*%
X133460000Y-56970000D03*
%TO.P,J9,5,UART1_TX_5*%
%TO.N,/UART1_TX*%
X133460000Y-59510000D03*
%TO.P,J9,6,UART1_RX_6*%
%TO.N,/UART1_RX*%
X133460000Y-62050000D03*
%TO.P,J9,7,CAN_H_7*%
%TO.N,/CAN_H+*%
X133460000Y-64590000D03*
%TO.P,J9,8,CAN_L_8*%
%TO.N,/CAN_L-*%
X133460000Y-67130000D03*
%TO.P,J9,9,A1_9*%
%TO.N,unconnected-(J9-A1-Pad9)*%
X133460000Y-69670000D03*
%TO.P,J9,10,A2_10*%
%TO.N,unconnected-(J9-A2-Pad10)*%
X133460000Y-72210000D03*
%TO.P,J9,11,A3_11*%
%TO.N,unconnected-(J9-A3-Pad11)*%
X133460000Y-74750000D03*
%TO.P,J9,12,A4_12*%
%TO.N,unconnected-(J9-A4-Pad12)*%
X133460000Y-77290000D03*
%TO.P,J9,13,A5_13*%
%TO.N,unconnected-(J9-A5-Pad13)*%
X133460000Y-79830000D03*
%TO.P,J9,14,A6_14*%
%TO.N,unconnected-(J9-A6-Pad14)*%
X133460000Y-82370000D03*
%TO.P,J9,15,A7_15*%
%TO.N,/MOT_ISNS*%
X133460000Y-84910000D03*
%TO.P,J9,16,A8_16*%
%TO.N,/MOT_I_LIM*%
X133460000Y-87450000D03*
%TO.P,J9,17,A9_17*%
%TO.N,unconnected-(J9-A9-Pad17)*%
X133460000Y-89990000D03*
%TO.P,J9,18,A10_18*%
%TO.N,/AUX0*%
X133460000Y-92530000D03*
%TO.P,J9,19,IO12_19*%
%TO.N,/AUX1*%
X133460000Y-95070000D03*
%TO.P,J9,20,GND_20*%
%TO.N,GND*%
X133460000Y-97610000D03*
%TO.P,J9,21,3V3_21*%
%TO.N,+3V3*%
X174100000Y-97610000D03*
%TO.P,J9,22,IO13_22*%
%TO.N,unconnected-(J9-IO13-Pad22)*%
X174100000Y-95070000D03*
%TO.P,J9,23,IO14_23*%
%TO.N,/~{SHAFT_LIM0}*%
X174100000Y-92530000D03*
%TO.P,J9,24,IO21_24*%
%TO.N,/~{SHAFT_LIM1}*%
X174100000Y-89990000D03*
%TO.P,J9,25,IO47_25*%
%TO.N,/~{SHAFT_FAULT}*%
X174100000Y-87450000D03*
%TO.P,J9,26,IO48_26*%
%TO.N,/SHAFT_DIR*%
X174100000Y-84910000D03*
%TO.P,J9,27,IO45_27*%
%TO.N,/SHAFT_STEP*%
X174100000Y-82370000D03*
%TO.P,J9,28,IO37_28*%
%TO.N,/~{SHAFT_SLP}*%
X174100000Y-79830000D03*
%TO.P,J9,29,IO38_29*%
%TO.N,/~{SHAFT_RST}*%
X174100000Y-77290000D03*
%TO.P,J9,30,IO39_30*%
%TO.N,/~{SHAFT_EN}*%
X174100000Y-74750000D03*
%TO.P,J9,31,IO40_31*%
%TO.N,/DRL_I_LIM*%
X174100000Y-72210000D03*
%TO.P,J9,32,IO41_32*%
%TO.N,/~{DRL_FAULT}*%
X174100000Y-69670000D03*
%TO.P,J9,33,IO42_33*%
%TO.N,/~{DRL_SLEEP}*%
X174100000Y-67130000D03*
%TO.P,J9,34,IO16_34*%
%TO.N,/DRL_IN2*%
X174100000Y-64590000D03*
%TO.P,J9,35,IO15_35*%
%TO.N,/DRL_IN1*%
X174100000Y-62050000D03*
%TO.P,J9,36,CAN_RX_36*%
%TO.N,unconnected-(J9-CAN_RX-Pad36)*%
X174100000Y-59510000D03*
%TO.P,J9,37,CAN_TX_37*%
%TO.N,unconnected-(J9-CAN_TX-Pad37)*%
X174100000Y-56970000D03*
%TO.P,J9,38,I2C_SDA_38*%
%TO.N,/I2C_SDA*%
X174100000Y-54430000D03*
%TO.P,J9,39,I2C_SCK_39*%
%TO.N,/I2C_SCK*%
X174100000Y-51890000D03*
D17*
%TO.P,J9,40,GND_40*%
%TO.N,GND*%
X174100000Y-49350000D03*
%TD*%
D13*
%TO.P,24V_TP1,1,1_1*%
%TO.N,+24V_prot*%
X170650000Y-42910000D03*
%TD*%
D17*
%TO.P,J10,1,1_1*%
%TO.N,/CAN_L-*%
X185104248Y-47127500D03*
D19*
%TO.P,J10,2,2_2*%
%TO.N,/CAN_H+*%
X185754248Y-49077500D03*
%TO.P,J10,3,3_3*%
%TO.N,/CAN_L-*%
X188404248Y-47127500D03*
%TO.P,J10,4,4_4*%
%TO.N,/CAN_H+*%
X187754248Y-49077500D03*
D20*
%TO.P,J10,S1,SHIELD_S1*%
%TO.N,GND*%
X193004248Y-47627500D03*
%TO.P,J10,S2,SHIELD__1_S2*%
X180504248Y-47627500D03*
%TD*%
D10*
%TO.P,J14,1,Pin_1_1*%
%TO.N,GND*%
X172305000Y-103600000D03*
%TO.P,J14,2,Pin_2_2*%
%TO.N,Net-(J14-Pin_2)*%
X168495000Y-103600000D03*
%TD*%
D21*
%TO.P,J1,1,Pin_1_1*%
%TO.N,GND*%
X201130000Y-53090000D03*
D22*
%TO.P,J1,2,Pin_2_2*%
%TO.N,+24V_unprot*%
X212029998Y-53090000D03*
D23*
%TO.P,J1,MP*%
%TO.N,N/C*%
X197130000Y-43690000D03*
X216030000Y-43690000D03*
%TD*%
D11*
%TO.P,H2,1,1_1*%
%TO.N,GND*%
X129600000Y-107350000D03*
X130302944Y-105652944D03*
X130302944Y-109047056D03*
X132000000Y-104950000D03*
D12*
X132000000Y-107350000D03*
D11*
X132000000Y-109750000D03*
X133697056Y-105652944D03*
X133697056Y-109047056D03*
X134400000Y-107350000D03*
%TD*%
D10*
%TO.P,J3,1*%
%TO.N,+24V_prot*%
X206945459Y-103661000D03*
%TO.P,J3,2*%
%TO.N,/AUX1*%
X203135459Y-103661000D03*
%TO.P,J3,3*%
%TO.N,GND*%
X199323655Y-103662175D03*
%TD*%
D24*
%TO.P,J2,*%
%TO.N,*%
X219260000Y-69820000D03*
X219260000Y-80820000D03*
D25*
%TO.P,J2,1,Pin_1_1*%
%TO.N,GND*%
X214260000Y-72820000D03*
D26*
%TO.P,J2,2,Pin_2_2*%
%TO.N,+24V_prot*%
X214260000Y-77820000D03*
%TD*%
D11*
%TO.P,H1,1,1_1*%
%TO.N,GND*%
X129600000Y-42350000D03*
X130302944Y-40652944D03*
X130302944Y-44047056D03*
X132000000Y-39950000D03*
D12*
X132000000Y-42350000D03*
D11*
X132000000Y-44750000D03*
X133697056Y-40652944D03*
X133697056Y-44047056D03*
X134400000Y-42350000D03*
%TD*%
D10*
%TO.P,J6,1,Pin_1_1*%
%TO.N,/120W H-Bridge/MOTOR+*%
X217755000Y-103600000D03*
%TO.P,J6,2,Pin_2_2*%
%TO.N,/120W H-Bridge/MOTOR-*%
X213945000Y-103600000D03*
%TD*%
D27*
%TO.N,GND*%
X177170000Y-96920000D03*
X178380000Y-96920000D03*
X177000000Y-92230000D03*
X178450000Y-93400000D03*
X177000000Y-93400000D03*
X190704000Y-106500000D03*
X183680000Y-106500000D03*
X192460000Y-106500000D03*
X185436000Y-106500000D03*
X188948000Y-106500000D03*
X187192000Y-106500000D03*
X197708000Y-108500000D03*
X178392000Y-108500000D03*
X185416000Y-108500000D03*
X217244000Y-108500000D03*
X169612000Y-108500000D03*
X171368000Y-108500000D03*
X180148000Y-108500000D03*
X195952000Y-108500000D03*
X188928000Y-108500000D03*
X211988000Y-108500000D03*
X174880000Y-108500000D03*
X187172000Y-108500000D03*
X176636000Y-108500000D03*
X173124000Y-108500000D03*
X183660000Y-108500000D03*
X194196000Y-108500000D03*
X201220000Y-108500000D03*
X181904000Y-108500000D03*
X166100000Y-108500000D03*
X199464000Y-108500000D03*
X219000000Y-108500000D03*
X210000000Y-108500000D03*
X215500000Y-108500000D03*
X208244000Y-108500000D03*
X213744000Y-108500000D03*
X204732000Y-108500000D03*
X192440000Y-108500000D03*
X206488000Y-108500000D03*
X167856000Y-108500000D03*
X190684000Y-108500000D03*
X202976000Y-108500000D03*
D28*
X215630000Y-87760000D03*
X216320000Y-87760000D03*
X217010000Y-87760000D03*
X200890000Y-87840000D03*
D27*
%TO.N,/~{SHAFT_LIM1}*%
X152900000Y-96300000D03*
%TO.N,GND*%
X205375000Y-41000000D03*
X195000000Y-89916667D03*
X207575000Y-99500000D03*
D28*
X158400000Y-104500000D03*
D27*
X202387500Y-95600000D03*
X143825000Y-82000000D03*
D28*
X214800000Y-90960000D03*
D27*
X171500000Y-55500000D03*
X168240000Y-65911667D03*
X225500000Y-81016667D03*
X153950000Y-72555713D03*
X225500000Y-84500000D03*
X225500000Y-75791667D03*
X138000000Y-85083333D03*
X171500000Y-59916667D03*
D28*
X159700000Y-104500000D03*
D27*
X207583333Y-41000000D03*
X171500000Y-62125000D03*
X171500000Y-66541667D03*
X225500000Y-67083334D03*
X196630000Y-74810000D03*
D28*
X146000000Y-109500000D03*
D27*
X183875000Y-41000000D03*
X163500000Y-97000000D03*
X225500000Y-72308334D03*
X171500000Y-64333333D03*
D28*
X198670000Y-57860000D03*
D27*
X159500000Y-82000000D03*
X144916667Y-43500000D03*
X145566667Y-82000000D03*
X207575000Y-97600000D03*
D28*
X197850000Y-98540000D03*
D27*
X137791667Y-49000000D03*
X171500000Y-68750000D03*
X152950000Y-43500000D03*
D28*
X196534437Y-100582405D03*
D27*
X130500000Y-81375000D03*
X151050000Y-72555713D03*
D28*
X198124200Y-63399500D03*
D27*
X147308333Y-82000000D03*
X138000000Y-65208333D03*
X225500000Y-61758334D03*
X193000000Y-89916667D03*
X186375000Y-41000000D03*
X177355000Y-86171000D03*
X142208333Y-63000000D03*
X143175000Y-43500000D03*
X168240000Y-63703334D03*
X130500000Y-88000000D03*
X138000000Y-67416667D03*
X145450000Y-72555713D03*
X130500000Y-95291666D03*
D28*
X214800000Y-89580000D03*
D27*
X152533333Y-82000000D03*
X130500000Y-85791666D03*
X181666667Y-41000000D03*
X171500000Y-75375000D03*
D28*
X159050000Y-104500000D03*
D27*
X165158333Y-82000000D03*
X193000000Y-41000000D03*
X155400000Y-72555713D03*
X130500000Y-83583333D03*
X163416667Y-82000000D03*
X225500000Y-54791667D03*
X148350000Y-72555713D03*
X176000000Y-80500000D03*
X188583333Y-41000000D03*
X156875000Y-97000000D03*
X138000000Y-69625000D03*
X137950000Y-43500000D03*
D28*
X156950000Y-104500000D03*
D27*
X195000000Y-87708334D03*
X225500000Y-58275000D03*
X138000000Y-63000000D03*
D28*
X201250000Y-92370000D03*
D27*
X166900000Y-82000000D03*
X177355000Y-87621000D03*
X156016667Y-82000000D03*
X188124200Y-66549500D03*
X141433333Y-43500000D03*
X157250000Y-72555713D03*
X225500000Y-97158333D03*
X136000000Y-58500000D03*
X171500000Y-79791667D03*
D28*
X196557895Y-98553233D03*
D27*
X140000000Y-63000000D03*
D28*
X210460000Y-89150000D03*
X209760000Y-87700000D03*
D27*
X209791667Y-41000000D03*
D28*
X208460000Y-87700000D03*
D27*
X150791667Y-82000000D03*
D28*
X210460000Y-89800000D03*
D27*
X195000000Y-92125000D03*
X168240000Y-61495000D03*
D28*
X157700000Y-104500000D03*
X149375000Y-109500000D03*
D27*
X138000000Y-71833333D03*
X212000000Y-41000000D03*
D28*
X201900000Y-92370000D03*
D27*
X202337500Y-93900000D03*
D28*
X210460000Y-87700000D03*
D27*
X154275000Y-82000000D03*
X171500000Y-53000000D03*
X168240000Y-57078334D03*
D28*
X200570000Y-57860000D03*
X147125000Y-109500000D03*
D27*
X177500000Y-78500000D03*
X225500000Y-79275000D03*
X130500000Y-72375000D03*
X157758333Y-82000000D03*
X223150000Y-100550000D03*
X171500000Y-77583333D03*
D28*
X148250000Y-109500000D03*
D27*
X140000000Y-54500000D03*
X171500000Y-70958333D03*
X225500000Y-86241667D03*
X149050000Y-82000000D03*
X186583333Y-87500000D03*
X158175000Y-43500000D03*
X225500000Y-74050000D03*
X200666667Y-41000000D03*
X138000000Y-78458333D03*
X138000000Y-87291667D03*
X137791667Y-51000000D03*
X225500000Y-70566667D03*
X152500000Y-72555713D03*
X161658333Y-43500000D03*
X168240000Y-68120000D03*
X146900000Y-72555713D03*
X187674200Y-70549500D03*
X225500000Y-88450000D03*
D28*
X197840000Y-100550000D03*
D27*
X190791667Y-41000000D03*
X187674200Y-71249500D03*
X163500000Y-43500000D03*
X138000000Y-82875000D03*
X193000000Y-87708334D03*
D28*
X209110000Y-87700000D03*
D27*
X221550000Y-100600000D03*
X168240000Y-54870000D03*
X130500000Y-97500000D03*
X159916667Y-43500000D03*
X161291666Y-97000000D03*
X168240000Y-70328334D03*
X170450000Y-99237500D03*
X225500000Y-95416667D03*
X149800000Y-72555713D03*
D28*
X140550000Y-107600000D03*
D27*
X159083333Y-97000000D03*
X186024200Y-69149500D03*
D28*
X210460000Y-88450000D03*
X210460000Y-90450000D03*
D27*
X225500000Y-68825000D03*
X191000000Y-87500000D03*
X191000000Y-85500000D03*
X225500000Y-82758334D03*
X192124200Y-72299500D03*
X171500000Y-57708333D03*
X225500000Y-77533334D03*
X188791666Y-85500000D03*
X193000000Y-85500000D03*
X139691667Y-43500000D03*
X158700000Y-72555713D03*
X140000000Y-51000000D03*
D28*
X214850000Y-91650000D03*
D27*
X163000000Y-72555713D03*
X140000000Y-49000000D03*
X130500000Y-74583333D03*
X168240000Y-52661667D03*
X225500000Y-56533334D03*
X184375000Y-87500000D03*
X193000000Y-92125000D03*
X184014100Y-67899499D03*
X168240000Y-59286667D03*
X148500000Y-43500000D03*
X156433333Y-43500000D03*
X154691667Y-43500000D03*
X168240000Y-72536667D03*
D28*
X150500000Y-109500000D03*
X214800000Y-88200000D03*
D27*
X171500000Y-50791667D03*
X130500000Y-90875000D03*
X138000000Y-80666667D03*
X186583333Y-85500000D03*
X146658333Y-43500000D03*
X161600000Y-72555713D03*
X177355000Y-89071000D03*
X224278413Y-99408360D03*
X138000000Y-76250000D03*
X225500000Y-91933333D03*
X225500000Y-63500000D03*
X130500000Y-93083333D03*
X225500000Y-65341667D03*
D28*
X202550000Y-92370000D03*
D27*
X130500000Y-76791666D03*
X225500000Y-93675000D03*
X182805000Y-76421000D03*
X225500000Y-60016667D03*
X184375000Y-85500000D03*
X130500000Y-79000000D03*
X138000000Y-74041667D03*
X202875000Y-41000000D03*
X225500000Y-99000000D03*
X195000000Y-85500000D03*
X225500000Y-90191667D03*
D28*
X199620000Y-57860000D03*
X140550000Y-108350000D03*
D27*
X160150000Y-72555713D03*
X150050000Y-99350000D03*
X188791666Y-87500000D03*
X177355000Y-84721000D03*
%TO.N,Net-(U1-\u002ASHDN)*%
X193374200Y-66699500D03*
X188474200Y-62599499D03*
%TO.N,Net-(Q1-G)*%
X193375961Y-64116304D03*
X205024200Y-65749500D03*
X211474200Y-64099500D03*
%TO.N,/~{SHAFT_LIM0}*%
X167850000Y-94487500D03*
%TO.N,+3V3*%
X176220000Y-50350000D03*
X151900000Y-99400000D03*
X171350000Y-99200000D03*
X186037500Y-78071000D03*
X224370000Y-89300000D03*
X193524200Y-73649500D03*
X191702001Y-77967999D03*
X188955000Y-77971000D03*
%TO.N,Net-(U1-VOUT)*%
X193474200Y-65649500D03*
X196974200Y-73699500D03*
%TO.N,Net-(U1-SENSE)*%
X193896649Y-64584154D03*
X196924200Y-69449500D03*
%TO.N,/I2C_SDA*%
X187723860Y-72032881D03*
%TO.N,/I2C_SCK*%
X186980000Y-71532881D03*
%TO.N,/MOT_ISNS*%
X212000000Y-97475003D03*
%TO.N,/DRL_IN1*%
X212108166Y-93878755D03*
%TO.N,/DRL_IN2*%
X212054406Y-94676949D03*
%TO.N,/~{DRL_SLEEP}*%
X212044958Y-95476896D03*
%TO.N,/~{DRL_FAULT}*%
X212050000Y-96350000D03*
X146800000Y-95400000D03*
%TO.N,Net-(JP1-C)*%
X220860000Y-88010000D03*
X219360000Y-93340000D03*
%TO.N,/~{SHAFT_FAULT}*%
X146800000Y-96350000D03*
%TO.N,/DRL_I_LIM*%
X207470000Y-95850000D03*
D28*
%TO.N,GND*%
X214800000Y-90270000D03*
X214800000Y-88890000D03*
%TD*%
%TO.N,/AUX1*%
D29*
X133460000Y-95070000D02*
X145730000Y-107340000D01*
X145730000Y-107340000D02*
X199456459Y-107340000D01*
X199456459Y-107340000D02*
X203135459Y-103661000D01*
%TO.N,/CAN_H+*%
X184321748Y-50510000D02*
X179170000Y-50510000D01*
X158440958Y-46950000D02*
X158128850Y-46950000D01*
X185754248Y-49077500D02*
X184321748Y-50510000D01*
X154984904Y-47093946D02*
G75*
G03*
X154840958Y-46949996I-143904J46D01*
G01*
X148984856Y-47093994D02*
G75*
G03*
X148840862Y-46950044I-143956J-6D01*
G01*
X150184904Y-47093946D02*
G75*
G03*
X150040958Y-46949996I-143904J46D01*
G01*
X151384857Y-47093993D02*
G75*
G03*
X151240864Y-46950043I-143957J-7D01*
G01*
X163984904Y-47093946D02*
G75*
G02*
X163840958Y-47237804I-143904J46D01*
G01*
X149584856Y-47093994D02*
G75*
G02*
X149440862Y-47237956I-143956J-6D01*
G01*
X150784904Y-47093946D02*
G75*
G02*
X150640958Y-47237804I-143904J46D01*
G01*
X150328850Y-47237892D02*
G75*
G02*
X150184908Y-47093946I50J143992D01*
G01*
X149128850Y-47237988D02*
G75*
G02*
X148984912Y-47093994I50J143988D01*
G01*
X150928850Y-46950000D02*
G75*
G03*
X150785000Y-47093946I50J-143900D01*
G01*
X149728850Y-46950000D02*
G75*
G03*
X149584900Y-47093994I50J-144000D01*
G01*
X179170000Y-50510000D02*
X175610000Y-46950000D01*
X152128850Y-46950000D02*
G75*
G03*
X151984900Y-47093993I50J-144000D01*
G01*
X160240958Y-47237892D02*
X159928850Y-47237892D01*
X152584857Y-47093993D02*
G75*
G03*
X152440864Y-46950043I-143957J-7D01*
G01*
X153328850Y-46950000D02*
G75*
G03*
X153184900Y-47093993I50J-144000D01*
G01*
X159040958Y-47237892D02*
X158728850Y-47237892D01*
X153784857Y-47093993D02*
G75*
G03*
X153640864Y-46950043I-143957J-7D01*
G01*
X149440862Y-47237988D02*
X149128850Y-47237988D01*
X154528850Y-46950000D02*
G75*
G03*
X154384900Y-47093993I50J-144000D01*
G01*
X162040958Y-46950000D02*
X161728850Y-46950000D01*
X156328850Y-47237892D02*
G75*
G02*
X156184908Y-47093946I50J143992D01*
G01*
X161728850Y-46950000D02*
G75*
G03*
X161585000Y-47093946I50J-143900D01*
G01*
X159784904Y-47093946D02*
G75*
G03*
X159640958Y-46949996I-143904J46D01*
G01*
X153184857Y-47093993D02*
G75*
G02*
X153040864Y-47237957I-143957J-7D01*
G01*
X164128850Y-46950000D02*
G75*
G03*
X163985000Y-47093946I50J-143900D01*
G01*
X175610000Y-46950000D02*
X165328850Y-46950000D01*
X156184904Y-47093946D02*
G75*
G03*
X156040958Y-46949996I-143904J46D01*
G01*
X162328850Y-47237892D02*
G75*
G02*
X162184908Y-47093946I50J143992D01*
G01*
X150640958Y-47237892D02*
X150328850Y-47237892D01*
X159328850Y-46950000D02*
G75*
G03*
X159185000Y-47093946I50J-143900D01*
G01*
X163384904Y-47093946D02*
G75*
G03*
X163240958Y-46949996I-143904J46D01*
G01*
X156784904Y-47093946D02*
G75*
G02*
X156640958Y-47237804I-143904J46D01*
G01*
X152728850Y-47237986D02*
G75*
G02*
X152584914Y-47093993I50J143986D01*
G01*
X131450000Y-48050000D02*
X131450000Y-62580000D01*
X155728850Y-46950000D02*
G75*
G03*
X155585000Y-47093946I50J-143900D01*
G01*
X160528850Y-46950000D02*
G75*
G03*
X160385000Y-47093946I50J-143900D01*
G01*
X164584904Y-47093946D02*
G75*
G03*
X164440958Y-46949996I-143904J46D01*
G01*
X165328850Y-46950000D02*
G75*
G03*
X165185000Y-47093946I50J-143900D01*
G01*
X159928850Y-47237892D02*
G75*
G02*
X159784908Y-47093946I50J143992D01*
G01*
X161584904Y-47093946D02*
G75*
G02*
X161440958Y-47237804I-143904J46D01*
G01*
X155128850Y-47237892D02*
G75*
G02*
X154984908Y-47093946I50J143992D01*
G01*
X161128850Y-47237892D02*
G75*
G02*
X160984908Y-47093946I50J143992D01*
G01*
X164728850Y-47237892D02*
G75*
G02*
X164584908Y-47093946I50J143992D01*
G01*
X163528850Y-47237892D02*
G75*
G02*
X163384908Y-47093946I50J143992D01*
G01*
X160384904Y-47093946D02*
G75*
G02*
X160240958Y-47237804I-143904J46D01*
G01*
X158584904Y-47093946D02*
G75*
G03*
X158440958Y-46949996I-143904J46D01*
G01*
X162784904Y-47093946D02*
G75*
G02*
X162640958Y-47237804I-143904J46D01*
G01*
X156640958Y-47237892D02*
X156328850Y-47237892D01*
X159184904Y-47093946D02*
G75*
G02*
X159040958Y-47237804I-143904J46D01*
G01*
X155584904Y-47093946D02*
G75*
G02*
X155440958Y-47237804I-143904J46D01*
G01*
X158128850Y-46950000D02*
G75*
G03*
X157985000Y-47093946I50J-143900D01*
G01*
X162184904Y-47093946D02*
G75*
G03*
X162040958Y-46949996I-143904J46D01*
G01*
X158728850Y-47237892D02*
G75*
G02*
X158584908Y-47093946I50J143992D01*
G01*
X165184904Y-47093946D02*
G75*
G02*
X165040958Y-47237804I-143904J46D01*
G01*
X153928850Y-47237986D02*
G75*
G02*
X153784914Y-47093993I50J143986D01*
G01*
X151984857Y-47093993D02*
G75*
G02*
X151840864Y-47237957I-143957J-7D01*
G01*
X160984904Y-47093946D02*
G75*
G03*
X160840958Y-46949996I-143904J46D01*
G01*
X151528850Y-47237986D02*
G75*
G02*
X151384914Y-47093993I50J143986D01*
G01*
X151840864Y-47237986D02*
X151528850Y-47237986D01*
X165040958Y-47237892D02*
X164728850Y-47237892D01*
X164440958Y-46950000D02*
X164128850Y-46950000D01*
X163840958Y-47237892D02*
X163528850Y-47237892D01*
X163240958Y-46950000D02*
X162928850Y-46950000D01*
X162640958Y-47237892D02*
X162328850Y-47237892D01*
X161440958Y-47237892D02*
X161128850Y-47237892D01*
X160840958Y-46950000D02*
X160528850Y-46950000D01*
X159640958Y-46950000D02*
X159328850Y-46950000D01*
X153040864Y-47237986D02*
X152728850Y-47237986D01*
X157840958Y-47237892D02*
X157528850Y-47237892D01*
X157240958Y-46950000D02*
X156928850Y-46950000D01*
X156040958Y-46950000D02*
X155728850Y-46950000D01*
X131450000Y-62580000D02*
X133460000Y-64590000D01*
X155440958Y-47237892D02*
X155128850Y-47237892D01*
X150040958Y-46950000D02*
X149728850Y-46950000D01*
X154840958Y-46950000D02*
X154528850Y-46950000D01*
X154240864Y-47237986D02*
X153928850Y-47237986D01*
X153640864Y-46950000D02*
X153328850Y-46950000D01*
X151240864Y-46950000D02*
X150928850Y-46950000D01*
X152440864Y-46950000D02*
X152128850Y-46950000D01*
X148840862Y-46950000D02*
X148528850Y-46950000D01*
X148528850Y-46950000D02*
X148310000Y-46950000D01*
X148310000Y-46950000D02*
X132550000Y-46950000D01*
X132550000Y-46950000D02*
X131450000Y-48050000D01*
X157384904Y-47093946D02*
G75*
G03*
X157240958Y-46949996I-143904J46D01*
G01*
X157984904Y-47093946D02*
G75*
G02*
X157840958Y-47237804I-143904J46D01*
G01*
X157528850Y-47237892D02*
G75*
G02*
X157384908Y-47093946I50J143992D01*
G01*
X156928850Y-46950000D02*
G75*
G03*
X156785000Y-47093946I50J-143900D01*
G01*
X154384857Y-47093993D02*
G75*
G02*
X154240864Y-47237957I-143957J-7D01*
G01*
X162928850Y-46950000D02*
G75*
G03*
X162785000Y-47093946I50J-143900D01*
G01*
%TO.N,/UART1_TX*%
X220210000Y-57750000D02*
X219870000Y-57410000D01*
X219870000Y-57410000D02*
X185340000Y-57410000D01*
X185340000Y-57410000D02*
X175490000Y-47560000D01*
X175490000Y-47560000D02*
X145410000Y-47560000D01*
X145410000Y-47560000D02*
X133460000Y-59510000D01*
%TO.N,/CAN_L-*%
X185104248Y-47127500D02*
X182396248Y-49835500D01*
X132200000Y-46500000D02*
X131050000Y-47650000D01*
X182396248Y-49835500D02*
X178919764Y-49835500D01*
X178919764Y-49835500D02*
X175584264Y-46500000D01*
X175584264Y-46500000D02*
X132200000Y-46500000D01*
X131050000Y-64720000D02*
X133460000Y-67130000D01*
X131050000Y-47650000D02*
X131050000Y-64720000D01*
%TO.N,/~{SHAFT_LIM1}*%
X159210000Y-89990000D02*
X174100000Y-89990000D01*
X152900000Y-96300000D02*
X159210000Y-89990000D01*
%TO.N,Net-(U1-\u002ASHDN)*%
X189254891Y-62599499D02*
X188474200Y-62599499D01*
X193374200Y-66699500D02*
X193354892Y-66699500D01*
X193354892Y-66699500D02*
X189254891Y-62599499D01*
%TO.N,Net-(Q1-G)*%
X211224201Y-64349499D02*
X211474200Y-64099500D01*
X203624199Y-64349499D02*
X205024200Y-65749500D01*
X193375961Y-64116304D02*
X193657396Y-64116304D01*
X193657396Y-64116304D02*
X193689545Y-64084155D01*
X203358855Y-64084155D02*
X203624199Y-64349499D01*
X193689545Y-64084155D02*
X203358855Y-64084155D01*
X203624199Y-64349499D02*
X211224201Y-64349499D01*
%TO.N,/~{SHAFT_LIM0}*%
X167850000Y-94487500D02*
X169737500Y-92600000D01*
X169737500Y-92600000D02*
X174030000Y-92600000D01*
X174030000Y-92600000D02*
X174100000Y-92530000D01*
%TO.N,Net-(U1-VOUT)*%
X196274200Y-72999500D02*
X196274200Y-67999500D01*
X193724200Y-65449500D02*
X193524200Y-65449500D01*
X196974200Y-73699500D02*
X196274200Y-72999500D01*
X196274200Y-67999500D02*
X193724200Y-65449500D01*
%TO.N,/UART1_RX*%
X133460000Y-62050000D02*
X147460000Y-48050000D01*
X188760000Y-61560000D02*
X220210000Y-61560000D01*
X147460000Y-48050000D02*
X175250000Y-48050000D01*
X175250000Y-48050000D02*
X188760000Y-61560000D01*
%TO.N,Net-(U1-SENSE)*%
X194111997Y-64799500D02*
X196924200Y-67611703D01*
X196924200Y-67611703D02*
X196924200Y-69449500D01*
%TO.N,/I2C_SDA*%
X176270000Y-61740000D02*
X176270000Y-56600000D01*
X176270000Y-56600000D02*
X174100000Y-54430000D01*
X186562881Y-72032881D02*
X176270000Y-61740000D01*
X187723860Y-72032881D02*
X186562881Y-72032881D01*
%TO.N,/I2C_SCK*%
X176830000Y-61600000D02*
X176830000Y-54620000D01*
X186980000Y-71532881D02*
X186762881Y-71532881D01*
X186762881Y-71532881D02*
X176830000Y-61600000D01*
X176830000Y-54620000D02*
X174100000Y-51890000D01*
X174100000Y-52300000D02*
X174100000Y-51890000D01*
%TO.N,/MOT_ISNS*%
X150340000Y-101790000D02*
X133460000Y-84910000D01*
X207685003Y-101790000D02*
X150340000Y-101790000D01*
X212000000Y-97475003D02*
X207685003Y-101790000D01*
%TO.N,/DRL_IN1*%
X191401721Y-73600000D02*
X185220000Y-73600000D01*
X212108166Y-93878755D02*
X211680476Y-93878755D01*
X211680476Y-93878755D02*
X191401721Y-73600000D01*
X185220000Y-73600000D02*
X174100000Y-62480000D01*
X174100000Y-62480000D02*
X174100000Y-62050000D01*
%TO.N,/DRL_IN2*%
X191527457Y-74150000D02*
X185050000Y-74150000D01*
X185050000Y-74150000D02*
X175490000Y-64590000D01*
X175490000Y-64590000D02*
X174100000Y-64590000D01*
X212054406Y-94676949D02*
X191527457Y-74150000D01*
%TO.N,/~{DRL_SLEEP}*%
X212006896Y-95476896D02*
X191000000Y-74470000D01*
X212044958Y-95476896D02*
X212006896Y-95476896D01*
X181440000Y-74470000D02*
X174100000Y-67130000D01*
X191000000Y-74470000D02*
X181440000Y-74470000D01*
%TO.N,/~{DRL_FAULT}*%
X149560000Y-94210000D02*
X174100000Y-69670000D01*
X147970000Y-94210000D02*
X149560000Y-94210000D01*
X179380000Y-74950000D02*
X174100000Y-69670000D01*
X146800000Y-95380000D02*
X147970000Y-94210000D01*
X190650000Y-74950000D02*
X179380000Y-74950000D01*
X146800000Y-95400000D02*
X146800000Y-95380000D01*
X212050000Y-96350000D02*
X190650000Y-74950000D01*
%TO.N,Net-(JP1-C)*%
X220860000Y-91840000D02*
X220860000Y-88010000D01*
X219360000Y-93340000D02*
X220860000Y-91840000D01*
%TO.N,/~{SHAFT_FAULT}*%
X150200000Y-96350000D02*
X159100000Y-87450000D01*
X159100000Y-87450000D02*
X174100000Y-87450000D01*
X174100000Y-87450000D02*
X180305000Y-93655000D01*
X146800000Y-96350000D02*
X150200000Y-96350000D01*
X180305000Y-93655000D02*
X180305000Y-95211000D01*
%TO.N,/~{SHAFT_EN}*%
X195537893Y-82511000D02*
X195545000Y-82511000D01*
X188936893Y-75910000D02*
X195537893Y-82511000D01*
X174100000Y-74750000D02*
X175260000Y-75910000D01*
X175260000Y-75910000D02*
X188936893Y-75910000D01*
%TO.N,/~{SHAFT_RST}*%
X180374000Y-77500000D02*
X185385000Y-82511000D01*
X174310000Y-77500000D02*
X180374000Y-77500000D01*
X174100000Y-77290000D02*
X174310000Y-77500000D01*
%TO.N,/~{SHAFT_SLP}*%
X180164000Y-79830000D02*
X182845000Y-82511000D01*
X174100000Y-79830000D02*
X180164000Y-79830000D01*
%TO.N,/SHAFT_STEP*%
X174100000Y-82370000D02*
X174959000Y-81511000D01*
X179305000Y-81511000D02*
X180305000Y-82511000D01*
X174959000Y-81511000D02*
X179305000Y-81511000D01*
%TO.N,/SHAFT_DIR*%
X174100000Y-84910000D02*
X176499000Y-82511000D01*
X176499000Y-82511000D02*
X177765000Y-82511000D01*
%TO.N,/CAN_H+*%
X185754248Y-49077500D02*
X187754248Y-49077500D01*
%TO.N,/CAN_L-*%
X188404248Y-47127500D02*
X185104248Y-47127500D01*
%TO.N,/DRL_I_LIM*%
X189898214Y-75450000D02*
X177340000Y-75450000D01*
X203650000Y-92030000D02*
X203650000Y-89201786D01*
X203650000Y-89201786D02*
X189898214Y-75450000D01*
X207470000Y-95850000D02*
X203650000Y-92030000D01*
X177340000Y-75450000D02*
X174100000Y-72210000D01*
%TD*%
%TA.AperFunction,Conductor*%
%TO.N,GND*%
G36*
X135015703Y-87315384D02*
G01*
X135022181Y-87321416D01*
X149855139Y-102154374D01*
X149855149Y-102154385D01*
X149859479Y-102158715D01*
X149859480Y-102158716D01*
X149971284Y-102270520D01*
X150057853Y-102320500D01*
X150108215Y-102349577D01*
X150260943Y-102390501D01*
X150260946Y-102390501D01*
X150426653Y-102390501D01*
X150426669Y-102390500D01*
X167152062Y-102390500D01*
X167219101Y-102410185D01*
X167264856Y-102462989D01*
X167274800Y-102532147D01*
X167252380Y-102587385D01*
X167126132Y-102761151D01*
X167011760Y-102985616D01*
X166933910Y-103225214D01*
X166894500Y-103474038D01*
X166894500Y-103725961D01*
X166933910Y-103974785D01*
X167011760Y-104214383D01*
X167085879Y-104359848D01*
X167111355Y-104409848D01*
X167126132Y-104438848D01*
X167274201Y-104642649D01*
X167274205Y-104642654D01*
X167452345Y-104820794D01*
X167452350Y-104820798D01*
X167616236Y-104939867D01*
X167656155Y-104968870D01*
X167799184Y-105041747D01*
X167880616Y-105083239D01*
X167880618Y-105083239D01*
X167880621Y-105083241D01*
X168120215Y-105161090D01*
X168369038Y-105200500D01*
X168369039Y-105200500D01*
X168620961Y-105200500D01*
X168620962Y-105200500D01*
X168869785Y-105161090D01*
X169109379Y-105083241D01*
X169333845Y-104968870D01*
X169537656Y-104820793D01*
X169715793Y-104642656D01*
X169863870Y-104438845D01*
X169978241Y-104214379D01*
X170056090Y-103974785D01*
X170095500Y-103725962D01*
X170095500Y-103474038D01*
X170056090Y-103225215D01*
X169978241Y-102985621D01*
X169978239Y-102985618D01*
X169978239Y-102985616D01*
X169936747Y-102904184D01*
X169863870Y-102761155D01*
X169842797Y-102732151D01*
X169737620Y-102587385D01*
X169714140Y-102521579D01*
X169729966Y-102453525D01*
X169780071Y-102404830D01*
X169837938Y-102390500D01*
X177380992Y-102390500D01*
X177448031Y-102410185D01*
X177493786Y-102462989D01*
X177503730Y-102532147D01*
X177481310Y-102587385D01*
X177376132Y-102732151D01*
X177261760Y-102956616D01*
X177183910Y-103196214D01*
X177144500Y-103445038D01*
X177144500Y-103696961D01*
X177183910Y-103945785D01*
X177261760Y-104185383D01*
X177376132Y-104409848D01*
X177524201Y-104613649D01*
X177524205Y-104613654D01*
X177702345Y-104791794D01*
X177702350Y-104791798D01*
X177837336Y-104889870D01*
X177906155Y-104939870D01*
X178049184Y-105012747D01*
X178130616Y-105054239D01*
X178130618Y-105054239D01*
X178130621Y-105054241D01*
X178370215Y-105132090D01*
X178619038Y-105171500D01*
X178619039Y-105171500D01*
X178870961Y-105171500D01*
X178870962Y-105171500D01*
X179119785Y-105132090D01*
X179359379Y-105054241D01*
X179583845Y-104939870D01*
X179787656Y-104791793D01*
X179965793Y-104613656D01*
X180113870Y-104409845D01*
X180228241Y-104185379D01*
X180306090Y-103945785D01*
X180345500Y-103696962D01*
X180345500Y-103445038D01*
X180306090Y-103196215D01*
X180228241Y-102956621D01*
X180228239Y-102956618D01*
X180228239Y-102956616D01*
X180159725Y-102822151D01*
X180113870Y-102732155D01*
X180077543Y-102682155D01*
X180008690Y-102587385D01*
X179985210Y-102521579D01*
X180001036Y-102453525D01*
X180051142Y-102404830D01*
X180109008Y-102390500D01*
X181190992Y-102390500D01*
X181258031Y-102410185D01*
X181303786Y-102462989D01*
X181313730Y-102532147D01*
X181291310Y-102587385D01*
X181186132Y-102732151D01*
X181071760Y-102956616D01*
X180993910Y-103196214D01*
X180954500Y-103445038D01*
X180954500Y-103696961D01*
X180993910Y-103945785D01*
X181071760Y-104185383D01*
X181186132Y-104409848D01*
X181334201Y-104613649D01*
X181334205Y-104613654D01*
X181512345Y-104791794D01*
X181512350Y-104791798D01*
X181647336Y-104889870D01*
X181716155Y-104939870D01*
X181859184Y-105012747D01*
X181940616Y-105054239D01*
X181940618Y-105054239D01*
X181940621Y-105054241D01*
X182180215Y-105132090D01*
X182429038Y-105171500D01*
X182429039Y-105171500D01*
X182680961Y-105171500D01*
X182680962Y-105171500D01*
X182929785Y-105132090D01*
X183169379Y-105054241D01*
X183393845Y-104939870D01*
X183597656Y-104791793D01*
X183775793Y-104613656D01*
X183923870Y-104409845D01*
X184038241Y-104185379D01*
X184116090Y-103945785D01*
X184155500Y-103696962D01*
X184155500Y-103445038D01*
X184116090Y-103196215D01*
X184038241Y-102956621D01*
X184038239Y-102956618D01*
X184038239Y-102956616D01*
X183969725Y-102822151D01*
X183923870Y-102732155D01*
X183887543Y-102682155D01*
X183818690Y-102587385D01*
X183795210Y-102521579D01*
X183811036Y-102453525D01*
X183861142Y-102404830D01*
X183919008Y-102390500D01*
X187344665Y-102390500D01*
X187411704Y-102410185D01*
X187457459Y-102462989D01*
X187467403Y-102532147D01*
X187444983Y-102587385D01*
X187376132Y-102682150D01*
X187261760Y-102906616D01*
X187183910Y-103146214D01*
X187161736Y-103286214D01*
X187144500Y-103395038D01*
X187144500Y-103646962D01*
X187166674Y-103786961D01*
X187183910Y-103895785D01*
X187261760Y-104135383D01*
X187376132Y-104359848D01*
X187524201Y-104563649D01*
X187524205Y-104563654D01*
X187702345Y-104741794D01*
X187702350Y-104741798D01*
X187811085Y-104820798D01*
X187906155Y-104889870D01*
X188004280Y-104939867D01*
X188130616Y-105004239D01*
X188130618Y-105004239D01*
X188130621Y-105004241D01*
X188370215Y-105082090D01*
X188619038Y-105121500D01*
X188619039Y-105121500D01*
X188870961Y-105121500D01*
X188870962Y-105121500D01*
X189119785Y-105082090D01*
X189359379Y-105004241D01*
X189583845Y-104889870D01*
X189787656Y-104741793D01*
X189965793Y-104563656D01*
X190113870Y-104359845D01*
X190228241Y-104135379D01*
X190306090Y-103895785D01*
X190345500Y-103646962D01*
X190345500Y-103395038D01*
X190306090Y-103146215D01*
X190228241Y-102906621D01*
X190228239Y-102906618D01*
X190228239Y-102906616D01*
X190113867Y-102682150D01*
X190045017Y-102587385D01*
X190021537Y-102521578D01*
X190037363Y-102453525D01*
X190087469Y-102404830D01*
X190145335Y-102390500D01*
X191154665Y-102390500D01*
X191221704Y-102410185D01*
X191267459Y-102462989D01*
X191277403Y-102532147D01*
X191254983Y-102587385D01*
X191186132Y-102682150D01*
X191071760Y-102906616D01*
X190993910Y-103146214D01*
X190971736Y-103286214D01*
X190954500Y-103395038D01*
X190954500Y-103646962D01*
X190976674Y-103786961D01*
X190993910Y-103895785D01*
X191071760Y-104135383D01*
X191186132Y-104359848D01*
X191334201Y-104563649D01*
X191334205Y-104563654D01*
X191512345Y-104741794D01*
X191512350Y-104741798D01*
X191621085Y-104820798D01*
X191716155Y-104889870D01*
X191814280Y-104939867D01*
X191940616Y-105004239D01*
X191940618Y-105004239D01*
X191940621Y-105004241D01*
X192180215Y-105082090D01*
X192429038Y-105121500D01*
X192429039Y-105121500D01*
X192680961Y-105121500D01*
X192680962Y-105121500D01*
X192929785Y-105082090D01*
X193169379Y-105004241D01*
X193393845Y-104889870D01*
X193597656Y-104741793D01*
X193775793Y-104563656D01*
X193923870Y-104359845D01*
X194038241Y-104135379D01*
X194116090Y-103895785D01*
X194155500Y-103646962D01*
X194155500Y-103395038D01*
X194116090Y-103146215D01*
X194038241Y-102906621D01*
X194038239Y-102906618D01*
X194038239Y-102906616D01*
X193923867Y-102682150D01*
X193855017Y-102587385D01*
X193831537Y-102521578D01*
X193847363Y-102453525D01*
X193897469Y-102404830D01*
X193955335Y-102390500D01*
X201843148Y-102390500D01*
X201910187Y-102410185D01*
X201955942Y-102462989D01*
X201965886Y-102532147D01*
X201936861Y-102595703D01*
X201930829Y-102602181D01*
X201914664Y-102618345D01*
X201914660Y-102618350D01*
X201766591Y-102822151D01*
X201652219Y-103046616D01*
X201574369Y-103286214D01*
X201534959Y-103535038D01*
X201534959Y-103786961D01*
X201574369Y-104035786D01*
X201574369Y-104035789D01*
X201633549Y-104217923D01*
X201635544Y-104287764D01*
X201603299Y-104343922D01*
X199244043Y-106703181D01*
X199182720Y-106736666D01*
X199156362Y-106739500D01*
X146030097Y-106739500D01*
X145963058Y-106719815D01*
X145942416Y-106703181D01*
X142713273Y-103474038D01*
X146344500Y-103474038D01*
X146344500Y-103725961D01*
X146383910Y-103974785D01*
X146461760Y-104214383D01*
X146535879Y-104359848D01*
X146561355Y-104409848D01*
X146576132Y-104438848D01*
X146724201Y-104642649D01*
X146724205Y-104642654D01*
X146902345Y-104820794D01*
X146902350Y-104820798D01*
X147066236Y-104939867D01*
X147106155Y-104968870D01*
X147249184Y-105041747D01*
X147330616Y-105083239D01*
X147330618Y-105083239D01*
X147330621Y-105083241D01*
X147570215Y-105161090D01*
X147819038Y-105200500D01*
X147819039Y-105200500D01*
X148070961Y-105200500D01*
X148070962Y-105200500D01*
X148319785Y-105161090D01*
X148559379Y-105083241D01*
X148783845Y-104968870D01*
X148987656Y-104820793D01*
X149165793Y-104642656D01*
X149313870Y-104438845D01*
X149428241Y-104214379D01*
X149506090Y-103974785D01*
X149545500Y-103725962D01*
X149545500Y-103474038D01*
X149506090Y-103225215D01*
X149428241Y-102985621D01*
X149428239Y-102985618D01*
X149428239Y-102985616D01*
X149386747Y-102904184D01*
X149313870Y-102761155D01*
X149256470Y-102682150D01*
X149165798Y-102557350D01*
X149165794Y-102557345D01*
X148987654Y-102379205D01*
X148987649Y-102379201D01*
X148783848Y-102231132D01*
X148783847Y-102231131D01*
X148783845Y-102231130D01*
X148713747Y-102195413D01*
X148559383Y-102116760D01*
X148319785Y-102038910D01*
X148070962Y-101999500D01*
X147819038Y-101999500D01*
X147694626Y-102019205D01*
X147570214Y-102038910D01*
X147330616Y-102116760D01*
X147106151Y-102231132D01*
X146902350Y-102379201D01*
X146902345Y-102379205D01*
X146724205Y-102557345D01*
X146724201Y-102557350D01*
X146576132Y-102761151D01*
X146461760Y-102985616D01*
X146383910Y-103225214D01*
X146344500Y-103474038D01*
X142713273Y-103474038D01*
X134793757Y-95554522D01*
X134760272Y-95493199D01*
X134763507Y-95428523D01*
X134777246Y-95386243D01*
X134810500Y-95176287D01*
X134810500Y-94963713D01*
X134777246Y-94753757D01*
X134711557Y-94551588D01*
X134615051Y-94362184D01*
X134615049Y-94362181D01*
X134615048Y-94362179D01*
X134490109Y-94190213D01*
X134339786Y-94039890D01*
X134167820Y-93914951D01*
X134167115Y-93914591D01*
X134159054Y-93910485D01*
X134108259Y-93862512D01*
X134091463Y-93794692D01*
X134113999Y-93728556D01*
X134159054Y-93689515D01*
X134167816Y-93685051D01*
X134271804Y-93609500D01*
X134339786Y-93560109D01*
X134339788Y-93560106D01*
X134339792Y-93560104D01*
X134490104Y-93409792D01*
X134490106Y-93409788D01*
X134490109Y-93409786D01*
X134601139Y-93256965D01*
X134615051Y-93237816D01*
X134711557Y-93048412D01*
X134777246Y-92846243D01*
X134810500Y-92636287D01*
X134810500Y-92423713D01*
X134777246Y-92213757D01*
X134711557Y-92011588D01*
X134615051Y-91822184D01*
X134615049Y-91822181D01*
X134615048Y-91822179D01*
X134490109Y-91650213D01*
X134339786Y-91499890D01*
X134167820Y-91374951D01*
X134167115Y-91374591D01*
X134159054Y-91370485D01*
X134108259Y-91322512D01*
X134091463Y-91254692D01*
X134113999Y-91188556D01*
X134159054Y-91149515D01*
X134167816Y-91145051D01*
X134189789Y-91129086D01*
X134339786Y-91020109D01*
X134339788Y-91020106D01*
X134339792Y-91020104D01*
X134490104Y-90869792D01*
X134490106Y-90869788D01*
X134490109Y-90869786D01*
X134615048Y-90697820D01*
X134615047Y-90697820D01*
X134615051Y-90697816D01*
X134711557Y-90508412D01*
X134777246Y-90306243D01*
X134810500Y-90096287D01*
X134810500Y-89883713D01*
X134777246Y-89673757D01*
X134711557Y-89471588D01*
X134615051Y-89282184D01*
X134615049Y-89282181D01*
X134615048Y-89282179D01*
X134490109Y-89110213D01*
X134339786Y-88959890D01*
X134167820Y-88834951D01*
X134167115Y-88834591D01*
X134159054Y-88830485D01*
X134108259Y-88782512D01*
X134091463Y-88714692D01*
X134113999Y-88648556D01*
X134159054Y-88609515D01*
X134167816Y-88605051D01*
X134255180Y-88541578D01*
X134339786Y-88480109D01*
X134339788Y-88480106D01*
X134339792Y-88480104D01*
X134490104Y-88329792D01*
X134490106Y-88329788D01*
X134490109Y-88329786D01*
X134615048Y-88157820D01*
X134615047Y-88157820D01*
X134615051Y-88157816D01*
X134711557Y-87968412D01*
X134777246Y-87766243D01*
X134810500Y-87556287D01*
X134810500Y-87409097D01*
X134830185Y-87342058D01*
X134882989Y-87296303D01*
X134952147Y-87286359D01*
X135015703Y-87315384D01*
G37*
%TD.AperFunction*%
%TA.AperFunction,Conductor*%
G36*
X194346445Y-83054865D02*
G01*
X194385483Y-83099917D01*
X194429348Y-83186006D01*
X194432715Y-83192614D01*
X194553028Y-83358213D01*
X194697786Y-83502971D01*
X194852749Y-83615556D01*
X194863390Y-83623287D01*
X194979607Y-83682503D01*
X195045776Y-83716218D01*
X195045778Y-83716218D01*
X195045781Y-83716220D01*
X195150137Y-83750127D01*
X195240465Y-83779477D01*
X195341557Y-83795488D01*
X195442648Y-83811500D01*
X195442649Y-83811500D01*
X195647351Y-83811500D01*
X195647352Y-83811500D01*
X195849534Y-83779477D01*
X196044219Y-83716220D01*
X196226610Y-83623287D01*
X196355679Y-83529514D01*
X196392213Y-83502971D01*
X196392215Y-83502968D01*
X196392219Y-83502966D01*
X196536966Y-83358219D01*
X196628466Y-83232278D01*
X196683792Y-83189615D01*
X196753405Y-83183634D01*
X196815201Y-83216239D01*
X196816463Y-83217484D01*
X203013181Y-89414202D01*
X203046666Y-89475525D01*
X203049500Y-89501883D01*
X203049500Y-91943330D01*
X203049499Y-91943348D01*
X203049499Y-92109054D01*
X203049498Y-92109054D01*
X203090424Y-92261789D01*
X203090425Y-92261790D01*
X203111455Y-92298214D01*
X203111456Y-92298216D01*
X203169475Y-92398709D01*
X203169481Y-92398717D01*
X203288349Y-92517585D01*
X203288355Y-92517590D01*
X206635425Y-95864660D01*
X206668910Y-95925983D01*
X206669361Y-95928149D01*
X206700261Y-96083491D01*
X206700264Y-96083501D01*
X206760602Y-96229172D01*
X206760609Y-96229185D01*
X206848210Y-96360288D01*
X206848213Y-96360292D01*
X206959707Y-96471786D01*
X206959711Y-96471789D01*
X207090814Y-96559390D01*
X207090827Y-96559397D01*
X207236498Y-96619735D01*
X207236503Y-96619737D01*
X207391153Y-96650499D01*
X207391156Y-96650500D01*
X207391158Y-96650500D01*
X207548844Y-96650500D01*
X207548845Y-96650499D01*
X207703497Y-96619737D01*
X207849179Y-96559394D01*
X207980289Y-96471789D01*
X208091789Y-96360289D01*
X208179394Y-96229179D01*
X208182719Y-96221153D01*
X208193067Y-96196166D01*
X208239737Y-96083497D01*
X208270500Y-95928842D01*
X208270500Y-95771158D01*
X208270500Y-95771155D01*
X208270499Y-95771153D01*
X208262276Y-95729815D01*
X208239737Y-95616503D01*
X208233443Y-95601308D01*
X208179397Y-95470827D01*
X208179390Y-95470814D01*
X208091789Y-95339711D01*
X208091786Y-95339707D01*
X207980292Y-95228213D01*
X207980288Y-95228210D01*
X207849185Y-95140609D01*
X207849172Y-95140602D01*
X207703501Y-95080264D01*
X207703491Y-95080261D01*
X207548149Y-95049361D01*
X207486238Y-95016976D01*
X207484660Y-95015425D01*
X204286819Y-91817584D01*
X204253334Y-91756261D01*
X204250500Y-91729903D01*
X204250500Y-89699097D01*
X204270185Y-89632058D01*
X204322989Y-89586303D01*
X204392147Y-89576359D01*
X204455703Y-89605384D01*
X204462181Y-89611416D01*
X211215425Y-96364660D01*
X211248910Y-96425983D01*
X211249361Y-96428149D01*
X211280261Y-96583491D01*
X211280264Y-96583501D01*
X211340602Y-96729172D01*
X211340609Y-96729184D01*
X211393473Y-96808300D01*
X211414351Y-96874977D01*
X211395867Y-96942357D01*
X211381968Y-96959925D01*
X211382072Y-96960010D01*
X211378208Y-96964717D01*
X211290609Y-97095817D01*
X211290602Y-97095830D01*
X211230264Y-97241501D01*
X211230261Y-97241511D01*
X211199361Y-97396853D01*
X211166976Y-97458764D01*
X211165425Y-97460342D01*
X207472587Y-101153181D01*
X207411264Y-101186666D01*
X207384906Y-101189500D01*
X150640097Y-101189500D01*
X150573058Y-101169815D01*
X150552416Y-101153181D01*
X148720388Y-99321153D01*
X151099500Y-99321153D01*
X151099500Y-99478846D01*
X151130261Y-99633489D01*
X151130264Y-99633501D01*
X151190602Y-99779172D01*
X151190609Y-99779185D01*
X151278210Y-99910288D01*
X151278213Y-99910292D01*
X151389707Y-100021786D01*
X151389711Y-100021789D01*
X151520814Y-100109390D01*
X151520827Y-100109397D01*
X151666498Y-100169735D01*
X151666503Y-100169737D01*
X151821153Y-100200499D01*
X151821156Y-100200500D01*
X151821158Y-100200500D01*
X151978844Y-100200500D01*
X151978845Y-100200499D01*
X152133497Y-100169737D01*
X152279179Y-100109394D01*
X152410289Y-100021789D01*
X152521789Y-99910289D01*
X152609394Y-99779179D01*
X152669737Y-99633497D01*
X152700500Y-99478842D01*
X152700500Y-99321158D01*
X152700500Y-99321155D01*
X152700499Y-99321153D01*
X152669737Y-99166503D01*
X152650955Y-99121158D01*
X152650953Y-99121153D01*
X170549500Y-99121153D01*
X170549500Y-99278846D01*
X170580261Y-99433489D01*
X170580264Y-99433501D01*
X170640602Y-99579172D01*
X170640609Y-99579185D01*
X170728210Y-99710288D01*
X170728213Y-99710292D01*
X170839707Y-99821786D01*
X170839711Y-99821789D01*
X170970814Y-99909390D01*
X170970827Y-99909397D01*
X171116498Y-99969735D01*
X171116503Y-99969737D01*
X171271153Y-100000499D01*
X171271156Y-100000500D01*
X171271158Y-100000500D01*
X171428844Y-100000500D01*
X171428845Y-100000499D01*
X171583497Y-99969737D01*
X171729179Y-99909394D01*
X171860289Y-99821789D01*
X171971789Y-99710289D01*
X172059394Y-99579179D01*
X172119737Y-99433497D01*
X172150500Y-99278842D01*
X172150500Y-99121158D01*
X172150500Y-99121155D01*
X172150499Y-99121153D01*
X172130543Y-99020827D01*
X172119737Y-98966503D01*
X172119735Y-98966498D01*
X172059397Y-98820827D01*
X172059390Y-98820814D01*
X171971789Y-98689711D01*
X171971786Y-98689707D01*
X171860292Y-98578213D01*
X171860288Y-98578210D01*
X171729185Y-98490609D01*
X171729172Y-98490602D01*
X171583501Y-98430264D01*
X171583489Y-98430261D01*
X171428845Y-98399500D01*
X171428842Y-98399500D01*
X171271158Y-98399500D01*
X171271155Y-98399500D01*
X171116510Y-98430261D01*
X171116498Y-98430264D01*
X170970827Y-98490602D01*
X170970814Y-98490609D01*
X170839711Y-98578210D01*
X170839707Y-98578213D01*
X170728213Y-98689707D01*
X170728210Y-98689711D01*
X170640609Y-98820814D01*
X170640602Y-98820827D01*
X170580264Y-98966498D01*
X170580261Y-98966510D01*
X170549500Y-99121153D01*
X152650953Y-99121153D01*
X152609397Y-99020827D01*
X152609390Y-99020814D01*
X152521789Y-98889711D01*
X152521786Y-98889707D01*
X152410292Y-98778213D01*
X152410288Y-98778210D01*
X152279185Y-98690609D01*
X152279172Y-98690602D01*
X152133501Y-98630264D01*
X152133489Y-98630261D01*
X151978845Y-98599500D01*
X151978842Y-98599500D01*
X151821158Y-98599500D01*
X151821155Y-98599500D01*
X151666510Y-98630261D01*
X151666498Y-98630264D01*
X151520827Y-98690602D01*
X151520814Y-98690609D01*
X151389711Y-98778210D01*
X151389707Y-98778213D01*
X151278213Y-98889707D01*
X151278210Y-98889711D01*
X151190609Y-99020814D01*
X151190602Y-99020827D01*
X151130264Y-99166498D01*
X151130261Y-99166510D01*
X151099500Y-99321153D01*
X148720388Y-99321153D01*
X146761416Y-97362181D01*
X146727931Y-97300858D01*
X146732915Y-97231166D01*
X146774787Y-97175233D01*
X146840251Y-97150816D01*
X146849097Y-97150500D01*
X146878844Y-97150500D01*
X146878845Y-97150499D01*
X147033497Y-97119737D01*
X147179179Y-97059394D01*
X147254005Y-97009397D01*
X147310875Y-96971398D01*
X147377553Y-96950520D01*
X147379766Y-96950500D01*
X150113331Y-96950500D01*
X150113347Y-96950501D01*
X150120943Y-96950501D01*
X150279054Y-96950501D01*
X150279057Y-96950501D01*
X150431785Y-96909577D01*
X150489136Y-96876465D01*
X150568716Y-96830520D01*
X150680520Y-96718716D01*
X150680520Y-96718714D01*
X150690724Y-96708511D01*
X150690727Y-96708506D01*
X159312417Y-88086819D01*
X159373740Y-88053334D01*
X159400098Y-88050500D01*
X172814281Y-88050500D01*
X172881320Y-88070185D01*
X172924765Y-88118205D01*
X172944947Y-88157814D01*
X172944948Y-88157815D01*
X173069890Y-88329786D01*
X173220213Y-88480109D01*
X173392182Y-88605050D01*
X173400946Y-88609516D01*
X173451742Y-88657491D01*
X173468536Y-88725312D01*
X173445998Y-88791447D01*
X173400946Y-88830484D01*
X173392182Y-88834949D01*
X173220213Y-88959890D01*
X173069890Y-89110213D01*
X172944948Y-89282184D01*
X172944947Y-89282185D01*
X172924765Y-89321795D01*
X172876791Y-89372591D01*
X172814281Y-89389500D01*
X159296670Y-89389500D01*
X159296654Y-89389499D01*
X159289058Y-89389499D01*
X159130943Y-89389499D01*
X159054579Y-89409961D01*
X158978214Y-89430423D01*
X158978209Y-89430426D01*
X158841290Y-89509475D01*
X158841282Y-89509481D01*
X152885339Y-95465425D01*
X152824016Y-95498910D01*
X152821850Y-95499361D01*
X152666508Y-95530261D01*
X152666498Y-95530264D01*
X152520827Y-95590602D01*
X152520814Y-95590609D01*
X152389711Y-95678210D01*
X152389707Y-95678213D01*
X152278213Y-95789707D01*
X152278210Y-95789711D01*
X152190609Y-95920814D01*
X152190602Y-95920827D01*
X152130264Y-96066498D01*
X152130261Y-96066510D01*
X152099500Y-96221153D01*
X152099500Y-96378846D01*
X152130261Y-96533489D01*
X152130264Y-96533501D01*
X152190602Y-96679172D01*
X152190609Y-96679185D01*
X152278210Y-96810288D01*
X152278213Y-96810292D01*
X152389707Y-96921786D01*
X152389711Y-96921789D01*
X152520814Y-97009390D01*
X152520827Y-97009397D01*
X152666498Y-97069735D01*
X152666503Y-97069737D01*
X152821153Y-97100499D01*
X152821156Y-97100500D01*
X152821158Y-97100500D01*
X152978844Y-97100500D01*
X152978845Y-97100499D01*
X153133497Y-97069737D01*
X153279179Y-97009394D01*
X153410289Y-96921789D01*
X153521789Y-96810289D01*
X153609394Y-96679179D01*
X153615418Y-96664637D01*
X153650518Y-96579896D01*
X153669737Y-96533497D01*
X153693065Y-96416220D01*
X153700638Y-96378150D01*
X153733023Y-96316239D01*
X153734518Y-96314716D01*
X159422417Y-90626819D01*
X159483740Y-90593334D01*
X159510098Y-90590500D01*
X172814281Y-90590500D01*
X172881320Y-90610185D01*
X172924765Y-90658205D01*
X172944947Y-90697814D01*
X172944948Y-90697815D01*
X173069890Y-90869786D01*
X173220213Y-91020109D01*
X173392182Y-91145050D01*
X173400946Y-91149516D01*
X173451742Y-91197491D01*
X173468536Y-91265312D01*
X173445998Y-91331447D01*
X173400946Y-91370484D01*
X173392182Y-91374949D01*
X173220213Y-91499890D01*
X173069890Y-91650213D01*
X172944951Y-91822180D01*
X172889099Y-91931795D01*
X172841124Y-91982591D01*
X172778614Y-91999500D01*
X169816557Y-91999500D01*
X169658443Y-91999500D01*
X169505715Y-92040423D01*
X169505714Y-92040423D01*
X169505712Y-92040424D01*
X169505709Y-92040425D01*
X169455596Y-92069359D01*
X169455595Y-92069360D01*
X169412189Y-92094420D01*
X169368785Y-92119479D01*
X169368782Y-92119481D01*
X167835339Y-93652925D01*
X167774016Y-93686410D01*
X167771850Y-93686861D01*
X167616508Y-93717761D01*
X167616498Y-93717764D01*
X167470827Y-93778102D01*
X167470814Y-93778109D01*
X167339711Y-93865710D01*
X167339707Y-93865713D01*
X167228213Y-93977207D01*
X167228210Y-93977211D01*
X167140609Y-94108314D01*
X167140602Y-94108327D01*
X167080264Y-94253998D01*
X167080261Y-94254010D01*
X167049500Y-94408653D01*
X167049500Y-94566346D01*
X167080261Y-94720989D01*
X167080264Y-94721001D01*
X167140602Y-94866672D01*
X167140609Y-94866685D01*
X167228210Y-94997788D01*
X167228213Y-94997792D01*
X167339707Y-95109286D01*
X167339711Y-95109289D01*
X167470814Y-95196890D01*
X167470827Y-95196897D01*
X167616498Y-95257235D01*
X167616503Y-95257237D01*
X167771153Y-95287999D01*
X167771156Y-95288000D01*
X167771158Y-95288000D01*
X167928844Y-95288000D01*
X167928845Y-95287999D01*
X168083497Y-95257237D01*
X168229179Y-95196894D01*
X168360289Y-95109289D01*
X168471789Y-94997789D01*
X168559394Y-94866679D01*
X168619737Y-94720997D01*
X168643034Y-94603876D01*
X168650638Y-94565650D01*
X168683023Y-94503739D01*
X168684518Y-94502216D01*
X169949916Y-93236819D01*
X170011239Y-93203334D01*
X170037597Y-93200500D01*
X172854656Y-93200500D01*
X172921695Y-93220185D01*
X172954973Y-93251613D01*
X172980165Y-93286287D01*
X173069896Y-93409792D01*
X173220213Y-93560109D01*
X173392182Y-93685050D01*
X173400946Y-93689516D01*
X173451742Y-93737491D01*
X173468536Y-93805312D01*
X173445998Y-93871447D01*
X173400946Y-93910484D01*
X173392182Y-93914949D01*
X173220213Y-94039890D01*
X173069890Y-94190213D01*
X172944951Y-94362179D01*
X172848444Y-94551585D01*
X172848443Y-94551587D01*
X172848443Y-94551588D01*
X172815598Y-94652672D01*
X172782753Y-94753760D01*
X172749500Y-94963713D01*
X172749500Y-95176286D01*
X172782753Y-95386239D01*
X172782753Y-95386241D01*
X172782754Y-95386243D01*
X172837827Y-95555740D01*
X172848444Y-95588414D01*
X172944951Y-95777820D01*
X173069890Y-95949786D01*
X173220213Y-96100109D01*
X173392182Y-96225050D01*
X173400946Y-96229516D01*
X173451742Y-96277491D01*
X173468536Y-96345312D01*
X173445998Y-96411447D01*
X173400946Y-96450484D01*
X173392182Y-96454949D01*
X173220213Y-96579890D01*
X173069890Y-96730213D01*
X172944951Y-96902179D01*
X172848444Y-97091585D01*
X172782753Y-97293760D01*
X172749500Y-97503713D01*
X172749500Y-97716286D01*
X172771341Y-97854188D01*
X172782754Y-97926243D01*
X172801941Y-97985295D01*
X172848444Y-98128414D01*
X172944951Y-98317820D01*
X173069890Y-98489786D01*
X173220213Y-98640109D01*
X173392179Y-98765048D01*
X173392181Y-98765049D01*
X173392184Y-98765051D01*
X173581588Y-98861557D01*
X173783757Y-98927246D01*
X173993713Y-98960500D01*
X173993714Y-98960500D01*
X174206286Y-98960500D01*
X174206287Y-98960500D01*
X174416243Y-98927246D01*
X174618412Y-98861557D01*
X174807816Y-98765051D01*
X174829789Y-98749086D01*
X174979786Y-98640109D01*
X174979788Y-98640106D01*
X174979792Y-98640104D01*
X175130104Y-98489792D01*
X175130106Y-98489788D01*
X175130109Y-98489786D01*
X175255048Y-98317820D01*
X175255047Y-98317820D01*
X175255051Y-98317816D01*
X175351557Y-98128412D01*
X175417246Y-97926243D01*
X175450500Y-97716287D01*
X175450500Y-97503713D01*
X175417246Y-97293757D01*
X175351557Y-97091588D01*
X175255051Y-96902184D01*
X175255049Y-96902181D01*
X175255048Y-96902179D01*
X175130109Y-96730213D01*
X174979786Y-96579890D01*
X174807820Y-96454951D01*
X174807115Y-96454591D01*
X174799054Y-96450485D01*
X174748259Y-96402512D01*
X174731463Y-96334692D01*
X174753999Y-96268556D01*
X174799054Y-96229515D01*
X174807816Y-96225051D01*
X174838214Y-96202966D01*
X174979786Y-96100109D01*
X174979788Y-96100106D01*
X174979792Y-96100104D01*
X175130104Y-95949792D01*
X175130106Y-95949788D01*
X175130109Y-95949786D01*
X175254061Y-95779179D01*
X175255051Y-95777816D01*
X175351557Y-95588412D01*
X175417246Y-95386243D01*
X175450500Y-95176287D01*
X175450500Y-94963713D01*
X175417246Y-94753757D01*
X175351557Y-94551588D01*
X175255051Y-94362184D01*
X175255049Y-94362181D01*
X175255048Y-94362179D01*
X175130109Y-94190213D01*
X174979786Y-94039890D01*
X174807820Y-93914951D01*
X174807115Y-93914591D01*
X174799054Y-93910485D01*
X174748259Y-93862512D01*
X174731463Y-93794692D01*
X174753999Y-93728556D01*
X174799054Y-93689515D01*
X174807816Y-93685051D01*
X174911804Y-93609500D01*
X174979786Y-93560109D01*
X174979788Y-93560106D01*
X174979792Y-93560104D01*
X175130104Y-93409792D01*
X175130106Y-93409788D01*
X175130109Y-93409786D01*
X175241139Y-93256965D01*
X175255051Y-93237816D01*
X175351557Y-93048412D01*
X175417246Y-92846243D01*
X175450500Y-92636287D01*
X175450500Y-92423713D01*
X175417246Y-92213757D01*
X175351557Y-92011588D01*
X175255051Y-91822184D01*
X175255049Y-91822181D01*
X175255048Y-91822179D01*
X175130109Y-91650213D01*
X174979786Y-91499890D01*
X174807820Y-91374951D01*
X174807115Y-91374591D01*
X174799054Y-91370485D01*
X174748259Y-91322512D01*
X174731463Y-91254692D01*
X174753999Y-91188556D01*
X174799054Y-91149515D01*
X174807816Y-91145051D01*
X174829789Y-91129086D01*
X174979786Y-91020109D01*
X174979788Y-91020106D01*
X174979792Y-91020104D01*
X175130104Y-90869792D01*
X175130106Y-90869788D01*
X175130109Y-90869786D01*
X175255048Y-90697820D01*
X175255047Y-90697820D01*
X175255051Y-90697816D01*
X175351557Y-90508412D01*
X175417246Y-90306243D01*
X175450500Y-90096287D01*
X175450500Y-89949097D01*
X175470185Y-89882058D01*
X175522989Y-89836303D01*
X175592147Y-89826359D01*
X175655703Y-89855384D01*
X175662181Y-89861416D01*
X179668181Y-93867416D01*
X179701666Y-93928739D01*
X179704500Y-93955097D01*
X179704500Y-93981397D01*
X179684815Y-94048436D01*
X179636800Y-94091879D01*
X179623389Y-94098712D01*
X179457786Y-94219028D01*
X179313028Y-94363786D01*
X179192715Y-94529386D01*
X179099781Y-94711776D01*
X179036522Y-94906465D01*
X179004500Y-95108648D01*
X179004500Y-95313351D01*
X179036522Y-95515534D01*
X179099781Y-95710223D01*
X179148640Y-95806112D01*
X179183740Y-95875000D01*
X179192715Y-95892613D01*
X179313028Y-96058213D01*
X179457786Y-96202971D01*
X179592581Y-96300903D01*
X179623390Y-96323287D01*
X179718035Y-96371511D01*
X179805776Y-96416218D01*
X179805778Y-96416218D01*
X179805781Y-96416220D01*
X179910137Y-96450127D01*
X180000465Y-96479477D01*
X180101557Y-96495488D01*
X180202648Y-96511500D01*
X180202649Y-96511500D01*
X180407351Y-96511500D01*
X180407352Y-96511500D01*
X180609534Y-96479477D01*
X180804219Y-96416220D01*
X180986610Y-96323287D01*
X181115679Y-96229514D01*
X181152213Y-96202971D01*
X181152215Y-96202968D01*
X181152219Y-96202966D01*
X181296966Y-96058219D01*
X181296968Y-96058215D01*
X181296971Y-96058213D01*
X181417284Y-95892614D01*
X181417285Y-95892613D01*
X181417287Y-95892610D01*
X181464516Y-95799917D01*
X181512489Y-95749123D01*
X181580310Y-95732328D01*
X181646445Y-95754865D01*
X181685483Y-95799917D01*
X181716722Y-95861225D01*
X181732715Y-95892614D01*
X181853028Y-96058213D01*
X181997786Y-96202971D01*
X182132581Y-96300903D01*
X182163390Y-96323287D01*
X182258035Y-96371511D01*
X182345776Y-96416218D01*
X182345778Y-96416218D01*
X182345781Y-96416220D01*
X182450137Y-96450127D01*
X182540465Y-96479477D01*
X182641557Y-96495488D01*
X182742648Y-96511500D01*
X182742649Y-96511500D01*
X182947351Y-96511500D01*
X182947352Y-96511500D01*
X183149534Y-96479477D01*
X183344219Y-96416220D01*
X183526610Y-96323287D01*
X183655679Y-96229514D01*
X183692213Y-96202971D01*
X183692215Y-96202968D01*
X183692219Y-96202966D01*
X183836966Y-96058219D01*
X183836968Y-96058215D01*
X183836971Y-96058213D01*
X183957284Y-95892614D01*
X183957285Y-95892613D01*
X183957287Y-95892610D01*
X184004516Y-95799917D01*
X184052489Y-95749123D01*
X184120310Y-95732328D01*
X184186445Y-95754865D01*
X184225483Y-95799917D01*
X184256722Y-95861225D01*
X184272715Y-95892614D01*
X184393028Y-96058213D01*
X184537786Y-96202971D01*
X184672581Y-96300903D01*
X184703390Y-96323287D01*
X184798035Y-96371511D01*
X184885776Y-96416218D01*
X184885778Y-96416218D01*
X184885781Y-96416220D01*
X184990137Y-96450127D01*
X185080465Y-96479477D01*
X185181557Y-96495488D01*
X185282648Y-96511500D01*
X185282649Y-96511500D01*
X185487351Y-96511500D01*
X185487352Y-96511500D01*
X185689534Y-96479477D01*
X185884219Y-96416220D01*
X186066610Y-96323287D01*
X186195679Y-96229514D01*
X186232213Y-96202971D01*
X186232215Y-96202968D01*
X186232219Y-96202966D01*
X186376966Y-96058219D01*
X186376968Y-96058215D01*
X186376971Y-96058213D01*
X186497284Y-95892614D01*
X186497285Y-95892613D01*
X186497287Y-95892610D01*
X186544516Y-95799917D01*
X186592489Y-95749123D01*
X186660310Y-95732328D01*
X186726445Y-95754865D01*
X186765483Y-95799917D01*
X186796722Y-95861225D01*
X186812715Y-95892614D01*
X186933028Y-96058213D01*
X187077786Y-96202971D01*
X187212581Y-96300903D01*
X187243390Y-96323287D01*
X187338035Y-96371511D01*
X187425776Y-96416218D01*
X187425778Y-96416218D01*
X187425781Y-96416220D01*
X187530137Y-96450127D01*
X187620465Y-96479477D01*
X187721557Y-96495488D01*
X187822648Y-96511500D01*
X187822649Y-96511500D01*
X188027351Y-96511500D01*
X188027352Y-96511500D01*
X188229534Y-96479477D01*
X188424219Y-96416220D01*
X188606610Y-96323287D01*
X188735679Y-96229514D01*
X188772213Y-96202971D01*
X188772215Y-96202968D01*
X188772219Y-96202966D01*
X188916966Y-96058219D01*
X188916968Y-96058215D01*
X188916971Y-96058213D01*
X189037284Y-95892614D01*
X189037285Y-95892613D01*
X189037287Y-95892610D01*
X189084516Y-95799917D01*
X189132489Y-95749123D01*
X189200310Y-95732328D01*
X189266445Y-95754865D01*
X189305483Y-95799917D01*
X189336722Y-95861225D01*
X189352715Y-95892614D01*
X189473028Y-96058213D01*
X189617786Y-96202971D01*
X189752581Y-96300903D01*
X189783390Y-96323287D01*
X189878035Y-96371511D01*
X189965776Y-96416218D01*
X189965778Y-96416218D01*
X189965781Y-96416220D01*
X190070137Y-96450127D01*
X190160465Y-96479477D01*
X190261557Y-96495488D01*
X190362648Y-96511500D01*
X190362649Y-96511500D01*
X190567351Y-96511500D01*
X190567352Y-96511500D01*
X190769534Y-96479477D01*
X190964219Y-96416220D01*
X191146610Y-96323287D01*
X191275679Y-96229514D01*
X191312213Y-96202971D01*
X191312215Y-96202968D01*
X191312219Y-96202966D01*
X191456966Y-96058219D01*
X191456968Y-96058215D01*
X191456971Y-96058213D01*
X191535742Y-95949792D01*
X191577287Y-95892610D01*
X191670220Y-95710219D01*
X191733477Y-95515534D01*
X191765500Y-95313352D01*
X191765500Y-95108648D01*
X194244500Y-95108648D01*
X194244500Y-95313351D01*
X194276522Y-95515534D01*
X194339781Y-95710223D01*
X194388640Y-95806112D01*
X194423740Y-95875000D01*
X194432715Y-95892613D01*
X194553028Y-96058213D01*
X194697786Y-96202971D01*
X194832581Y-96300903D01*
X194863390Y-96323287D01*
X194958035Y-96371511D01*
X195045776Y-96416218D01*
X195045778Y-96416218D01*
X195045781Y-96416220D01*
X195150137Y-96450127D01*
X195240465Y-96479477D01*
X195341557Y-96495488D01*
X195442648Y-96511500D01*
X195442649Y-96511500D01*
X195647351Y-96511500D01*
X195647352Y-96511500D01*
X195849534Y-96479477D01*
X196044219Y-96416220D01*
X196226610Y-96323287D01*
X196355679Y-96229514D01*
X196392213Y-96202971D01*
X196392215Y-96202968D01*
X196392219Y-96202966D01*
X196536966Y-96058219D01*
X196536968Y-96058215D01*
X196536971Y-96058213D01*
X196615742Y-95949792D01*
X196657287Y-95892610D01*
X196750220Y-95710219D01*
X196813477Y-95515534D01*
X196845500Y-95313352D01*
X196845500Y-95108648D01*
X196836110Y-95049361D01*
X196813477Y-94906465D01*
X196763859Y-94753757D01*
X196750220Y-94711781D01*
X196750218Y-94711778D01*
X196750218Y-94711776D01*
X196695469Y-94604327D01*
X196657287Y-94529390D01*
X196638651Y-94503739D01*
X196536971Y-94363786D01*
X196392213Y-94219028D01*
X196226613Y-94098715D01*
X196226612Y-94098714D01*
X196226610Y-94098713D01*
X196169653Y-94069691D01*
X196044223Y-94005781D01*
X195849534Y-93942522D01*
X195674995Y-93914878D01*
X195647352Y-93910500D01*
X195442648Y-93910500D01*
X195418329Y-93914351D01*
X195240465Y-93942522D01*
X195045776Y-94005781D01*
X194863386Y-94098715D01*
X194697786Y-94219028D01*
X194553028Y-94363786D01*
X194432715Y-94529386D01*
X194339781Y-94711776D01*
X194276522Y-94906465D01*
X194244500Y-95108648D01*
X191765500Y-95108648D01*
X191756110Y-95049361D01*
X191733477Y-94906465D01*
X191683859Y-94753757D01*
X191670220Y-94711781D01*
X191670218Y-94711778D01*
X191670218Y-94711776D01*
X191615469Y-94604327D01*
X191577287Y-94529390D01*
X191558651Y-94503739D01*
X191456971Y-94363786D01*
X191312213Y-94219028D01*
X191146613Y-94098715D01*
X191146612Y-94098714D01*
X191146610Y-94098713D01*
X191089653Y-94069691D01*
X190964223Y-94005781D01*
X190769534Y-93942522D01*
X190594995Y-93914878D01*
X190567352Y-93910500D01*
X190362648Y-93910500D01*
X190338329Y-93914351D01*
X190160465Y-93942522D01*
X189965776Y-94005781D01*
X189783386Y-94098715D01*
X189617786Y-94219028D01*
X189473028Y-94363786D01*
X189352715Y-94529386D01*
X189305485Y-94622080D01*
X189257510Y-94672876D01*
X189189689Y-94689671D01*
X189123554Y-94667134D01*
X189084515Y-94622080D01*
X189075469Y-94604327D01*
X189037287Y-94529390D01*
X189018651Y-94503739D01*
X188916971Y-94363786D01*
X188772213Y-94219028D01*
X188606613Y-94098715D01*
X188606612Y-94098714D01*
X188606610Y-94098713D01*
X188549653Y-94069691D01*
X188424223Y-94005781D01*
X188229534Y-93942522D01*
X188054995Y-93914878D01*
X188027352Y-93910500D01*
X187822648Y-93910500D01*
X187798329Y-93914351D01*
X187620465Y-93942522D01*
X187425776Y-94005781D01*
X187243386Y-94098715D01*
X187077786Y-94219028D01*
X186933028Y-94363786D01*
X186812715Y-94529386D01*
X186765485Y-94622080D01*
X186717510Y-94672876D01*
X186649689Y-94689671D01*
X186583554Y-94667134D01*
X186544515Y-94622080D01*
X186535469Y-94604327D01*
X186497287Y-94529390D01*
X186478651Y-94503739D01*
X186376971Y-94363786D01*
X186232213Y-94219028D01*
X186066613Y-94098715D01*
X186066612Y-94098714D01*
X186066610Y-94098713D01*
X186009653Y-94069691D01*
X185884223Y-94005781D01*
X185689534Y-93942522D01*
X185514995Y-93914878D01*
X185487352Y-93910500D01*
X185282648Y-93910500D01*
X185258329Y-93914351D01*
X185080465Y-93942522D01*
X184885776Y-94005781D01*
X184703386Y-94098715D01*
X184537786Y-94219028D01*
X184393028Y-94363786D01*
X184272715Y-94529386D01*
X184225485Y-94622080D01*
X184177510Y-94672876D01*
X184109689Y-94689671D01*
X184043554Y-94667134D01*
X184004515Y-94622080D01*
X183995469Y-94604327D01*
X183957287Y-94529390D01*
X183938651Y-94503739D01*
X183836971Y-94363786D01*
X183692213Y-94219028D01*
X183526613Y-94098715D01*
X183526612Y-94098714D01*
X183526610Y-94098713D01*
X183469653Y-94069691D01*
X183344223Y-94005781D01*
X183149534Y-93942522D01*
X182974995Y-93914878D01*
X182947352Y-93910500D01*
X182742648Y-93910500D01*
X182718329Y-93914351D01*
X182540465Y-93942522D01*
X182345776Y-94005781D01*
X182163386Y-94098715D01*
X181997786Y-94219028D01*
X181853028Y-94363786D01*
X181732715Y-94529386D01*
X181685485Y-94622080D01*
X181637510Y-94672876D01*
X181569689Y-94689671D01*
X181503554Y-94667134D01*
X181464515Y-94622080D01*
X181455469Y-94604327D01*
X181417287Y-94529390D01*
X181398651Y-94503739D01*
X181296971Y-94363786D01*
X181152213Y-94219028D01*
X180986610Y-94098712D01*
X180973200Y-94091879D01*
X180922406Y-94043903D01*
X180905500Y-93981397D01*
X180905500Y-93575945D01*
X180905500Y-93575943D01*
X180864577Y-93423216D01*
X180864577Y-93423215D01*
X180864577Y-93423214D01*
X180804511Y-93319178D01*
X180804510Y-93319176D01*
X180785522Y-93286287D01*
X180785521Y-93286286D01*
X180785520Y-93286284D01*
X180673716Y-93174480D01*
X180673715Y-93174479D01*
X180669385Y-93170149D01*
X180669374Y-93170139D01*
X175433757Y-87934522D01*
X175400272Y-87873199D01*
X175403507Y-87808523D01*
X175417246Y-87766243D01*
X175450500Y-87556287D01*
X175450500Y-87343713D01*
X175417246Y-87133757D01*
X175351557Y-86931588D01*
X175255051Y-86742184D01*
X175255049Y-86742181D01*
X175255048Y-86742179D01*
X175130109Y-86570213D01*
X174979786Y-86419890D01*
X174807820Y-86294951D01*
X174807115Y-86294591D01*
X174799054Y-86290485D01*
X174748259Y-86242512D01*
X174731463Y-86174692D01*
X174753999Y-86108556D01*
X174799054Y-86069515D01*
X174807816Y-86065051D01*
X174829789Y-86049086D01*
X174979786Y-85940109D01*
X174979788Y-85940106D01*
X174979792Y-85940104D01*
X175130104Y-85789792D01*
X175130106Y-85789788D01*
X175130109Y-85789786D01*
X175255048Y-85617820D01*
X175255047Y-85617820D01*
X175255051Y-85617816D01*
X175351557Y-85428412D01*
X175417246Y-85226243D01*
X175450500Y-85016287D01*
X175450500Y-84803713D01*
X175417246Y-84593757D01*
X175403506Y-84551473D01*
X175401512Y-84481635D01*
X175433755Y-84425478D01*
X176555906Y-83303327D01*
X176617227Y-83269844D01*
X176686919Y-83274828D01*
X176742852Y-83316700D01*
X176743903Y-83318125D01*
X176773028Y-83358212D01*
X176773032Y-83358217D01*
X176917786Y-83502971D01*
X177072749Y-83615556D01*
X177083390Y-83623287D01*
X177199607Y-83682503D01*
X177265776Y-83716218D01*
X177265778Y-83716218D01*
X177265781Y-83716220D01*
X177370137Y-83750127D01*
X177460465Y-83779477D01*
X177561557Y-83795488D01*
X177662648Y-83811500D01*
X177662649Y-83811500D01*
X177867351Y-83811500D01*
X177867352Y-83811500D01*
X178069534Y-83779477D01*
X178264219Y-83716220D01*
X178446610Y-83623287D01*
X178575679Y-83529514D01*
X178612213Y-83502971D01*
X178612215Y-83502968D01*
X178612219Y-83502966D01*
X178756966Y-83358219D01*
X178756968Y-83358215D01*
X178756971Y-83358213D01*
X178877284Y-83192614D01*
X178877283Y-83192614D01*
X178877287Y-83192610D01*
X178924516Y-83099917D01*
X178972489Y-83049123D01*
X179040310Y-83032328D01*
X179106445Y-83054865D01*
X179145483Y-83099917D01*
X179189348Y-83186006D01*
X179192715Y-83192614D01*
X179313028Y-83358213D01*
X179457786Y-83502971D01*
X179612749Y-83615556D01*
X179623390Y-83623287D01*
X179739607Y-83682503D01*
X179805776Y-83716218D01*
X179805778Y-83716218D01*
X179805781Y-83716220D01*
X179910137Y-83750127D01*
X180000465Y-83779477D01*
X180101557Y-83795488D01*
X180202648Y-83811500D01*
X180202649Y-83811500D01*
X180407351Y-83811500D01*
X180407352Y-83811500D01*
X180609534Y-83779477D01*
X180804219Y-83716220D01*
X180986610Y-83623287D01*
X181115679Y-83529514D01*
X181152213Y-83502971D01*
X181152215Y-83502968D01*
X181152219Y-83502966D01*
X181296966Y-83358219D01*
X181296968Y-83358215D01*
X181296971Y-83358213D01*
X181417284Y-83192614D01*
X181417283Y-83192614D01*
X181417287Y-83192610D01*
X181464516Y-83099917D01*
X181512489Y-83049123D01*
X181580310Y-83032328D01*
X181646445Y-83054865D01*
X181685483Y-83099917D01*
X181729348Y-83186006D01*
X181732715Y-83192614D01*
X181853028Y-83358213D01*
X181997786Y-83502971D01*
X182152749Y-83615556D01*
X182163390Y-83623287D01*
X182279607Y-83682503D01*
X182345776Y-83716218D01*
X182345778Y-83716218D01*
X182345781Y-83716220D01*
X182450137Y-83750127D01*
X182540465Y-83779477D01*
X182641557Y-83795488D01*
X182742648Y-83811500D01*
X182742649Y-83811500D01*
X182947351Y-83811500D01*
X182947352Y-83811500D01*
X183149534Y-83779477D01*
X183344219Y-83716220D01*
X183526610Y-83623287D01*
X183655679Y-83529514D01*
X183692213Y-83502971D01*
X183692215Y-83502968D01*
X183692219Y-83502966D01*
X183836966Y-83358219D01*
X183836968Y-83358215D01*
X183836971Y-83358213D01*
X183957284Y-83192614D01*
X183957283Y-83192614D01*
X183957287Y-83192610D01*
X184004516Y-83099917D01*
X184052489Y-83049123D01*
X184120310Y-83032328D01*
X184186445Y-83054865D01*
X184225483Y-83099917D01*
X184269348Y-83186006D01*
X184272715Y-83192614D01*
X184393028Y-83358213D01*
X184537786Y-83502971D01*
X184692749Y-83615556D01*
X184703390Y-83623287D01*
X184819607Y-83682503D01*
X184885776Y-83716218D01*
X184885778Y-83716218D01*
X184885781Y-83716220D01*
X184990137Y-83750127D01*
X185080465Y-83779477D01*
X185181557Y-83795488D01*
X185282648Y-83811500D01*
X185282649Y-83811500D01*
X185487351Y-83811500D01*
X185487352Y-83811500D01*
X185689534Y-83779477D01*
X185884219Y-83716220D01*
X186066610Y-83623287D01*
X186195679Y-83529514D01*
X186232213Y-83502971D01*
X186232215Y-83502968D01*
X186232219Y-83502966D01*
X186376966Y-83358219D01*
X186376968Y-83358215D01*
X186376971Y-83358213D01*
X186497284Y-83192614D01*
X186497283Y-83192614D01*
X186497287Y-83192610D01*
X186544516Y-83099917D01*
X186592489Y-83049123D01*
X186660310Y-83032328D01*
X186726445Y-83054865D01*
X186765483Y-83099917D01*
X186809348Y-83186006D01*
X186812715Y-83192614D01*
X186933028Y-83358213D01*
X187077786Y-83502971D01*
X187232749Y-83615556D01*
X187243390Y-83623287D01*
X187359607Y-83682503D01*
X187425776Y-83716218D01*
X187425778Y-83716218D01*
X187425781Y-83716220D01*
X187530137Y-83750127D01*
X187620465Y-83779477D01*
X187721557Y-83795488D01*
X187822648Y-83811500D01*
X187822649Y-83811500D01*
X188027351Y-83811500D01*
X188027352Y-83811500D01*
X188229534Y-83779477D01*
X188424219Y-83716220D01*
X188606610Y-83623287D01*
X188735679Y-83529514D01*
X188772213Y-83502971D01*
X188772215Y-83502968D01*
X188772219Y-83502966D01*
X188916966Y-83358219D01*
X188916968Y-83358215D01*
X188916971Y-83358213D01*
X189037284Y-83192614D01*
X189037283Y-83192614D01*
X189037287Y-83192610D01*
X189084516Y-83099917D01*
X189132489Y-83049123D01*
X189200310Y-83032328D01*
X189266445Y-83054865D01*
X189305483Y-83099917D01*
X189349348Y-83186006D01*
X189352715Y-83192614D01*
X189473028Y-83358213D01*
X189617786Y-83502971D01*
X189772749Y-83615556D01*
X189783390Y-83623287D01*
X189899607Y-83682503D01*
X189965776Y-83716218D01*
X189965778Y-83716218D01*
X189965781Y-83716220D01*
X190070137Y-83750127D01*
X190160465Y-83779477D01*
X190261557Y-83795488D01*
X190362648Y-83811500D01*
X190362649Y-83811500D01*
X190567351Y-83811500D01*
X190567352Y-83811500D01*
X190769534Y-83779477D01*
X190964219Y-83716220D01*
X191146610Y-83623287D01*
X191275679Y-83529514D01*
X191312213Y-83502971D01*
X191312215Y-83502968D01*
X191312219Y-83502966D01*
X191456966Y-83358219D01*
X191456968Y-83358215D01*
X191456971Y-83358213D01*
X191577284Y-83192614D01*
X191577283Y-83192614D01*
X191577287Y-83192610D01*
X191624516Y-83099917D01*
X191672489Y-83049123D01*
X191740310Y-83032328D01*
X191806445Y-83054865D01*
X191845483Y-83099917D01*
X191889348Y-83186006D01*
X191892715Y-83192614D01*
X192013028Y-83358213D01*
X192157786Y-83502971D01*
X192312749Y-83615556D01*
X192323390Y-83623287D01*
X192439607Y-83682503D01*
X192505776Y-83716218D01*
X192505778Y-83716218D01*
X192505781Y-83716220D01*
X192610137Y-83750127D01*
X192700465Y-83779477D01*
X192801557Y-83795488D01*
X192902648Y-83811500D01*
X192902649Y-83811500D01*
X193107351Y-83811500D01*
X193107352Y-83811500D01*
X193309534Y-83779477D01*
X193504219Y-83716220D01*
X193686610Y-83623287D01*
X193815679Y-83529514D01*
X193852213Y-83502971D01*
X193852215Y-83502968D01*
X193852219Y-83502966D01*
X193996966Y-83358219D01*
X193996968Y-83358215D01*
X193996971Y-83358213D01*
X194117284Y-83192614D01*
X194117283Y-83192614D01*
X194117287Y-83192610D01*
X194164516Y-83099917D01*
X194212489Y-83049123D01*
X194280310Y-83032328D01*
X194346445Y-83054865D01*
G37*
%TD.AperFunction*%
%TA.AperFunction,Conductor*%
G36*
X172668834Y-72052914D02*
G01*
X172724767Y-72094786D01*
X172749184Y-72160250D01*
X172749500Y-72169096D01*
X172749500Y-72316286D01*
X172782753Y-72526239D01*
X172782753Y-72526241D01*
X172782754Y-72526243D01*
X172839017Y-72699403D01*
X172848444Y-72728414D01*
X172944951Y-72917820D01*
X173069890Y-73089786D01*
X173220213Y-73240109D01*
X173392182Y-73365050D01*
X173400946Y-73369516D01*
X173451742Y-73417491D01*
X173468536Y-73485312D01*
X173445998Y-73551447D01*
X173400946Y-73590484D01*
X173392182Y-73594949D01*
X173220213Y-73719890D01*
X173069890Y-73870213D01*
X172944951Y-74042179D01*
X172848444Y-74231585D01*
X172782753Y-74433760D01*
X172750434Y-74637819D01*
X172749500Y-74643713D01*
X172749500Y-74856287D01*
X172782754Y-75066243D01*
X172835583Y-75228834D01*
X172848444Y-75268414D01*
X172944951Y-75457820D01*
X173069890Y-75629786D01*
X173220213Y-75780109D01*
X173392182Y-75905050D01*
X173400946Y-75909516D01*
X173451742Y-75957491D01*
X173468536Y-76025312D01*
X173445998Y-76091447D01*
X173400946Y-76130484D01*
X173392182Y-76134949D01*
X173220213Y-76259890D01*
X173069890Y-76410213D01*
X172944951Y-76582179D01*
X172848444Y-76771585D01*
X172782753Y-76973760D01*
X172749500Y-77183713D01*
X172749500Y-77396286D01*
X172780470Y-77591827D01*
X172782754Y-77606243D01*
X172825405Y-77737510D01*
X172848444Y-77808414D01*
X172944951Y-77997820D01*
X173069890Y-78169786D01*
X173220213Y-78320109D01*
X173392182Y-78445050D01*
X173400946Y-78449516D01*
X173451742Y-78497491D01*
X173468536Y-78565312D01*
X173445998Y-78631447D01*
X173400946Y-78670484D01*
X173392182Y-78674949D01*
X173220213Y-78799890D01*
X173069890Y-78950213D01*
X172944951Y-79122179D01*
X172848444Y-79311585D01*
X172782753Y-79513760D01*
X172766006Y-79619500D01*
X172749500Y-79723713D01*
X172749500Y-79936287D01*
X172752565Y-79955638D01*
X172782753Y-80146239D01*
X172848444Y-80348414D01*
X172944951Y-80537820D01*
X173069890Y-80709786D01*
X173220213Y-80860109D01*
X173392182Y-80985050D01*
X173400946Y-80989516D01*
X173451742Y-81037491D01*
X173468536Y-81105312D01*
X173445998Y-81171447D01*
X173400946Y-81210484D01*
X173392182Y-81214949D01*
X173220213Y-81339890D01*
X173069890Y-81490213D01*
X172944951Y-81662179D01*
X172848444Y-81851585D01*
X172782753Y-82053760D01*
X172768732Y-82142286D01*
X172749500Y-82263713D01*
X172749500Y-82476287D01*
X172782754Y-82686243D01*
X172824763Y-82815534D01*
X172848444Y-82888414D01*
X172944951Y-83077820D01*
X173069890Y-83249786D01*
X173220213Y-83400109D01*
X173392182Y-83525050D01*
X173400946Y-83529516D01*
X173451742Y-83577491D01*
X173468536Y-83645312D01*
X173445998Y-83711447D01*
X173400946Y-83750484D01*
X173392182Y-83754949D01*
X173220213Y-83879890D01*
X173069890Y-84030213D01*
X172944951Y-84202179D01*
X172848444Y-84391585D01*
X172782753Y-84593760D01*
X172749500Y-84803713D01*
X172749500Y-85016286D01*
X172782753Y-85226239D01*
X172782753Y-85226241D01*
X172782754Y-85226243D01*
X172837431Y-85394522D01*
X172848444Y-85428414D01*
X172944951Y-85617820D01*
X173069890Y-85789786D01*
X173220213Y-85940109D01*
X173392182Y-86065050D01*
X173400946Y-86069516D01*
X173451742Y-86117491D01*
X173468536Y-86185312D01*
X173445998Y-86251447D01*
X173400946Y-86290484D01*
X173392182Y-86294949D01*
X173220213Y-86419890D01*
X173069890Y-86570213D01*
X172944948Y-86742184D01*
X172944947Y-86742185D01*
X172924765Y-86781795D01*
X172876791Y-86832591D01*
X172814281Y-86849500D01*
X159186670Y-86849500D01*
X159186654Y-86849499D01*
X159179058Y-86849499D01*
X159020943Y-86849499D01*
X158944579Y-86869961D01*
X158868214Y-86890423D01*
X158868209Y-86890426D01*
X158731290Y-86969475D01*
X158731282Y-86969481D01*
X149987584Y-95713181D01*
X149926261Y-95746666D01*
X149899903Y-95749500D01*
X147697757Y-95749500D01*
X147630718Y-95729815D01*
X147584963Y-95677011D01*
X147575019Y-95607853D01*
X147576140Y-95601308D01*
X147600500Y-95478844D01*
X147601097Y-95472782D01*
X147602604Y-95472930D01*
X147620185Y-95413058D01*
X147636819Y-95392416D01*
X148182416Y-94846819D01*
X148243739Y-94813334D01*
X148270097Y-94810500D01*
X149473331Y-94810500D01*
X149473347Y-94810501D01*
X149480943Y-94810501D01*
X149639054Y-94810501D01*
X149639057Y-94810501D01*
X149791785Y-94769577D01*
X149841904Y-94740639D01*
X149928716Y-94690520D01*
X150040520Y-94578716D01*
X150040520Y-94578714D01*
X150050728Y-94568507D01*
X150050730Y-94568504D01*
X172537819Y-72081415D01*
X172599142Y-72047930D01*
X172668834Y-72052914D01*
G37*
%TD.AperFunction*%
%TA.AperFunction,Conductor*%
G36*
X188703835Y-76530185D02*
G01*
X188724477Y-76546819D01*
X189137444Y-76959786D01*
X189170929Y-77021109D01*
X189165945Y-77090801D01*
X189124073Y-77146734D01*
X189058609Y-77171151D01*
X189037622Y-77170871D01*
X189033851Y-77170500D01*
X189033842Y-77170500D01*
X188876158Y-77170500D01*
X188876155Y-77170500D01*
X188721510Y-77201261D01*
X188721498Y-77201264D01*
X188575827Y-77261602D01*
X188575814Y-77261609D01*
X188444711Y-77349210D01*
X188444707Y-77349213D01*
X188333213Y-77460707D01*
X188333210Y-77460711D01*
X188245609Y-77591814D01*
X188245602Y-77591827D01*
X188185264Y-77737498D01*
X188185261Y-77737510D01*
X188154500Y-77892153D01*
X188154500Y-78049846D01*
X188185261Y-78204489D01*
X188185264Y-78204501D01*
X188245602Y-78350172D01*
X188245609Y-78350185D01*
X188333210Y-78481288D01*
X188333213Y-78481292D01*
X188444707Y-78592786D01*
X188444711Y-78592789D01*
X188575814Y-78680390D01*
X188575827Y-78680397D01*
X188721498Y-78740735D01*
X188721503Y-78740737D01*
X188876153Y-78771499D01*
X188876156Y-78771500D01*
X188876158Y-78771500D01*
X189033844Y-78771500D01*
X189033845Y-78771499D01*
X189188497Y-78740737D01*
X189334179Y-78680394D01*
X189465289Y-78592789D01*
X189576789Y-78481289D01*
X189664394Y-78350179D01*
X189724737Y-78204497D01*
X189755500Y-78049842D01*
X189755500Y-77892158D01*
X189755500Y-77892155D01*
X189755129Y-77888388D01*
X189755500Y-77886431D01*
X189755500Y-77886066D01*
X189755569Y-77886066D01*
X189768149Y-77819742D01*
X189816215Y-77769033D01*
X189884066Y-77752360D01*
X189950160Y-77775016D01*
X189966211Y-77788553D01*
X191638941Y-79461284D01*
X193176476Y-80998819D01*
X193209961Y-81060142D01*
X193204977Y-81129834D01*
X193163105Y-81185767D01*
X193097641Y-81210184D01*
X193088795Y-81210500D01*
X192902648Y-81210500D01*
X192878329Y-81214351D01*
X192700465Y-81242522D01*
X192505776Y-81305781D01*
X192323386Y-81398715D01*
X192157786Y-81519028D01*
X192013028Y-81663786D01*
X191892715Y-81829386D01*
X191845485Y-81922080D01*
X191797510Y-81972876D01*
X191729689Y-81989671D01*
X191663554Y-81967134D01*
X191624515Y-81922080D01*
X191588597Y-81851588D01*
X191577287Y-81829390D01*
X191509211Y-81735690D01*
X191456971Y-81663786D01*
X191312213Y-81519028D01*
X191146613Y-81398715D01*
X191146612Y-81398714D01*
X191146610Y-81398713D01*
X191089653Y-81369691D01*
X190964223Y-81305781D01*
X190769534Y-81242522D01*
X190594995Y-81214878D01*
X190567352Y-81210500D01*
X190362648Y-81210500D01*
X190338329Y-81214351D01*
X190160465Y-81242522D01*
X189965776Y-81305781D01*
X189783386Y-81398715D01*
X189617786Y-81519028D01*
X189473028Y-81663786D01*
X189352715Y-81829386D01*
X189305485Y-81922080D01*
X189257510Y-81972876D01*
X189189689Y-81989671D01*
X189123554Y-81967134D01*
X189084515Y-81922080D01*
X189048597Y-81851588D01*
X189037287Y-81829390D01*
X188969211Y-81735690D01*
X188916971Y-81663786D01*
X188772213Y-81519028D01*
X188606613Y-81398715D01*
X188606612Y-81398714D01*
X188606610Y-81398713D01*
X188549653Y-81369691D01*
X188424223Y-81305781D01*
X188229534Y-81242522D01*
X188054995Y-81214878D01*
X188027352Y-81210500D01*
X187822648Y-81210500D01*
X187798329Y-81214351D01*
X187620465Y-81242522D01*
X187425776Y-81305781D01*
X187243386Y-81398715D01*
X187077786Y-81519028D01*
X186933028Y-81663786D01*
X186812715Y-81829386D01*
X186765485Y-81922080D01*
X186717510Y-81972876D01*
X186649689Y-81989671D01*
X186583554Y-81967134D01*
X186544515Y-81922080D01*
X186508597Y-81851588D01*
X186497287Y-81829390D01*
X186429211Y-81735690D01*
X186376971Y-81663786D01*
X186232213Y-81519028D01*
X186066613Y-81398715D01*
X186066612Y-81398714D01*
X186066610Y-81398713D01*
X186009653Y-81369691D01*
X185884223Y-81305781D01*
X185689534Y-81242522D01*
X185514995Y-81214878D01*
X185487352Y-81210500D01*
X185282648Y-81210500D01*
X185254559Y-81214949D01*
X185080468Y-81242522D01*
X185071717Y-81245365D01*
X185066154Y-81247173D01*
X184996313Y-81249167D01*
X184940157Y-81216922D01*
X181715388Y-77992153D01*
X185237000Y-77992153D01*
X185237000Y-78149846D01*
X185267761Y-78304489D01*
X185267764Y-78304501D01*
X185328102Y-78450172D01*
X185328109Y-78450185D01*
X185415710Y-78581288D01*
X185415713Y-78581292D01*
X185527207Y-78692786D01*
X185527211Y-78692789D01*
X185658314Y-78780390D01*
X185658327Y-78780397D01*
X185803998Y-78840735D01*
X185804003Y-78840737D01*
X185958653Y-78871499D01*
X185958656Y-78871500D01*
X185958658Y-78871500D01*
X186116344Y-78871500D01*
X186116345Y-78871499D01*
X186270997Y-78840737D01*
X186416679Y-78780394D01*
X186547789Y-78692789D01*
X186659289Y-78581289D01*
X186746894Y-78450179D01*
X186747170Y-78449514D01*
X186760567Y-78417166D01*
X186807237Y-78304497D01*
X186838000Y-78149842D01*
X186838000Y-77992158D01*
X186838000Y-77992155D01*
X186837999Y-77992153D01*
X186833095Y-77967499D01*
X186807237Y-77837503D01*
X186765814Y-77737498D01*
X186746897Y-77691827D01*
X186746890Y-77691814D01*
X186659289Y-77560711D01*
X186659286Y-77560707D01*
X186547792Y-77449213D01*
X186547788Y-77449210D01*
X186416685Y-77361609D01*
X186416672Y-77361602D01*
X186271001Y-77301264D01*
X186270989Y-77301261D01*
X186116345Y-77270500D01*
X186116342Y-77270500D01*
X185958658Y-77270500D01*
X185958655Y-77270500D01*
X185804010Y-77301261D01*
X185803998Y-77301264D01*
X185658327Y-77361602D01*
X185658314Y-77361609D01*
X185527211Y-77449210D01*
X185527207Y-77449213D01*
X185415713Y-77560707D01*
X185415710Y-77560711D01*
X185328109Y-77691814D01*
X185328102Y-77691827D01*
X185267764Y-77837498D01*
X185267761Y-77837510D01*
X185237000Y-77992153D01*
X181715388Y-77992153D01*
X180861590Y-77138355D01*
X180861588Y-77138352D01*
X180742717Y-77019481D01*
X180742716Y-77019480D01*
X180655904Y-76969360D01*
X180655904Y-76969359D01*
X180655900Y-76969358D01*
X180605785Y-76940423D01*
X180453057Y-76899499D01*
X180294943Y-76899499D01*
X180287347Y-76899499D01*
X180287331Y-76899500D01*
X175483210Y-76899500D01*
X175416171Y-76879815D01*
X175370416Y-76827011D01*
X175365279Y-76813818D01*
X175351558Y-76771590D01*
X175310391Y-76690795D01*
X175297495Y-76622126D01*
X175323771Y-76557385D01*
X175380878Y-76517128D01*
X175420876Y-76510500D01*
X188636796Y-76510500D01*
X188703835Y-76530185D01*
G37*
%TD.AperFunction*%
%TA.AperFunction,Conductor*%
G36*
X179930942Y-80450185D02*
G01*
X179951584Y-80466819D01*
X180483584Y-80998819D01*
X180517069Y-81060142D01*
X180512085Y-81129834D01*
X180470213Y-81185767D01*
X180404749Y-81210184D01*
X180395903Y-81210500D01*
X180202648Y-81210500D01*
X180174559Y-81214949D01*
X180000468Y-81242522D01*
X179991717Y-81245365D01*
X179986154Y-81247173D01*
X179916313Y-81249167D01*
X179860157Y-81216922D01*
X179792590Y-81149355D01*
X179792588Y-81149352D01*
X179673717Y-81030481D01*
X179673716Y-81030480D01*
X179586904Y-80980360D01*
X179586904Y-80980359D01*
X179586900Y-80980358D01*
X179536785Y-80951423D01*
X179384057Y-80910499D01*
X179225943Y-80910499D01*
X179218347Y-80910499D01*
X179218331Y-80910500D01*
X175227645Y-80910500D01*
X175160606Y-80890815D01*
X175114851Y-80838011D01*
X175104907Y-80768853D01*
X175127327Y-80713615D01*
X175182503Y-80637669D01*
X175255051Y-80537816D01*
X175255349Y-80537230D01*
X175275235Y-80498205D01*
X175323209Y-80447409D01*
X175385719Y-80430500D01*
X179863903Y-80430500D01*
X179930942Y-80450185D01*
G37*
%TD.AperFunction*%
%TA.AperFunction,Conductor*%
G36*
X180140942Y-78120185D02*
G01*
X180161584Y-78136819D01*
X183023584Y-80998819D01*
X183057069Y-81060142D01*
X183052085Y-81129834D01*
X183010213Y-81185767D01*
X182944749Y-81210184D01*
X182935903Y-81210500D01*
X182742648Y-81210500D01*
X182714559Y-81214949D01*
X182540462Y-81242523D01*
X182540460Y-81242523D01*
X182526149Y-81247173D01*
X182456308Y-81249164D01*
X182400157Y-81216921D01*
X180651590Y-79468355D01*
X180651588Y-79468352D01*
X180532717Y-79349481D01*
X180532716Y-79349480D01*
X180445904Y-79299360D01*
X180445904Y-79299359D01*
X180445900Y-79299358D01*
X180395785Y-79270423D01*
X180243057Y-79229499D01*
X180084943Y-79229499D01*
X180077347Y-79229499D01*
X180077331Y-79229500D01*
X175385719Y-79229500D01*
X175318680Y-79209815D01*
X175275235Y-79161795D01*
X175255052Y-79122185D01*
X175255051Y-79122184D01*
X175130109Y-78950213D01*
X174979786Y-78799890D01*
X174807820Y-78674951D01*
X174807115Y-78674591D01*
X174799054Y-78670485D01*
X174748259Y-78622512D01*
X174731463Y-78554692D01*
X174753999Y-78488556D01*
X174799054Y-78449515D01*
X174807816Y-78445051D01*
X174938389Y-78350185D01*
X174979786Y-78320109D01*
X174979788Y-78320106D01*
X174979792Y-78320104D01*
X175130104Y-78169792D01*
X175131094Y-78168429D01*
X175143312Y-78151614D01*
X175198642Y-78108948D01*
X175243629Y-78100500D01*
X180073903Y-78100500D01*
X180140942Y-78120185D01*
G37*
%TD.AperFunction*%
%TA.AperFunction,Conductor*%
G36*
X146267942Y-48180185D02*
G01*
X146313697Y-48232989D01*
X146323641Y-48302147D01*
X146294616Y-48365703D01*
X146288584Y-48372181D01*
X135022181Y-59638583D01*
X134960858Y-59672068D01*
X134891166Y-59667084D01*
X134835233Y-59625212D01*
X134810816Y-59559748D01*
X134810500Y-59550902D01*
X134810500Y-59403713D01*
X134790572Y-59277896D01*
X134777246Y-59193757D01*
X134763506Y-59151473D01*
X134761512Y-59081635D01*
X134793755Y-59025478D01*
X145622416Y-48196819D01*
X145683739Y-48163334D01*
X145710097Y-48160500D01*
X146200903Y-48160500D01*
X146267942Y-48180185D01*
G37*
%TD.AperFunction*%
%TA.AperFunction,Conductor*%
G36*
X144337942Y-47570185D02*
G01*
X144383697Y-47622989D01*
X144393641Y-47692147D01*
X144364616Y-47755703D01*
X144358584Y-47762181D01*
X135022181Y-57098583D01*
X134960858Y-57132068D01*
X134891166Y-57127084D01*
X134835233Y-57085212D01*
X134810816Y-57019748D01*
X134810500Y-57010902D01*
X134810500Y-56863713D01*
X134799235Y-56792590D01*
X134777246Y-56653757D01*
X134711557Y-56451588D01*
X134615051Y-56262184D01*
X134615049Y-56262181D01*
X134615048Y-56262179D01*
X134490109Y-56090213D01*
X134339786Y-55939890D01*
X134167820Y-55814951D01*
X134167115Y-55814591D01*
X134159054Y-55810485D01*
X134108259Y-55762512D01*
X134091463Y-55694692D01*
X134113999Y-55628556D01*
X134159054Y-55589515D01*
X134167816Y-55585051D01*
X134235877Y-55535602D01*
X134339786Y-55460109D01*
X134339788Y-55460106D01*
X134339792Y-55460104D01*
X134490104Y-55309792D01*
X134490106Y-55309788D01*
X134490109Y-55309786D01*
X134615048Y-55137820D01*
X134615047Y-55137820D01*
X134615051Y-55137816D01*
X134711557Y-54948412D01*
X134777246Y-54746243D01*
X134810500Y-54536287D01*
X134810500Y-54323713D01*
X134777246Y-54113757D01*
X134711557Y-53911588D01*
X134615051Y-53722184D01*
X134615049Y-53722181D01*
X134615048Y-53722179D01*
X134490109Y-53550213D01*
X134339786Y-53399890D01*
X134167820Y-53274951D01*
X134167115Y-53274591D01*
X134159054Y-53270485D01*
X134108259Y-53222512D01*
X134091463Y-53154692D01*
X134113999Y-53088556D01*
X134159054Y-53049515D01*
X134167816Y-53045051D01*
X134189789Y-53029086D01*
X134339786Y-52920109D01*
X134339788Y-52920106D01*
X134339792Y-52920104D01*
X134490104Y-52769792D01*
X134490106Y-52769788D01*
X134490109Y-52769786D01*
X134615048Y-52597820D01*
X134615047Y-52597820D01*
X134615051Y-52597816D01*
X134711557Y-52408412D01*
X134777246Y-52206243D01*
X134810500Y-51996287D01*
X134810500Y-51783713D01*
X134777246Y-51573757D01*
X134711557Y-51371588D01*
X134615051Y-51182184D01*
X134615049Y-51182181D01*
X134615048Y-51182179D01*
X134490109Y-51010213D01*
X134376569Y-50896673D01*
X134343084Y-50835350D01*
X134348068Y-50765658D01*
X134389940Y-50709725D01*
X134420915Y-50692810D01*
X134552331Y-50643796D01*
X134667546Y-50557546D01*
X134753796Y-50442331D01*
X134804091Y-50307483D01*
X134810500Y-50247873D01*
X134810499Y-48452128D01*
X134804091Y-48392517D01*
X134799963Y-48381450D01*
X134753797Y-48257671D01*
X134753793Y-48257664D01*
X134667547Y-48142455D01*
X134667544Y-48142452D01*
X134552335Y-48056206D01*
X134552328Y-48056202D01*
X134417482Y-48005908D01*
X134417483Y-48005908D01*
X134357883Y-47999501D01*
X134357881Y-47999500D01*
X134357873Y-47999500D01*
X134357865Y-47999500D01*
X132649096Y-47999500D01*
X132582057Y-47979815D01*
X132536302Y-47927011D01*
X132526358Y-47857853D01*
X132555383Y-47794297D01*
X132561401Y-47787833D01*
X132762416Y-47586819D01*
X132823739Y-47553334D01*
X132850097Y-47550500D01*
X144270903Y-47550500D01*
X144337942Y-47570185D01*
G37*
%TD.AperFunction*%
%TA.AperFunction,Conductor*%
G36*
X224371659Y-39500459D02*
G01*
X224372265Y-39500500D01*
X224380039Y-39500500D01*
X224442449Y-39500500D01*
X224449402Y-39500694D01*
X224724029Y-39516120D01*
X224737829Y-39517675D01*
X225005573Y-39563168D01*
X225019102Y-39566255D01*
X225280085Y-39641445D01*
X225293182Y-39646028D01*
X225544097Y-39749961D01*
X225556604Y-39755985D01*
X225728284Y-39850870D01*
X225794287Y-39887349D01*
X225806060Y-39894746D01*
X225857070Y-39930939D01*
X226027549Y-40051900D01*
X226038405Y-40060557D01*
X226217598Y-40220695D01*
X226240901Y-40241520D01*
X226250731Y-40251350D01*
X226431693Y-40453845D01*
X226440355Y-40464707D01*
X226597506Y-40686192D01*
X226604903Y-40697965D01*
X226736262Y-40935637D01*
X226742294Y-40948163D01*
X226809851Y-41111258D01*
X226846219Y-41199056D01*
X226850812Y-41212181D01*
X226925993Y-41473136D01*
X226929087Y-41486693D01*
X226974576Y-41754415D01*
X226976133Y-41768232D01*
X226991557Y-42042842D01*
X226991752Y-42049796D01*
X226991752Y-107942465D01*
X226991557Y-107949408D01*
X226976134Y-108224439D01*
X226974582Y-108238234D01*
X226929093Y-108506392D01*
X226926009Y-108519928D01*
X226850829Y-108781324D01*
X226846251Y-108794431D01*
X226742322Y-109045785D01*
X226736308Y-109058297D01*
X226604932Y-109296463D01*
X226597556Y-109308225D01*
X226440381Y-109530209D01*
X226431737Y-109541072D01*
X226250737Y-109744093D01*
X226240933Y-109753922D01*
X226038370Y-109935440D01*
X226027528Y-109944112D01*
X225805943Y-110101850D01*
X225794200Y-110109255D01*
X225556374Y-110241233D01*
X225543877Y-110247279D01*
X225292796Y-110351842D01*
X225279702Y-110356454D01*
X225018484Y-110432302D01*
X225004956Y-110435420D01*
X224736917Y-110481589D01*
X224723125Y-110483176D01*
X224450141Y-110499180D01*
X224442758Y-110499393D01*
X131717249Y-110405514D01*
X131716109Y-110405439D01*
X131708674Y-110405439D01*
X131646264Y-110405439D01*
X131639310Y-110405244D01*
X131364692Y-110389819D01*
X131350875Y-110388262D01*
X131083153Y-110342773D01*
X131069596Y-110339679D01*
X131045622Y-110332772D01*
X130808637Y-110264496D01*
X130795520Y-110259906D01*
X130544622Y-110155980D01*
X130532099Y-110149949D01*
X130435853Y-110096755D01*
X130294418Y-110018586D01*
X130282652Y-110011193D01*
X130061163Y-109854038D01*
X130050306Y-109845380D01*
X129936965Y-109744093D01*
X129847809Y-109664418D01*
X129837978Y-109654587D01*
X129657014Y-109452087D01*
X129648362Y-109441237D01*
X129491202Y-109219741D01*
X129483812Y-109207980D01*
X129399786Y-109055948D01*
X129352445Y-108970291D01*
X129346421Y-108957784D01*
X129242488Y-108706868D01*
X129237905Y-108693771D01*
X129162715Y-108432788D01*
X129159628Y-108419259D01*
X129114135Y-108151515D01*
X129112580Y-108137715D01*
X129098326Y-107883939D01*
X129097155Y-107863088D01*
X129096960Y-107856134D01*
X129096960Y-64799054D01*
X130449498Y-64799054D01*
X130459689Y-64837086D01*
X130489944Y-64949999D01*
X130490423Y-64951784D01*
X130490424Y-64951788D01*
X130517580Y-64998824D01*
X130517581Y-64998824D01*
X130569477Y-65088712D01*
X130569481Y-65088717D01*
X130688349Y-65207585D01*
X130688355Y-65207590D01*
X132126241Y-66645476D01*
X132159726Y-66706799D01*
X132156492Y-66771473D01*
X132142753Y-66813757D01*
X132109500Y-67023713D01*
X132109500Y-67236286D01*
X132142753Y-67446239D01*
X132142753Y-67446241D01*
X132142754Y-67446243D01*
X132197431Y-67614522D01*
X132208444Y-67648414D01*
X132304951Y-67837820D01*
X132429890Y-68009786D01*
X132580213Y-68160109D01*
X132752182Y-68285050D01*
X132760946Y-68289516D01*
X132811742Y-68337491D01*
X132828536Y-68405312D01*
X132805998Y-68471447D01*
X132760946Y-68510484D01*
X132752182Y-68514949D01*
X132580213Y-68639890D01*
X132429890Y-68790213D01*
X132304951Y-68962179D01*
X132208444Y-69151585D01*
X132142753Y-69353760D01*
X132109500Y-69563713D01*
X132109500Y-69776286D01*
X132142753Y-69986239D01*
X132142753Y-69986241D01*
X132142754Y-69986243D01*
X132197431Y-70154522D01*
X132208444Y-70188414D01*
X132304951Y-70377820D01*
X132429890Y-70549786D01*
X132580213Y-70700109D01*
X132752182Y-70825050D01*
X132760946Y-70829516D01*
X132811742Y-70877491D01*
X132828536Y-70945312D01*
X132805998Y-71011447D01*
X132760946Y-71050484D01*
X132752182Y-71054949D01*
X132580213Y-71179890D01*
X132429890Y-71330213D01*
X132304951Y-71502179D01*
X132208444Y-71691585D01*
X132142753Y-71893760D01*
X132109500Y-72103713D01*
X132109500Y-72316286D01*
X132142753Y-72526239D01*
X132142753Y-72526241D01*
X132142754Y-72526243D01*
X132199017Y-72699403D01*
X132208444Y-72728414D01*
X132304951Y-72917820D01*
X132429890Y-73089786D01*
X132580213Y-73240109D01*
X132752182Y-73365050D01*
X132760946Y-73369516D01*
X132811742Y-73417491D01*
X132828536Y-73485312D01*
X132805998Y-73551447D01*
X132760946Y-73590484D01*
X132752182Y-73594949D01*
X132580213Y-73719890D01*
X132429890Y-73870213D01*
X132304951Y-74042179D01*
X132208444Y-74231585D01*
X132142753Y-74433760D01*
X132110434Y-74637819D01*
X132109500Y-74643713D01*
X132109500Y-74856287D01*
X132142754Y-75066243D01*
X132195583Y-75228834D01*
X132208444Y-75268414D01*
X132304951Y-75457820D01*
X132429890Y-75629786D01*
X132580213Y-75780109D01*
X132752182Y-75905050D01*
X132760946Y-75909516D01*
X132811742Y-75957491D01*
X132828536Y-76025312D01*
X132805998Y-76091447D01*
X132760946Y-76130484D01*
X132752182Y-76134949D01*
X132580213Y-76259890D01*
X132429890Y-76410213D01*
X132304951Y-76582179D01*
X132208444Y-76771585D01*
X132142753Y-76973760D01*
X132109500Y-77183713D01*
X132109500Y-77396286D01*
X132140470Y-77591827D01*
X132142754Y-77606243D01*
X132185405Y-77737510D01*
X132208444Y-77808414D01*
X132304951Y-77997820D01*
X132429890Y-78169786D01*
X132580213Y-78320109D01*
X132752182Y-78445050D01*
X132760946Y-78449516D01*
X132811742Y-78497491D01*
X132828536Y-78565312D01*
X132805998Y-78631447D01*
X132760946Y-78670484D01*
X132752182Y-78674949D01*
X132580213Y-78799890D01*
X132429890Y-78950213D01*
X132304951Y-79122179D01*
X132208444Y-79311585D01*
X132142753Y-79513760D01*
X132126006Y-79619500D01*
X132109500Y-79723713D01*
X132109500Y-79936287D01*
X132112565Y-79955638D01*
X132142753Y-80146239D01*
X132208444Y-80348414D01*
X132304951Y-80537820D01*
X132429890Y-80709786D01*
X132580213Y-80860109D01*
X132752182Y-80985050D01*
X132760946Y-80989516D01*
X132811742Y-81037491D01*
X132828536Y-81105312D01*
X132805998Y-81171447D01*
X132760946Y-81210484D01*
X132752182Y-81214949D01*
X132580213Y-81339890D01*
X132429890Y-81490213D01*
X132304951Y-81662179D01*
X132208444Y-81851585D01*
X132142753Y-82053760D01*
X132128732Y-82142286D01*
X132109500Y-82263713D01*
X132109500Y-82476287D01*
X132142754Y-82686243D01*
X132184763Y-82815534D01*
X132208444Y-82888414D01*
X132304951Y-83077820D01*
X132429890Y-83249786D01*
X132580213Y-83400109D01*
X132752182Y-83525050D01*
X132760946Y-83529516D01*
X132811742Y-83577491D01*
X132828536Y-83645312D01*
X132805998Y-83711447D01*
X132760946Y-83750484D01*
X132752182Y-83754949D01*
X132580213Y-83879890D01*
X132429890Y-84030213D01*
X132304951Y-84202179D01*
X132208444Y-84391585D01*
X132142753Y-84593760D01*
X132109500Y-84803713D01*
X132109500Y-85016286D01*
X132142753Y-85226239D01*
X132142753Y-85226241D01*
X132142754Y-85226243D01*
X132197431Y-85394522D01*
X132208444Y-85428414D01*
X132304951Y-85617820D01*
X132429890Y-85789786D01*
X132580213Y-85940109D01*
X132752182Y-86065050D01*
X132760946Y-86069516D01*
X132811742Y-86117491D01*
X132828536Y-86185312D01*
X132805998Y-86251447D01*
X132760946Y-86290484D01*
X132752182Y-86294949D01*
X132580213Y-86419890D01*
X132429890Y-86570213D01*
X132304951Y-86742179D01*
X132208444Y-86931585D01*
X132142753Y-87133760D01*
X132109500Y-87343713D01*
X132109500Y-87556286D01*
X132142753Y-87766239D01*
X132142753Y-87766241D01*
X132142754Y-87766243D01*
X132197431Y-87934522D01*
X132208444Y-87968414D01*
X132304951Y-88157820D01*
X132429890Y-88329786D01*
X132580213Y-88480109D01*
X132752182Y-88605050D01*
X132760946Y-88609516D01*
X132811742Y-88657491D01*
X132828536Y-88725312D01*
X132805998Y-88791447D01*
X132760946Y-88830484D01*
X132752182Y-88834949D01*
X132580213Y-88959890D01*
X132429890Y-89110213D01*
X132304951Y-89282179D01*
X132208444Y-89471585D01*
X132142753Y-89673760D01*
X132109500Y-89883713D01*
X132109500Y-90096286D01*
X132142753Y-90306239D01*
X132208444Y-90508414D01*
X132304951Y-90697820D01*
X132429890Y-90869786D01*
X132580213Y-91020109D01*
X132752182Y-91145050D01*
X132760946Y-91149516D01*
X132811742Y-91197491D01*
X132828536Y-91265312D01*
X132805998Y-91331447D01*
X132760946Y-91370484D01*
X132752182Y-91374949D01*
X132580213Y-91499890D01*
X132429890Y-91650213D01*
X132304951Y-91822179D01*
X132208444Y-92011585D01*
X132142753Y-92213760D01*
X132109500Y-92423713D01*
X132109500Y-92636286D01*
X132142753Y-92846239D01*
X132208444Y-93048414D01*
X132304951Y-93237820D01*
X132429890Y-93409786D01*
X132580213Y-93560109D01*
X132752182Y-93685050D01*
X132760946Y-93689516D01*
X132811742Y-93737491D01*
X132828536Y-93805312D01*
X132805998Y-93871447D01*
X132760946Y-93910484D01*
X132752182Y-93914949D01*
X132580213Y-94039890D01*
X132429890Y-94190213D01*
X132304951Y-94362179D01*
X132208444Y-94551585D01*
X132208443Y-94551587D01*
X132208443Y-94551588D01*
X132175598Y-94652672D01*
X132142753Y-94753760D01*
X132109500Y-94963713D01*
X132109500Y-95176286D01*
X132142753Y-95386239D01*
X132142753Y-95386241D01*
X132142754Y-95386243D01*
X132197827Y-95555740D01*
X132208444Y-95588414D01*
X132304951Y-95777820D01*
X132429890Y-95949786D01*
X132580213Y-96100109D01*
X132752179Y-96225048D01*
X132752181Y-96225049D01*
X132752184Y-96225051D01*
X132941588Y-96321557D01*
X133143757Y-96387246D01*
X133353713Y-96420500D01*
X133353714Y-96420500D01*
X133566286Y-96420500D01*
X133566287Y-96420500D01*
X133776243Y-96387246D01*
X133818523Y-96373507D01*
X133888362Y-96371511D01*
X133944522Y-96403757D01*
X145245139Y-107704374D01*
X145245149Y-107704385D01*
X145249479Y-107708715D01*
X145249480Y-107708716D01*
X145361284Y-107820520D01*
X145361286Y-107820521D01*
X145361290Y-107820524D01*
X145498209Y-107899573D01*
X145498216Y-107899577D01*
X145595011Y-107925513D01*
X145650942Y-107940500D01*
X145650943Y-107940500D01*
X199369790Y-107940500D01*
X199369806Y-107940501D01*
X199377402Y-107940501D01*
X199535513Y-107940501D01*
X199535516Y-107940501D01*
X199688244Y-107899577D01*
X199738363Y-107870639D01*
X199825175Y-107820520D01*
X199936979Y-107708716D01*
X199936979Y-107708714D01*
X199947187Y-107698507D01*
X199947188Y-107698504D01*
X202452537Y-105193156D01*
X202513858Y-105159673D01*
X202578530Y-105162907D01*
X202724403Y-105210305D01*
X202760673Y-105222090D01*
X202885085Y-105241795D01*
X203009497Y-105261500D01*
X203009498Y-105261500D01*
X203261420Y-105261500D01*
X203261421Y-105261500D01*
X203510244Y-105222090D01*
X203749838Y-105144241D01*
X203974304Y-105029870D01*
X204178115Y-104881793D01*
X204356252Y-104703656D01*
X204504329Y-104499845D01*
X204618700Y-104275379D01*
X204696549Y-104035785D01*
X204735959Y-103786962D01*
X204735959Y-103535038D01*
X204696549Y-103286215D01*
X204618700Y-103046621D01*
X204618698Y-103046618D01*
X204618698Y-103046616D01*
X204572840Y-102956616D01*
X204504329Y-102822155D01*
X204460007Y-102761151D01*
X204356257Y-102618350D01*
X204356253Y-102618345D01*
X204340089Y-102602181D01*
X204306604Y-102540858D01*
X204311588Y-102471166D01*
X204353460Y-102415233D01*
X204418924Y-102390816D01*
X204427770Y-102390500D01*
X205653148Y-102390500D01*
X205720187Y-102410185D01*
X205765942Y-102462989D01*
X205775886Y-102532147D01*
X205746861Y-102595703D01*
X205740829Y-102602181D01*
X205724664Y-102618345D01*
X205724660Y-102618350D01*
X205576591Y-102822151D01*
X205462219Y-103046616D01*
X205384369Y-103286214D01*
X205352320Y-103488564D01*
X205344959Y-103535038D01*
X205344959Y-103786962D01*
X205384369Y-104035785D01*
X205462219Y-104275383D01*
X205576591Y-104499848D01*
X205724660Y-104703649D01*
X205724664Y-104703654D01*
X205902804Y-104881794D01*
X205902809Y-104881798D01*
X205982735Y-104939867D01*
X206106614Y-105029870D01*
X206209100Y-105082089D01*
X206331075Y-105144239D01*
X206331077Y-105144239D01*
X206331080Y-105144241D01*
X206570674Y-105222090D01*
X206819497Y-105261500D01*
X206819498Y-105261500D01*
X207071420Y-105261500D01*
X207071421Y-105261500D01*
X207320244Y-105222090D01*
X207559838Y-105144241D01*
X207784304Y-105029870D01*
X207988115Y-104881793D01*
X208166252Y-104703656D01*
X208314329Y-104499845D01*
X208428700Y-104275379D01*
X208506549Y-104035785D01*
X208545959Y-103786962D01*
X208545959Y-103535038D01*
X208536297Y-103474038D01*
X212344500Y-103474038D01*
X212344500Y-103725961D01*
X212383910Y-103974785D01*
X212461760Y-104214383D01*
X212535879Y-104359848D01*
X212561355Y-104409848D01*
X212576132Y-104438848D01*
X212724201Y-104642649D01*
X212724205Y-104642654D01*
X212902345Y-104820794D01*
X212902350Y-104820798D01*
X213066236Y-104939867D01*
X213106155Y-104968870D01*
X213249184Y-105041747D01*
X213330616Y-105083239D01*
X213330618Y-105083239D01*
X213330621Y-105083241D01*
X213570215Y-105161090D01*
X213819038Y-105200500D01*
X213819039Y-105200500D01*
X214070961Y-105200500D01*
X214070962Y-105200500D01*
X214319785Y-105161090D01*
X214559379Y-105083241D01*
X214783845Y-104968870D01*
X214987656Y-104820793D01*
X215165793Y-104642656D01*
X215313870Y-104438845D01*
X215428241Y-104214379D01*
X215506090Y-103974785D01*
X215545500Y-103725962D01*
X215545500Y-103474038D01*
X216154500Y-103474038D01*
X216154500Y-103725961D01*
X216193910Y-103974785D01*
X216271760Y-104214383D01*
X216345879Y-104359848D01*
X216371355Y-104409848D01*
X216386132Y-104438848D01*
X216534201Y-104642649D01*
X216534205Y-104642654D01*
X216712345Y-104820794D01*
X216712350Y-104820798D01*
X216876236Y-104939867D01*
X216916155Y-104968870D01*
X217059184Y-105041747D01*
X217140616Y-105083239D01*
X217140618Y-105083239D01*
X217140621Y-105083241D01*
X217380215Y-105161090D01*
X217629038Y-105200500D01*
X217629039Y-105200500D01*
X217880961Y-105200500D01*
X217880962Y-105200500D01*
X218129785Y-105161090D01*
X218369379Y-105083241D01*
X218593845Y-104968870D01*
X218797656Y-104820793D01*
X218975793Y-104642656D01*
X219123870Y-104438845D01*
X219238241Y-104214379D01*
X219316090Y-103974785D01*
X219355500Y-103725962D01*
X219355500Y-103474038D01*
X219316090Y-103225215D01*
X219238241Y-102985621D01*
X219238239Y-102985618D01*
X219238239Y-102985616D01*
X219196747Y-102904184D01*
X219123870Y-102761155D01*
X219066470Y-102682150D01*
X218975798Y-102557350D01*
X218975794Y-102557345D01*
X218797654Y-102379205D01*
X218797649Y-102379201D01*
X218593848Y-102231132D01*
X218593847Y-102231131D01*
X218593845Y-102231130D01*
X218523747Y-102195413D01*
X218369383Y-102116760D01*
X218129785Y-102038910D01*
X217880962Y-101999500D01*
X217629038Y-101999500D01*
X217504626Y-102019205D01*
X217380214Y-102038910D01*
X217140616Y-102116760D01*
X216916151Y-102231132D01*
X216712350Y-102379201D01*
X216712345Y-102379205D01*
X216534205Y-102557345D01*
X216534201Y-102557350D01*
X216386132Y-102761151D01*
X216271760Y-102985616D01*
X216193910Y-103225214D01*
X216154500Y-103474038D01*
X215545500Y-103474038D01*
X215506090Y-103225215D01*
X215428241Y-102985621D01*
X215428239Y-102985618D01*
X215428239Y-102985616D01*
X215386747Y-102904184D01*
X215313870Y-102761155D01*
X215256470Y-102682150D01*
X215165798Y-102557350D01*
X215165794Y-102557345D01*
X214987654Y-102379205D01*
X214987649Y-102379201D01*
X214783848Y-102231132D01*
X214783847Y-102231131D01*
X214783845Y-102231130D01*
X214713747Y-102195413D01*
X214559383Y-102116760D01*
X214319785Y-102038910D01*
X214070962Y-101999500D01*
X213819038Y-101999500D01*
X213694626Y-102019205D01*
X213570214Y-102038910D01*
X213330616Y-102116760D01*
X213106151Y-102231132D01*
X212902350Y-102379201D01*
X212902345Y-102379205D01*
X212724205Y-102557345D01*
X212724201Y-102557350D01*
X212576132Y-102761151D01*
X212461760Y-102985616D01*
X212383910Y-103225214D01*
X212344500Y-103474038D01*
X208536297Y-103474038D01*
X208506549Y-103286215D01*
X208428700Y-103046621D01*
X208428698Y-103046618D01*
X208428698Y-103046616D01*
X208382840Y-102956616D01*
X208314329Y-102822155D01*
X208270007Y-102761151D01*
X208166257Y-102618350D01*
X208166253Y-102618345D01*
X208018818Y-102470910D01*
X207985333Y-102409587D01*
X207990317Y-102339895D01*
X208032189Y-102283962D01*
X208044488Y-102275848D01*
X208053719Y-102270520D01*
X208165523Y-102158716D01*
X208165523Y-102158714D01*
X208175727Y-102148511D01*
X208175730Y-102148506D01*
X212014662Y-98309575D01*
X212075983Y-98276092D01*
X212078150Y-98275641D01*
X212136085Y-98264116D01*
X212233497Y-98244740D01*
X212379179Y-98184397D01*
X212510289Y-98096792D01*
X212621789Y-97985292D01*
X212709394Y-97854182D01*
X212769737Y-97708500D01*
X212800500Y-97553845D01*
X212800500Y-97396161D01*
X212800500Y-97396158D01*
X212800499Y-97396156D01*
X212769738Y-97241513D01*
X212769738Y-97241511D01*
X212769737Y-97241506D01*
X212742286Y-97175233D01*
X212709397Y-97095830D01*
X212709393Y-97095823D01*
X212709389Y-97095817D01*
X212656525Y-97016700D01*
X212635648Y-96950025D01*
X212654132Y-96882645D01*
X212668032Y-96865078D01*
X212667928Y-96864993D01*
X212671791Y-96860286D01*
X212759390Y-96729185D01*
X212759390Y-96729184D01*
X212759394Y-96729179D01*
X212819737Y-96583497D01*
X212850500Y-96428842D01*
X212850500Y-96271158D01*
X212850500Y-96271155D01*
X212850499Y-96271153D01*
X212840553Y-96221153D01*
X212819737Y-96116503D01*
X212819735Y-96116498D01*
X212759398Y-95970830D01*
X212759396Y-95970827D01*
X212759394Y-95970821D01*
X212759389Y-95970814D01*
X212757427Y-95967143D01*
X212743178Y-95898742D01*
X212752218Y-95861225D01*
X212754349Y-95856078D01*
X212754352Y-95856075D01*
X212814695Y-95710393D01*
X212845458Y-95555738D01*
X212845458Y-95398054D01*
X212845458Y-95398051D01*
X212845457Y-95398049D01*
X212830161Y-95321153D01*
X212814695Y-95243399D01*
X212808404Y-95228210D01*
X212770118Y-95135779D01*
X212762649Y-95066310D01*
X212770118Y-95040874D01*
X212778422Y-95020827D01*
X212824143Y-94910446D01*
X212854906Y-94755791D01*
X212854906Y-94598107D01*
X212854906Y-94598104D01*
X212854905Y-94598102D01*
X212848588Y-94566346D01*
X212824143Y-94443452D01*
X212799549Y-94384078D01*
X212792081Y-94314612D01*
X212811013Y-94267732D01*
X212817557Y-94257938D01*
X212817560Y-94257934D01*
X212877903Y-94112252D01*
X212908666Y-93957597D01*
X212908666Y-93799913D01*
X212908666Y-93799910D01*
X212908665Y-93799908D01*
X212892607Y-93719179D01*
X212877903Y-93645258D01*
X212848048Y-93573181D01*
X212817563Y-93499582D01*
X212817556Y-93499569D01*
X212729955Y-93368466D01*
X212729952Y-93368462D01*
X212622643Y-93261153D01*
X218559500Y-93261153D01*
X218559500Y-93418846D01*
X218590261Y-93573489D01*
X218590264Y-93573501D01*
X218650602Y-93719172D01*
X218650609Y-93719185D01*
X218738210Y-93850288D01*
X218738213Y-93850292D01*
X218849707Y-93961786D01*
X218849711Y-93961789D01*
X218980814Y-94049390D01*
X218980827Y-94049397D01*
X219123084Y-94108321D01*
X219126503Y-94109737D01*
X219281153Y-94140499D01*
X219281156Y-94140500D01*
X219281158Y-94140500D01*
X219438844Y-94140500D01*
X219438845Y-94140499D01*
X219593497Y-94109737D01*
X219739179Y-94049394D01*
X219870289Y-93961789D01*
X219981789Y-93850289D01*
X220069394Y-93719179D01*
X220129737Y-93573497D01*
X220159630Y-93423215D01*
X220160638Y-93418150D01*
X220193023Y-93356239D01*
X220194520Y-93354714D01*
X221218506Y-92330727D01*
X221218511Y-92330724D01*
X221228714Y-92320520D01*
X221228716Y-92320520D01*
X221340520Y-92208716D01*
X221419577Y-92071784D01*
X221460500Y-91919057D01*
X221460500Y-89221153D01*
X223569500Y-89221153D01*
X223569500Y-89378846D01*
X223600261Y-89533489D01*
X223600264Y-89533501D01*
X223660602Y-89679172D01*
X223660609Y-89679185D01*
X223748210Y-89810288D01*
X223748213Y-89810292D01*
X223859707Y-89921786D01*
X223859711Y-89921789D01*
X223990814Y-90009390D01*
X223990827Y-90009397D01*
X224136498Y-90069735D01*
X224136503Y-90069737D01*
X224269973Y-90096286D01*
X224291153Y-90100499D01*
X224291156Y-90100500D01*
X224291158Y-90100500D01*
X224448844Y-90100500D01*
X224448845Y-90100499D01*
X224603497Y-90069737D01*
X224749179Y-90009394D01*
X224880289Y-89921789D01*
X224991789Y-89810289D01*
X225079394Y-89679179D01*
X225139737Y-89533497D01*
X225170500Y-89378842D01*
X225170500Y-89221158D01*
X225170500Y-89221155D01*
X225170499Y-89221153D01*
X225139737Y-89066503D01*
X225139735Y-89066498D01*
X225079397Y-88920827D01*
X225079390Y-88920814D01*
X224991789Y-88789711D01*
X224991786Y-88789707D01*
X224880292Y-88678213D01*
X224880288Y-88678210D01*
X224749185Y-88590609D01*
X224749172Y-88590602D01*
X224603501Y-88530264D01*
X224603489Y-88530261D01*
X224448845Y-88499500D01*
X224448842Y-88499500D01*
X224291158Y-88499500D01*
X224291155Y-88499500D01*
X224136510Y-88530261D01*
X224136498Y-88530264D01*
X223990827Y-88590602D01*
X223990814Y-88590609D01*
X223859711Y-88678210D01*
X223859707Y-88678213D01*
X223748213Y-88789707D01*
X223748210Y-88789711D01*
X223660609Y-88920814D01*
X223660602Y-88920827D01*
X223600264Y-89066498D01*
X223600261Y-89066510D01*
X223569500Y-89221153D01*
X221460500Y-89221153D01*
X221460500Y-88589765D01*
X221480185Y-88522726D01*
X221481398Y-88520874D01*
X221569390Y-88389185D01*
X221569390Y-88389184D01*
X221569394Y-88389179D01*
X221629737Y-88243497D01*
X221660500Y-88088842D01*
X221660500Y-87931158D01*
X221660500Y-87931155D01*
X221660499Y-87931153D01*
X221629738Y-87776510D01*
X221629737Y-87776503D01*
X221625486Y-87766239D01*
X221569397Y-87630827D01*
X221569390Y-87630814D01*
X221481789Y-87499711D01*
X221481786Y-87499707D01*
X221370292Y-87388213D01*
X221370288Y-87388210D01*
X221239185Y-87300609D01*
X221239172Y-87300602D01*
X221093501Y-87240264D01*
X221093489Y-87240261D01*
X220938845Y-87209500D01*
X220938842Y-87209500D01*
X220781158Y-87209500D01*
X220781155Y-87209500D01*
X220626510Y-87240261D01*
X220626498Y-87240264D01*
X220480827Y-87300602D01*
X220480814Y-87300609D01*
X220349711Y-87388210D01*
X220349707Y-87388213D01*
X220238213Y-87499707D01*
X220238210Y-87499711D01*
X220150609Y-87630814D01*
X220150602Y-87630827D01*
X220090264Y-87776498D01*
X220090261Y-87776510D01*
X220059500Y-87931153D01*
X220059500Y-88088846D01*
X220090261Y-88243489D01*
X220090264Y-88243501D01*
X220150602Y-88389172D01*
X220150609Y-88389185D01*
X220238602Y-88520874D01*
X220259480Y-88587551D01*
X220259500Y-88589765D01*
X220259500Y-91539903D01*
X220239815Y-91606942D01*
X220223181Y-91627584D01*
X219345339Y-92505425D01*
X219284016Y-92538910D01*
X219281850Y-92539361D01*
X219126508Y-92570261D01*
X219126498Y-92570264D01*
X218980827Y-92630602D01*
X218980814Y-92630609D01*
X218849711Y-92718210D01*
X218849707Y-92718213D01*
X218738213Y-92829707D01*
X218738210Y-92829711D01*
X218650609Y-92960814D01*
X218650602Y-92960827D01*
X218590264Y-93106498D01*
X218590261Y-93106510D01*
X218559500Y-93261153D01*
X212622643Y-93261153D01*
X212618458Y-93256968D01*
X212618454Y-93256965D01*
X212487351Y-93169364D01*
X212487338Y-93169357D01*
X212341667Y-93109019D01*
X212341655Y-93109016D01*
X212187011Y-93078255D01*
X212187008Y-93078255D01*
X212029324Y-93078255D01*
X212029321Y-93078255D01*
X211874677Y-93109015D01*
X211874661Y-93109020D01*
X211870101Y-93110909D01*
X211800631Y-93118370D01*
X211738155Y-93087088D01*
X211734980Y-93084024D01*
X199376469Y-80725513D01*
X218059500Y-80725513D01*
X218059500Y-80914486D01*
X218089059Y-81101118D01*
X218147454Y-81280836D01*
X218207516Y-81398713D01*
X218233240Y-81449199D01*
X218344310Y-81602073D01*
X218477927Y-81735690D01*
X218630801Y-81846760D01*
X218640271Y-81851585D01*
X218799163Y-81932545D01*
X218799165Y-81932545D01*
X218799168Y-81932547D01*
X218895497Y-81963846D01*
X218978881Y-81990940D01*
X219165514Y-82020500D01*
X219165519Y-82020500D01*
X219354486Y-82020500D01*
X219541118Y-81990940D01*
X219545024Y-81989671D01*
X219720832Y-81932547D01*
X219889199Y-81846760D01*
X220042073Y-81735690D01*
X220175690Y-81602073D01*
X220286760Y-81449199D01*
X220372547Y-81280832D01*
X220430940Y-81101118D01*
X220437430Y-81060142D01*
X220460500Y-80914486D01*
X220460500Y-80725513D01*
X220430940Y-80538881D01*
X220372545Y-80359163D01*
X220286759Y-80190800D01*
X220175690Y-80037927D01*
X220042073Y-79904310D01*
X219889199Y-79793240D01*
X219720836Y-79707454D01*
X219541118Y-79649059D01*
X219354486Y-79619500D01*
X219354481Y-79619500D01*
X219165519Y-79619500D01*
X219165514Y-79619500D01*
X218978881Y-79649059D01*
X218799163Y-79707454D01*
X218630800Y-79793240D01*
X218543579Y-79856610D01*
X218477927Y-79904310D01*
X218477925Y-79904312D01*
X218477924Y-79904312D01*
X218344312Y-80037924D01*
X218344312Y-80037925D01*
X218344310Y-80037927D01*
X218320645Y-80070499D01*
X218233240Y-80190800D01*
X218147454Y-80359163D01*
X218089059Y-80538881D01*
X218059500Y-80725513D01*
X199376469Y-80725513D01*
X196323442Y-77672486D01*
X212009500Y-77672486D01*
X212009500Y-77967513D01*
X212036131Y-78169785D01*
X212048007Y-78259993D01*
X212124361Y-78544951D01*
X212124364Y-78544961D01*
X212237254Y-78817500D01*
X212237258Y-78817510D01*
X212384761Y-79072993D01*
X212564352Y-79307040D01*
X212564358Y-79307047D01*
X212772952Y-79515641D01*
X212772959Y-79515647D01*
X213007006Y-79695238D01*
X213262489Y-79842741D01*
X213262490Y-79842741D01*
X213262493Y-79842743D01*
X213535048Y-79955639D01*
X213820007Y-80031993D01*
X214112494Y-80070500D01*
X214112501Y-80070500D01*
X214407499Y-80070500D01*
X214407506Y-80070500D01*
X214699993Y-80031993D01*
X214984952Y-79955639D01*
X215257507Y-79842743D01*
X215512994Y-79695238D01*
X215747042Y-79515646D01*
X215955646Y-79307042D01*
X216135238Y-79072994D01*
X216282743Y-78817507D01*
X216395639Y-78544952D01*
X216471993Y-78259993D01*
X216510500Y-77967506D01*
X216510500Y-77672494D01*
X216471993Y-77380007D01*
X216395639Y-77095048D01*
X216282743Y-76822493D01*
X216253351Y-76771585D01*
X216135238Y-76567006D01*
X215955647Y-76332959D01*
X215955641Y-76332952D01*
X215747047Y-76124358D01*
X215747040Y-76124352D01*
X215512993Y-75944761D01*
X215257510Y-75797258D01*
X215257500Y-75797254D01*
X214984961Y-75684364D01*
X214984954Y-75684362D01*
X214984952Y-75684361D01*
X214699993Y-75608007D01*
X214651113Y-75601571D01*
X214407513Y-75569500D01*
X214407506Y-75569500D01*
X214112494Y-75569500D01*
X214112486Y-75569500D01*
X213834085Y-75606153D01*
X213820007Y-75608007D01*
X213738704Y-75629792D01*
X213535048Y-75684361D01*
X213535038Y-75684364D01*
X213262499Y-75797254D01*
X213262489Y-75797258D01*
X213007006Y-75944761D01*
X212772959Y-76124352D01*
X212772952Y-76124358D01*
X212564358Y-76332952D01*
X212564352Y-76332959D01*
X212384761Y-76567006D01*
X212237258Y-76822489D01*
X212237254Y-76822499D01*
X212124364Y-77095038D01*
X212124361Y-77095048D01*
X212052938Y-77361606D01*
X212048008Y-77380004D01*
X212048006Y-77380015D01*
X212009500Y-77672486D01*
X196323442Y-77672486D01*
X193304486Y-74653530D01*
X193271001Y-74592207D01*
X193275985Y-74522515D01*
X193317857Y-74466582D01*
X193383321Y-74442165D01*
X193416359Y-74444232D01*
X193445355Y-74450000D01*
X193445358Y-74450000D01*
X193603044Y-74450000D01*
X193603045Y-74449999D01*
X193757697Y-74419237D01*
X193903379Y-74358894D01*
X194034489Y-74271289D01*
X194145989Y-74159789D01*
X194233594Y-74028679D01*
X194293937Y-73882997D01*
X194324700Y-73728342D01*
X194324700Y-73570658D01*
X194324700Y-73570655D01*
X194324699Y-73570653D01*
X194308076Y-73487085D01*
X194293937Y-73416003D01*
X194254302Y-73320314D01*
X194233597Y-73270327D01*
X194233590Y-73270314D01*
X194145989Y-73139211D01*
X194145986Y-73139207D01*
X194034492Y-73027713D01*
X194034488Y-73027710D01*
X193903385Y-72940109D01*
X193903372Y-72940102D01*
X193757701Y-72879764D01*
X193757689Y-72879761D01*
X193603045Y-72849000D01*
X193603042Y-72849000D01*
X193445358Y-72849000D01*
X193445355Y-72849000D01*
X193290710Y-72879761D01*
X193290698Y-72879764D01*
X193145027Y-72940102D01*
X193145014Y-72940109D01*
X193013911Y-73027710D01*
X193013907Y-73027713D01*
X192902413Y-73139207D01*
X192902410Y-73139211D01*
X192814809Y-73270314D01*
X192814802Y-73270327D01*
X192754464Y-73415998D01*
X192754461Y-73416010D01*
X192723700Y-73570653D01*
X192723700Y-73728342D01*
X192729468Y-73757343D01*
X192723239Y-73826934D01*
X192680375Y-73882111D01*
X192614485Y-73905354D01*
X192546488Y-73889285D01*
X192520169Y-73869213D01*
X191889311Y-73238355D01*
X191889309Y-73238352D01*
X191770438Y-73119481D01*
X191770437Y-73119480D01*
X191683625Y-73069360D01*
X191683625Y-73069359D01*
X191683621Y-73069358D01*
X191633506Y-73040423D01*
X191480778Y-72999499D01*
X191322664Y-72999499D01*
X191315068Y-72999499D01*
X191315052Y-72999500D01*
X188105433Y-72999500D01*
X188038394Y-72979815D01*
X187992639Y-72927011D01*
X187982695Y-72857853D01*
X188011720Y-72794297D01*
X188057981Y-72760939D01*
X188103032Y-72742278D01*
X188103032Y-72742277D01*
X188103039Y-72742275D01*
X188234149Y-72654670D01*
X188345649Y-72543170D01*
X188433254Y-72412060D01*
X188493597Y-72266378D01*
X188524360Y-72111723D01*
X188524360Y-71954039D01*
X188524360Y-71954036D01*
X188524359Y-71954034D01*
X188512369Y-71893757D01*
X188493597Y-71799384D01*
X188448946Y-71691585D01*
X188433257Y-71653708D01*
X188433250Y-71653695D01*
X188345649Y-71522592D01*
X188345646Y-71522588D01*
X188234152Y-71411094D01*
X188234148Y-71411091D01*
X188103045Y-71323490D01*
X188103032Y-71323483D01*
X187957361Y-71263145D01*
X187957349Y-71263142D01*
X187802706Y-71232381D01*
X187796642Y-71231784D01*
X187796815Y-71230025D01*
X187737799Y-71212696D01*
X187692044Y-71159892D01*
X187690275Y-71155830D01*
X187689394Y-71153702D01*
X187689391Y-71153697D01*
X187689390Y-71153695D01*
X187601789Y-71022592D01*
X187601786Y-71022588D01*
X187490292Y-70911094D01*
X187490288Y-70911091D01*
X187359185Y-70823490D01*
X187359172Y-70823483D01*
X187213501Y-70763145D01*
X187213489Y-70763142D01*
X187058845Y-70732381D01*
X187058842Y-70732381D01*
X186901158Y-70732381D01*
X186901155Y-70732381D01*
X186891477Y-70734306D01*
X186821886Y-70728079D01*
X186779605Y-70700370D01*
X177466819Y-61387584D01*
X177433334Y-61326261D01*
X177430500Y-61299903D01*
X177430500Y-54709059D01*
X177430501Y-54709046D01*
X177430501Y-54540945D01*
X177430501Y-54540943D01*
X177389577Y-54388215D01*
X177356809Y-54331459D01*
X177310520Y-54251284D01*
X177198716Y-54139480D01*
X177198715Y-54139479D01*
X177194385Y-54135149D01*
X177194374Y-54135139D01*
X175433757Y-52374522D01*
X175400272Y-52313199D01*
X175403507Y-52248523D01*
X175417246Y-52206243D01*
X175450500Y-51996287D01*
X175450500Y-51783713D01*
X175417246Y-51573757D01*
X175351557Y-51371588D01*
X175255051Y-51182184D01*
X175255049Y-51182181D01*
X175255048Y-51182179D01*
X175130109Y-51010213D01*
X174979786Y-50859890D01*
X174807820Y-50734951D01*
X174618414Y-50638444D01*
X174618413Y-50638443D01*
X174618412Y-50638443D01*
X174416243Y-50572754D01*
X174416241Y-50572753D01*
X174416240Y-50572753D01*
X174254957Y-50547208D01*
X174206287Y-50539500D01*
X173993713Y-50539500D01*
X173945042Y-50547208D01*
X173783760Y-50572753D01*
X173581585Y-50638444D01*
X173392179Y-50734951D01*
X173220213Y-50859890D01*
X173069890Y-51010213D01*
X172944951Y-51182179D01*
X172848444Y-51371585D01*
X172782753Y-51573760D01*
X172749500Y-51783713D01*
X172749500Y-51996286D01*
X172782753Y-52206239D01*
X172782753Y-52206241D01*
X172782754Y-52206243D01*
X172837431Y-52374522D01*
X172848444Y-52408414D01*
X172944951Y-52597820D01*
X173069890Y-52769786D01*
X173220213Y-52920109D01*
X173392182Y-53045050D01*
X173400946Y-53049516D01*
X173451742Y-53097491D01*
X173468536Y-53165312D01*
X173445998Y-53231447D01*
X173400946Y-53270484D01*
X173392182Y-53274949D01*
X173220213Y-53399890D01*
X173069890Y-53550213D01*
X172944951Y-53722179D01*
X172848444Y-53911585D01*
X172782753Y-54113760D01*
X172749762Y-54322058D01*
X172749500Y-54323713D01*
X172749500Y-54536287D01*
X172750238Y-54540945D01*
X172782753Y-54746239D01*
X172782753Y-54746241D01*
X172782754Y-54746243D01*
X172837431Y-54914522D01*
X172848444Y-54948414D01*
X172944951Y-55137820D01*
X173069890Y-55309786D01*
X173220213Y-55460109D01*
X173392182Y-55585050D01*
X173400946Y-55589516D01*
X173451742Y-55637491D01*
X173468536Y-55705312D01*
X173445998Y-55771447D01*
X173400946Y-55810484D01*
X173392182Y-55814949D01*
X173220213Y-55939890D01*
X173069890Y-56090213D01*
X172944951Y-56262179D01*
X172848444Y-56451585D01*
X172782753Y-56653760D01*
X172751872Y-56848735D01*
X172749500Y-56863713D01*
X172749500Y-57076287D01*
X172782754Y-57286243D01*
X172826940Y-57422234D01*
X172848444Y-57488414D01*
X172944951Y-57677820D01*
X173069890Y-57849786D01*
X173220213Y-58000109D01*
X173392182Y-58125050D01*
X173400946Y-58129516D01*
X173451742Y-58177491D01*
X173468536Y-58245312D01*
X173445998Y-58311447D01*
X173400946Y-58350484D01*
X173392182Y-58354949D01*
X173220213Y-58479890D01*
X173069890Y-58630213D01*
X172944951Y-58802179D01*
X172848444Y-58991585D01*
X172782753Y-59193760D01*
X172760606Y-59333595D01*
X172749500Y-59403713D01*
X172749500Y-59616287D01*
X172782754Y-59826243D01*
X172810321Y-59911086D01*
X172848444Y-60028414D01*
X172944951Y-60217820D01*
X173069890Y-60389786D01*
X173220213Y-60540109D01*
X173392182Y-60665050D01*
X173400946Y-60669516D01*
X173451742Y-60717491D01*
X173468536Y-60785312D01*
X173445998Y-60851447D01*
X173400946Y-60890484D01*
X173392182Y-60894949D01*
X173220213Y-61019890D01*
X173069890Y-61170213D01*
X172944951Y-61342179D01*
X172848444Y-61531585D01*
X172782753Y-61733760D01*
X172749500Y-61943713D01*
X172749500Y-62156286D01*
X172782715Y-62366002D01*
X172782754Y-62366243D01*
X172832926Y-62520657D01*
X172848444Y-62568414D01*
X172944951Y-62757820D01*
X173069890Y-62929786D01*
X173220213Y-63080109D01*
X173392182Y-63205050D01*
X173400946Y-63209516D01*
X173451742Y-63257491D01*
X173468536Y-63325312D01*
X173445998Y-63391447D01*
X173400946Y-63430484D01*
X173392182Y-63434949D01*
X173220213Y-63559890D01*
X173069890Y-63710213D01*
X172944951Y-63882179D01*
X172848444Y-64071585D01*
X172782753Y-64273760D01*
X172770709Y-64349805D01*
X172749500Y-64483713D01*
X172749500Y-64696287D01*
X172757009Y-64743696D01*
X172771800Y-64837086D01*
X172782754Y-64906243D01*
X172842043Y-65088716D01*
X172848444Y-65108414D01*
X172944951Y-65297820D01*
X173069890Y-65469786D01*
X173220213Y-65620109D01*
X173392182Y-65745050D01*
X173400946Y-65749516D01*
X173451742Y-65797491D01*
X173468536Y-65865312D01*
X173445998Y-65931447D01*
X173400946Y-65970484D01*
X173392182Y-65974949D01*
X173220213Y-66099890D01*
X173069890Y-66250213D01*
X172944951Y-66422179D01*
X172848444Y-66611585D01*
X172782753Y-66813760D01*
X172749500Y-67023713D01*
X172749500Y-67236286D01*
X172782753Y-67446239D01*
X172782753Y-67446241D01*
X172782754Y-67446243D01*
X172837431Y-67614522D01*
X172848444Y-67648414D01*
X172944951Y-67837820D01*
X173069890Y-68009786D01*
X173220213Y-68160109D01*
X173392182Y-68285050D01*
X173400946Y-68289516D01*
X173451742Y-68337491D01*
X173468536Y-68405312D01*
X173445998Y-68471447D01*
X173400946Y-68510484D01*
X173392182Y-68514949D01*
X173220213Y-68639890D01*
X173069890Y-68790213D01*
X172944951Y-68962179D01*
X172848444Y-69151585D01*
X172782753Y-69353760D01*
X172749500Y-69563713D01*
X172749500Y-69776286D01*
X172782754Y-69986244D01*
X172782754Y-69986247D01*
X172796491Y-70028523D01*
X172798486Y-70098364D01*
X172766241Y-70154522D01*
X149347584Y-93573181D01*
X149286261Y-93606666D01*
X149259903Y-93609500D01*
X148056669Y-93609500D01*
X148056653Y-93609499D01*
X148049057Y-93609499D01*
X147890943Y-93609499D01*
X147783587Y-93638265D01*
X147738210Y-93650424D01*
X147738209Y-93650425D01*
X147688096Y-93679359D01*
X147688095Y-93679360D01*
X147644689Y-93704420D01*
X147601285Y-93729479D01*
X147601282Y-93729481D01*
X147489478Y-93841286D01*
X146760372Y-94570391D01*
X146699049Y-94603876D01*
X146696883Y-94604327D01*
X146566509Y-94630261D01*
X146566498Y-94630264D01*
X146420827Y-94690602D01*
X146420814Y-94690609D01*
X146289711Y-94778210D01*
X146289707Y-94778213D01*
X146178213Y-94889707D01*
X146178210Y-94889711D01*
X146090609Y-95020814D01*
X146090602Y-95020827D01*
X146030264Y-95166498D01*
X146030261Y-95166510D01*
X145999500Y-95321153D01*
X145999500Y-95478846D01*
X146030261Y-95633489D01*
X146030264Y-95633501D01*
X146090602Y-95779171D01*
X146090604Y-95779175D01*
X146090606Y-95779179D01*
X146090609Y-95779184D01*
X146090610Y-95779185D01*
X146108601Y-95806112D01*
X146129477Y-95872790D01*
X146110991Y-95940169D01*
X146108601Y-95943888D01*
X146090610Y-95970814D01*
X146090602Y-95970828D01*
X146030264Y-96116498D01*
X146030261Y-96116510D01*
X145999500Y-96271153D01*
X145999500Y-96300903D01*
X145979815Y-96367942D01*
X145927011Y-96413697D01*
X145857853Y-96423641D01*
X145794297Y-96394616D01*
X145787819Y-96388584D01*
X134793757Y-85394522D01*
X134760272Y-85333199D01*
X134763507Y-85268523D01*
X134777246Y-85226243D01*
X134810500Y-85016287D01*
X134810500Y-84803713D01*
X134777246Y-84593757D01*
X134711557Y-84391588D01*
X134615051Y-84202184D01*
X134615049Y-84202181D01*
X134615048Y-84202179D01*
X134490109Y-84030213D01*
X134339786Y-83879890D01*
X134167820Y-83754951D01*
X134167115Y-83754591D01*
X134159054Y-83750485D01*
X134108259Y-83702512D01*
X134091463Y-83634692D01*
X134113999Y-83568556D01*
X134159054Y-83529515D01*
X134167816Y-83525051D01*
X134198214Y-83502966D01*
X134339786Y-83400109D01*
X134339788Y-83400106D01*
X134339792Y-83400104D01*
X134490104Y-83249792D01*
X134490106Y-83249788D01*
X134490109Y-83249786D01*
X134615048Y-83077820D01*
X134615047Y-83077820D01*
X134615051Y-83077816D01*
X134711557Y-82888412D01*
X134777246Y-82686243D01*
X134810500Y-82476287D01*
X134810500Y-82263713D01*
X134777246Y-82053757D01*
X134711557Y-81851588D01*
X134615051Y-81662184D01*
X134615049Y-81662181D01*
X134615048Y-81662179D01*
X134490109Y-81490213D01*
X134339786Y-81339890D01*
X134167820Y-81214951D01*
X134167115Y-81214591D01*
X134159054Y-81210485D01*
X134108259Y-81162512D01*
X134091463Y-81094692D01*
X134113999Y-81028556D01*
X134159054Y-80989515D01*
X134167816Y-80985051D01*
X134214101Y-80951423D01*
X134339786Y-80860109D01*
X134339788Y-80860106D01*
X134339792Y-80860104D01*
X134490104Y-80709792D01*
X134490106Y-80709788D01*
X134490109Y-80709786D01*
X134599086Y-80559789D01*
X134615051Y-80537816D01*
X134711557Y-80348412D01*
X134777246Y-80146243D01*
X134810500Y-79936287D01*
X134810500Y-79723713D01*
X134777246Y-79513757D01*
X134711557Y-79311588D01*
X134615051Y-79122184D01*
X134615049Y-79122181D01*
X134615048Y-79122179D01*
X134490109Y-78950213D01*
X134339786Y-78799890D01*
X134167820Y-78674951D01*
X134167115Y-78674591D01*
X134159054Y-78670485D01*
X134108259Y-78622512D01*
X134091463Y-78554692D01*
X134113999Y-78488556D01*
X134159054Y-78449515D01*
X134167816Y-78445051D01*
X134298389Y-78350185D01*
X134339786Y-78320109D01*
X134339788Y-78320106D01*
X134339792Y-78320104D01*
X134490104Y-78169792D01*
X134490106Y-78169788D01*
X134490109Y-78169786D01*
X134615048Y-77997820D01*
X134615047Y-77997820D01*
X134615051Y-77997816D01*
X134711557Y-77808412D01*
X134777246Y-77606243D01*
X134810500Y-77396287D01*
X134810500Y-77183713D01*
X134777246Y-76973757D01*
X134711557Y-76771588D01*
X134615051Y-76582184D01*
X134615049Y-76582181D01*
X134615048Y-76582179D01*
X134490109Y-76410213D01*
X134339786Y-76259890D01*
X134167820Y-76134951D01*
X134167115Y-76134591D01*
X134159054Y-76130485D01*
X134108259Y-76082512D01*
X134091463Y-76014692D01*
X134113999Y-75948556D01*
X134159054Y-75909515D01*
X134167816Y-75905051D01*
X134189789Y-75889086D01*
X134339786Y-75780109D01*
X134339788Y-75780106D01*
X134339792Y-75780104D01*
X134490104Y-75629792D01*
X134490106Y-75629788D01*
X134490109Y-75629786D01*
X134615048Y-75457820D01*
X134615047Y-75457820D01*
X134615051Y-75457816D01*
X134711557Y-75268412D01*
X134777246Y-75066243D01*
X134810500Y-74856287D01*
X134810500Y-74643713D01*
X134777246Y-74433757D01*
X134711557Y-74231588D01*
X134615051Y-74042184D01*
X134615049Y-74042181D01*
X134615048Y-74042179D01*
X134490109Y-73870213D01*
X134339786Y-73719890D01*
X134167820Y-73594951D01*
X134167115Y-73594591D01*
X134159054Y-73590485D01*
X134108259Y-73542512D01*
X134091463Y-73474692D01*
X134113999Y-73408556D01*
X134159054Y-73369515D01*
X134167816Y-73365051D01*
X134229392Y-73320314D01*
X134339786Y-73240109D01*
X134339788Y-73240106D01*
X134339792Y-73240104D01*
X134490104Y-73089792D01*
X134490106Y-73089788D01*
X134490109Y-73089786D01*
X134606371Y-72929763D01*
X134615051Y-72917816D01*
X134711557Y-72728412D01*
X134777246Y-72526243D01*
X134810500Y-72316287D01*
X134810500Y-72103713D01*
X134777246Y-71893757D01*
X134711557Y-71691588D01*
X134615051Y-71502184D01*
X134615049Y-71502181D01*
X134615048Y-71502179D01*
X134490109Y-71330213D01*
X134339786Y-71179890D01*
X134167820Y-71054951D01*
X134167115Y-71054591D01*
X134159054Y-71050485D01*
X134108259Y-71002512D01*
X134091463Y-70934692D01*
X134113999Y-70868556D01*
X134159054Y-70829515D01*
X134167816Y-70825051D01*
X134253023Y-70763145D01*
X134339786Y-70700109D01*
X134339788Y-70700106D01*
X134339792Y-70700104D01*
X134490104Y-70549792D01*
X134490106Y-70549788D01*
X134490109Y-70549786D01*
X134615048Y-70377820D01*
X134615047Y-70377820D01*
X134615051Y-70377816D01*
X134711557Y-70188412D01*
X134777246Y-69986243D01*
X134810500Y-69776287D01*
X134810500Y-69563713D01*
X134777246Y-69353757D01*
X134711557Y-69151588D01*
X134615051Y-68962184D01*
X134615049Y-68962181D01*
X134615048Y-68962179D01*
X134490109Y-68790213D01*
X134339786Y-68639890D01*
X134167820Y-68514951D01*
X134167115Y-68514591D01*
X134159054Y-68510485D01*
X134108259Y-68462512D01*
X134091463Y-68394692D01*
X134113999Y-68328556D01*
X134159054Y-68289515D01*
X134167816Y-68285051D01*
X134218489Y-68248235D01*
X134339786Y-68160109D01*
X134339788Y-68160106D01*
X134339792Y-68160104D01*
X134490104Y-68009792D01*
X134490106Y-68009788D01*
X134490109Y-68009786D01*
X134615048Y-67837820D01*
X134615047Y-67837820D01*
X134615051Y-67837816D01*
X134711557Y-67648412D01*
X134777246Y-67446243D01*
X134810500Y-67236287D01*
X134810500Y-67023713D01*
X134777246Y-66813757D01*
X134711557Y-66611588D01*
X134615051Y-66422184D01*
X134615049Y-66422181D01*
X134615048Y-66422179D01*
X134490109Y-66250213D01*
X134339786Y-66099890D01*
X134167820Y-65974951D01*
X134167115Y-65974591D01*
X134159054Y-65970485D01*
X134108259Y-65922512D01*
X134091463Y-65854692D01*
X134113999Y-65788556D01*
X134159054Y-65749515D01*
X134167816Y-65745051D01*
X134270210Y-65670658D01*
X134339786Y-65620109D01*
X134339788Y-65620106D01*
X134339792Y-65620104D01*
X134490104Y-65469792D01*
X134490106Y-65469788D01*
X134490109Y-65469786D01*
X134615048Y-65297820D01*
X134615047Y-65297820D01*
X134615051Y-65297816D01*
X134711557Y-65108412D01*
X134777246Y-64906243D01*
X134810500Y-64696287D01*
X134810500Y-64483713D01*
X134777246Y-64273757D01*
X134711557Y-64071588D01*
X134615051Y-63882184D01*
X134615049Y-63882181D01*
X134615048Y-63882179D01*
X134490109Y-63710213D01*
X134339786Y-63559890D01*
X134167820Y-63434951D01*
X134167115Y-63434591D01*
X134159054Y-63430485D01*
X134108259Y-63382512D01*
X134091463Y-63314692D01*
X134113999Y-63248556D01*
X134159054Y-63209515D01*
X134167816Y-63205051D01*
X134189789Y-63189086D01*
X134339786Y-63080109D01*
X134339788Y-63080106D01*
X134339792Y-63080104D01*
X134490104Y-62929792D01*
X134490106Y-62929788D01*
X134490109Y-62929786D01*
X134615048Y-62757820D01*
X134615047Y-62757820D01*
X134615051Y-62757816D01*
X134711557Y-62568412D01*
X134777246Y-62366243D01*
X134810500Y-62156287D01*
X134810500Y-61943713D01*
X134777246Y-61733757D01*
X134763506Y-61691473D01*
X134761512Y-61621635D01*
X134793755Y-61565478D01*
X147672416Y-48686819D01*
X147733739Y-48653334D01*
X147760097Y-48650500D01*
X174949903Y-48650500D01*
X175016942Y-48670185D01*
X175037584Y-48686819D01*
X175824228Y-49473463D01*
X175857713Y-49534786D01*
X175852729Y-49604478D01*
X175810857Y-49660411D01*
X175805439Y-49664245D01*
X175709713Y-49728208D01*
X175709707Y-49728213D01*
X175598213Y-49839707D01*
X175598210Y-49839711D01*
X175510609Y-49970814D01*
X175510602Y-49970827D01*
X175450264Y-50116498D01*
X175450261Y-50116510D01*
X175419500Y-50271153D01*
X175419500Y-50428846D01*
X175450261Y-50583489D01*
X175450264Y-50583501D01*
X175510602Y-50729172D01*
X175510609Y-50729185D01*
X175598210Y-50860288D01*
X175598213Y-50860292D01*
X175709707Y-50971786D01*
X175709711Y-50971789D01*
X175840814Y-51059390D01*
X175840827Y-51059397D01*
X175986498Y-51119735D01*
X175986503Y-51119737D01*
X176141153Y-51150499D01*
X176141156Y-51150500D01*
X176141158Y-51150500D01*
X176298844Y-51150500D01*
X176298845Y-51150499D01*
X176453497Y-51119737D01*
X176599179Y-51059394D01*
X176730289Y-50971789D01*
X176841789Y-50860289D01*
X176905754Y-50764558D01*
X176959363Y-50719756D01*
X177028688Y-50711047D01*
X177091716Y-50741202D01*
X177096535Y-50745770D01*
X188075610Y-61724845D01*
X188109095Y-61786168D01*
X188104111Y-61855860D01*
X188062239Y-61911793D01*
X188056821Y-61915627D01*
X187963913Y-61977707D01*
X187963907Y-61977712D01*
X187852413Y-62089206D01*
X187852410Y-62089210D01*
X187764809Y-62220313D01*
X187764802Y-62220326D01*
X187704464Y-62365997D01*
X187704461Y-62366009D01*
X187673700Y-62520652D01*
X187673700Y-62678345D01*
X187704461Y-62832988D01*
X187704464Y-62833000D01*
X187764802Y-62978671D01*
X187764809Y-62978684D01*
X187852410Y-63109787D01*
X187852413Y-63109791D01*
X187963907Y-63221285D01*
X187963911Y-63221288D01*
X188095014Y-63308889D01*
X188095027Y-63308896D01*
X188185977Y-63346568D01*
X188240703Y-63369236D01*
X188395353Y-63399998D01*
X188395356Y-63399999D01*
X188395358Y-63399999D01*
X188553044Y-63399999D01*
X188553045Y-63399998D01*
X188707697Y-63369236D01*
X188853379Y-63308893D01*
X188853384Y-63308889D01*
X188853387Y-63308888D01*
X188902547Y-63276040D01*
X188925625Y-63260619D01*
X188992301Y-63239741D01*
X189059681Y-63258225D01*
X189082197Y-63276040D01*
X192544420Y-66738263D01*
X192577905Y-66799586D01*
X192578356Y-66801752D01*
X192604461Y-66932991D01*
X192604464Y-66933001D01*
X192664802Y-67078672D01*
X192664809Y-67078685D01*
X192752410Y-67209788D01*
X192752413Y-67209792D01*
X192863907Y-67321286D01*
X192863911Y-67321289D01*
X192995014Y-67408890D01*
X192995027Y-67408897D01*
X193085190Y-67446243D01*
X193140703Y-67469237D01*
X193237650Y-67488521D01*
X193295353Y-67499999D01*
X193295356Y-67500000D01*
X193295358Y-67500000D01*
X193453044Y-67500000D01*
X193453045Y-67499999D01*
X193607697Y-67469237D01*
X193753379Y-67408894D01*
X193884489Y-67321289D01*
X193995989Y-67209789D01*
X194083594Y-67078679D01*
X194083597Y-67078672D01*
X194135752Y-66952758D01*
X194179592Y-66898354D01*
X194245887Y-66876289D01*
X194313586Y-66893568D01*
X194337994Y-66912529D01*
X195637381Y-68211916D01*
X195670866Y-68273239D01*
X195673700Y-68299597D01*
X195673700Y-72912830D01*
X195673699Y-72912848D01*
X195673699Y-73078554D01*
X195673698Y-73078554D01*
X195673699Y-73078557D01*
X195714623Y-73231285D01*
X195719710Y-73240096D01*
X195719713Y-73240106D01*
X195719715Y-73240105D01*
X195793675Y-73368209D01*
X195793681Y-73368217D01*
X195912549Y-73487085D01*
X195912555Y-73487090D01*
X196139625Y-73714160D01*
X196173110Y-73775483D01*
X196173561Y-73777649D01*
X196204461Y-73932991D01*
X196204464Y-73933001D01*
X196264802Y-74078672D01*
X196264809Y-74078685D01*
X196352410Y-74209788D01*
X196352413Y-74209792D01*
X196463907Y-74321286D01*
X196463911Y-74321289D01*
X196595014Y-74408890D01*
X196595027Y-74408897D01*
X196694260Y-74450000D01*
X196740703Y-74469237D01*
X196895353Y-74499999D01*
X196895356Y-74500000D01*
X196895358Y-74500000D01*
X197053044Y-74500000D01*
X197053045Y-74499999D01*
X197207697Y-74469237D01*
X197353379Y-74408894D01*
X197484489Y-74321289D01*
X197595989Y-74209789D01*
X197683594Y-74078679D01*
X197743937Y-73932997D01*
X197774700Y-73778342D01*
X197774700Y-73620658D01*
X197774700Y-73620655D01*
X197774699Y-73620653D01*
X197743937Y-73466003D01*
X197743935Y-73465998D01*
X197683597Y-73320327D01*
X197683590Y-73320314D01*
X197595989Y-73189211D01*
X197595986Y-73189207D01*
X197484492Y-73077713D01*
X197484488Y-73077710D01*
X197353385Y-72990109D01*
X197353372Y-72990102D01*
X197207701Y-72929764D01*
X197207691Y-72929761D01*
X197052349Y-72898861D01*
X196990438Y-72866476D01*
X196988860Y-72864925D01*
X196911019Y-72787084D01*
X196877534Y-72725761D01*
X196874700Y-72699403D01*
X196874700Y-70374000D01*
X196894385Y-70306961D01*
X196947189Y-70261206D01*
X196998700Y-70250000D01*
X197003044Y-70250000D01*
X197003045Y-70249999D01*
X197157697Y-70219237D01*
X197303379Y-70158894D01*
X197434489Y-70071289D01*
X197545989Y-69959789D01*
X197633594Y-69828679D01*
X197676326Y-69725513D01*
X218059500Y-69725513D01*
X218059500Y-69914486D01*
X218089059Y-70101118D01*
X218147454Y-70280836D01*
X218233240Y-70449199D01*
X218344310Y-70602073D01*
X218477927Y-70735690D01*
X218630801Y-70846760D01*
X218691114Y-70877491D01*
X218799163Y-70932545D01*
X218799165Y-70932545D01*
X218799168Y-70932547D01*
X218878867Y-70958443D01*
X218978881Y-70990940D01*
X219165514Y-71020500D01*
X219165519Y-71020500D01*
X219354486Y-71020500D01*
X219541118Y-70990940D01*
X219720832Y-70932547D01*
X219889199Y-70846760D01*
X220042073Y-70735690D01*
X220175690Y-70602073D01*
X220286760Y-70449199D01*
X220372547Y-70280832D01*
X220430940Y-70101118D01*
X220432194Y-70093199D01*
X220460500Y-69914486D01*
X220460500Y-69725513D01*
X220430940Y-69538881D01*
X220376279Y-69370655D01*
X220372547Y-69359168D01*
X220372545Y-69359165D01*
X220372545Y-69359163D01*
X220326560Y-69268913D01*
X220286760Y-69190801D01*
X220175690Y-69037927D01*
X220042073Y-68904310D01*
X219889199Y-68793240D01*
X219883248Y-68790208D01*
X219720836Y-68707454D01*
X219541118Y-68649059D01*
X219354486Y-68619500D01*
X219354481Y-68619500D01*
X219165519Y-68619500D01*
X219165514Y-68619500D01*
X218978881Y-68649059D01*
X218799163Y-68707454D01*
X218630800Y-68793240D01*
X218543579Y-68856610D01*
X218477927Y-68904310D01*
X218477925Y-68904312D01*
X218477924Y-68904312D01*
X218344312Y-69037924D01*
X218344312Y-69037925D01*
X218344310Y-69037927D01*
X218320770Y-69070327D01*
X218233240Y-69190800D01*
X218147454Y-69359163D01*
X218089059Y-69538881D01*
X218059500Y-69725513D01*
X197676326Y-69725513D01*
X197693937Y-69682997D01*
X197724700Y-69528342D01*
X197724700Y-69370658D01*
X197724700Y-69370655D01*
X197724699Y-69370653D01*
X197721338Y-69353757D01*
X197693937Y-69216003D01*
X197667256Y-69151588D01*
X197633597Y-69070327D01*
X197633590Y-69070314D01*
X197545598Y-68938625D01*
X197524720Y-68871947D01*
X197524700Y-68869734D01*
X197524700Y-67700763D01*
X197524701Y-67700750D01*
X197524701Y-67532647D01*
X197507710Y-67469237D01*
X197483777Y-67379919D01*
X197483773Y-67379912D01*
X197404724Y-67242993D01*
X197404718Y-67242985D01*
X196261623Y-66099890D01*
X195058067Y-64896335D01*
X195024583Y-64835013D01*
X195029567Y-64765321D01*
X195071439Y-64709388D01*
X195136903Y-64684971D01*
X195145749Y-64684655D01*
X203058756Y-64684655D01*
X203125795Y-64704340D01*
X203146437Y-64720973D01*
X203255483Y-64830019D01*
X203255484Y-64830019D01*
X203262551Y-64837086D01*
X203262550Y-64837086D01*
X203262554Y-64837089D01*
X204189625Y-65764160D01*
X204223110Y-65825483D01*
X204223561Y-65827649D01*
X204254461Y-65982991D01*
X204254464Y-65983001D01*
X204314802Y-66128672D01*
X204314809Y-66128685D01*
X204402410Y-66259788D01*
X204402413Y-66259792D01*
X204513907Y-66371286D01*
X204513911Y-66371289D01*
X204645014Y-66458890D01*
X204645027Y-66458897D01*
X204790698Y-66519235D01*
X204790703Y-66519237D01*
X204945353Y-66549999D01*
X204945356Y-66550000D01*
X204945358Y-66550000D01*
X205103044Y-66550000D01*
X205103045Y-66549999D01*
X205257697Y-66519237D01*
X205403379Y-66458894D01*
X205534489Y-66371289D01*
X205645989Y-66259789D01*
X205733594Y-66128679D01*
X205793937Y-65982997D01*
X205824700Y-65828342D01*
X205824700Y-65670658D01*
X205824700Y-65670655D01*
X205824699Y-65670653D01*
X205793938Y-65516010D01*
X205793937Y-65516003D01*
X205774796Y-65469792D01*
X205733597Y-65370327D01*
X205733590Y-65370314D01*
X205645989Y-65239211D01*
X205645986Y-65239207D01*
X205568459Y-65161680D01*
X205534974Y-65100357D01*
X205539958Y-65030665D01*
X205581830Y-64974732D01*
X205647294Y-64950315D01*
X205656140Y-64949999D01*
X211137532Y-64949999D01*
X211137548Y-64950000D01*
X211145144Y-64950000D01*
X211303255Y-64950000D01*
X211303258Y-64950000D01*
X211455986Y-64909076D01*
X211455987Y-64909074D01*
X211463836Y-64906972D01*
X211464021Y-64907665D01*
X211502563Y-64900000D01*
X211553044Y-64900000D01*
X211553045Y-64899999D01*
X211707697Y-64869237D01*
X211853379Y-64808894D01*
X211984489Y-64721289D01*
X212095989Y-64609789D01*
X212183594Y-64478679D01*
X212243937Y-64332997D01*
X212274700Y-64178342D01*
X212274700Y-64020658D01*
X212274700Y-64020655D01*
X212274699Y-64020653D01*
X212247281Y-63882814D01*
X212243937Y-63866003D01*
X212190557Y-63737131D01*
X212183597Y-63720327D01*
X212183590Y-63720314D01*
X212095989Y-63589211D01*
X212095986Y-63589207D01*
X211984492Y-63477713D01*
X211984488Y-63477710D01*
X211853385Y-63390109D01*
X211853372Y-63390102D01*
X211707701Y-63329764D01*
X211707689Y-63329761D01*
X211553045Y-63299000D01*
X211553042Y-63299000D01*
X211395358Y-63299000D01*
X211395355Y-63299000D01*
X211240710Y-63329761D01*
X211240698Y-63329764D01*
X211095027Y-63390102D01*
X211095014Y-63390109D01*
X210963911Y-63477710D01*
X210963907Y-63477713D01*
X210852413Y-63589207D01*
X210852407Y-63589215D01*
X210782467Y-63693889D01*
X210728855Y-63738695D01*
X210679365Y-63748999D01*
X203924297Y-63748999D01*
X203857258Y-63729314D01*
X203836616Y-63712680D01*
X203727572Y-63603636D01*
X203727567Y-63603632D01*
X203617218Y-63539923D01*
X203590640Y-63524578D01*
X203437912Y-63483654D01*
X203279798Y-63483654D01*
X203272202Y-63483654D01*
X203272186Y-63483655D01*
X193907612Y-63483655D01*
X193840573Y-63463970D01*
X193838721Y-63462757D01*
X193755146Y-63406913D01*
X193755133Y-63406906D01*
X193609462Y-63346568D01*
X193609450Y-63346565D01*
X193454806Y-63315804D01*
X193454803Y-63315804D01*
X193297119Y-63315804D01*
X193297116Y-63315804D01*
X193142471Y-63346565D01*
X193142459Y-63346568D01*
X192996788Y-63406906D01*
X192996775Y-63406913D01*
X192865672Y-63494514D01*
X192865668Y-63494517D01*
X192754174Y-63606011D01*
X192754171Y-63606015D01*
X192666570Y-63737118D01*
X192666563Y-63737131D01*
X192606225Y-63882802D01*
X192606222Y-63882814D01*
X192575461Y-64037457D01*
X192575461Y-64195150D01*
X192606222Y-64349793D01*
X192606225Y-64349805D01*
X192666563Y-64495476D01*
X192666570Y-64495489D01*
X192754171Y-64626592D01*
X192754174Y-64626596D01*
X192865668Y-64738090D01*
X192865672Y-64738093D01*
X192977209Y-64812620D01*
X193022014Y-64866232D01*
X193030721Y-64935557D01*
X193000567Y-64998584D01*
X192977214Y-65018821D01*
X192963911Y-65027710D01*
X192963907Y-65027713D01*
X192852413Y-65139207D01*
X192848547Y-65143919D01*
X192847495Y-65143056D01*
X192799189Y-65183420D01*
X192729863Y-65192122D01*
X192666838Y-65161961D01*
X192662028Y-65157401D01*
X189876808Y-62372181D01*
X189843323Y-62310858D01*
X189848307Y-62241166D01*
X189890179Y-62185233D01*
X189955643Y-62160816D01*
X189964489Y-62160500D01*
X218740225Y-62160500D01*
X218807264Y-62180185D01*
X218840543Y-62211615D01*
X218978026Y-62400845D01*
X218978030Y-62400850D01*
X219156170Y-62578990D01*
X219156175Y-62578994D01*
X219292921Y-62678345D01*
X219359980Y-62727066D01*
X219461408Y-62778746D01*
X219584441Y-62841435D01*
X219584443Y-62841435D01*
X219584446Y-62841437D01*
X219824040Y-62919286D01*
X220072863Y-62958696D01*
X220072864Y-62958696D01*
X220324786Y-62958696D01*
X220324787Y-62958696D01*
X220573610Y-62919286D01*
X220813204Y-62841437D01*
X221037670Y-62727066D01*
X221241481Y-62578989D01*
X221419618Y-62400852D01*
X221567695Y-62197041D01*
X221682066Y-61972575D01*
X221759915Y-61732981D01*
X221799325Y-61484158D01*
X221799325Y-61232234D01*
X221759915Y-60983411D01*
X221682066Y-60743817D01*
X221682064Y-60743814D01*
X221682064Y-60743812D01*
X221640572Y-60662380D01*
X221567695Y-60519351D01*
X221473561Y-60389786D01*
X221419623Y-60315546D01*
X221419619Y-60315541D01*
X221241479Y-60137401D01*
X221241474Y-60137397D01*
X221037673Y-59989328D01*
X221037672Y-59989327D01*
X221037670Y-59989326D01*
X220967572Y-59953609D01*
X220813208Y-59874956D01*
X220573610Y-59797106D01*
X220549258Y-59793249D01*
X220324787Y-59757696D01*
X220072863Y-59757696D01*
X219948451Y-59777401D01*
X219824039Y-59797106D01*
X219584441Y-59874956D01*
X219359976Y-59989328D01*
X219156175Y-60137397D01*
X219156170Y-60137401D01*
X218978030Y-60315541D01*
X218978026Y-60315546D01*
X218829957Y-60519347D01*
X218715585Y-60743814D01*
X218673344Y-60873818D01*
X218633906Y-60931494D01*
X218569548Y-60958692D01*
X218555413Y-60959500D01*
X189060097Y-60959500D01*
X188993058Y-60939815D01*
X188972416Y-60923181D01*
X186271416Y-58222181D01*
X186237931Y-58160858D01*
X186242915Y-58091166D01*
X186284787Y-58035233D01*
X186350251Y-58010816D01*
X186359097Y-58010500D01*
X218576080Y-58010500D01*
X218643119Y-58030185D01*
X218688874Y-58082989D01*
X218694011Y-58096182D01*
X218715582Y-58162572D01*
X218764431Y-58258443D01*
X218813604Y-58354951D01*
X218829957Y-58387044D01*
X218978026Y-58590845D01*
X218978030Y-58590850D01*
X219156170Y-58768990D01*
X219156175Y-58768994D01*
X219325701Y-58892161D01*
X219359980Y-58917066D01*
X219503009Y-58989943D01*
X219584441Y-59031435D01*
X219584443Y-59031435D01*
X219584446Y-59031437D01*
X219824040Y-59109286D01*
X220072863Y-59148696D01*
X220072864Y-59148696D01*
X220324786Y-59148696D01*
X220324787Y-59148696D01*
X220573610Y-59109286D01*
X220813204Y-59031437D01*
X221037670Y-58917066D01*
X221241481Y-58768989D01*
X221419618Y-58590852D01*
X221567695Y-58387041D01*
X221682066Y-58162575D01*
X221759915Y-57922981D01*
X221799325Y-57674158D01*
X221799325Y-57422234D01*
X221759915Y-57173411D01*
X221682066Y-56933817D01*
X221682064Y-56933814D01*
X221682064Y-56933812D01*
X221608693Y-56789815D01*
X221567695Y-56709351D01*
X221491369Y-56604297D01*
X221419623Y-56505546D01*
X221419619Y-56505541D01*
X221241479Y-56327401D01*
X221241474Y-56327397D01*
X221037673Y-56179328D01*
X221037672Y-56179327D01*
X221037670Y-56179326D01*
X220944648Y-56131929D01*
X220813208Y-56064956D01*
X220573610Y-55987106D01*
X220324787Y-55947696D01*
X220072863Y-55947696D01*
X219948451Y-55967401D01*
X219824039Y-55987106D01*
X219584441Y-56064956D01*
X219359976Y-56179328D01*
X219156175Y-56327397D01*
X219156170Y-56327401D01*
X218978030Y-56505541D01*
X218978026Y-56505546D01*
X218829962Y-56709340D01*
X218829953Y-56709354D01*
X218813425Y-56741794D01*
X218765451Y-56792590D01*
X218702940Y-56809500D01*
X214252851Y-56809500D01*
X214185812Y-56789815D01*
X214140057Y-56737011D01*
X214130113Y-56667853D01*
X214159138Y-56604297D01*
X214183958Y-56582399D01*
X214475609Y-56387524D01*
X214787046Y-56131934D01*
X215071932Y-55847048D01*
X215327522Y-55535611D01*
X215551356Y-55200621D01*
X215741276Y-54845304D01*
X215895455Y-54473083D01*
X216012408Y-54087542D01*
X216091008Y-53692394D01*
X216130498Y-53291445D01*
X216130498Y-52888555D01*
X216091008Y-52487606D01*
X216012408Y-52092458D01*
X215895455Y-51706917D01*
X215741276Y-51334696D01*
X215557311Y-50990520D01*
X215551362Y-50979390D01*
X215551361Y-50979388D01*
X215551356Y-50979379D01*
X215327522Y-50644389D01*
X215071932Y-50332952D01*
X215071931Y-50332951D01*
X215071927Y-50332946D01*
X214787051Y-50048070D01*
X214475614Y-49792480D01*
X214475613Y-49792479D01*
X214475609Y-49792476D01*
X214140619Y-49568642D01*
X214140614Y-49568639D01*
X214140607Y-49568635D01*
X213785309Y-49378726D01*
X213785302Y-49378722D01*
X213785295Y-49378719D01*
X213413082Y-49224543D01*
X213027534Y-49107588D01*
X212632398Y-49028991D01*
X212632381Y-49028988D01*
X212329179Y-48999126D01*
X212231443Y-48989500D01*
X211828553Y-48989500D01*
X211738161Y-48998402D01*
X211427614Y-49028988D01*
X211427597Y-49028991D01*
X211032461Y-49107588D01*
X210646913Y-49224543D01*
X210274700Y-49378719D01*
X210274686Y-49378726D01*
X209919388Y-49568635D01*
X209919370Y-49568646D01*
X209584395Y-49792470D01*
X209584381Y-49792480D01*
X209272944Y-50048070D01*
X208988068Y-50332946D01*
X208732478Y-50644383D01*
X208732468Y-50644397D01*
X208508644Y-50979372D01*
X208508633Y-50979390D01*
X208318724Y-51334688D01*
X208318717Y-51334702D01*
X208164541Y-51706915D01*
X208047586Y-52092463D01*
X207968989Y-52487599D01*
X207968986Y-52487616D01*
X207941196Y-52769786D01*
X207929498Y-52888555D01*
X207929498Y-53291445D01*
X207941368Y-53411967D01*
X207968986Y-53692383D01*
X207968989Y-53692400D01*
X208047586Y-54087536D01*
X208164541Y-54473084D01*
X208318717Y-54845297D01*
X208318724Y-54845311D01*
X208508633Y-55200609D01*
X208508644Y-55200627D01*
X208732468Y-55535602D01*
X208732478Y-55535616D01*
X208988068Y-55847053D01*
X209272944Y-56131929D01*
X209272949Y-56131933D01*
X209272950Y-56131934D01*
X209584387Y-56387524D01*
X209876036Y-56582398D01*
X209920841Y-56636010D01*
X209929548Y-56705335D01*
X209899394Y-56768363D01*
X209839951Y-56805082D01*
X209807145Y-56809500D01*
X185640098Y-56809500D01*
X185573059Y-56789815D01*
X185552417Y-56773181D01*
X182866772Y-54087536D01*
X180101415Y-51322180D01*
X180067931Y-51260858D01*
X180072915Y-51191166D01*
X180114787Y-51135233D01*
X180180251Y-51110816D01*
X180189097Y-51110500D01*
X184235079Y-51110500D01*
X184235095Y-51110501D01*
X184242691Y-51110501D01*
X184400802Y-51110501D01*
X184400805Y-51110501D01*
X184553533Y-51069577D01*
X184603652Y-51040639D01*
X184690464Y-50990520D01*
X184802268Y-50878716D01*
X184802268Y-50878714D01*
X184812476Y-50868507D01*
X184812478Y-50868504D01*
X185269726Y-50411255D01*
X185331047Y-50377772D01*
X185395721Y-50381006D01*
X185438005Y-50394746D01*
X185647961Y-50428000D01*
X185647962Y-50428000D01*
X185860534Y-50428000D01*
X185860535Y-50428000D01*
X186070491Y-50394746D01*
X186272660Y-50329057D01*
X186462064Y-50232551D01*
X186484037Y-50216586D01*
X186634034Y-50107609D01*
X186634036Y-50107606D01*
X186634040Y-50107604D01*
X186666567Y-50075077D01*
X186727890Y-50041592D01*
X186797582Y-50046576D01*
X186841929Y-50075077D01*
X186874461Y-50107609D01*
X187046427Y-50232548D01*
X187046429Y-50232549D01*
X187046432Y-50232551D01*
X187235836Y-50329057D01*
X187438005Y-50394746D01*
X187647961Y-50428000D01*
X187647962Y-50428000D01*
X187860534Y-50428000D01*
X187860535Y-50428000D01*
X188070491Y-50394746D01*
X188272660Y-50329057D01*
X188462064Y-50232551D01*
X188484037Y-50216586D01*
X188634034Y-50107609D01*
X188634036Y-50107606D01*
X188634040Y-50107604D01*
X188784352Y-49957292D01*
X188784354Y-49957288D01*
X188784357Y-49957286D01*
X188909296Y-49785320D01*
X188909295Y-49785320D01*
X188909299Y-49785316D01*
X189005805Y-49595912D01*
X189071494Y-49393743D01*
X189104748Y-49183787D01*
X189104748Y-48971213D01*
X189071494Y-48761257D01*
X189005805Y-48559088D01*
X188972139Y-48493014D01*
X188959243Y-48424344D01*
X188985520Y-48359604D01*
X189026328Y-48326235D01*
X189112064Y-48282551D01*
X189252960Y-48180185D01*
X189284034Y-48157609D01*
X189284036Y-48157606D01*
X189284040Y-48157604D01*
X189434352Y-48007292D01*
X189434354Y-48007288D01*
X189434357Y-48007286D01*
X189559296Y-47835320D01*
X189559295Y-47835320D01*
X189559299Y-47835316D01*
X189655805Y-47645912D01*
X189721494Y-47443743D01*
X189754748Y-47233787D01*
X189754748Y-47021213D01*
X189721494Y-46811257D01*
X189655805Y-46609088D01*
X189559299Y-46419684D01*
X189559297Y-46419681D01*
X189559296Y-46419679D01*
X189434357Y-46247713D01*
X189284034Y-46097390D01*
X189112068Y-45972451D01*
X188922662Y-45875944D01*
X188922661Y-45875943D01*
X188922660Y-45875943D01*
X188720491Y-45810254D01*
X188720489Y-45810253D01*
X188720488Y-45810253D01*
X188559205Y-45784708D01*
X188510535Y-45777000D01*
X188297961Y-45777000D01*
X188249290Y-45784708D01*
X188088008Y-45810253D01*
X187885833Y-45875944D01*
X187696427Y-45972451D01*
X187524461Y-46097390D01*
X187374138Y-46247713D01*
X187249196Y-46419684D01*
X187249195Y-46419685D01*
X187229013Y-46459295D01*
X187181039Y-46510091D01*
X187118529Y-46527000D01*
X186578747Y-46527000D01*
X186511708Y-46507315D01*
X186465953Y-46454511D01*
X186454747Y-46403000D01*
X186454747Y-46229629D01*
X186454746Y-46229623D01*
X186454745Y-46229616D01*
X186448339Y-46170017D01*
X186433893Y-46131286D01*
X186398045Y-46035171D01*
X186398041Y-46035164D01*
X186311795Y-45919955D01*
X186311792Y-45919952D01*
X186196583Y-45833706D01*
X186196576Y-45833702D01*
X186061730Y-45783408D01*
X186061731Y-45783408D01*
X186002131Y-45777001D01*
X186002129Y-45777000D01*
X186002121Y-45777000D01*
X186002112Y-45777000D01*
X184206377Y-45777000D01*
X184206371Y-45777001D01*
X184146764Y-45783408D01*
X184011919Y-45833702D01*
X184011912Y-45833706D01*
X183896703Y-45919952D01*
X183896700Y-45919955D01*
X183810454Y-46035164D01*
X183810450Y-46035171D01*
X183760156Y-46170017D01*
X183753749Y-46229616D01*
X183753749Y-46229623D01*
X183753748Y-46229635D01*
X183753748Y-47577402D01*
X183734063Y-47644441D01*
X183717429Y-47665083D01*
X182183832Y-49198681D01*
X182122509Y-49232166D01*
X182096151Y-49235000D01*
X179219861Y-49235000D01*
X179152822Y-49215315D01*
X179132180Y-49198681D01*
X176071854Y-46138355D01*
X176071852Y-46138352D01*
X175952981Y-46019481D01*
X175952980Y-46019480D01*
X175866168Y-45969360D01*
X175866168Y-45969359D01*
X175866164Y-45969358D01*
X175816049Y-45940423D01*
X175663321Y-45899499D01*
X175505207Y-45899499D01*
X175497611Y-45899499D01*
X175497595Y-45899500D01*
X132286670Y-45899500D01*
X132286654Y-45899499D01*
X132279058Y-45899499D01*
X132120943Y-45899499D01*
X132044613Y-45919952D01*
X131968214Y-45940423D01*
X131968209Y-45940426D01*
X131831290Y-46019475D01*
X131831282Y-46019481D01*
X130569481Y-47281282D01*
X130569480Y-47281284D01*
X130529156Y-47351128D01*
X130490423Y-47418215D01*
X130449499Y-47570943D01*
X130449499Y-47570945D01*
X130449499Y-47739046D01*
X130449500Y-47739059D01*
X130449500Y-64633330D01*
X130449499Y-64633348D01*
X130449499Y-64799054D01*
X130449498Y-64799054D01*
X129096960Y-64799054D01*
X129096960Y-42799778D01*
X169249500Y-42799778D01*
X169249500Y-43020221D01*
X169283985Y-43237952D01*
X169352103Y-43447603D01*
X169352104Y-43447606D01*
X169452187Y-43644025D01*
X169581752Y-43822358D01*
X169581756Y-43822363D01*
X169737636Y-43978243D01*
X169737641Y-43978247D01*
X169893192Y-44091260D01*
X169915978Y-44107815D01*
X170044375Y-44173237D01*
X170112393Y-44207895D01*
X170112396Y-44207896D01*
X170217221Y-44241955D01*
X170322049Y-44276015D01*
X170539778Y-44310500D01*
X170539779Y-44310500D01*
X170760221Y-44310500D01*
X170760222Y-44310500D01*
X170977951Y-44276015D01*
X171187606Y-44207895D01*
X171384022Y-44107815D01*
X171562365Y-43978242D01*
X171718242Y-43822365D01*
X171847815Y-43644022D01*
X171947895Y-43447606D01*
X172016015Y-43237951D01*
X172050500Y-43020222D01*
X172050500Y-42799778D01*
X173249500Y-42799778D01*
X173249500Y-43020221D01*
X173283985Y-43237952D01*
X173352103Y-43447603D01*
X173352104Y-43447606D01*
X173452187Y-43644025D01*
X173581752Y-43822358D01*
X173581756Y-43822363D01*
X173737636Y-43978243D01*
X173737641Y-43978247D01*
X173893192Y-44091260D01*
X173915978Y-44107815D01*
X174044375Y-44173237D01*
X174112393Y-44207895D01*
X174112396Y-44207896D01*
X174217221Y-44241955D01*
X174322049Y-44276015D01*
X174539778Y-44310500D01*
X174539779Y-44310500D01*
X174760221Y-44310500D01*
X174760222Y-44310500D01*
X174977951Y-44276015D01*
X175187606Y-44207895D01*
X175384022Y-44107815D01*
X175562365Y-43978242D01*
X175718242Y-43822365D01*
X175847815Y-43644022D01*
X175947895Y-43447606D01*
X176016015Y-43237951D01*
X176050500Y-43020222D01*
X176050500Y-42799778D01*
X176016015Y-42582049D01*
X176016014Y-42582045D01*
X175981924Y-42477123D01*
X175970556Y-42442135D01*
X195829500Y-42442135D01*
X195829500Y-44937870D01*
X195829501Y-44937876D01*
X195835908Y-44997483D01*
X195886202Y-45132328D01*
X195886206Y-45132335D01*
X195972452Y-45247544D01*
X195972455Y-45247547D01*
X196087664Y-45333793D01*
X196087671Y-45333797D01*
X196222517Y-45384091D01*
X196222516Y-45384091D01*
X196229444Y-45384835D01*
X196282127Y-45390500D01*
X197977872Y-45390499D01*
X198037483Y-45384091D01*
X198172331Y-45333796D01*
X198287546Y-45247546D01*
X198373796Y-45132331D01*
X198424091Y-44997483D01*
X198430500Y-44937873D01*
X198430499Y-42442135D01*
X214729500Y-42442135D01*
X214729500Y-44937870D01*
X214729501Y-44937876D01*
X214735908Y-44997483D01*
X214786202Y-45132328D01*
X214786206Y-45132335D01*
X214872452Y-45247544D01*
X214872455Y-45247547D01*
X214987664Y-45333793D01*
X214987671Y-45333797D01*
X215122517Y-45384091D01*
X215122516Y-45384091D01*
X215129444Y-45384835D01*
X215182127Y-45390500D01*
X216877872Y-45390499D01*
X216937483Y-45384091D01*
X217072331Y-45333796D01*
X217187546Y-45247546D01*
X217273796Y-45132331D01*
X217324091Y-44997483D01*
X217330500Y-44937873D01*
X217330499Y-42442128D01*
X217324091Y-42382517D01*
X217320315Y-42372394D01*
X217273797Y-42247671D01*
X217273793Y-42247664D01*
X217187547Y-42132455D01*
X217187544Y-42132452D01*
X217072335Y-42046206D01*
X217072328Y-42046202D01*
X216937482Y-41995908D01*
X216937483Y-41995908D01*
X216877883Y-41989501D01*
X216877881Y-41989500D01*
X216877873Y-41989500D01*
X216877864Y-41989500D01*
X215182129Y-41989500D01*
X215182123Y-41989501D01*
X215122516Y-41995908D01*
X214987671Y-42046202D01*
X214987664Y-42046206D01*
X214872455Y-42132452D01*
X214872452Y-42132455D01*
X214786206Y-42247664D01*
X214786202Y-42247671D01*
X214735908Y-42382517D01*
X214729501Y-42442116D01*
X214729501Y-42442123D01*
X214729500Y-42442135D01*
X198430499Y-42442135D01*
X198430499Y-42442128D01*
X198424091Y-42382517D01*
X198420315Y-42372394D01*
X198373797Y-42247671D01*
X198373793Y-42247664D01*
X198287547Y-42132455D01*
X198287544Y-42132452D01*
X198172335Y-42046206D01*
X198172328Y-42046202D01*
X198037482Y-41995908D01*
X198037483Y-41995908D01*
X197977883Y-41989501D01*
X197977881Y-41989500D01*
X197977873Y-41989500D01*
X197977864Y-41989500D01*
X196282129Y-41989500D01*
X196282123Y-41989501D01*
X196222516Y-41995908D01*
X196087671Y-42046202D01*
X196087664Y-42046206D01*
X195972455Y-42132452D01*
X195972452Y-42132455D01*
X195886206Y-42247664D01*
X195886202Y-42247671D01*
X195835908Y-42382517D01*
X195829501Y-42442116D01*
X195829501Y-42442123D01*
X195829500Y-42442135D01*
X175970556Y-42442135D01*
X175947896Y-42372396D01*
X175947895Y-42372393D01*
X175913237Y-42304375D01*
X175847815Y-42175978D01*
X175816192Y-42132452D01*
X175718247Y-41997641D01*
X175718243Y-41997636D01*
X175562363Y-41841756D01*
X175562358Y-41841752D01*
X175384025Y-41712187D01*
X175384024Y-41712186D01*
X175384022Y-41712185D01*
X175311010Y-41674983D01*
X175187606Y-41612104D01*
X175187603Y-41612103D01*
X174977952Y-41543985D01*
X174859739Y-41525262D01*
X174760222Y-41509500D01*
X174539778Y-41509500D01*
X174467201Y-41520995D01*
X174322047Y-41543985D01*
X174112396Y-41612103D01*
X174112393Y-41612104D01*
X173915974Y-41712187D01*
X173737641Y-41841752D01*
X173737636Y-41841756D01*
X173581756Y-41997636D01*
X173581752Y-41997641D01*
X173452187Y-42175974D01*
X173352104Y-42372393D01*
X173352103Y-42372396D01*
X173283985Y-42582047D01*
X173249500Y-42799778D01*
X172050500Y-42799778D01*
X172016015Y-42582049D01*
X171947895Y-42372394D01*
X171947895Y-42372393D01*
X171913237Y-42304375D01*
X171847815Y-42175978D01*
X171816192Y-42132452D01*
X171718247Y-41997641D01*
X171718243Y-41997636D01*
X171562363Y-41841756D01*
X171562358Y-41841752D01*
X171384025Y-41712187D01*
X171384024Y-41712186D01*
X171384022Y-41712185D01*
X171311010Y-41674983D01*
X171187606Y-41612104D01*
X171187603Y-41612103D01*
X170977952Y-41543985D01*
X170859739Y-41525262D01*
X170760222Y-41509500D01*
X170539778Y-41509500D01*
X170467201Y-41520995D01*
X170322047Y-41543985D01*
X170112396Y-41612103D01*
X170112393Y-41612104D01*
X169915974Y-41712187D01*
X169737641Y-41841752D01*
X169737636Y-41841756D01*
X169581756Y-41997636D01*
X169581752Y-41997641D01*
X169452187Y-42175974D01*
X169352104Y-42372393D01*
X169352103Y-42372396D01*
X169283985Y-42582047D01*
X169249500Y-42799778D01*
X129096960Y-42799778D01*
X129096960Y-41979949D01*
X129097809Y-41965462D01*
X129101435Y-41934641D01*
X129130380Y-41688585D01*
X129132753Y-41674992D01*
X129197834Y-41395245D01*
X129201704Y-41382005D01*
X129297501Y-41111245D01*
X129302817Y-41098521D01*
X129428149Y-40840083D01*
X129434843Y-40828039D01*
X129588142Y-40585158D01*
X129596141Y-40573923D01*
X129775513Y-40349602D01*
X129784716Y-40339323D01*
X129987931Y-40136346D01*
X129998213Y-40127163D01*
X130222741Y-39948061D01*
X130233980Y-39940078D01*
X130477049Y-39787060D01*
X130489111Y-39780375D01*
X130747691Y-39655351D01*
X130760410Y-39650054D01*
X131031304Y-39554569D01*
X131044541Y-39550718D01*
X131324366Y-39485966D01*
X131337949Y-39483611D01*
X131615055Y-39451345D01*
X131629433Y-39450514D01*
X224371659Y-39500459D01*
G37*
%TD.AperFunction*%
%TD*%
M02*
