ISO-10303-21;
HEADER;
FILE_DESCRIPTION (( 'STEP AP214' ),
    '1' );
FILE_NAME ('SMD1812B050TF30.STEP',
    '2024-10-04T08:01:30',
    ( '' ),
    ( '' ),
    'SwSTEP 2.0',
    'SolidWorks 2023',
    '' );
FILE_SCHEMA (( 'AUTOMOTIVE_DESIGN' ));
ENDSEC;

DATA;
#1 =( NAMED_UNIT ( * ) PLANE_ANGLE_UNIT ( ) SI_UNIT ( $, .RADIAN. ) );
#2 = VERTEX_POINT ( 'NONE', #564 ) ;
#3 = FILL_AREA_STYLE_COLOUR ( '', #749 ) ;
#4 = UNCERTAINTY_MEASURE_WITH_UNIT (LENGTH_MEASURE( 1.000000000000000082E-05 ), #887, 'distance_accuracy_value', 'NONE');
#5 = FACE_OUTER_BOUND ( 'NONE', #82, .T. ) ;
#6 =( GEOMETRIC_REPRESENTATION_CONTEXT ( 3 ) GLOBAL_UNCERTAINTY_ASSIGNED_CONTEXT ( ( #766 ) ) GLOBAL_UNIT_ASSIGNED_CONTEXT ( ( #99, #111, #275 ) ) REPRESENTATION_CONTEXT ( 'NONE', 'WORKASPACE' ) );
#7 = ORIENTED_EDGE ( 'NONE', *, *, #88, .T. ) ;
#8 =( NAMED_UNIT ( * ) SI_UNIT ( $, .STERADIAN. ) SOLID_ANGLE_UNIT ( ) );
#9 = PLANE ( 'NONE',  #475 ) ;
#10 = MECHANICAL_DESIGN_GEOMETRIC_PRESENTATION_REPRESENTATION (  '', ( #359 ), #698 ) ;
#11 = EDGE_LOOP ( 'NONE', ( #401, #869, #384, #810 ) ) ;
#12 = CARTESIAN_POINT ( 'NONE',  ( -1.524999999999999911, 9.301875178848913372E-17, 0.6750000000000000444 ) ) ;
#13 = DIRECTION ( 'NONE',  ( 1.000000000000000000, 0.000000000000000000, 0.000000000000000000 ) ) ;
#14 = EDGE_CURVE ( 'NONE', #351, #892, #392, .T. ) ;
#15 = DIRECTION ( 'NONE',  ( 3.160165331966280166E-16, -1.000000000000000000, 0.000000000000000000 ) ) ;
#16 = DIRECTION ( 'NONE',  ( -0.000000000000000000, 0.000000000000000000, 1.000000000000000000 ) ) ;
#17 = DIRECTION ( 'NONE',  ( -0.000000000000000000, 0.000000000000000000, 1.000000000000000000 ) ) ;
#18 = ORIENTED_EDGE ( 'NONE', *, *, #619, .T. ) ;
#19 = FACE_OUTER_BOUND ( 'NONE', #660, .T. ) ;
#20 =( GEOMETRIC_REPRESENTATION_CONTEXT ( 3 ) GLOBAL_UNCERTAINTY_ASSIGNED_CONTEXT ( ( #774 ) ) GLOBAL_UNIT_ASSIGNED_CONTEXT ( ( #270, #521, #670 ) ) REPRESENTATION_CONTEXT ( 'NONE', 'WORKASPACE' ) );
#21 = ORIENTED_EDGE ( 'NONE', *, *, #581, .T. ) ;
#22 = VECTOR ( 'NONE', #1001, 1000.000000000000000 ) ;
#23 = DIRECTION ( 'NONE',  ( -6.099590281212402474E-17, 1.000000000000000000, 0.000000000000000000 ) ) ;
#24 = MECHANICAL_DESIGN_GEOMETRIC_PRESENTATION_REPRESENTATION (  '', ( #498 ), #635 ) ;
#25 = DIRECTION ( 'NONE',  ( -0.000000000000000000, -0.000000000000000000, -1.000000000000000000 ) ) ;
#26 = ORIENTED_EDGE ( 'NONE', *, *, #332, .F. ) ;
#27 = DIRECTION ( 'NONE',  ( -0.000000000000000000, -0.000000000000000000, -1.000000000000000000 ) ) ;
#28 = DIRECTION ( 'NONE',  ( -0.000000000000000000, -0.000000000000000000, -1.000000000000000000 ) ) ;
#29 = VECTOR ( 'NONE', #163, 1000.000000000000000 ) ;
#30 = DIRECTION ( 'NONE',  ( -0.000000000000000000, 0.000000000000000000, 1.000000000000000000 ) ) ;
#31 = SURFACE_SIDE_STYLE ('',( #736 ) ) ;
#32 =( LENGTH_UNIT ( ) NAMED_UNIT ( * ) SI_UNIT ( .MILLI., .METRE. ) );
#33 = SURFACE_STYLE_FILL_AREA ( #589 ) ;
#34 = FILL_AREA_STYLE ('',( #742 ) ) ;
#35 = EDGE_CURVE ( 'NONE', #844, #1022, #327, .T. ) ;
#36 = MECHANICAL_DESIGN_GEOMETRIC_PRESENTATION_REPRESENTATION (  '', ( #474 ), #6 ) ;
#37 =( LENGTH_UNIT ( ) NAMED_UNIT ( * ) SI_UNIT ( .MILLI., .METRE. ) );
#38 = FILL_AREA_STYLE ('',( #54 ) ) ;
#39 = SURFACE_STYLE_USAGE ( .BOTH. , #915 ) ;
#40 = AXIS2_PLACEMENT_3D ( 'NONE', #522, #447, #747 ) ;
#41 = DIRECTION ( 'NONE',  ( 1.000000000000000000, 0.000000000000000000, -0.000000000000000000 ) ) ;
#42 = SURFACE_STYLE_FILL_AREA ( #909 ) ;
#43 = FACE_OUTER_BOUND ( 'NONE', #141, .T. ) ;
#44 = STYLED_ITEM ( 'NONE', ( #833 ), #208 ) ;
#45 = DIRECTION ( 'NONE',  ( 1.000000000000000000, -4.765723835101117484E-17, 0.000000000000000000 ) ) ;
#46 = EDGE_CURVE ( 'NONE', #850, #315, #1030, .T. ) ;
#47 = VECTOR ( 'NONE', #811, 1000.000000000000000 ) ;
#48 = STYLED_ITEM ( 'NONE', ( #52 ), #866 ) ;
#49 = SURFACE_STYLE_USAGE ( .BOTH. , #365 ) ;
#50 = ORIENTED_EDGE ( 'NONE', *, *, #363, .T. ) ;
#51 = CARTESIAN_POINT ( 'NONE',  ( -1.524999999999999911, -1.777500000000000080, -0.6750000000000000444 ) ) ;
#52 = PRESENTATION_STYLE_ASSIGNMENT (( #136 ) ) ;
#53 = COLOUR_RGB ( '',0.7529411764705882248, 0.7529411764705882248, 0.7529411764705882248 ) ;
#54 = FILL_AREA_STYLE_COLOUR ( '', #104 ) ;
#55 =( GEOMETRIC_REPRESENTATION_CONTEXT ( 3 ) GLOBAL_UNCERTAINTY_ASSIGNED_CONTEXT ( ( #567 ) ) GLOBAL_UNIT_ASSIGNED_CONTEXT ( ( #319, #937, #944 ) ) REPRESENTATION_CONTEXT ( 'NONE', 'WORKASPACE' ) );
#56 = PLANE ( 'NONE',  #322 ) ;
#57 = EDGE_LOOP ( 'NONE', ( #386, #238, #108, #788 ) ) ;
#58 = PRESENTATION_STYLE_ASSIGNMENT (( #789 ) ) ;
#59 = ORIENTED_EDGE ( 'NONE', *, *, #112, .T. ) ;
#60 = LINE ( 'NONE', #302, #29 ) ;
#61 =( NAMED_UNIT ( * ) PLANE_ANGLE_UNIT ( ) SI_UNIT ( $, .RADIAN. ) );
#62 = FILL_AREA_STYLE ('',( #304 ) ) ;
#63 = CARTESIAN_POINT ( 'NONE',  ( 1.869836012319841867, -8.673617379884035472E-16, -0.6750000000000000444 ) ) ;
#64 = DIRECTION ( 'NONE',  ( -0.000000000000000000, 0.000000000000000000, 1.000000000000000000 ) ) ;
#65 = ADVANCED_FACE ( 'NONE', ( #311 ), #706, .T. ) ;
#66 = PRESENTATION_STYLE_ASSIGNMENT (( #551 ) ) ;
#67 = DIRECTION ( 'NONE',  ( -6.099590281212402474E-17, 1.000000000000000000, 0.000000000000000000 ) ) ;
#68 = CARTESIAN_POINT ( 'NONE',  ( -2.274999999999999911, 0.000000000000000000, -0.6750000000000000444 ) ) ;
#69 = ORIENTED_EDGE ( 'NONE', *, *, #281, .F. ) ;
#70 = CIRCLE ( 'NONE', #593, 0.4051639876801582107 ) ;
#71 = COLOUR_RGB ( '',0.7529411764705882248, 0.7529411764705882248, 0.7529411764705882248 ) ;
#72 = CARTESIAN_POINT ( 'NONE',  ( -2.274999999999999911, 0.000000000000000000, 0.6750000000000000444 ) ) ;
#73 = DIRECTION ( 'NONE',  ( -6.099590281212402474E-17, -1.000000000000000000, 0.000000000000000000 ) ) ;
#74 = EDGE_CURVE ( 'NONE', #613, #172, #898, .T. ) ;
#75 = ORIENTED_EDGE ( 'NONE', *, *, #885, .T. ) ;
#76 = UNCERTAINTY_MEASURE_WITH_UNIT (LENGTH_MEASURE( 1.000000000000000082E-05 ), #932, 'distance_accuracy_value', 'NONE');
#77 = AXIS2_PLACEMENT_3D ( 'NONE', #858, #1015, #1029 ) ;
#78 = CARTESIAN_POINT ( 'NONE',  ( -2.275000000000000355, 1.777500000000000080, 0.6750000000000000444 ) ) ;
#79 = SURFACE_STYLE_USAGE ( .BOTH. , #156 ) ;
#80 = ORIENTED_EDGE ( 'NONE', *, *, #182, .F. ) ;
#81 = ORIENTED_EDGE ( 'NONE', *, *, #395, .T. ) ;
#82 = EDGE_LOOP ( 'NONE', ( #538, #650, #428, #380 ) ) ;
#83 = UNCERTAINTY_MEASURE_WITH_UNIT (LENGTH_MEASURE( 1.000000000000000082E-05 ), #846, 'distance_accuracy_value', 'NONE');
#84 = LINE ( 'NONE', #237, #287 ) ;
#85 =( GEOMETRIC_REPRESENTATION_CONTEXT ( 3 ) GLOBAL_UNCERTAINTY_ASSIGNED_CONTEXT ( ( #841 ) ) GLOBAL_UNIT_ASSIGNED_CONTEXT ( ( #37, #912, #573 ) ) REPRESENTATION_CONTEXT ( 'NONE', 'WORKASPACE' ) );
#86 = DIRECTION ( 'NONE',  ( -6.099590281212402474E-17, -1.000000000000000000, 0.000000000000000000 ) ) ;
#87 = VECTOR ( 'NONE', #665, 1000.000000000000000 ) ;
#88 = EDGE_CURVE ( 'NONE', #943, #559, #253, .T. ) ;
#89 = LINE ( 'NONE', #250, #981 ) ;
#90 = MECHANICAL_DESIGN_GEOMETRIC_PRESENTATION_REPRESENTATION (  '', ( #48 ), #872 ) ;
#91 = FILL_AREA_STYLE ('',( #432 ) ) ;
#92 = SURFACE_STYLE_FILL_AREA ( #409 ) ;
#93 = SURFACE_STYLE_FILL_AREA ( #859 ) ;
#94 = APPLICATION_PROTOCOL_DEFINITION ( 'draft international standard', 'automotive_design', 1998, #743 ) ;
#95 = DIRECTION ( 'NONE',  ( -6.099590281212402474E-17, 1.000000000000000000, 0.000000000000000000 ) ) ;
#96 = ADVANCED_FACE ( 'NONE', ( #190 ), #107, .F. ) ;
#97 = SURFACE_SIDE_STYLE ('',( #661 ) ) ;
#98 =( NAMED_UNIT ( * ) PLANE_ANGLE_UNIT ( ) SI_UNIT ( $, .RADIAN. ) );
#99 =( LENGTH_UNIT ( ) NAMED_UNIT ( * ) SI_UNIT ( .MILLI., .METRE. ) );
#100 = ORIENTED_EDGE ( 'NONE', *, *, #261, .F. ) ;
#101 = DIRECTION ( 'NONE',  ( 1.000000000000000000, 0.000000000000000000, 0.000000000000000000 ) ) ;
#102 =( NAMED_UNIT ( * ) SI_UNIT ( $, .STERADIAN. ) SOLID_ANGLE_UNIT ( ) );
#103 = EDGE_LOOP ( 'NONE', ( #714, #260, #691, #59 ) ) ;
#104 = COLOUR_RGB ( '',0.000000000000000000, 0.000000000000000000, 0.000000000000000000 ) ;
#105 = PRESENTATION_LAYER_ASSIGNMENT (  '', '', ( #340 ) ) ;
#106 = SURFACE_STYLE_USAGE ( .BOTH. , #817 ) ;
#107 = PLANE ( 'NONE',  #572 ) ;
#108 = ORIENTED_EDGE ( 'NONE', *, *, #350, .F. ) ;
#109 = AXIS2_PLACEMENT_3D ( 'NONE', #494, #648, #867 ) ;
#110 = AXIS2_PLACEMENT_3D ( 'NONE', #1008, #288, #219 ) ;
#111 =( NAMED_UNIT ( * ) PLANE_ANGLE_UNIT ( ) SI_UNIT ( $, .RADIAN. ) );
#112 = EDGE_CURVE ( 'NONE', #821, #729, #809, .T. ) ;
#113 = ORIENTED_EDGE ( 'NONE', *, *, #639, .T. ) ;
#114 = FILL_AREA_STYLE_COLOUR ( '', #321 ) ;
#115 = FILL_AREA_STYLE ('',( #437 ) ) ;
#116 = SURFACE_STYLE_USAGE ( .BOTH. , #897 ) ;
#117 = ADVANCED_FACE ( 'NONE', ( #980 ), #647, .T. ) ;
#118 = STYLED_ITEM ( 'NONE', ( #345 ), #1012 ) ;
#119 = VECTOR ( 'NONE', #28, 1000.000000000000000 ) ;
#120 =( NAMED_UNIT ( * ) PLANE_ANGLE_UNIT ( ) SI_UNIT ( $, .RADIAN. ) );
#121 = COLOUR_RGB ( '',0.7529411764705882248, 0.7529411764705882248, 0.7529411764705882248 ) ;
#122 = DIRECTION ( 'NONE',  ( -1.000000000000000000, 4.765723835101118100E-17, 0.000000000000000000 ) ) ;
#123 = PRESENTATION_STYLE_ASSIGNMENT (( #753 ) ) ;
#124 = PRESENTATION_LAYER_ASSIGNMENT (  '', '', ( #598 ) ) ;
#125 = CARTESIAN_POINT ( 'NONE',  ( -1.524999999999999911, -1.777500000000000080, -0.6750000000000000444 ) ) ;
#126 = SURFACE_STYLE_USAGE ( .BOTH. , #832 ) ;
#127 = SURFACE_SIDE_STYLE ('',( #924 ) ) ;
#128 = EDGE_CURVE ( 'NONE', #562, #772, #568, .T. ) ;
#129 = EDGE_CURVE ( 'NONE', #772, #268, #89, .T. ) ;
#130 = CARTESIAN_POINT ( 'NONE',  ( -2.274999999999999911, -7.189376130223295945E-16, -0.6750000000000000444 ) ) ;
#131 = CARTESIAN_POINT ( 'NONE',  ( -2.274999999999999911, 7.189376130223295945E-16, 0.6750000000000000444 ) ) ;
#132 = SURFACE_SIDE_STYLE ('',( #681 ) ) ;
#133 = VERTEX_POINT ( 'NONE', #659 ) ;
#134 = VECTOR ( 'NONE', #600, 1000.000000000000000 ) ;
#135 = FILL_AREA_STYLE_COLOUR ( '', #834 ) ;
#136 = SURFACE_STYLE_USAGE ( .BOTH. , #451 ) ;
#137 =( GEOMETRIC_REPRESENTATION_CONTEXT ( 3 ) GLOBAL_UNCERTAINTY_ASSIGNED_CONTEXT ( ( #76 ) ) GLOBAL_UNIT_ASSIGNED_CONTEXT ( ( #932, #361, #286 ) ) REPRESENTATION_CONTEXT ( 'NONE', 'WORKASPACE' ) );
#138 = VECTOR ( 'NONE', #941, 1000.000000000000000 ) ;
#139 =( LENGTH_UNIT ( ) NAMED_UNIT ( * ) SI_UNIT ( .MILLI., .METRE. ) );
#140 = DIRECTION ( 'NONE',  ( -6.099590281212402474E-17, 1.000000000000000000, 0.000000000000000000 ) ) ;
#141 = EDGE_LOOP ( 'NONE', ( #80, #508, #75, #301 ) ) ;
#142 = DIRECTION ( 'NONE',  ( 1.000000000000000000, 6.099590281212402474E-17, -0.000000000000000000 ) ) ;
#143 = DIRECTION ( 'NONE',  ( 3.160165331966283618E-16, -1.000000000000000000, 0.000000000000000000 ) ) ;
#144 = MECHANICAL_DESIGN_GEOMETRIC_PRESENTATION_REPRESENTATION (  '', ( #210 ), #396 ) ;
#145 = EDGE_CURVE ( 'NONE', #548, #772, #877, .T. ) ;
#146 = CARTESIAN_POINT ( 'NONE',  ( 0.000000000000000000, -1.777500000000000080, 0.6750000000000000444 ) ) ;
#147 = ORIENTED_EDGE ( 'NONE', *, *, #519, .T. ) ;
#148 =( LENGTH_UNIT ( ) NAMED_UNIT ( * ) SI_UNIT ( .MILLI., .METRE. ) );
#149 = LINE ( 'NONE', #951, #167 ) ;
#150 = CARTESIAN_POINT ( 'NONE',  ( -2.274999999999999911, 0.000000000000000000, 0.6750000000000000444 ) ) ;
#151 = ORIENTED_EDGE ( 'NONE', *, *, #272, .T. ) ;
#152 =( LENGTH_UNIT ( ) NAMED_UNIT ( * ) SI_UNIT ( .MILLI., .METRE. ) );
#153 = UNCERTAINTY_MEASURE_WITH_UNIT (LENGTH_MEASURE( 1.000000000000000082E-05 ), #32, 'distance_accuracy_value', 'NONE');
#154 = CARTESIAN_POINT ( 'NONE',  ( -1.524999999999999911, -1.777500000000000080, -0.6850000000000000533 ) ) ;
#155 = SURFACE_SIDE_STYLE ('',( #938 ) ) ;
#156 = SURFACE_SIDE_STYLE ('',( #93 ) ) ;
#157 = AXIS2_PLACEMENT_3D ( 'NONE', #822, #189, #500 ) ;
#158 = PRESENTATION_LAYER_ASSIGNMENT (  '', '', ( #44 ) ) ;
#159 = ORIENTED_EDGE ( 'NONE', *, *, #430, .T. ) ;
#160 = MECHANICAL_DESIGN_GEOMETRIC_PRESENTATION_REPRESENTATION (  '', ( #204 ), #865 ) ;
#161 = UNCERTAINTY_MEASURE_WITH_UNIT (LENGTH_MEASURE( 1.000000000000000082E-05 ), #418, 'distance_accuracy_value', 'NONE');
#162 = FILL_AREA_STYLE_COLOUR ( '', #121 ) ;
#163 = DIRECTION ( 'NONE',  ( 1.000000000000000000, -4.765723835101117484E-17, 0.000000000000000000 ) ) ;
#164 = LINE ( 'NONE', #561, #565 ) ;
#165 = ORIENTED_EDGE ( 'NONE', *, *, #700, .T. ) ;
#166 = ORIENTED_EDGE ( 'NONE', *, *, #619, .F. ) ;
#167 = VECTOR ( 'NONE', #545, 1000.000000000000000 ) ;
#168 = CYLINDRICAL_SURFACE ( 'NONE', #883, 0.4051639876801586548 ) ;
#169 =( GEOMETRIC_REPRESENTATION_CONTEXT ( 3 ) GLOBAL_UNCERTAINTY_ASSIGNED_CONTEXT ( ( #574 ) ) GLOBAL_UNIT_ASSIGNED_CONTEXT ( ( #813, #510, #337 ) ) REPRESENTATION_CONTEXT ( 'NONE', 'WORKASPACE' ) );
#170 = ADVANCED_FACE ( 'NONE', ( #985 ), #9, .T. ) ;
#171 = EDGE_LOOP ( 'NONE', ( #791, #806, #81, #306 ) ) ;
#172 = VERTEX_POINT ( 'NONE', #610 ) ;
#173 = FILL_AREA_STYLE ('',( #640 ) ) ;
#174 = DIRECTION ( 'NONE',  ( -1.000000000000000000, 4.765723835101118100E-17, 0.000000000000000000 ) ) ;
#175 = ORIENTED_EDGE ( 'NONE', *, *, #35, .T. ) ;
#176 = PRESENTATION_LAYER_ASSIGNMENT (  '', '', ( #863 ) ) ;
#177 =( NAMED_UNIT ( * ) SI_UNIT ( $, .STERADIAN. ) SOLID_ANGLE_UNIT ( ) );
#178 = SURFACE_STYLE_USAGE ( .BOTH. , #584 ) ;
#179 = DIRECTION ( 'NONE',  ( -0.000000000000000000, -0.000000000000000000, -1.000000000000000000 ) ) ;
#180 = PRESENTATION_STYLE_ASSIGNMENT (( #116 ) ) ;
#181 = DIRECTION ( 'NONE',  ( 1.000000000000000000, 6.099590281212402474E-17, -0.000000000000000000 ) ) ;
#182 = EDGE_CURVE ( 'NONE', #218, #844, #758, .T. ) ;
#183 = STYLED_ITEM ( 'NONE', ( #458 ), #295 ) ;
#184 = DIRECTION ( 'NONE',  ( -0.000000000000000000, -0.000000000000000000, -1.000000000000000000 ) ) ;
#185 = FILL_AREA_STYLE_COLOUR ( '', #291 ) ;
#186 = ORIENTED_EDGE ( 'NONE', *, *, #46, .F. ) ;
#187 = UNCERTAINTY_MEASURE_WITH_UNIT (LENGTH_MEASURE( 1.000000000000000082E-05 ), #514, 'distance_accuracy_value', 'NONE');
#188 = FILL_AREA_STYLE ('',( #916 ) ) ;
#189 = DIRECTION ( 'NONE',  ( 0.000000000000000000, 0.000000000000000000, 1.000000000000000000 ) ) ;
#190 = FACE_OUTER_BOUND ( 'NONE', #57, .T. ) ;
#191 = CARTESIAN_POINT ( 'NONE',  ( 1.524999999999999911, -1.777500000000000080, -0.6750000000000000444 ) ) ;
#192 = AXIS2_PLACEMENT_3D ( 'NONE', #341, #27, #900 ) ;
#193 = PRESENTATION_LAYER_ASSIGNMENT (  '', '', ( #48 ) ) ;
#194 = CARTESIAN_POINT ( 'NONE',  ( 0.000000000000000000, 0.000000000000000000, -0.6750000000000000444 ) ) ;
#195 =( NAMED_UNIT ( * ) SI_UNIT ( $, .STERADIAN. ) SOLID_ANGLE_UNIT ( ) );
#196 = FACE_OUTER_BOUND ( 'NONE', #103, .T. ) ;
#197 = MECHANICAL_DESIGN_GEOMETRIC_PRESENTATION_REPRESENTATION (  '', ( #183 ), #873 ) ;
#198 = FILL_AREA_STYLE ('',( #185 ) ) ;
#199 = APPLICATION_PROTOCOL_DEFINITION ( 'draft international standard', 'automotive_design', 1998, #516 ) ;
#200 = EDGE_LOOP ( 'NONE', ( #50, #325, #957, #479, #486, #625 ) ) ;
#201 = PRESENTATION_STYLE_ASSIGNMENT (( #39 ) ) ;
#202 = PRESENTATION_STYLE_ASSIGNMENT (( #106 ) ) ;
#203 =( NAMED_UNIT ( * ) PLANE_ANGLE_UNIT ( ) SI_UNIT ( $, .RADIAN. ) );
#204 = STYLED_ITEM ( 'NONE', ( #123 ), #596 ) ;
#205 = DIRECTION ( 'NONE',  ( -1.000000000000000000, 6.099590281212402474E-17, 0.000000000000000000 ) ) ;
#206 = CIRCLE ( 'NONE', #778, 0.4051639876801584328 ) ;
#207 =( NAMED_UNIT ( * ) SI_UNIT ( $, .STERADIAN. ) SOLID_ANGLE_UNIT ( ) );
#208 = ADVANCED_FACE ( 'NONE', ( #836 ), #679, .T. ) ;
#209 = ADVANCED_FACE ( 'NONE', ( #367 ), #930, .F. ) ;
#210 = STYLED_ITEM ( 'NONE', ( #450 ), #879 ) ;
#211 = CIRCLE ( 'NONE', #110, 0.4051639876801582107 ) ;
#212 = CARTESIAN_POINT ( 'NONE',  ( -2.275000000000000355, -1.777500000000000080, -0.6750000000000000444 ) ) ;
#213 = VECTOR ( 'NONE', #792, 1000.000000000000000 ) ;
#214 = LINE ( 'NONE', #131, #623 ) ;
#215 = CARTESIAN_POINT ( 'NONE',  ( 8.471074116892236965E-17, 1.777500000000000080, -0.6750000000000000444 ) ) ;
#216 = CARTESIAN_POINT ( 'NONE',  ( 1.524999999999999911, 9.301875178848913372E-17, -0.6750000000000000444 ) ) ;
#217 = DIRECTION ( 'NONE',  ( 4.765723835101118100E-17, 1.000000000000000000, -0.000000000000000000 ) ) ;
#218 = VERTEX_POINT ( 'NONE', #282 ) ;
#219 = DIRECTION ( 'NONE',  ( 1.000000000000000000, 0.000000000000000000, 0.000000000000000000 ) ) ;
#220 =( GEOMETRIC_REPRESENTATION_CONTEXT ( 3 ) GLOBAL_UNCERTAINTY_ASSIGNED_CONTEXT ( ( #782 ) ) GLOBAL_UNIT_ASSIGNED_CONTEXT ( ( #575, #803, #732 ) ) REPRESENTATION_CONTEXT ( 'NONE', 'WORKASPACE' ) );
#221 = EDGE_CURVE ( 'NONE', #591, #548, #214, .T. ) ;
#222 = CARTESIAN_POINT ( 'NONE',  ( -1.524999999999999911, 1.777500000000000080, 0.6750000000000000444 ) ) ;
#223 = FILL_AREA_STYLE ('',( #299 ) ) ;
#224 = FACE_OUTER_BOUND ( 'NONE', #470, .T. ) ;
#225 = ORIENTED_EDGE ( 'NONE', *, *, #88, .F. ) ;
#226 = CARTESIAN_POINT ( 'NONE',  ( 2.274999999999999911, -1.777500000000000080, -0.6750000000000000444 ) ) ;
#227 = CARTESIAN_POINT ( 'NONE',  ( 8.471074116892236965E-17, 1.777500000000000080, 0.6750000000000000444 ) ) ;
#228 = ORIENTED_EDGE ( 'NONE', *, *, #902, .F. ) ;
#229 = CARTESIAN_POINT ( 'NONE',  ( -1.524999999999999911, 1.777500000000000080, -0.6750000000000000444 ) ) ;
#230 = SURFACE_STYLE_USAGE ( .BOTH. , #708 ) ;
#231 = DIRECTION ( 'NONE',  ( 1.000000000000000000, -4.765723835101117484E-17, 0.000000000000000000 ) ) ;
#232 = CARTESIAN_POINT ( 'NONE',  ( -2.274999999999999911, -0.4051639876801584883, 0.6750000000000000444 ) ) ;
#233 = ORIENTED_EDGE ( 'NONE', *, *, #272, .F. ) ;
#234 = UNCERTAINTY_MEASURE_WITH_UNIT (LENGTH_MEASURE( 1.000000000000000082E-05 ), #472, 'distance_accuracy_value', 'NONE');
#235 = PRESENTATION_STYLE_ASSIGNMENT (( #230 ) ) ;
#236 = CARTESIAN_POINT ( 'NONE',  ( -2.274999999999999911, -7.189376130223295945E-16, 0.6750000000000000444 ) ) ;
#237 = CARTESIAN_POINT ( 'NONE',  ( -1.524999999999999911, -1.777500000000000080, -0.6850000000000000533 ) ) ;
#238 = ORIENTED_EDGE ( 'NONE', *, *, #509, .F. ) ;
#239 = VECTOR ( 'NONE', #419, 1000.000000000000000 ) ;
#240 = UNCERTAINTY_MEASURE_WITH_UNIT (LENGTH_MEASURE( 1.000000000000000082E-05 ), #724, 'distance_accuracy_value', 'NONE');
#241 = EDGE_CURVE ( 'NONE', #591, #562, #765, .T. ) ;
#242 = ORIENTED_EDGE ( 'NONE', *, *, #750, .F. ) ;
#243 = MECHANICAL_DESIGN_GEOMETRIC_PRESENTATION_REPRESENTATION (  '', ( #598 ), #761 ) ;
#244 = ORIENTED_EDGE ( 'NONE', *, *, #547, .T. ) ;
#245 = ORIENTED_EDGE ( 'NONE', *, *, #692, .T. ) ;
#246 = DIRECTION ( 'NONE',  ( -0.000000000000000000, -0.000000000000000000, -1.000000000000000000 ) ) ;
#247 = CARTESIAN_POINT ( 'NONE',  ( -2.274999999999999911, 7.189376130223295945E-16, -0.6750000000000000444 ) ) ;
#248 =( NAMED_UNIT ( * ) SI_UNIT ( $, .STERADIAN. ) SOLID_ANGLE_UNIT ( ) );
#249 = CARTESIAN_POINT ( 'NONE',  ( 2.274999999999999911, 0.000000000000000000, -0.6750000000000000444 ) ) ;
#250 = CARTESIAN_POINT ( 'NONE',  ( 0.000000000000000000, -1.777500000000000080, -0.6750000000000000444 ) ) ;
#251 = DIRECTION ( 'NONE',  ( 4.765723835101118100E-17, 1.000000000000000000, -0.000000000000000000 ) ) ;
#252 = EDGE_CURVE ( 'NONE', #666, #860, #541, .T. ) ;
#253 = LINE ( 'NONE', #884, #87 ) ;
#254 = PRESENTATION_LAYER_ASSIGNMENT (  '', '', ( #404 ) ) ;
#255 = SURFACE_SIDE_STYLE ('',( #92 ) ) ;
#256 = SURFACE_STYLE_FILL_AREA ( #342 ) ;
#257 = AXIS2_PLACEMENT_3D ( 'NONE', #949, #64, #856 ) ;
#258 = SURFACE_STYLE_USAGE ( .BOTH. , #97 ) ;
#259 = DIRECTION ( 'NONE',  ( 3.160165331966283618E-16, 1.000000000000000000, 0.000000000000000000 ) ) ;
#260 = ORIENTED_EDGE ( 'NONE', *, *, #14, .F. ) ;
#261 = EDGE_CURVE ( 'NONE', #641, #860, #720, .T. ) ;
#262 = CARTESIAN_POINT ( 'NONE',  ( -2.275000000000000355, -1.777500000000000080, 0.6750000000000000444 ) ) ;
#263 = FILL_AREA_STYLE_COLOUR ( '', #696 ) ;
#264 = VECTOR ( 'NONE', #933, 1000.000000000000000 ) ;
#265 = CARTESIAN_POINT ( 'NONE',  ( 1.524999999999999689, 1.777500000000000080, -0.6750000000000000444 ) ) ;
#266 = SURFACE_SIDE_STYLE ('',( #890 ) ) ;
#267 = PLANE ( 'NONE',  #972 ) ;
#268 = VERTEX_POINT ( 'NONE', #51 ) ;
#269 = LINE ( 'NONE', #654, #515 ) ;
#270 =( LENGTH_UNIT ( ) NAMED_UNIT ( * ) SI_UNIT ( .MILLI., .METRE. ) );
#271 = ORIENTED_EDGE ( 'NONE', *, *, #848, .F. ) ;
#272 = EDGE_CURVE ( 'NONE', #672, #315, #779, .T. ) ;
#273 = MECHANICAL_DESIGN_GEOMETRIC_PRESENTATION_REPRESENTATION (  '', ( #558 ), #525 ) ;
#274 = EDGE_CURVE ( 'NONE', #943, #892, #375, .T. ) ;
#275 =( NAMED_UNIT ( * ) SI_UNIT ( $, .STERADIAN. ) SOLID_ANGLE_UNIT ( ) );
#276 = ORIENTED_EDGE ( 'NONE', *, *, #473, .F. ) ;
#277 = DIRECTION ( 'NONE',  ( -1.000000000000000000, 6.099590281212402474E-17, 0.000000000000000000 ) ) ;
#278 = DIRECTION ( 'NONE',  ( 0.000000000000000000, 1.000000000000000000, 0.000000000000000000 ) ) ;
#279 = ORIENTED_EDGE ( 'NONE', *, *, #14, .T. ) ;
#280 = FILL_AREA_STYLE ('',( #771 ) ) ;
#281 = EDGE_CURVE ( 'NONE', #491, #629, #699, .T. ) ;
#282 = CARTESIAN_POINT ( 'NONE',  ( -1.524999999999999911, 1.777500000000000080, -0.6750000000000000444 ) ) ;
#283 = CARTESIAN_POINT ( 'NONE',  ( -2.274999999999999911, -0.4051639876801584883, -0.6750000000000000444 ) ) ;
#284 = MECHANICAL_DESIGN_GEOMETRIC_PRESENTATION_REPRESENTATION (  '', ( #44 ), #423 ) ;
#285 = CARTESIAN_POINT ( 'NONE',  ( 2.274999999999999911, -1.777500000000000080, 0.6750000000000000444 ) ) ;
#286 =( NAMED_UNIT ( * ) SI_UNIT ( $, .STERADIAN. ) SOLID_ANGLE_UNIT ( ) );
#287 = VECTOR ( 'NONE', #952, 1000.000000000000000 ) ;
#288 = DIRECTION ( 'NONE',  ( 0.000000000000000000, -0.000000000000000000, -1.000000000000000000 ) ) ;
#289 = STYLED_ITEM ( 'NONE', ( #66 ), #460 ) ;
#290 = DIRECTION ( 'NONE',  ( 1.000000000000000000, 0.000000000000000000, 0.000000000000000000 ) ) ;
#291 = COLOUR_RGB ( '',0.7529411764705882248, 0.7529411764705882248, 0.7529411764705882248 ) ;
#292 = FILL_AREA_STYLE ('',( #1010 ) ) ;
#293 = SURFACE_SIDE_STYLE ('',( #935 ) ) ;
#294 = ORIENTED_EDGE ( 'NONE', *, *, #74, .T. ) ;
#295 = ADVANCED_FACE ( 'NONE', ( #686 ), #331, .F. ) ;
#296 = CARTESIAN_POINT ( 'NONE',  ( 0.000000000000000000, -1.777500000000000080, -0.6750000000000000444 ) ) ;
#297 = DIRECTION ( 'NONE',  ( 1.000000000000000000, 0.000000000000000000, 0.000000000000000000 ) ) ;
#298 = PRODUCT_DEFINITION_CONTEXT ( 'detailed design', #743, 'design' ) ;
#299 = FILL_AREA_STYLE_COLOUR ( '', #942 ) ;
#300 = ORIENTED_EDGE ( 'NONE', *, *, #905, .F. ) ;
#301 = ORIENTED_EDGE ( 'NONE', *, *, #35, .F. ) ;
#302 = CARTESIAN_POINT ( 'NONE',  ( 8.471074116892236965E-17, 1.777500000000000080, -0.6750000000000000444 ) ) ;
#303 = CARTESIAN_POINT ( 'NONE',  ( 8.471074116892236965E-17, 1.777500000000000080, 0.6750000000000000444 ) ) ;
#304 = FILL_AREA_STYLE_COLOUR ( '', #446 ) ;
#305 = PRESENTATION_LAYER_ASSIGNMENT (  '', '', ( #359 ) ) ;
#306 = ORIENTED_EDGE ( 'NONE', *, *, #112, .F. ) ;
#307 = VERTEX_POINT ( 'NONE', #468 ) ;
#308 = SURFACE_STYLE_USAGE ( .BOTH. , #313 ) ;
#309 = LINE ( 'NONE', #624, #485 ) ;
#310 =( LENGTH_UNIT ( ) NAMED_UNIT ( * ) SI_UNIT ( .MILLI., .METRE. ) );
#311 = FACE_OUTER_BOUND ( 'NONE', #569, .T. ) ;
#312 =( NAMED_UNIT ( * ) PLANE_ANGLE_UNIT ( ) SI_UNIT ( $, .RADIAN. ) );
#313 = SURFACE_SIDE_STYLE ('',( #784 ) ) ;
#314 = DIRECTION ( 'NONE',  ( 0.000000000000000000, 0.000000000000000000, 1.000000000000000000 ) ) ;
#315 = VERTEX_POINT ( 'NONE', #226 ) ;
#316 = FILL_AREA_STYLE ('',( #3 ) ) ;
#317 = EDGE_CURVE ( 'NONE', #641, #268, #149, .T. ) ;
#318 =( NAMED_UNIT ( * ) SI_UNIT ( $, .STERADIAN. ) SOLID_ANGLE_UNIT ( ) );
#319 =( LENGTH_UNIT ( ) NAMED_UNIT ( * ) SI_UNIT ( .MILLI., .METRE. ) );
#320 = ORIENTED_EDGE ( 'NONE', *, *, #725, .F. ) ;
#321 = COLOUR_RGB ( '',0.000000000000000000, 0.000000000000000000, 0.000000000000000000 ) ;
#322 = AXIS2_PLACEMENT_3D ( 'NONE', #146, #627, #387 ) ;
#323 = DIRECTION ( 'NONE',  ( -0.000000000000000000, -0.000000000000000000, -1.000000000000000000 ) ) ;
#324 = CARTESIAN_POINT ( 'NONE',  ( 0.000000000000000000, 0.000000000000000000, 0.6750000000000000444 ) ) ;
#325 = ORIENTED_EDGE ( 'NONE', *, *, #317, .T. ) ;
#326 = STYLED_ITEM ( 'NONE', ( #202 ), #971 ) ;
#327 = LINE ( 'NONE', #12, #487 ) ;
#328 = VECTOR ( 'NONE', #231, 1000.000000000000000 ) ;
#329 = SURFACE_SIDE_STYLE ('',( #348 ) ) ;
#330 = PRESENTATION_STYLE_ASSIGNMENT (( #178 ) ) ;
#331 = PLANE ( 'NONE',  #77 ) ;
#332 = EDGE_CURVE ( 'NONE', #425, #559, #852, .T. ) ;
#333 = DIRECTION ( 'NONE',  ( -1.000000000000000000, 0.000000000000000000, 0.000000000000000000 ) ) ;
#334 = UNCERTAINTY_MEASURE_WITH_UNIT (LENGTH_MEASURE( 1.000000000000000082E-05 ), #616, 'distance_accuracy_value', 'NONE');
#335 = PRESENTATION_STYLE_ASSIGNMENT (( #881 ) ) ;
#336 =( NAMED_UNIT ( * ) PLANE_ANGLE_UNIT ( ) SI_UNIT ( $, .RADIAN. ) );
#337 =( NAMED_UNIT ( * ) SI_UNIT ( $, .STERADIAN. ) SOLID_ANGLE_UNIT ( ) );
#338 = AXIS2_PLACEMENT_3D ( 'NONE', #438, #17, #356 ) ;
#339 = PRESENTATION_STYLE_ASSIGNMENT (( #989 ) ) ;
#340 = STYLED_ITEM ( 'NONE', ( #335 ), #462 ) ;
#341 = CARTESIAN_POINT ( 'NONE',  ( 2.274999999999999911, -8.673617379884035472E-16, 0.6750000000000000444 ) ) ;
#342 = FILL_AREA_STYLE ('',( #263 ) ) ;
#343 = CIRCLE ( 'NONE', #830, 0.4051639876801584328 ) ;
#344 = LINE ( 'NONE', #730, #642 ) ;
#345 = PRESENTATION_STYLE_ASSIGNMENT (( #504 ) ) ;
#346 = CARTESIAN_POINT ( 'NONE',  ( 0.000000000000000000, 0.000000000000000000, -0.6750000000000000444 ) ) ;
#347 = ORIENTED_EDGE ( 'NONE', *, *, #700, .F. ) ;
#348 = SURFACE_STYLE_FILL_AREA ( #426 ) ;
#349 = SURFACE_STYLE_USAGE ( .BOTH. , #31 ) ;
#350 = EDGE_CURVE ( 'NONE', #218, #694, #309, .T. ) ;
#351 = VERTEX_POINT ( 'NONE', #683 ) ;
#352 = UNCERTAINTY_MEASURE_WITH_UNIT (LENGTH_MEASURE( 1.000000000000000082E-05 ), #148, 'distance_accuracy_value', 'NONE');
#353 = CARTESIAN_POINT ( 'NONE',  ( 2.274999999999999911, 7.189376130223288056E-16, -0.6750000000000000444 ) ) ;
#354 = EDGE_CURVE ( 'NONE', #491, #821, #211, .T. ) ;
#355 = PRESENTATION_STYLE_ASSIGNMENT (( #1000 ) ) ;
#356 = DIRECTION ( 'NONE',  ( 1.000000000000000000, 0.000000000000000000, 0.000000000000000000 ) ) ;
#357 =( GEOMETRIC_REPRESENTATION_CONTEXT ( 3 ) GLOBAL_UNCERTAINTY_ASSIGNED_CONTEXT ( ( #4 ) ) GLOBAL_UNIT_ASSIGNED_CONTEXT ( ( #887, #577, #728 ) ) REPRESENTATION_CONTEXT ( 'NONE', 'WORKASPACE' ) );
#358 = PRESENTATION_LAYER_ASSIGNMENT (  '', '', ( #558 ) ) ;
#359 = STYLED_ITEM ( 'NONE', ( #235 ), #678 ) ;
#360 = DIRECTION ( 'NONE',  ( 1.000000000000000000, 0.000000000000000000, 0.000000000000000000 ) ) ;
#361 =( NAMED_UNIT ( * ) PLANE_ANGLE_UNIT ( ) SI_UNIT ( $, .RADIAN. ) );
#362 = VECTOR ( 'NONE', #533, 1000.000000000000000 ) ;
#363 = EDGE_CURVE ( 'NONE', #133, #641, #60, .T. ) ;
#364 = FACE_OUTER_BOUND ( 'NONE', #442, .T. ) ;
#365 = SURFACE_SIDE_STYLE ('',( #840 ) ) ;
#366 = CARTESIAN_POINT ( 'NONE',  ( 2.274999999999999911, 0.4051639876801567119, 0.6750000000000000444 ) ) ;
#367 = FACE_OUTER_BOUND ( 'NONE', #756, .T. ) ;
#368 = PLANE ( 'NONE',  #1024 ) ;
#369 = CLOSED_SHELL ( 'NONE', ( #209, #96, #460, #1028, #65, #866 ) ) ;
#370 = PRESENTATION_LAYER_ASSIGNMENT (  '', '', ( #996 ) ) ;
#371 = DIRECTION ( 'NONE',  ( -0.000000000000000000, -0.000000000000000000, -1.000000000000000000 ) ) ;
#372 = CARTESIAN_POINT ( 'NONE',  ( 8.471074116892236965E-17, 1.777500000000000080, 0.6750000000000000444 ) ) ;
#373 = EDGE_LOOP ( 'NONE', ( #233, #113, #550, #147, #645, #228, #490 ) ) ;
#374 = AXIS2_PLACEMENT_3D ( 'NONE', #934, #205, #1016 ) ;
#375 = LINE ( 'NONE', #215, #362 ) ;
#376 = SURFACE_STYLE_FILL_AREA ( #62 ) ;
#377 =( LENGTH_UNIT ( ) NAMED_UNIT ( * ) SI_UNIT ( .MILLI., .METRE. ) );
#378 = LINE ( 'NONE', #612, #138 ) ;
#379 = SURFACE_STYLE_FILL_AREA ( #467 ) ;
#380 = ORIENTED_EDGE ( 'NONE', *, *, #831, .T. ) ;
#381 = DIRECTION ( 'NONE',  ( 1.000000000000000000, 0.000000000000000000, 0.000000000000000000 ) ) ;
#382 =( NAMED_UNIT ( * ) SI_UNIT ( $, .STERADIAN. ) SOLID_ANGLE_UNIT ( ) );
#383 = DIRECTION ( 'NONE',  ( 1.000000000000000000, 0.000000000000000000, 0.000000000000000000 ) ) ;
#384 = ORIENTED_EDGE ( 'NONE', *, *, #532, .F. ) ;
#385 = DIRECTION ( 'NONE',  ( -3.160165331966280659E-16, 1.000000000000000000, 0.000000000000000000 ) ) ;
#386 = ORIENTED_EDGE ( 'NONE', *, *, #797, .F. ) ;
#387 = DIRECTION ( 'NONE',  ( 0.000000000000000000, -0.000000000000000000, 1.000000000000000000 ) ) ;
#388 = STYLED_ITEM ( 'NONE', ( #355 ), #990 ) ;
#389 = VECTOR ( 'NONE', #25, 1000.000000000000000 ) ;
#390 = CARTESIAN_POINT ( 'NONE',  ( -1.524999999999999911, 9.301875178848913372E-17, 0.6750000000000000444 ) ) ;
#391 = PRESENTATION_LAYER_ASSIGNMENT (  '', '', ( #498 ) ) ;
#392 = LINE ( 'NONE', #875, #213 ) ;
#393 = UNCERTAINTY_MEASURE_WITH_UNIT (LENGTH_MEASURE( 1.000000000000000082E-05 ), #403, 'distance_accuracy_value', 'NONE');
#394 = CARTESIAN_POINT ( 'NONE',  ( 2.274999999999999911, -0.4051639876801593210, 0.6750000000000000444 ) ) ;
#395 = EDGE_CURVE ( 'NONE', #629, #729, #764, .T. ) ;
#396 =( GEOMETRIC_REPRESENTATION_CONTEXT ( 3 ) GLOBAL_UNCERTAINTY_ASSIGNED_CONTEXT ( ( #480 ) ) GLOBAL_UNIT_ASSIGNED_CONTEXT ( ( #310, #1, #715 ) ) REPRESENTATION_CONTEXT ( 'NONE', 'WORKASPACE' ) );
#397 =( NAMED_UNIT ( * ) PLANE_ANGLE_UNIT ( ) SI_UNIT ( $, .RADIAN. ) );
#398 = ORIENTED_EDGE ( 'NONE', *, *, #408, .F. ) ;
#399 = LINE ( 'NONE', #539, #786 ) ;
#400 = PRESENTATION_STYLE_ASSIGNMENT (( #79 ) ) ;
#401 = ORIENTED_EDGE ( 'NONE', *, *, #129, .T. ) ;
#402 = ORIENTED_EDGE ( 'NONE', *, *, #831, .F. ) ;
#403 =( LENGTH_UNIT ( ) NAMED_UNIT ( * ) SI_UNIT ( .MILLI., .METRE. ) );
#404 = STYLED_ITEM ( 'NONE', ( #652 ), #117 ) ;
#405 = ORIENTED_EDGE ( 'NONE', *, *, #759, .F. ) ;
#406 = ORIENTED_EDGE ( 'NONE', *, *, #639, .F. ) ;
#407 = VECTOR ( 'NONE', #45, 1000.000000000000000 ) ;
#408 = EDGE_CURVE ( 'NONE', #307, #717, #399, .T. ) ;
#409 = FILL_AREA_STYLE ('',( #667 ) ) ;
#410 = CARTESIAN_POINT ( 'NONE',  ( 2.274999999999999911, 0.4051639876801567119, 0.6750000000000000444 ) ) ;
#411 = CARTESIAN_POINT ( 'NONE',  ( -1.524999999999999689, 1.777500000000000080, 0.6750000000000000444 ) ) ;
#412 = CARTESIAN_POINT ( 'NONE',  ( 8.471074116892236965E-17, 1.777500000000000080, 0.6750000000000000444 ) ) ;
#413 = ORIENTED_EDGE ( 'NONE', *, *, #145, .F. ) ;
#414 = DIRECTION ( 'NONE',  ( -1.000000000000000000, 4.765723835101118100E-17, 0.000000000000000000 ) ) ;
#415 = SURFACE_STYLE_USAGE ( .BOTH. , #719 ) ;
#416 = ADVANCED_FACE ( 'NONE', ( #464 ), #956, .F. ) ;
#417 = FACE_OUTER_BOUND ( 'NONE', #967, .T. ) ;
#418 =( LENGTH_UNIT ( ) NAMED_UNIT ( * ) SI_UNIT ( .MILLI., .METRE. ) );
#419 = DIRECTION ( 'NONE',  ( 0.000000000000000000, 0.000000000000000000, 1.000000000000000000 ) ) ;
#420 = SHAPE_DEFINITION_REPRESENTATION ( #794, #928 ) ;
#421 = CLOSED_SHELL ( 'NONE', ( #917, #416, #117, #971, #990, #208, #596, #462, #170 ) ) ;
#422 = PRESENTATION_STYLE_ASSIGNMENT (( #349 ) ) ;
#423 =( GEOMETRIC_REPRESENTATION_CONTEXT ( 3 ) GLOBAL_UNCERTAINTY_ASSIGNED_CONTEXT ( ( #870 ) ) GLOBAL_UNIT_ASSIGNED_CONTEXT ( ( #139, #828, #531 ) ) REPRESENTATION_CONTEXT ( 'NONE', 'WORKASPACE' ) );
#424 = AXIS2_PLACEMENT_3D ( 'NONE', #998, #277, #1007 ) ;
#425 = VERTEX_POINT ( 'NONE', #763 ) ;
#426 = FILL_AREA_STYLE ('',( #893 ) ) ;
#427 = CARTESIAN_POINT ( 'NONE',  ( 2.274999999999999911, 0.000000000000000000, 0.6750000000000000444 ) ) ;
#428 = ORIENTED_EDGE ( 'NONE', *, *, #182, .T. ) ;
#429 = PLANE ( 'NONE',  #820 ) ;
#430 = EDGE_CURVE ( 'NONE', #666, #613, #851, .T. ) ;
#431 = CARTESIAN_POINT ( 'NONE',  ( -2.274999999999999911, 7.189376130223295945E-16, 0.6750000000000000444 ) ) ;
#432 = FILL_AREA_STYLE_COLOUR ( '', #1005 ) ;
#433 = ORIENTED_EDGE ( 'NONE', *, *, #128, .T. ) ;
#434 =( NAMED_UNIT ( * ) PLANE_ANGLE_UNIT ( ) SI_UNIT ( $, .RADIAN. ) );
#435 = COLOUR_RGB ( '',0.7529411764705882248, 0.7529411764705882248, 0.7529411764705882248 ) ;
#436 = MECHANICAL_DESIGN_GEOMETRIC_PRESENTATION_REPRESENTATION (  '', ( #326 ), #919 ) ;
#437 = FILL_AREA_STYLE_COLOUR ( '', #825 ) ;
#438 = CARTESIAN_POINT ( 'NONE',  ( 0.000000000000000000, 0.000000000000000000, 0.6750000000000000444 ) ) ;
#439 = ORIENTED_EDGE ( 'NONE', *, *, #74, .F. ) ;
#440 = DIRECTION ( 'NONE',  ( 0.000000000000000000, -0.000000000000000000, 1.000000000000000000 ) ) ;
#441 = PLANE ( 'NONE',  #588 ) ;
#442 = EDGE_LOOP ( 'NONE', ( #276, #151, #347, #405 ) ) ;
#443 = MECHANICAL_DESIGN_GEOMETRIC_PRESENTATION_REPRESENTATION (  '', ( #523 ), #920 ) ;
#444 = SURFACE_SIDE_STYLE ('',( #42 ) ) ;
#445 = EDGE_CURVE ( 'NONE', #218, #968, #1027, .T. ) ;
#446 = COLOUR_RGB ( '',0.000000000000000000, 0.000000000000000000, 0.000000000000000000 ) ;
#447 = DIRECTION ( 'NONE',  ( 0.000000000000000000, 1.000000000000000000, 0.000000000000000000 ) ) ;
#448 = SURFACE_STYLE_USAGE ( .BOTH. , #444 ) ;
#449 = AXIS2_PLACEMENT_3D ( 'NONE', #962, #142, #483 ) ;
#450 = PRESENTATION_STYLE_ASSIGNMENT (( #126 ) ) ;
#451 = SURFACE_SIDE_STYLE ('',( #376 ) ) ;
#452 = DIRECTION ( 'NONE',  ( -3.160165331966283618E-16, -1.000000000000000000, 0.000000000000000000 ) ) ;
#453 =( LENGTH_UNIT ( ) NAMED_UNIT ( * ) SI_UNIT ( .MILLI., .METRE. ) );
#454 = COLOUR_RGB ( '',0.7529411764705882248, 0.7529411764705882248, 0.7529411764705882248 ) ;
#455 = ORIENTED_EDGE ( 'NONE', *, *, #221, .T. ) ;
#456 =( GEOMETRIC_REPRESENTATION_CONTEXT ( 3 ) GLOBAL_UNCERTAINTY_ASSIGNED_CONTEXT ( ( #592 ) ) GLOBAL_UNIT_ASSIGNED_CONTEXT ( ( #804, #733, #177 ) ) REPRESENTATION_CONTEXT ( 'NONE', 'WORKASPACE' ) );
#457 =( GEOMETRIC_REPRESENTATION_CONTEXT ( 3 ) GLOBAL_UNCERTAINTY_ASSIGNED_CONTEXT ( ( #334 ) ) GLOBAL_UNIT_ASSIGNED_CONTEXT ( ( #616, #312, #482 ) ) REPRESENTATION_CONTEXT ( 'NONE', 'WORKASPACE' ) );
#458 = PRESENTATION_STYLE_ASSIGNMENT (( #945 ) ) ;
#459 =( NAMED_UNIT ( * ) SI_UNIT ( $, .STERADIAN. ) SOLID_ANGLE_UNIT ( ) );
#460 = ADVANCED_FACE ( 'NONE', ( #5 ), #267, .T. ) ;
#461 = CARTESIAN_POINT ( 'NONE',  ( -1.524999999999999689, 1.777500000000000080, 0.6750000000000000444 ) ) ;
#462 = ADVANCED_FACE ( 'NONE', ( #19 ), #506, .F. ) ;
#463 = VERTEX_POINT ( 'NONE', #191 ) ;
#464 = FACE_OUTER_BOUND ( 'NONE', #553, .T. ) ;
#465 = MECHANICAL_DESIGN_GEOMETRIC_PRESENTATION_REPRESENTATION (  '', ( #704 ), #169 ) ;
#466 = ORIENTED_EDGE ( 'NONE', *, *, #939, .T. ) ;
#467 = FILL_AREA_STYLE ('',( #162 ) ) ;
#468 = CARTESIAN_POINT ( 'NONE',  ( 2.274999999999999911, -0.4051639876801593210, 0.6750000000000000444 ) ) ;
#469 = LINE ( 'NONE', #620, #594 ) ;
#470 = EDGE_LOOP ( 'NONE', ( #271, #914, #159, #242, #455, #781 ) ) ;
#471 = CARTESIAN_POINT ( 'NONE',  ( 1.524999999999999911, 9.301875178848913372E-17, -0.6750000000000000444 ) ) ;
#472 =( LENGTH_UNIT ( ) NAMED_UNIT ( * ) SI_UNIT ( .MILLI., .METRE. ) );
#473 = EDGE_CURVE ( 'NONE', #672, #425, #876, .T. ) ;
#474 = STYLED_ITEM ( 'NONE', ( #180 ), #1028 ) ;
#475 = AXIS2_PLACEMENT_3D ( 'NONE', #427, #41, #535 ) ;
#476 = CARTESIAN_POINT ( 'NONE',  ( 1.524999999999999911, 9.301875178848913372E-17, 0.6750000000000000444 ) ) ;
#477 = CARTESIAN_POINT ( 'NONE',  ( 2.274999999999999467, 1.777500000000000080, -0.6750000000000000444 ) ) ;
#478 = VECTOR ( 'NONE', #140, 1000.000000000000000 ) ;
#479 = ORIENTED_EDGE ( 'NONE', *, *, #128, .F. ) ;
#480 = UNCERTAINTY_MEASURE_WITH_UNIT (LENGTH_MEASURE( 1.000000000000000082E-05 ), #310, 'distance_accuracy_value', 'NONE');
#481 = EDGE_LOOP ( 'NONE', ( #320, #994, #520, #294 ) ) ;
#482 =( NAMED_UNIT ( * ) SI_UNIT ( $, .STERADIAN. ) SOLID_ANGLE_UNIT ( ) );
#483 = DIRECTION ( 'NONE',  ( -6.099590281212402474E-17, 1.000000000000000000, 0.000000000000000000 ) ) ;
#484 = COLOUR_RGB ( '',0.7529411764705882248, 0.7529411764705882248, 0.7529411764705882248 ) ;
#485 = VECTOR ( 'NONE', #73, 1000.000000000000000 ) ;
#486 = ORIENTED_EDGE ( 'NONE', *, *, #725, .T. ) ;
#487 = VECTOR ( 'NONE', #86, 1000.000000000000000 ) ;
#488 = UNCERTAINTY_MEASURE_WITH_UNIT (LENGTH_MEASURE( 1.000000000000000082E-05 ), #377, 'distance_accuracy_value', 'NONE');
#489 = DIRECTION ( 'NONE',  ( 0.000000000000000000, 0.000000000000000000, 1.000000000000000000 ) ) ;
#490 = ORIENTED_EDGE ( 'NONE', *, *, #46, .T. ) ;
#491 = VERTEX_POINT ( 'NONE', #723 ) ;
#492 = CARTESIAN_POINT ( 'NONE',  ( 1.524999999999999689, 1.777500000000000080, -0.6850000000000000533 ) ) ;
#493 = SURFACE_STYLE_FILL_AREA ( #173 ) ;
#494 = CARTESIAN_POINT ( 'NONE',  ( 2.274999999999999911, -8.673617379884035472E-16, -0.6750000000000000444 ) ) ;
#495 = AXIS2_PLACEMENT_3D ( 'NONE', #324, #894, #976 ) ;
#496 = ORIENTED_EDGE ( 'NONE', *, *, #221, .F. ) ;
#497 = COLOUR_RGB ( '',0.7529411764705882248, 0.7529411764705882248, 0.7529411764705882248 ) ;
#498 = STYLED_ITEM ( 'NONE', ( #543 ), #656 ) ;
#499 = SURFACE_STYLE_USAGE ( .BOTH. , #628 ) ;
#500 = DIRECTION ( 'NONE',  ( 1.000000000000000000, 0.000000000000000000, 0.000000000000000000 ) ) ;
#501 =( NAMED_UNIT ( * ) PLANE_ANGLE_UNIT ( ) SI_UNIT ( $, .RADIAN. ) );
#502 = ORIENTED_EDGE ( 'NONE', *, *, #252, .T. ) ;
#503 = CARTESIAN_POINT ( 'NONE',  ( 1.524999999999999689, 1.777500000000000080, -0.6750000000000000444 ) ) ;
#504 = SURFACE_STYLE_USAGE ( .BOTH. , #266 ) ;
#505 = EDGE_LOOP ( 'NONE', ( #947, #439, #536, #466 ) ) ;
#506 = CYLINDRICAL_SURFACE ( 'NONE', #192, 0.4051639876801579887 ) ;
#507 = DIRECTION ( 'NONE',  ( -0.000000000000000000, -0.000000000000000000, -1.000000000000000000 ) ) ;
#508 = ORIENTED_EDGE ( 'NONE', *, *, #350, .T. ) ;
#509 = EDGE_CURVE ( 'NONE', #694, #463, #975, .T. ) ;
#510 =( NAMED_UNIT ( * ) PLANE_ANGLE_UNIT ( ) SI_UNIT ( $, .RADIAN. ) );
#511 = COLOUR_RGB ( '',0.7529411764705882248, 0.7529411764705882248, 0.7529411764705882248 ) ;
#512 = STYLED_ITEM ( 'NONE', ( #339 ), #65 ) ;
#513 = PRESENTATION_LAYER_ASSIGNMENT (  '', '', ( #777 ) ) ;
#514 =( LENGTH_UNIT ( ) NAMED_UNIT ( * ) SI_UNIT ( .MILLI., .METRE. ) );
#515 = VECTOR ( 'NONE', #184, 1000.000000000000000 ) ;
#516 = APPLICATION_CONTEXT ( 'automotive_design' ) ;
#517 = FILL_AREA_STYLE_COLOUR ( '', #497 ) ;
#518 = STYLED_ITEM ( 'NONE', ( #864 ), #416 ) ;
#519 = EDGE_CURVE ( 'NONE', #892, #729, #798, .T. ) ;
#520 = ORIENTED_EDGE ( 'NONE', *, *, #750, .T. ) ;
#521 =( NAMED_UNIT ( * ) PLANE_ANGLE_UNIT ( ) SI_UNIT ( $, .RADIAN. ) );
#522 = CARTESIAN_POINT ( 'NONE',  ( 0.000000000000000000, -1.777500000000000080, 0.6750000000000000444 ) ) ;
#523 = STYLED_ITEM ( 'NONE', ( #330 ), #170 ) ;
#524 = CARTESIAN_POINT ( 'NONE',  ( -2.274999999999999911, -0.4051639876801584883, 0.6750000000000000444 ) ) ;
#525 =( GEOMETRIC_REPRESENTATION_CONTEXT ( 3 ) GLOBAL_UNCERTAINTY_ASSIGNED_CONTEXT ( ( #707 ) ) GLOBAL_UNIT_ASSIGNED_CONTEXT ( ( #453, #925, #837 ) ) REPRESENTATION_CONTEXT ( 'NONE', 'WORKASPACE' ) );
#526 = VECTOR ( 'NONE', #751, 1000.000000000000000 ) ;
#527 = SURFACE_STYLE_FILL_AREA ( #280 ) ;
#528 = MECHANICAL_DESIGN_GEOMETRIC_PRESENTATION_REPRESENTATION (  '', ( #969 ), #785 ) ;
#529 = VECTOR ( 'NONE', #13, 1000.000000000000000 ) ;
#530 = LINE ( 'NONE', #227, #926 ) ;
#531 =( NAMED_UNIT ( * ) SI_UNIT ( $, .STERADIAN. ) SOLID_ANGLE_UNIT ( ) );
#532 = EDGE_CURVE ( 'NONE', #548, #685, #651, .T. ) ;
#533 = DIRECTION ( 'NONE',  ( 1.000000000000000000, -4.765723835101117484E-17, 0.000000000000000000 ) ) ;
#534 = DIRECTION ( 'NONE',  ( 1.000000000000000000, -4.765723835101117484E-17, 0.000000000000000000 ) ) ;
#535 = DIRECTION ( 'NONE',  ( -0.000000000000000000, 0.000000000000000000, -1.000000000000000000 ) ) ;
#536 = ORIENTED_EDGE ( 'NONE', *, *, #430, .F. ) ;
#537 = CARTESIAN_POINT ( 'NONE',  ( -2.274999999999999911, 0.4051639876801584883, 0.6750000000000000444 ) ) ;
#538 = ORIENTED_EDGE ( 'NONE', *, *, #547, .F. ) ;
#539 = CARTESIAN_POINT ( 'NONE',  ( 2.274999999999999911, 0.000000000000000000, 0.6750000000000000444 ) ) ;
#540 = PRESENTATION_LAYER_ASSIGNMENT (  '', '', ( #843 ) ) ;
#541 = LINE ( 'NONE', #303, #705 ) ;
#542 = FACE_OUTER_BOUND ( 'NONE', #986, .T. ) ;
#543 = PRESENTATION_STYLE_ASSIGNMENT (( #767 ) ) ;
#544 = SURFACE_STYLE_FILL_AREA ( #769 ) ;
#545 = DIRECTION ( 'NONE',  ( -6.099590281212402474E-17, -1.000000000000000000, 0.000000000000000000 ) ) ;
#546 = LINE ( 'NONE', #390, #964 ) ;
#547 = EDGE_CURVE ( 'NONE', #968, #823, #984, .T. ) ;
#548 = VERTEX_POINT ( 'NONE', #262 ) ;
#549 = CARTESIAN_POINT ( 'NONE',  ( 2.274999999999999911, 7.189376130223288056E-16, 0.6750000000000000444 ) ) ;
#550 = ORIENTED_EDGE ( 'NONE', *, *, #274, .T. ) ;
#551 = SURFACE_STYLE_USAGE ( .BOTH. , #709 ) ;
#552 = FILL_AREA_STYLE_COLOUR ( '', #738 ) ;
#553 = EDGE_LOOP ( 'NONE', ( #997, #966, #225, #406 ) ) ;
#554 = LINE ( 'NONE', #394, #746 ) ;
#555 = DIRECTION ( 'NONE',  ( 0.000000000000000000, -1.000000000000000000, 0.000000000000000000 ) ) ;
#556 = ADVANCED_FACE ( 'NONE', ( #727 ), #582, .F. ) ;
#557 = PRESENTATION_STYLE_ASSIGNMENT (( #499 ) ) ;
#558 = STYLED_ITEM ( 'NONE', ( #606 ), #583 ) ;
#559 = VERTEX_POINT ( 'NONE', #599 ) ;
#560 = FILL_AREA_STYLE_COLOUR ( '', #1032 ) ;
#561 = CARTESIAN_POINT ( 'NONE',  ( 1.524999999999999911, -1.777500000000000080, -0.6850000000000000533 ) ) ;
#562 = VERTEX_POINT ( 'NONE', #283 ) ;
#563 = MECHANICAL_DESIGN_GEOMETRIC_PRESENTATION_REPRESENTATION (  '', ( #518 ), #55 ) ;
#564 = CARTESIAN_POINT ( 'NONE',  ( 1.524999999999999911, -1.777500000000000080, 0.6750000000000000444 ) ) ;
#565 = VECTOR ( 'NONE', #314, 1000.000000000000000 ) ;
#566 = ORIENTED_EDGE ( 'NONE', *, *, #902, .T. ) ;
#567 = UNCERTAINTY_MEASURE_WITH_UNIT (LENGTH_MEASURE( 1.000000000000000082E-05 ), #319, 'distance_accuracy_value', 'NONE');
#568 = LINE ( 'NONE', #247, #826 ) ;
#569 = EDGE_LOOP ( 'NONE', ( #300, #1017, #244, #762 ) ) ;
#570 = SURFACE_STYLE_USAGE ( .BOTH. , #329 ) ;
#571 = CYLINDRICAL_SURFACE ( 'NONE', #662, 0.4051639876801579887 ) ;
#572 = AXIS2_PLACEMENT_3D ( 'NONE', #346, #726, #722 ) ;
#573 =( NAMED_UNIT ( * ) SI_UNIT ( $, .STERADIAN. ) SOLID_ANGLE_UNIT ( ) );
#574 = UNCERTAINTY_MEASURE_WITH_UNIT (LENGTH_MEASURE( 1.000000000000000082E-05 ), #813, 'distance_accuracy_value', 'NONE');
#575 =( LENGTH_UNIT ( ) NAMED_UNIT ( * ) SI_UNIT ( .MILLI., .METRE. ) );
#576 = CARTESIAN_POINT ( 'NONE',  ( 0.000000000000000000, -1.777500000000000080, 0.6750000000000000444 ) ) ;
#577 =( NAMED_UNIT ( * ) PLANE_ANGLE_UNIT ( ) SI_UNIT ( $, .RADIAN. ) );
#578 = FACE_OUTER_BOUND ( 'NONE', #710, .T. ) ;
#579 = MANIFOLD_SOLID_BREP ( 'Split2[3]', #369 ) ;
#580 = VECTOR ( 'NONE', #371, 1000.000000000000000 ) ;
#581 = EDGE_CURVE ( 'NONE', #307, #491, #70, .T. ) ;
#582 = PLANE ( 'NONE',  #424 ) ;
#583 = MANIFOLD_SOLID_BREP ( 'Split2[2]', #421 ) ;
#584 = SURFACE_SIDE_STYLE ('',( #493 ) ) ;
#585 = FACE_OUTER_BOUND ( 'NONE', #373, .T. ) ;
#586 = FILL_AREA_STYLE_COLOUR ( '', #773 ) ;
#587 =( NAMED_UNIT ( * ) SI_UNIT ( $, .STERADIAN. ) SOLID_ANGLE_UNIT ( ) );
#588 = AXIS2_PLACEMENT_3D ( 'NONE', #431, #671, #259 ) ;
#589 = FILL_AREA_STYLE ('',( #586 ) ) ;
#590 = PRESENTATION_LAYER_ASSIGNMENT (  '', '', ( #512 ) ) ;
#591 = VERTEX_POINT ( 'NONE', #524 ) ;
#592 = UNCERTAINTY_MEASURE_WITH_UNIT (LENGTH_MEASURE( 1.000000000000000082E-05 ), #804, 'distance_accuracy_value', 'NONE');
#593 = AXIS2_PLACEMENT_3D ( 'NONE', #676, #829, #604 ) ;
#594 = VECTOR ( 'NONE', #290, 1000.000000000000000 ) ;
#595 = PRODUCT ( 'SMD1812B050TF30', 'SMD1812B050TF30', '', ( #802 ) ) ;
#596 = ADVANCED_FACE ( 'NONE', ( #196 ), #368, .T. ) ;
#597 = SURFACE_SIDE_STYLE ('',( #993 ) ) ;
#598 = STYLED_ITEM ( 'NONE', ( #557 ), #917 ) ;
#599 = CARTESIAN_POINT ( 'NONE',  ( 1.524999999999999689, 1.777500000000000080, 0.6750000000000000444 ) ) ;
#600 = DIRECTION ( 'NONE',  ( 3.160165331966280166E-16, -1.000000000000000000, 0.000000000000000000 ) ) ;
#601 = PRODUCT_DEFINITION ( 'UNKNOWN', '', #668, #298 ) ;
#602 = CARTESIAN_POINT ( 'NONE',  ( 1.524999999999999689, 1.777500000000000080, 0.6750000000000000444 ) ) ;
#603 = COLOUR_RGB ( '',0.7529411764705882248, 0.7529411764705882248, 0.7529411764705882248 ) ;
#604 = DIRECTION ( 'NONE',  ( 1.000000000000000000, 0.000000000000000000, 0.000000000000000000 ) ) ;
#605 = VECTOR ( 'NONE', #793, 1000.000000000000000 ) ;
#606 = PRESENTATION_STYLE_ASSIGNMENT (( #448 ) ) ;
#607 = PRESENTATION_LAYER_ASSIGNMENT (  '', '', ( #969 ) ) ;
#608 = DIRECTION ( 'NONE',  ( 1.000000000000000000, -4.765723835101117484E-17, 0.000000000000000000 ) ) ;
#609 = LINE ( 'NONE', #929, #407 ) ;
#610 = CARTESIAN_POINT ( 'NONE',  ( -2.274999999999999911, 0.4051639876801584883, -0.6750000000000000444 ) ) ;
#611 = UNCERTAINTY_MEASURE_WITH_UNIT (LENGTH_MEASURE( 1.000000000000000082E-05 ), #911, 'distance_accuracy_value', 'NONE');
#612 = CARTESIAN_POINT ( 'NONE',  ( 0.000000000000000000, -1.777500000000000080, 0.6750000000000000444 ) ) ;
#613 = VERTEX_POINT ( 'NONE', #537 ) ;
#614 = FILL_AREA_STYLE ('',( #135 ) ) ;
#615 =( LENGTH_UNIT ( ) NAMED_UNIT ( * ) SI_UNIT ( .MILLI., .METRE. ) );
#616 =( LENGTH_UNIT ( ) NAMED_UNIT ( * ) SI_UNIT ( .MILLI., .METRE. ) );
#617 = ORIENTED_EDGE ( 'NONE', *, *, #999, .F. ) ;
#618 = CARTESIAN_POINT ( 'NONE',  ( 2.274999999999999911, -8.673617379884035472E-16, -0.6750000000000000444 ) ) ;
#619 = EDGE_CURVE ( 'NONE', #1022, #2, #378, .T. ) ;
#620 = CARTESIAN_POINT ( 'NONE',  ( 0.000000000000000000, -1.777500000000000080, 0.6750000000000000444 ) ) ;
#621 = ORIENTED_EDGE ( 'NONE', *, *, #848, .T. ) ;
#622 = SURFACE_SIDE_STYLE ('',( #961 ) ) ;
#623 = VECTOR ( 'NONE', #452, 1000.000000000000000 ) ;
#624 = CARTESIAN_POINT ( 'NONE',  ( -1.524999999999999911, 9.301875178848913372E-17, -0.6750000000000000444 ) ) ;
#625 = ORIENTED_EDGE ( 'NONE', *, *, #787, .F. ) ;
#626 = UNCERTAINTY_MEASURE_WITH_UNIT (LENGTH_MEASURE( 1.000000000000000082E-05 ), #152, 'distance_accuracy_value', 'NONE');
#627 = DIRECTION ( 'NONE',  ( 0.000000000000000000, 1.000000000000000000, 0.000000000000000000 ) ) ;
#628 = SURFACE_SIDE_STYLE ('',( #878 ) ) ;
#629 = VERTEX_POINT ( 'NONE', #63 ) ;
#630 = ORIENTED_EDGE ( 'NONE', *, *, #408, .T. ) ;
#631 = LINE ( 'NONE', #154, #674 ) ;
#632 = DIRECTION ( 'NONE',  ( -0.000000000000000000, -0.000000000000000000, -1.000000000000000000 ) ) ;
#633 =( NAMED_UNIT ( * ) SI_UNIT ( $, .STERADIAN. ) SOLID_ANGLE_UNIT ( ) );
#634 = PRESENTATION_LAYER_ASSIGNMENT (  '', '', ( #816 ) ) ;
#635 =( GEOMETRIC_REPRESENTATION_CONTEXT ( 3 ) GLOBAL_UNCERTAINTY_ASSIGNED_CONTEXT ( ( #626 ) ) GLOBAL_UNIT_ASSIGNED_CONTEXT ( ( #152, #1023, #318 ) ) REPRESENTATION_CONTEXT ( 'NONE', 'WORKASPACE' ) );
#636 = ORIENTED_EDGE ( 'NONE', *, *, #317, .F. ) ;
#637 = ORIENTED_EDGE ( 'NONE', *, *, #692, .F. ) ;
#638 = FACE_OUTER_BOUND ( 'NONE', #481, .T. ) ;
#639 = EDGE_CURVE ( 'NONE', #672, #943, #760, .T. ) ;
#640 = FILL_AREA_STYLE_COLOUR ( '', #511 ) ;
#641 = VERTEX_POINT ( 'NONE', #229 ) ;
#642 = VECTOR ( 'NONE', #23, 1000.000000000000000 ) ;
#643 = FILL_AREA_STYLE_COLOUR ( '', #1009 ) ;
#644 = PRESENTATION_LAYER_ASSIGNMENT (  '', '', ( #289 ) ) ;
#645 = ORIENTED_EDGE ( 'NONE', *, *, #395, .F. ) ;
#646 = CARTESIAN_POINT ( 'NONE',  ( 1.524999999999999911, -1.777500000000000080, -0.6850000000000000533 ) ) ;
#647 = PLANE ( 'NONE',  #495 ) ;
#648 = DIRECTION ( 'NONE',  ( 0.000000000000000000, -0.000000000000000000, -1.000000000000000000 ) ) ;
#649 = SURFACE_SIDE_STYLE ('',( #978 ) ) ;
#650 = ORIENTED_EDGE ( 'NONE', *, *, #445, .F. ) ;
#651 = LINE ( 'NONE', #576, #47 ) ;
#652 = PRESENTATION_STYLE_ASSIGNMENT (( #415 ) ) ;
#653 =( GEOMETRIC_REPRESENTATION_CONTEXT ( 3 ) GLOBAL_UNCERTAINTY_ASSIGNED_CONTEXT ( ( #611 ) ) GLOBAL_UNIT_ASSIGNED_CONTEXT ( ( #911, #98, #195 ) ) REPRESENTATION_CONTEXT ( 'NONE', 'WORKASPACE' ) );
#654 = CARTESIAN_POINT ( 'NONE',  ( -2.275000000000000355, 1.777500000000000080, 0.6750000000000000444 ) ) ;
#655 = VECTOR ( 'NONE', #507, 1000.000000000000000 ) ;
#656 = ADVANCED_FACE ( 'NONE', ( #849 ), #56, .F. ) ;
#657 = COLOUR_RGB ( '',0.7529411764705882248, 0.7529411764705882248, 0.7529411764705882248 ) ;
#658 = CARTESIAN_POINT ( 'NONE',  ( 0.000000000000000000, -1.777500000000000080, -0.6750000000000000444 ) ) ;
#659 = CARTESIAN_POINT ( 'NONE',  ( -2.275000000000000355, 1.777500000000000080, -0.6750000000000000444 ) ) ;
#660 = EDGE_LOOP ( 'NONE', ( #69, #712, #245, #566 ) ) ;
#661 = SURFACE_STYLE_FILL_AREA ( #807 ) ;
#662 = AXIS2_PLACEMENT_3D ( 'NONE', #973, #179, #333 ) ;
#663 = VECTOR ( 'NONE', #67, 1000.000000000000000 ) ;
#664 = PRESENTATION_STYLE_ASSIGNMENT (( #570 ) ) ;
#665 = DIRECTION ( 'NONE',  ( 0.000000000000000000, 0.000000000000000000, 1.000000000000000000 ) ) ;
#666 = VERTEX_POINT ( 'NONE', #78 ) ;
#667 = FILL_AREA_STYLE_COLOUR ( '', #754 ) ;
#668 = PRODUCT_DEFINITION_FORMATION_WITH_SPECIFIED_SOURCE ( 'ANY', '', #595, .NOT_KNOWN. ) ;
#669 = MECHANICAL_DESIGN_GEOMETRIC_PRESENTATION_REPRESENTATION (  '', ( #863 ), #220 ) ;
#670 =( NAMED_UNIT ( * ) SI_UNIT ( $, .STERADIAN. ) SOLID_ANGLE_UNIT ( ) );
#671 = DIRECTION ( 'NONE',  ( 1.000000000000000000, -3.160165331966283618E-16, 0.000000000000000000 ) ) ;
#672 = VERTEX_POINT ( 'NONE', #955 ) ;
#673 = COLOUR_RGB ( '',0.7529411764705882248, 0.7529411764705882248, 0.7529411764705882248 ) ;
#674 = VECTOR ( 'NONE', #489, 1000.000000000000000 ) ;
#675 = EDGE_CURVE ( 'NONE', #268, #685, #631, .T. ) ;
#676 = CARTESIAN_POINT ( 'NONE',  ( 2.274999999999999911, -8.673617379884035472E-16, 0.6750000000000000444 ) ) ;
#677 = CARTESIAN_POINT ( 'NONE',  ( 2.274999999999999911, -0.4051639876801593210, -0.6750000000000000444 ) ) ;
#678 = ADVANCED_FACE ( 'NONE', ( #224 ), #690, .T. ) ;
#679 = PLANE ( 'NONE',  #814 ) ;
#680 = MECHANICAL_DESIGN_GEOMETRIC_PRESENTATION_REPRESENTATION (  '', ( #404 ), #357 ) ;
#681 = SURFACE_STYLE_FILL_AREA ( #34 ) ;
#682 = VECTOR ( 'NONE', #101, 1000.000000000000000 ) ;
#683 = CARTESIAN_POINT ( 'NONE',  ( 2.274999999999999467, 1.777500000000000080, 0.6750000000000000444 ) ) ;
#684 = SURFACE_STYLE_USAGE ( .BOTH. , #127 ) ;
#685 = VERTEX_POINT ( 'NONE', #1018 ) ;
#686 = FACE_OUTER_BOUND ( 'NONE', #505, .T. ) ;
#687 =( NAMED_UNIT ( * ) PLANE_ANGLE_UNIT ( ) SI_UNIT ( $, .RADIAN. ) );
#688 =( NAMED_UNIT ( * ) SI_UNIT ( $, .STERADIAN. ) SOLID_ANGLE_UNIT ( ) );
#689 =( NAMED_UNIT ( * ) SI_UNIT ( $, .STERADIAN. ) SOLID_ANGLE_UNIT ( ) );
#690 = PLANE ( 'NONE',  #257 ) ;
#691 = ORIENTED_EDGE ( 'NONE', *, *, #999, .T. ) ;
#692 = EDGE_CURVE ( 'NONE', #307, #850, #554, .T. ) ;
#693 = CARTESIAN_POINT ( 'NONE',  ( 8.471074116892236965E-17, 1.777500000000000080, -0.6750000000000000444 ) ) ;
#694 = VERTEX_POINT ( 'NONE', #125 ) ;
#695 = MECHANICAL_DESIGN_GEOMETRIC_PRESENTATION_REPRESENTATION (  '', ( #118 ), #653 ) ;
#696 = COLOUR_RGB ( '',0.7529411764705882248, 0.7529411764705882248, 0.7529411764705882248 ) ;
#697 = FILL_AREA_STYLE_COLOUR ( '', #71 ) ;
#698 =( GEOMETRIC_REPRESENTATION_CONTEXT ( 3 ) GLOBAL_UNCERTAINTY_ASSIGNED_CONTEXT ( ( #234 ) ) GLOBAL_UNIT_ASSIGNED_CONTEXT ( ( #472, #768, #8 ) ) REPRESENTATION_CONTEXT ( 'NONE', 'WORKASPACE' ) );
#699 = LINE ( 'NONE', #838, #931 ) ;
#700 = EDGE_CURVE ( 'NONE', #717, #315, #1026, .T. ) ;
#701 = CARTESIAN_POINT ( 'NONE',  ( -1.524999999999999911, 1.777500000000000080, 0.6750000000000000444 ) ) ;
#702 = ORIENTED_EDGE ( 'NONE', *, *, #819, .F. ) ;
#703 = FILL_AREA_STYLE ('',( #871 ) ) ;
#704 = STYLED_ITEM ( 'NONE', ( #888 ), #927 ) ;
#705 = VECTOR ( 'NONE', #608, 1000.000000000000000 ) ;
#706 = PLANE ( 'NONE',  #1021 ) ;
#707 = UNCERTAINTY_MEASURE_WITH_UNIT (LENGTH_MEASURE( 1.000000000000000082E-05 ), #453, 'distance_accuracy_value', 'NONE');
#708 = SURFACE_SIDE_STYLE ('',( #379 ) ) ;
#709 = SURFACE_SIDE_STYLE ('',( #544 ) ) ;
#710 = EDGE_LOOP ( 'NONE', ( #433, #413, #496, #1014 ) ) ;
#711 = ADVANCED_FACE ( 'NONE', ( #638 ), #168, .F. ) ;
#712 = ORIENTED_EDGE ( 'NONE', *, *, #581, .F. ) ;
#713 = PRESENTATION_LAYER_ASSIGNMENT (  '', '', ( #118 ) ) ;
#714 = ORIENTED_EDGE ( 'NONE', *, *, #519, .F. ) ;
#715 =( NAMED_UNIT ( * ) SI_UNIT ( $, .STERADIAN. ) SOLID_ANGLE_UNIT ( ) );
#716 = MECHANICAL_DESIGN_GEOMETRIC_PRESENTATION_REPRESENTATION (  '', ( #777 ), #827 ) ;
#717 = VERTEX_POINT ( 'NONE', #285 ) ;
#718 = DIRECTION ( 'NONE',  ( 4.765723835101118100E-17, 1.000000000000000000, -0.000000000000000000 ) ) ;
#719 = SURFACE_SIDE_STYLE ('',( #256 ) ) ;
#720 = LINE ( 'NONE', #411, #264 ) ;
#721 = FACE_OUTER_BOUND ( 'NONE', #171, .T. ) ;
#722 = DIRECTION ( 'NONE',  ( 1.000000000000000000, 0.000000000000000000, 0.000000000000000000 ) ) ;
#723 = CARTESIAN_POINT ( 'NONE',  ( 1.869836012319841867, -8.673617379884035472E-16, 0.6750000000000000444 ) ) ;
#724 =( LENGTH_UNIT ( ) NAMED_UNIT ( * ) SI_UNIT ( .MILLI., .METRE. ) );
#725 = EDGE_CURVE ( 'NONE', #562, #172, #206, .T. ) ;
#726 = DIRECTION ( 'NONE',  ( -0.000000000000000000, 0.000000000000000000, 1.000000000000000000 ) ) ;
#727 = FACE_OUTER_BOUND ( 'NONE', #818, .T. ) ;
#728 =( NAMED_UNIT ( * ) SI_UNIT ( $, .STERADIAN. ) SOLID_ANGLE_UNIT ( ) );
#729 = VERTEX_POINT ( 'NONE', #921 ) ;
#730 = CARTESIAN_POINT ( 'NONE',  ( 1.524999999999999911, 9.301875178848913372E-17, 0.6750000000000000444 ) ) ;
#731 = SURFACE_STYLE_FILL_AREA ( #198 ) ;
#732 =( NAMED_UNIT ( * ) SI_UNIT ( $, .STERADIAN. ) SOLID_ANGLE_UNIT ( ) );
#733 =( NAMED_UNIT ( * ) PLANE_ANGLE_UNIT ( ) SI_UNIT ( $, .RADIAN. ) );
#734 = PRESENTATION_LAYER_ASSIGNMENT (  '', '', ( #704 ) ) ;
#735 =( NAMED_UNIT ( * ) SI_UNIT ( $, .STERADIAN. ) SOLID_ANGLE_UNIT ( ) );
#736 = SURFACE_STYLE_FILL_AREA ( #91 ) ;
#737 = VECTOR ( 'NONE', #857, 1000.000000000000000 ) ;
#738 = COLOUR_RGB ( '',0.7529411764705882248, 0.7529411764705882248, 0.7529411764705882248 ) ;
#739 =( NAMED_UNIT ( * ) SI_UNIT ( $, .STERADIAN. ) SOLID_ANGLE_UNIT ( ) );
#740 = CARTESIAN_POINT ( 'NONE',  ( 0.000000000000000000, -1.777500000000000080, 0.6750000000000000444 ) ) ;
#741 = PLANE ( 'NONE',  #338 ) ;
#742 = FILL_AREA_STYLE_COLOUR ( '', #657 ) ;
#743 = APPLICATION_CONTEXT ( 'automotive_design' ) ;
#744 = PRESENTATION_LAYER_ASSIGNMENT (  '', '', ( #523 ) ) ;
#745 = CARTESIAN_POINT ( 'NONE',  ( 2.274999999999999911, 7.189376130223288056E-16, 0.6750000000000000444 ) ) ;
#746 = VECTOR ( 'NONE', #323, 1000.000000000000000 ) ;
#747 = DIRECTION ( 'NONE',  ( 0.000000000000000000, -0.000000000000000000, 1.000000000000000000 ) ) ;
#748 =( NAMED_UNIT ( * ) PLANE_ANGLE_UNIT ( ) SI_UNIT ( $, .RADIAN. ) );
#749 = COLOUR_RGB ( '',0.000000000000000000, 0.000000000000000000, 0.000000000000000000 ) ;
#750 = EDGE_CURVE ( 'NONE', #591, #613, #343, .T. ) ;
#751 = DIRECTION ( 'NONE',  ( -6.099590281212402474E-17, 1.000000000000000000, 0.000000000000000000 ) ) ;
#752 = LINE ( 'NONE', #216, #526 ) ;
#753 = SURFACE_STYLE_USAGE ( .BOTH. , #132 ) ;
#754 = COLOUR_RGB ( '',0.7529411764705882248, 0.7529411764705882248, 0.7529411764705882248 ) ;
#755 = VECTOR ( 'NONE', #246, 1000.000000000000000 ) ;
#756 = EDGE_LOOP ( 'NONE', ( #958, #899, #166, #991 ) ) ;
#757 = DIRECTION ( 'NONE',  ( -0.000000000000000000, -0.000000000000000000, -1.000000000000000000 ) ) ;
#758 = LINE ( 'NONE', #461, #22 ) ;
#759 = EDGE_CURVE ( 'NONE', #425, #717, #469, .T. ) ;
#760 = LINE ( 'NONE', #471, #478 ) ;
#761 =( GEOMETRIC_REPRESENTATION_CONTEXT ( 3 ) GLOBAL_UNCERTAINTY_ASSIGNED_CONTEXT ( ( #393 ) ) GLOBAL_UNIT_ASSIGNED_CONTEXT ( ( #403, #780, #248 ) ) REPRESENTATION_CONTEXT ( 'NONE', 'WORKASPACE' ) );
#762 = ORIENTED_EDGE ( 'NONE', *, *, #953, .F. ) ;
#763 = CARTESIAN_POINT ( 'NONE',  ( 1.524999999999999911, -1.777500000000000080, 0.6750000000000000444 ) ) ;
#764 = CIRCLE ( 'NONE', #1011, 0.4051639876801582107 ) ;
#765 = LINE ( 'NONE', #232, #580 ) ;
#766 = UNCERTAINTY_MEASURE_WITH_UNIT (LENGTH_MEASURE( 1.000000000000000082E-05 ), #99, 'distance_accuracy_value', 'NONE');
#767 = SURFACE_STYLE_USAGE ( .BOTH. , #293 ) ;
#768 =( NAMED_UNIT ( * ) PLANE_ANGLE_UNIT ( ) SI_UNIT ( $, .RADIAN. ) );
#769 = FILL_AREA_STYLE ('',( #560 ) ) ;
#770 = PRODUCT_RELATED_PRODUCT_CATEGORY ( 'part', '', ( #595 ) ) ;
#771 = FILL_AREA_STYLE_COLOUR ( '', #484 ) ;
#772 = VERTEX_POINT ( 'NONE', #212 ) ;
#773 = COLOUR_RGB ( '',0.000000000000000000, 0.000000000000000000, 0.000000000000000000 ) ;
#774 = UNCERTAINTY_MEASURE_WITH_UNIT (LENGTH_MEASURE( 1.000000000000000082E-05 ), #270, 'distance_accuracy_value', 'NONE');
#775 =( GEOMETRIC_REPRESENTATION_CONTEXT ( 3 ) GLOBAL_UNCERTAINTY_ASSIGNED_CONTEXT ( ( #161 ) ) GLOBAL_UNIT_ASSIGNED_CONTEXT ( ( #418, #501, #587 ) ) REPRESENTATION_CONTEXT ( 'NONE', 'WORKASPACE' ) );
#776 = CARTESIAN_POINT ( 'NONE',  ( 2.274999999999999911, -1.777500000000000080, 0.6750000000000000444 ) ) ;
#777 = STYLED_ITEM ( 'NONE', ( #664 ), #556 ) ;
#778 = AXIS2_PLACEMENT_3D ( 'NONE', #68, #847, #297 ) ;
#779 = LINE ( 'NONE', #296, #529 ) ;
#780 =( NAMED_UNIT ( * ) PLANE_ANGLE_UNIT ( ) SI_UNIT ( $, .RADIAN. ) );
#781 = ORIENTED_EDGE ( 'NONE', *, *, #532, .T. ) ;
#782 = UNCERTAINTY_MEASURE_WITH_UNIT (LENGTH_MEASURE( 1.000000000000000082E-05 ), #575, 'distance_accuracy_value', 'NONE');
#783 = FILL_AREA_STYLE ('',( #697 ) ) ;
#784 = SURFACE_STYLE_FILL_AREA ( #703 ) ;
#785 =( GEOMETRIC_REPRESENTATION_CONTEXT ( 3 ) GLOBAL_UNCERTAINTY_ASSIGNED_CONTEXT ( ( #977 ) ) GLOBAL_UNIT_ASSIGNED_CONTEXT ( ( #965, #397, #633 ) ) REPRESENTATION_CONTEXT ( 'NONE', 'WORKASPACE' ) );
#786 = VECTOR ( 'NONE', #555, 1000.000000000000000 ) ;
#787 = EDGE_CURVE ( 'NONE', #133, #172, #946, .T. ) ;
#788 = ORIENTED_EDGE ( 'NONE', *, *, #445, .T. ) ;
#789 = SURFACE_STYLE_USAGE ( .BOTH. , #622 ) ;
#790 = FILL_AREA_STYLE_COLOUR ( '', #53 ) ;
#791 = ORIENTED_EDGE ( 'NONE', *, *, #354, .F. ) ;
#792 = DIRECTION ( 'NONE',  ( -0.000000000000000000, -0.000000000000000000, -1.000000000000000000 ) ) ;
#793 = DIRECTION ( 'NONE',  ( 0.000000000000000000, 0.000000000000000000, 1.000000000000000000 ) ) ;
#794 = PRODUCT_DEFINITION_SHAPE ( 'NONE', 'NONE',  #601 ) ;
#795 = MECHANICAL_DESIGN_GEOMETRIC_PRESENTATION_REPRESENTATION (  '', ( #816 ), #137 ) ;
#796 = DIRECTION ( 'NONE',  ( 0.000000000000000000, -1.000000000000000000, 0.000000000000000000 ) ) ;
#797 = EDGE_CURVE ( 'NONE', #463, #968, #752, .T. ) ;
#798 = LINE ( 'NONE', #353, #963 ) ;
#799 = DIRECTION ( 'NONE',  ( 1.000000000000000000, 0.000000000000000000, 0.000000000000000000 ) ) ;
#800 = FILL_AREA_STYLE ('',( #643 ) ) ;
#801 =( GEOMETRIC_REPRESENTATION_CONTEXT ( 3 ) GLOBAL_UNCERTAINTY_ASSIGNED_CONTEXT ( ( #352 ) ) GLOBAL_UNIT_ASSIGNED_CONTEXT ( ( #148, #1033, #739 ) ) REPRESENTATION_CONTEXT ( 'NONE', 'WORKASPACE' ) );
#802 = PRODUCT_CONTEXT ( 'NONE', #516, 'mechanical' ) ;
#803 =( NAMED_UNIT ( * ) PLANE_ANGLE_UNIT ( ) SI_UNIT ( $, .RADIAN. ) );
#804 =( LENGTH_UNIT ( ) NAMED_UNIT ( * ) SI_UNIT ( .MILLI., .METRE. ) );
#805 = CARTESIAN_POINT ( 'NONE',  ( -2.275000000000000355, -1.777500000000000080, 0.6750000000000000444 ) ) ;
#806 = ORIENTED_EDGE ( 'NONE', *, *, #281, .T. ) ;
#807 = FILL_AREA_STYLE ('',( #790 ) ) ;
#808 = CARTESIAN_POINT ( 'NONE',  ( -1.524999999999999911, -1.777500000000000080, 0.6750000000000000444 ) ) ;
#809 = LINE ( 'NONE', #410, #119 ) ;
#810 = ORIENTED_EDGE ( 'NONE', *, *, #145, .T. ) ;
#811 = DIRECTION ( 'NONE',  ( 1.000000000000000000, 0.000000000000000000, 0.000000000000000000 ) ) ;
#812 = ORIENTED_EDGE ( 'NONE', *, *, #261, .T. ) ;
#813 =( LENGTH_UNIT ( ) NAMED_UNIT ( * ) SI_UNIT ( .MILLI., .METRE. ) );
#814 = AXIS2_PLACEMENT_3D ( 'NONE', #372, #217, #122 ) ;
#815 = MECHANICAL_DESIGN_GEOMETRIC_PRESENTATION_REPRESENTATION (  '', ( #512 ), #775 ) ;
#816 = STYLED_ITEM ( 'NONE', ( #201 ), #579 ) ;
#817 = SURFACE_SIDE_STYLE ('',( #731 ) ) ;
#818 = EDGE_LOOP ( 'NONE', ( #812, #621, #974, #636 ) ) ;
#819 = EDGE_CURVE ( 'NONE', #559, #351, #530, .T. ) ;
#820 = AXIS2_PLACEMENT_3D ( 'NONE', #904, #16, #992 ) ;
#821 = VERTEX_POINT ( 'NONE', #366 ) ;
#822 = CARTESIAN_POINT ( 'NONE',  ( 0.000000000000000000, 0.000000000000000000, 0.000000000000000000 ) ) ;
#823 = VERTEX_POINT ( 'NONE', #602 ) ;
#824 = FILL_AREA_STYLE ('',( #114 ) ) ;
#825 = COLOUR_RGB ( '',0.7529411764705882248, 0.7529411764705882248, 0.7529411764705882248 ) ;
#826 = VECTOR ( 'NONE', #970, 1000.000000000000000 ) ;
#827 =( GEOMETRIC_REPRESENTATION_CONTEXT ( 3 ) GLOBAL_UNCERTAINTY_ASSIGNED_CONTEXT ( ( #187 ) ) GLOBAL_UNIT_ASSIGNED_CONTEXT ( ( #514, #434, #207 ) ) REPRESENTATION_CONTEXT ( 'NONE', 'WORKASPACE' ) );
#828 =( NAMED_UNIT ( * ) PLANE_ANGLE_UNIT ( ) SI_UNIT ( $, .RADIAN. ) );
#829 = DIRECTION ( 'NONE',  ( 0.000000000000000000, -0.000000000000000000, -1.000000000000000000 ) ) ;
#830 = AXIS2_PLACEMENT_3D ( 'NONE', #150, #839, #383 ) ;
#831 = EDGE_CURVE ( 'NONE', #844, #823, #609, .T. ) ;
#832 = SURFACE_SIDE_STYLE ('',( #527 ) ) ;
#833 = PRESENTATION_STYLE_ASSIGNMENT (( #49 ) ) ;
#834 = COLOUR_RGB ( '',0.7529411764705882248, 0.7529411764705882248, 0.7529411764705882248 ) ;
#835 = DIRECTION ( 'NONE',  ( -6.099590281212402474E-17, -1.000000000000000000, 0.000000000000000000 ) ) ;
#836 = FACE_OUTER_BOUND ( 'NONE', #954, .T. ) ;
#837 =( NAMED_UNIT ( * ) SI_UNIT ( $, .STERADIAN. ) SOLID_ANGLE_UNIT ( ) );
#838 = CARTESIAN_POINT ( 'NONE',  ( 1.869836012319842089, -8.673617379884035472E-16, 0.6750000000000000444 ) ) ;
#839 = DIRECTION ( 'NONE',  ( -0.000000000000000000, 0.000000000000000000, 1.000000000000000000 ) ) ;
#840 = SURFACE_STYLE_FILL_AREA ( #292 ) ;
#841 = UNCERTAINTY_MEASURE_WITH_UNIT (LENGTH_MEASURE( 1.000000000000000082E-05 ), #37, 'distance_accuracy_value', 'NONE');
#842 = MECHANICAL_DESIGN_GEOMETRIC_PRESENTATION_REPRESENTATION (  '', ( #340 ), #456 ) ;
#843 = STYLED_ITEM ( 'NONE', ( #58 ), #711 ) ;
#844 = VERTEX_POINT ( 'NONE', #222 ) ;
#845 = ORIENTED_EDGE ( 'NONE', *, *, #354, .T. ) ;
#846 =( LENGTH_UNIT ( ) NAMED_UNIT ( * ) SI_UNIT ( .MILLI., .METRE. ) );
#847 = DIRECTION ( 'NONE',  ( -0.000000000000000000, 0.000000000000000000, 1.000000000000000000 ) ) ;
#848 = EDGE_CURVE ( 'NONE', #860, #685, #546, .T. ) ;
#849 = FACE_OUTER_BOUND ( 'NONE', #11, .T. ) ;
#850 = VERTEX_POINT ( 'NONE', #677 ) ;
#851 = LINE ( 'NONE', #236, #737 ) ;
#852 = LINE ( 'NONE', #476, #663 ) ;
#853 = PLANE ( 'NONE',  #987 ) ;
#854 = ORIENTED_EDGE ( 'NONE', *, *, #363, .F. ) ;
#855 = DIRECTION ( 'NONE',  ( 1.000000000000000000, 3.160165331966280659E-16, -0.000000000000000000 ) ) ;
#856 = DIRECTION ( 'NONE',  ( 1.000000000000000000, 0.000000000000000000, 0.000000000000000000 ) ) ;
#857 = DIRECTION ( 'NONE',  ( 3.160165331966283618E-16, -1.000000000000000000, 0.000000000000000000 ) ) ;
#858 = CARTESIAN_POINT ( 'NONE',  ( -2.274999999999999911, -7.189376130223295945E-16, 0.6750000000000000444 ) ) ;
#859 = FILL_AREA_STYLE ('',( #552 ) ) ;
#860 = VERTEX_POINT ( 'NONE', #701 ) ;
#861 = AXIS2_PLACEMENT_3D ( 'NONE', #194, #30, #360 ) ;
#862 = UNCERTAINTY_MEASURE_WITH_UNIT (LENGTH_MEASURE( 1.000000000000000082E-05 ), #615, 'distance_accuracy_value', 'NONE');
#863 = STYLED_ITEM ( 'NONE', ( #422 ), #96 ) ;
#864 = PRESENTATION_STYLE_ASSIGNMENT (( #308 ) ) ;
#865 =( GEOMETRIC_REPRESENTATION_CONTEXT ( 3 ) GLOBAL_UNCERTAINTY_ASSIGNED_CONTEXT ( ( #1031 ) ) GLOBAL_UNIT_ASSIGNED_CONTEXT ( ( #1004, #748, #689 ) ) REPRESENTATION_CONTEXT ( 'NONE', 'WORKASPACE' ) );
#866 = ADVANCED_FACE ( 'NONE', ( #43 ), #940, .T. ) ;
#867 = DIRECTION ( 'NONE',  ( 1.000000000000000000, 0.000000000000000000, 0.000000000000000000 ) ) ;
#868 = ORIENTED_EDGE ( 'NONE', *, *, #819, .T. ) ;
#869 = ORIENTED_EDGE ( 'NONE', *, *, #675, .T. ) ;
#870 = UNCERTAINTY_MEASURE_WITH_UNIT (LENGTH_MEASURE( 1.000000000000000082E-05 ), #139, 'distance_accuracy_value', 'NONE');
#871 = FILL_AREA_STYLE_COLOUR ( '', #435 ) ;
#872 =( GEOMETRIC_REPRESENTATION_CONTEXT ( 3 ) GLOBAL_UNCERTAINTY_ASSIGNED_CONTEXT ( ( #862 ) ) GLOBAL_UNIT_ASSIGNED_CONTEXT ( ( #615, #687, #459 ) ) REPRESENTATION_CONTEXT ( 'NONE', 'WORKASPACE' ) );
#873 =( GEOMETRIC_REPRESENTATION_CONTEXT ( 3 ) GLOBAL_UNCERTAINTY_ASSIGNED_CONTEXT ( ( #83 ) ) GLOBAL_UNIT_ASSIGNED_CONTEXT ( ( #846, #61, #382 ) ) REPRESENTATION_CONTEXT ( 'NONE', 'WORKASPACE' ) );
#874 = PRESENTATION_LAYER_ASSIGNMENT (  '', '', ( #326 ) ) ;
#875 = CARTESIAN_POINT ( 'NONE',  ( 2.274999999999999467, 1.777500000000000080, 0.6750000000000000444 ) ) ;
#876 = LINE ( 'NONE', #646, #239 ) ;
#877 = LINE ( 'NONE', #805, #655 ) ;
#878 = SURFACE_STYLE_FILL_AREA ( #800 ) ;
#879 = ADVANCED_FACE ( 'NONE', ( #542 ), #853, .T. ) ;
#880 = ORIENTED_EDGE ( 'NONE', *, *, #759, .T. ) ;
#881 = SURFACE_STYLE_USAGE ( .BOTH. , #255 ) ;
#882 = PRESENTATION_LAYER_ASSIGNMENT (  '', '', ( #474 ) ) ;
#883 = AXIS2_PLACEMENT_3D ( 'NONE', #72, #632, #1006 ) ;
#884 = CARTESIAN_POINT ( 'NONE',  ( 1.524999999999999689, 1.777500000000000080, -0.6850000000000000533 ) ) ;
#885 = EDGE_CURVE ( 'NONE', #694, #1022, #84, .T. ) ;
#886 = CARTESIAN_POINT ( 'NONE',  ( 8.471074116892236965E-17, 1.777500000000000080, 0.6750000000000000444 ) ) ;
#887 =( LENGTH_UNIT ( ) NAMED_UNIT ( * ) SI_UNIT ( .MILLI., .METRE. ) );
#888 = PRESENTATION_STYLE_ASSIGNMENT (( #258 ) ) ;
#889 = PRESENTATION_LAYER_ASSIGNMENT (  '', '', ( #518 ) ) ;
#890 = SURFACE_STYLE_FILL_AREA ( #188 ) ;
#891 = EDGE_LOOP ( 'NONE', ( #26, #880, #398, #21, #845, #617, #702 ) ) ;
#892 = VERTEX_POINT ( 'NONE', #477 ) ;
#893 = FILL_AREA_STYLE_COLOUR ( '', #673 ) ;
#894 = DIRECTION ( 'NONE',  ( -0.000000000000000000, 0.000000000000000000, 1.000000000000000000 ) ) ;
#895 = FACE_OUTER_BOUND ( 'NONE', #200, .T. ) ;
#896 = LINE ( 'NONE', #745, #134 ) ;
#897 = SURFACE_SIDE_STYLE ('',( #33 ) ) ;
#898 = LINE ( 'NONE', #983, #389 ) ;
#899 = ORIENTED_EDGE ( 'NONE', *, *, #905, .T. ) ;
#900 = DIRECTION ( 'NONE',  ( -1.000000000000000000, 0.000000000000000000, 0.000000000000000000 ) ) ;
#901 = ORIENTED_EDGE ( 'NONE', *, *, #953, .T. ) ;
#902 = EDGE_CURVE ( 'NONE', #850, #629, #1013, .T. ) ;
#903 = AXIS2_PLACEMENT_3D ( 'NONE', #740, #278, #440 ) ;
#904 = CARTESIAN_POINT ( 'NONE',  ( 0.000000000000000000, 0.000000000000000000, -0.6750000000000000444 ) ) ;
#905 = EDGE_CURVE ( 'NONE', #463, #2, #164, .T. ) ;
#906 = PLANE ( 'NONE',  #861 ) ;
#907 = MECHANICAL_DESIGN_GEOMETRIC_PRESENTATION_REPRESENTATION (  '', ( #843 ), #457 ) ;
#908 = CARTESIAN_POINT ( 'NONE',  ( 1.524999999999999689, 1.777500000000000080, -0.6850000000000000533 ) ) ;
#909 = FILL_AREA_STYLE ('',( #517 ) ) ;
#910 = PRESENTATION_LAYER_ASSIGNMENT (  '', '', ( #210 ) ) ;
#911 =( LENGTH_UNIT ( ) NAMED_UNIT ( * ) SI_UNIT ( .MILLI., .METRE. ) );
#912 =( NAMED_UNIT ( * ) PLANE_ANGLE_UNIT ( ) SI_UNIT ( $, .RADIAN. ) );
#913 = MECHANICAL_DESIGN_GEOMETRIC_PRESENTATION_REPRESENTATION (  '', ( #289 ), #801 ) ;
#914 = ORIENTED_EDGE ( 'NONE', *, *, #252, .F. ) ;
#915 = SURFACE_SIDE_STYLE ('',( #1002 ) ) ;
#916 = FILL_AREA_STYLE_COLOUR ( '', #454 ) ;
#917 = ADVANCED_FACE ( 'NONE', ( #721 ), #571, .F. ) ;
#918 = PRESENTATION_STYLE_ASSIGNMENT (( #684 ) ) ;
#919 =( GEOMETRIC_REPRESENTATION_CONTEXT ( 3 ) GLOBAL_UNCERTAINTY_ASSIGNED_CONTEXT ( ( #153 ) ) GLOBAL_UNIT_ASSIGNED_CONTEXT ( ( #32, #120, #735 ) ) REPRESENTATION_CONTEXT ( 'NONE', 'WORKASPACE' ) );
#920 =( GEOMETRIC_REPRESENTATION_CONTEXT ( 3 ) GLOBAL_UNCERTAINTY_ASSIGNED_CONTEXT ( ( #240 ) ) GLOBAL_UNIT_ASSIGNED_CONTEXT ( ( #724, #336, #102 ) ) REPRESENTATION_CONTEXT ( 'NONE', 'WORKASPACE' ) );
#921 = CARTESIAN_POINT ( 'NONE',  ( 2.274999999999999911, 0.4051639876801567119, -0.6750000000000000444 ) ) ;
#922 = PRESENTATION_LAYER_ASSIGNMENT (  '', '', ( #204 ) ) ;
#923 = MANIFOLD_SOLID_BREP ( 'Split2[1]', #959 ) ;
#924 = SURFACE_STYLE_FILL_AREA ( #38 ) ;
#925 =( NAMED_UNIT ( * ) PLANE_ANGLE_UNIT ( ) SI_UNIT ( $, .RADIAN. ) );
#926 = VECTOR ( 'NONE', #534, 1000.000000000000000 ) ;
#927 = ADVANCED_FACE ( 'NONE', ( #895 ), #429, .F. ) ;
#928 = ADVANCED_BREP_SHAPE_REPRESENTATION ( 'SMD1812B050TF30', ( #923, #583, #579, #157 ), #85 ) ;
#929 = CARTESIAN_POINT ( 'NONE',  ( 8.471074116892236965E-17, 1.777500000000000080, 0.6750000000000000444 ) ) ;
#930 = PLANE ( 'NONE',  #40 ) ;
#931 = VECTOR ( 'NONE', #757, 1000.000000000000000 ) ;
#932 =( LENGTH_UNIT ( ) NAMED_UNIT ( * ) SI_UNIT ( .MILLI., .METRE. ) );
#933 = DIRECTION ( 'NONE',  ( 0.000000000000000000, 0.000000000000000000, 1.000000000000000000 ) ) ;
#934 = CARTESIAN_POINT ( 'NONE',  ( -1.524999999999999689, 1.777500000000000080, -0.6850000000000000533 ) ) ;
#935 = SURFACE_STYLE_FILL_AREA ( #223 ) ;
#936 = ORIENTED_EDGE ( 'NONE', *, *, #939, .F. ) ;
#937 =( NAMED_UNIT ( * ) PLANE_ANGLE_UNIT ( ) SI_UNIT ( $, .RADIAN. ) );
#938 = SURFACE_STYLE_FILL_AREA ( #614 ) ;
#939 = EDGE_CURVE ( 'NONE', #666, #133, #269, .T. ) ;
#940 = PLANE ( 'NONE',  #374 ) ;
#941 = DIRECTION ( 'NONE',  ( 1.000000000000000000, 0.000000000000000000, 0.000000000000000000 ) ) ;
#942 = COLOUR_RGB ( '',0.7529411764705882248, 0.7529411764705882248, 0.7529411764705882248 ) ;
#943 = VERTEX_POINT ( 'NONE', #503 ) ;
#944 =( NAMED_UNIT ( * ) SI_UNIT ( $, .STERADIAN. ) SOLID_ANGLE_UNIT ( ) );
#945 = SURFACE_STYLE_USAGE ( .BOTH. , #155 ) ;
#946 = LINE ( 'NONE', #130, #982 ) ;
#947 = ORIENTED_EDGE ( 'NONE', *, *, #787, .T. ) ;
#948 =( GEOMETRIC_REPRESENTATION_CONTEXT ( 3 ) GLOBAL_UNCERTAINTY_ASSIGNED_CONTEXT ( ( #488 ) ) GLOBAL_UNIT_ASSIGNED_CONTEXT ( ( #377, #203, #688 ) ) REPRESENTATION_CONTEXT ( 'NONE', 'WORKASPACE' ) );
#949 = CARTESIAN_POINT ( 'NONE',  ( 0.000000000000000000, 0.000000000000000000, 0.6750000000000000444 ) ) ;
#950 = VECTOR ( 'NONE', #796, 1000.000000000000000 ) ;
#951 = CARTESIAN_POINT ( 'NONE',  ( -1.524999999999999911, 9.301875178848913372E-17, -0.6750000000000000444 ) ) ;
#952 = DIRECTION ( 'NONE',  ( 0.000000000000000000, 0.000000000000000000, 1.000000000000000000 ) ) ;
#953 = EDGE_CURVE ( 'NONE', #2, #823, #344, .T. ) ;
#954 = EDGE_LOOP ( 'NONE', ( #1019, #7, #868, #279 ) ) ;
#955 = CARTESIAN_POINT ( 'NONE',  ( 1.524999999999999911, -1.777500000000000080, -0.6750000000000000444 ) ) ;
#956 = PLANE ( 'NONE',  #449 ) ;
#957 = ORIENTED_EDGE ( 'NONE', *, *, #129, .F. ) ;
#958 = ORIENTED_EDGE ( 'NONE', *, *, #509, .T. ) ;
#959 = CLOSED_SHELL ( 'NONE', ( #556, #678, #927, #879, #656, #1012, #711, #295 ) ) ;
#960 = MECHANICAL_DESIGN_GEOMETRIC_PRESENTATION_REPRESENTATION (  '', ( #996 ), #948 ) ;
#961 = SURFACE_STYLE_FILL_AREA ( #783 ) ;
#962 = CARTESIAN_POINT ( 'NONE',  ( 1.524999999999999689, 1.777500000000000080, -0.6850000000000000533 ) ) ;
#963 = VECTOR ( 'NONE', #15, 1000.000000000000000 ) ;
#964 = VECTOR ( 'NONE', #835, 1000.000000000000000 ) ;
#965 =( LENGTH_UNIT ( ) NAMED_UNIT ( * ) SI_UNIT ( .MILLI., .METRE. ) );
#966 = ORIENTED_EDGE ( 'NONE', *, *, #332, .T. ) ;
#967 = EDGE_LOOP ( 'NONE', ( #18, #901, #402, #175 ) ) ;
#968 = VERTEX_POINT ( 'NONE', #265 ) ;
#969 = STYLED_ITEM ( 'NONE', ( #400 ), #923 ) ;
#970 = DIRECTION ( 'NONE',  ( -3.160165331966283618E-16, -1.000000000000000000, 0.000000000000000000 ) ) ;
#971 = ADVANCED_FACE ( 'NONE', ( #585 ), #906, .F. ) ;
#972 = AXIS2_PLACEMENT_3D ( 'NONE', #886, #718, #414 ) ;
#973 = CARTESIAN_POINT ( 'NONE',  ( 2.274999999999999911, -8.673617379884035472E-16, 0.6750000000000000444 ) ) ;
#974 = ORIENTED_EDGE ( 'NONE', *, *, #675, .F. ) ;
#975 = LINE ( 'NONE', #658, #682 ) ;
#976 = DIRECTION ( 'NONE',  ( 1.000000000000000000, 0.000000000000000000, 0.000000000000000000 ) ) ;
#977 = UNCERTAINTY_MEASURE_WITH_UNIT (LENGTH_MEASURE( 1.000000000000000082E-05 ), #965, 'distance_accuracy_value', 'NONE');
#978 = SURFACE_STYLE_FILL_AREA ( #316 ) ;
#979 = MECHANICAL_DESIGN_GEOMETRIC_PRESENTATION_REPRESENTATION (  '', ( #388 ), #20 ) ;
#980 = FACE_OUTER_BOUND ( 'NONE', #891, .T. ) ;
#981 = VECTOR ( 'NONE', #799, 1000.000000000000000 ) ;
#982 = VECTOR ( 'NONE', #143, 1000.000000000000000 ) ;
#983 = CARTESIAN_POINT ( 'NONE',  ( -2.274999999999999911, 0.4051639876801584883, 0.6750000000000000444 ) ) ;
#984 = LINE ( 'NONE', #492, #605 ) ;
#985 = FACE_OUTER_BOUND ( 'NONE', #1025, .T. ) ;
#986 = EDGE_LOOP ( 'NONE', ( #100, #854, #936, #502 ) ) ;
#987 = AXIS2_PLACEMENT_3D ( 'NONE', #412, #251, #174 ) ;
#988 = PRESENTATION_LAYER_ASSIGNMENT (  '', '', ( #183 ) ) ;
#989 = SURFACE_STYLE_USAGE ( .BOTH. , #649 ) ;
#990 = ADVANCED_FACE ( 'NONE', ( #364 ), #1003, .F. ) ;
#991 = ORIENTED_EDGE ( 'NONE', *, *, #885, .F. ) ;
#992 = DIRECTION ( 'NONE',  ( 1.000000000000000000, 0.000000000000000000, 0.000000000000000000 ) ) ;
#993 = SURFACE_STYLE_FILL_AREA ( #115 ) ;
#994 = ORIENTED_EDGE ( 'NONE', *, *, #241, .F. ) ;
#995 = PRESENTATION_LAYER_ASSIGNMENT (  '', '', ( #388 ) ) ;
#996 = STYLED_ITEM ( 'NONE', ( #918 ), #209 ) ;
#997 = ORIENTED_EDGE ( 'NONE', *, *, #473, .T. ) ;
#998 = CARTESIAN_POINT ( 'NONE',  ( -1.524999999999999689, 1.777500000000000080, -0.6850000000000000533 ) ) ;
#999 = EDGE_CURVE ( 'NONE', #351, #821, #896, .T. ) ;
#1000 = SURFACE_STYLE_USAGE ( .BOTH. , #597 ) ;
#1001 = DIRECTION ( 'NONE',  ( 0.000000000000000000, 0.000000000000000000, 1.000000000000000000 ) ) ;
#1002 = SURFACE_STYLE_FILL_AREA ( #824 ) ;
#1003 = PLANE ( 'NONE',  #903 ) ;
#1004 =( LENGTH_UNIT ( ) NAMED_UNIT ( * ) SI_UNIT ( .MILLI., .METRE. ) );
#1005 = COLOUR_RGB ( '',0.000000000000000000, 0.000000000000000000, 0.000000000000000000 ) ;
#1006 = DIRECTION ( 'NONE',  ( -1.000000000000000000, 0.000000000000000000, 0.000000000000000000 ) ) ;
#1007 = DIRECTION ( 'NONE',  ( -6.099590281212402474E-17, -1.000000000000000000, 0.000000000000000000 ) ) ;
#1008 = CARTESIAN_POINT ( 'NONE',  ( 2.274999999999999911, -8.673617379884035472E-16, 0.6750000000000000444 ) ) ;
#1009 = COLOUR_RGB ( '',0.7529411764705882248, 0.7529411764705882248, 0.7529411764705882248 ) ;
#1010 = FILL_AREA_STYLE_COLOUR ( '', #603 ) ;
#1011 = AXIS2_PLACEMENT_3D ( 'NONE', #618, #1020, #381 ) ;
#1012 = ADVANCED_FACE ( 'NONE', ( #578 ), #441, .F. ) ;
#1013 = CIRCLE ( 'NONE', #109, 0.4051639876801582107 ) ;
#1014 = ORIENTED_EDGE ( 'NONE', *, *, #241, .T. ) ;
#1015 = DIRECTION ( 'NONE',  ( 1.000000000000000000, 3.160165331966283618E-16, -0.000000000000000000 ) ) ;
#1016 = DIRECTION ( 'NONE',  ( -6.099590281212402474E-17, -1.000000000000000000, 0.000000000000000000 ) ) ;
#1017 = ORIENTED_EDGE ( 'NONE', *, *, #797, .T. ) ;
#1018 = CARTESIAN_POINT ( 'NONE',  ( -1.524999999999999911, -1.777500000000000080, 0.6750000000000000444 ) ) ;
#1019 = ORIENTED_EDGE ( 'NONE', *, *, #274, .F. ) ;
#1020 = DIRECTION ( 'NONE',  ( 0.000000000000000000, -0.000000000000000000, -1.000000000000000000 ) ) ;
#1021 = AXIS2_PLACEMENT_3D ( 'NONE', #908, #181, #95 ) ;
#1022 = VERTEX_POINT ( 'NONE', #808 ) ;
#1023 =( NAMED_UNIT ( * ) PLANE_ANGLE_UNIT ( ) SI_UNIT ( $, .RADIAN. ) );
#1024 = AXIS2_PLACEMENT_3D ( 'NONE', #549, #855, #385 ) ;
#1025 = EDGE_LOOP ( 'NONE', ( #186, #637, #630, #165 ) ) ;
#1026 = LINE ( 'NONE', #776, #755 ) ;
#1027 = LINE ( 'NONE', #693, #328 ) ;
#1028 = ADVANCED_FACE ( 'NONE', ( #417 ), #741, .T. ) ;
#1029 = DIRECTION ( 'NONE',  ( -3.160165331966283618E-16, 1.000000000000000000, 0.000000000000000000 ) ) ;
#1030 = LINE ( 'NONE', #249, #950 ) ;
#1031 = UNCERTAINTY_MEASURE_WITH_UNIT (LENGTH_MEASURE( 1.000000000000000082E-05 ), #1004, 'distance_accuracy_value', 'NONE');
#1032 = COLOUR_RGB ( '',0.000000000000000000, 0.000000000000000000, 0.000000000000000000 ) ;
#1033 =( NAMED_UNIT ( * ) PLANE_ANGLE_UNIT ( ) SI_UNIT ( $, .RADIAN. ) );
ENDSEC;
END-ISO-10303-21;
